<?xml version="1.0" encoding="UTF-8" standalone="no"?>
<!-- Created with Inkscape (http://www.inkscape.org/) -->

<svg
   width="200mm"
   height="200mm"
   viewBox="0 0 200 200"
   version="1.1"
   id="svg1"
   inkscape:version="1.3 (0e150ed6c4, 2023-07-21)"
   sodipodi:docname="icon.svg"
   inkscape:export-filename="Icon.png"
   inkscape:export-xdpi="96"
   inkscape:export-ydpi="96"
   xmlns:inkscape="http://www.inkscape.org/namespaces/inkscape"
   xmlns:sodipodi="http://sodipodi.sourceforge.net/DTD/sodipodi-0.dtd"
   xmlns="http://www.w3.org/2000/svg"
   xmlns:svg="http://www.w3.org/2000/svg">
  <sodipodi:namedview
     id="namedview1"
     pagecolor="#ffffff"
     bordercolor="#000000"
     borderopacity="0.25"
     inkscape:showpageshadow="2"
     inkscape:pageopacity="0.0"
     inkscape:pagecheckerboard="0"
     inkscape:deskcolor="#d1d1d1"
     inkscape:document-units="mm"
     showgrid="true"
     inkscape:zoom="1.0610059"
     inkscape:cx="378.41448"
     inkscape:cy="406.68954"
     inkscape:window-width="2560"
     inkscape:window-height="1387"
     inkscape:window-x="1912"
     inkscape:window-y="-8"
     inkscape:window-maximized="1"
     inkscape:current-layer="layer1">
    <inkscape:grid
       id="grid1"
       units="mm"
       originx="0"
       originy="0"
       spacingx="1"
       spacingy="1"
       empcolor="#0099e5"
       empopacity="0.30196078"
       color="#0099e5"
       opacity="0.14901961"
       empspacing="5"
       dotted="false"
       gridanglex="30"
       gridanglez="30"
       visible="true" />
  </sodipodi:namedview>
  <defs
     id="defs1">
    <inkscape:path-effect
       effect="fillet_chamfer"
       id="path-effect9"
       is_visible="true"
       lpeversion="1"
       nodesatellites_param="F,0,0,1,0,2.3221738,0,1 @ F,0,0,1,0,2.3221738,0,1 @ F,0,0,1,0,2.3221738,0,1 @ F,0,0,1,0,2.3221738,0,1 @ F,0,0,1,0,7.1185147,0,1 @ F,0,0,1,0,6.2828034,0,1 @ F,0,0,1,0,2.3221738,0,1"
       radius="0"
       unit="px"
       method="auto"
       mode="F"
       chamfer_steps="1"
       flexible="false"
       use_knot_distance="true"
       apply_no_radius="true"
       apply_with_radius="true"
       only_selected="false"
       hide_knots="false" />
    <inkscape:path-effect
       effect="fillet_chamfer"
       id="path-effect7"
       is_visible="true"
       lpeversion="1"
       nodesatellites_param="F,0,0,1,0,14.719652,0,1 @ F,0,0,1,0,4.8071958,0,1 @ F,0,0,1,0,8.865089,0,1 @ F,0,0,1,0,5.4571013,0,1"
       radius="0"
       unit="px"
       method="auto"
       mode="F"
       chamfer_steps="1"
       flexible="false"
       use_knot_distance="true"
       apply_no_radius="true"
       apply_with_radius="true"
       only_selected="false"
       hide_knots="false" />
    <inkscape:path-effect
       effect="fillet_chamfer"
       id="path-effect6"
       is_visible="true"
       lpeversion="1"
       nodesatellites_param="F,0,0,1,0,0,0,1 @ F,0,0,1,0,0,0,1 @ F,0,0,1,0,0,0,1 @ F,0,0,1,0,0,0,1 @ F,0,0,1,0,0,0,1 @ F,0,0,1,0,0,0,1 @ F,0,0,1,0,0,0,1 @ F,0,0,1,0,0.90075436,0,1 @ F,0,0,1,0,1.3415829,0,1 @ F,0,0,1,0,0,0,1 @ F,0,0,1,0,0,0,1 @ F,0,0,1,0,0,0,1 @ F,0,0,1,0,0,0,1 @ F,0,0,1,0,0,0,1 @ F,0,0,1,0,0,0,1 @ F,0,0,1,0,0,0,1 @ F,0,0,1,0,0,0,1 @ F,0,0,1,0,0,0,1 @ F,0,0,1,0,0,0,1 @ F,0,0,1,0,0,0,1 @ F,0,0,1,0,0.62659064,0,1 @ F,0,0,1,0,0,0,1 @ F,0,0,1,0,0,0,1 @ F,0,0,1,0,0,0,1 | F,0,0,1,0,0,0,1 @ F,0,0,1,0,0,0,1 @ F,0,0,1,0,0,0,1 @ F,0,0,1,0,0,0,1 @ F,0,0,1,0,0,0,1 @ F,0,0,1,0,0,0,1 @ F,0,0,1,0,0,0,1 @ F,0,0,1,0,0,0,1 @ F,0,0,1,0,0,0,1 @ F,0,0,1,0,0,0,1 @ F,0,0,1,0,0,0,1 @ F,0,0,1,0,0.63397813,0,1 @ F,0,0,1,0,0,0,1 @ F,0,0,1,0,0,0,1 @ F,0,0,1,0,0,0,1 @ F,0,0,1,0,0,0,1 @ F,0,0,1,0,0,0,1 @ F,0,0,1,0,0,0,1 @ F,0,0,1,0,0,0,1 @ F,0,0,1,0,0,0,1 @ F,0,0,1,0,0,0,1 @ F,0,0,1,0,0,0,1 @ F,0,0,1,0,0,0,1 @ F,0,0,1,0,0,0,1"
       radius="0"
       unit="px"
       method="auto"
       mode="F"
       chamfer_steps="1"
       flexible="false"
       use_knot_distance="true"
       apply_no_radius="true"
       apply_with_radius="true"
       only_selected="false"
       hide_knots="false" />
  </defs>
  <g
     inkscape:label="Livello 1"
     inkscape:groupmode="layer"
     id="layer1">
    <path
       id="path2"
       style="color:#000000;-inkscape-font-specification:Poppins;fill:#000000;fill-rule:evenodd;stroke-width:6.31017;stroke-linecap:round;stroke-linejoin:round;-inkscape-stroke:none;paint-order:stroke fill markers"
       inkscape:label="Cuore"
       d="m 61.026249,31.78514 c -4.695642,0 -9.235172,0.626275 -13.617773,1.878438 -4.330424,1.199997 -8.373495,2.89573 -12.130009,5.087028 -3.756514,2.191298 -7.200209,4.852032 -10.330636,7.982459 -3.130427,3.130433 -5.79116,6.574121 -7.982458,10.330635 -2.191298,3.756515 -3.913408,7.825962 -5.165576,12.208557 -1.199997,4.330423 -1.7998906,8.843583 -1.7998906,13.539226 0,6.834768 1.2783906,13.356527 3.8349076,19.565217 1.486756,3.58032 3.361821,6.93972 5.62498,10.07897 2.731245,3.78848 7.15412,8.80096 11.474752,12.42095 19.737821,16.53711 65.044608,41.67394 65.044608,41.67394 2.643051,1.6934 5.431646,1.74892 8.038266,0 0,0 50.85814,-27.51278 71.03494,-47.66118 4.69471,-4.6881 8.55652,-10.35618 11.11302,-16.51268 2.5565,-6.20869 3.83439,-12.730449 3.83439,-19.565217 0,-7.043464 -1.35647,-13.643833 -4.06952,-19.800342 -2.6608,-6.20868 -6.31298,-11.608746 -10.95643,-16.200045 -4.59134,-4.64347 -9.99136,-8.295575 -16.20005,-10.956437 -6.15651,-2.713041 -12.75636,-4.069519 -19.79982,-4.069519 -4.06955,0 -7.87842,0.417368 -11.42618,1.25212 -3.49571,0.782605 -6.83488,1.93068 -10.01748,3.443717 -3.18265,1.513044 -6.20839,3.391322 -9.078,5.634799 -1.8962,1.44803 -3.77123,3.032813 -5.62187,4.754231 -1.59874,1.487122 -4.064066,1.488632 -5.667358,0.0062 -1.863889,-1.723128 -3.761356,-3.311683 -5.69371,-4.760949 -2.869564,-2.243467 -5.8954,-4.121754 -9.077999,-5.634798 -3.130433,-1.513037 -6.469658,-2.660596 -10.017476,-3.4432 -3.495646,-0.834784 -7.278073,-1.25212 -11.347628,-1.25212 z m 0,11.269596 c 4.278251,0 8.060678,0.521787 11.347628,1.565279 3.286944,0.991301 6.313295,2.373645 9.078516,4.147551 2.765206,1.721733 5.399571,3.783091 7.90391,6.183085 2.504344,2.400001 5.086992,4.956265 7.747847,7.669299 l 0.06563,0.06873 c 1.562302,1.562313 4.09521,1.562313 5.65754,0 l 0.0682,-0.06873 c 2.66087,-2.713034 5.21711,-5.269298 7.6693,-7.669299 2.50431,-2.399994 5.13919,-4.461352 7.90442,-6.183085 2.81736,-1.773906 5.86958,-3.15625 9.15655,-4.147551 3.28697,-1.043473 7.0694,-1.565279 11.34763,-1.565279 5.47822,0 10.61766,1.043605 15.41766,3.130559 4.85221,2.086946 9.07829,4.930238 12.6783,8.530228 3.60002,3.599998 6.44326,7.826136 8.53023,12.678296 2.08696,4.799987 3.13056,9.939416 3.13056,15.417664 0,5.321724 -1.01724,10.408401 -3.05201,15.260567 -1.98259,4.8 -3.50351,12.14598 -8.60878,12.83488 -24.52909,3.30995 -12.30486,8.3954 -67.06929,-28.695411 -15.382217,8.851888 -15.384185,15.163517 -28.004494,6.831108 -10.438847,12.111533 -27.08158,23.483263 -41.677042,19.001423 -3.720792,-1.14255 -4.540053,-6.35093 -6.075082,-9.972 -1.982602,-4.852166 -2.973978,-9.938843 -2.973978,-15.260567 0,-5.478248 1.043605,-10.617677 3.130558,-15.417664 2.086953,-4.85216 4.930231,-9.078298 8.530229,-12.678296 3.599984,-3.59999 7.80027,-6.443282 12.600264,-8.530228 4.85216,-2.086954 10.017448,-3.130559 15.495695,-3.130559 z m -18.501196,77.447984 52.949223,31.4477 c 1.375188,0.92674 2.961591,1.39541 4.550784,1.4045 1.58032,0.009 3.16339,-0.4364 4.54427,-1.3378 l 46.77802,-25.31991 c 0.30952,-0.20725 0.62754,0.24761 0.3266,0.46715 l -47.82551,31.29733 c -2.27642,1.70422 -5.408109,1.68796 -7.666714,-0.0398 l -54.17137,-37.20186 c -0.451515,-0.34729 0.04111,-1.03381 0.514697,-0.71727 z"
       sodipodi:nodetypes="scssscsccassacscccscscsccccscccscccccccscscscsccacscscscccscccccccc" />
  </g>
</svg>
