0
SECTION
2
HEADER
9
$INSUNITS
70
4
0
ENDSEC
0
SECTION
2
TABLES
0
TABLE
2
LTYPE
0
LTYPE
72
65
70
64
2
CONTINUOUS
3
______
73
0
40
0
0
ENDTAB
0
TABLE
2
LAYER
0
ENDTAB
0
ENDSEC
0
SECTION
2
ENTITIES
0
LINE
8
0
10
70.6729901
20
-21.5551174
11
83.3889089
21
-24.2579694
0
LINE
8
0
10
67.7622265
20
-35.2491838
11
80.4781453
21
-37.9520358
0
LINE
8
0
10
70.0799605
20
-21.9402354
11
67.3771085
21
-34.6561542
0
LINE
8
0
10
83.7740269
20
-24.850999
11
81.0711749
21
-37.5669178
0
ARC
8
0
10
70.5690343
20
-22.0441912
40
0.5
50
78
51
168
0
ARC
8
0
10
83.2849531
20
-24.7470432
40
0.5
50
348
51
78
0
ARC
8
0
10
67.8661823
20
-34.76011
40
0.5
50
168
51
258
0
ARC
8
0
10
80.5821011
20
-37.462962
40
0.5
50
258
51
348
0
LINE
8
0
10
51.0490989
20
-22.2528276
11
63.7650177
21
-24.9556796
0
LINE
8
0
10
48.1383353
20
-35.946894
11
60.8542541
21
-38.649746
0
LINE
8
0
10
50.4560693
20
-22.6379456
11
47.7532173
21
-35.3538644
0
LINE
8
0
10
64.1501357
20
-25.5487092
11
61.4472837
21
-38.264628
0
ARC
8
0
10
50.9451431
20
-22.7419014
40
0.5
50
78
51
168
0
ARC
8
0
10
63.6610619
20
-25.4447534
40
0.5
50
348
51
78
0
ARC
8
0
10
48.2422911
20
-35.4578202
40
0.5
50
168
51
258
0
ARC
8
0
10
60.9582099
20
-38.1606722
40
0.5
50
258
51
348
0
LINE
8
0
10
88.3165225
20
-30.174263
11
101.0324413
21
-32.877115
0
LINE
8
0
10
85.4057589
20
-43.8683294
11
98.1216777
21
-46.5711814
0
LINE
8
0
10
87.7234929
20
-30.559381
11
85.0206409
21
-43.2752998
0
LINE
8
0
10
101.4175593
20
-33.4701446
11
98.7147073
21
-46.1860634
0
ARC
8
0
10
88.2125667
20
-30.6633368
40
0.5
50
78
51
168
0
ARC
8
0
10
100.9284855
20
-33.3661888
40
0.5
50
348
51
78
0
ARC
8
0
10
85.5097147
20
-43.3792556
40
0.5
50
168
51
258
0
ARC
8
0
10
98.2256335
20
-46.0821076
40
0.5
50
258
51
348
0
LINE
8
0
10
105.9600548
20
-38.7934087
11
118.6759736
21
-41.4962607
0
LINE
8
0
10
103.0492912
20
-52.4874751
11
115.76521
21
-55.1903271
0
LINE
8
0
10
105.3670252
20
-39.1785267
11
102.6641732
21
-51.8944455
0
LINE
8
0
10
119.0610916
20
-42.0892903
11
116.3582396
21
-54.8052091
0
ARC
8
0
10
105.856099
20
-39.2824825
40
0.5
50
78
51
168
0
ARC
8
0
10
118.5720178
20
-41.9853345
40
0.5
50
348
51
78
0
ARC
8
0
10
103.153247
20
-51.9984013
40
0.5
50
168
51
258
0
ARC
8
0
10
115.8691658
20
-54.7012533
40
0.5
50
258
51
348
0
LINE
8
0
10
29.4448488
20
-32.2673937
11
42.1607676
21
-34.9702457
0
LINE
8
0
10
26.5340852
20
-45.9614601
11
39.250004
21
-48.6643121
0
LINE
8
0
10
28.8518192
20
-32.6525117
11
26.1489672
21
-45.3684305
0
LINE
8
0
10
42.5458856
20
-35.5632753
11
39.8430336
21
-48.2791941
0
ARC
8
0
10
29.340893
20
-32.7564675
40
0.5
50
78
51
168
0
ARC
8
0
10
42.0568118
20
-35.4593195
40
0.5
50
348
51
78
0
ARC
8
0
10
26.638041
20
-45.4723863
40
0.5
50
168
51
258
0
ARC
8
0
10
39.3539598
20
-48.1752383
40
0.5
50
258
51
348
0
LINE
8
0
10
66.7122724
20
-40.1888292
11
79.4281912
21
-42.8916812
0
LINE
8
0
10
63.8015088
20
-53.8828956
11
76.5174276
21
-56.5857476
0
LINE
8
0
10
66.1192428
20
-40.5739472
11
63.4163908
21
-53.289866
0
LINE
8
0
10
79.8133092
20
-43.4847108
11
77.1104572
21
-56.2006296
0
ARC
8
0
10
66.6083166
20
-40.677903
40
0.5
50
78
51
168
0
ARC
8
0
10
79.3242354
20
-43.380755
40
0.5
50
348
51
78
0
ARC
8
0
10
63.9054646
20
-53.3938218
40
0.5
50
168
51
258
0
ARC
8
0
10
76.6213834
20
-56.0966738
40
0.5
50
258
51
348
0
LINE
8
0
10
47.0883812
20
-40.8865394
11
59.8043
21
-43.5893914
0
LINE
8
0
10
44.1776176
20
-54.5806058
11
56.8935364
21
-57.2834578
0
LINE
8
0
10
46.4953516
20
-41.2716574
11
43.7924996
21
-53.9875762
0
LINE
8
0
10
60.189418
20
-44.182421
11
57.486566
21
-56.8983398
0
ARC
8
0
10
46.9844254
20
-41.3756132
40
0.5
50
78
51
168
0
ARC
8
0
10
59.7003442
20
-44.0784652
40
0.5
50
348
51
78
0
ARC
8
0
10
44.2815734
20
-54.091532
40
0.5
50
168
51
258
0
ARC
8
0
10
56.9974922
20
-56.794384
40
0.5
50
258
51
348
0
LINE
8
0
10
84.3558047
20
-48.8079748
11
97.0717235
21
-51.5108268
0
LINE
8
0
10
81.4450411
20
-62.5020412
11
94.1609599
21
-65.2048932
0
LINE
8
0
10
83.7627751
20
-49.1930928
11
81.0599231
21
-61.9090116
0
LINE
8
0
10
97.4568415
20
-52.1038564
11
94.7539895
21
-64.8197752
0
ARC
8
0
10
84.2518489
20
-49.2970486
40
0.5
50
78
51
168
0
ARC
8
0
10
96.9677677
20
-51.9999006
40
0.5
50
348
51
78
0
ARC
8
0
10
81.5489969
20
-62.0129674
40
0.5
50
168
51
258
0
ARC
8
0
10
94.2649157
20
-64.7158194
40
0.5
50
258
51
348
0
LINE
8
0
10
101.9993371
20
-57.4271205
11
114.7152559
21
-60.1299725
0
LINE
8
0
10
99.0885735
20
-71.1211869
11
111.8044923
21
-73.8240389
0
LINE
8
0
10
101.4063075
20
-57.8122385
11
98.7034555
21
-70.5281573
0
LINE
8
0
10
115.1003739
20
-60.7230021
11
112.3975219
21
-73.4389209
0
ARC
8
0
10
101.8953813
20
-57.9161943
40
0.5
50
78
51
168
0
ARC
8
0
10
114.6113001
20
-60.6190463
40
0.5
50
348
51
78
0
ARC
8
0
10
99.1925293
20
-70.6321131
40
0.5
50
168
51
258
0
ARC
8
0
10
111.9084481
20
-73.3349651
40
0.5
50
258
51
348
0
LINE
8
0
10
38.0900782
20
-56.5262011
11
35.3872262
21
-69.2421199
0
LINE
8
0
10
24.3960118
20
-53.6154375
11
21.6931598
21
-66.3313563
0
LINE
8
0
10
37.7049602
20
-55.9331715
11
24.9890414
21
-53.2303195
0
LINE
8
0
10
34.7941966
20
-69.6272379
11
22.0782778
21
-66.9243859
0
ARC
8
0
10
37.6010044
20
-56.4222453
40
0.5
50
348
51
78
0
ARC
8
0
10
34.8981524
20
-69.1381641
40
0.5
50
258
51
348
0
ARC
8
0
10
24.8850856
20
-53.7193933
40
0.5
50
78
51
168
0
ARC
8
0
10
22.1822336
20
-66.4353121
40
0.5
50
168
51
258
0
LINE
8
0
10
62.7515547
20
-58.822541
11
75.4674735
21
-61.525393
0
LINE
8
0
10
59.8407911
20
-72.5166074
11
72.5567099
21
-75.2194594
0
LINE
8
0
10
62.1585251
20
-59.207659
11
59.4556731
21
-71.9235778
0
LINE
8
0
10
75.8525915
20
-62.1184226
11
73.1497395
21
-74.8343414
0
ARC
8
0
10
62.6475989
20
-59.3116148
40
0.5
50
78
51
168
0
ARC
8
0
10
75.3635177
20
-62.0144668
40
0.5
50
348
51
78
0
ARC
8
0
10
59.9447469
20
-72.0275336
40
0.5
50
168
51
258
0
ARC
8
0
10
72.6606657
20
-74.7303856
40
0.5
50
258
51
348
0
LINE
8
0
10
43.1276634
20
-59.5202512
11
55.8435822
21
-62.2231032
0
LINE
8
0
10
40.2168998
20
-73.2143176
11
52.9328186
21
-75.9171696
0
LINE
8
0
10
42.5346338
20
-59.9053692
11
39.8317818
21
-72.621288
0
LINE
8
0
10
56.2287002
20
-62.8161328
11
53.5258482
21
-75.5320516
0
ARC
8
0
10
43.0237076
20
-60.009325
40
0.5
50
78
51
168
0
ARC
8
0
10
55.7396264
20
-62.712177
40
0.5
50
348
51
78
0
ARC
8
0
10
40.3208556
20
-72.7252438
40
0.5
50
168
51
258
0
ARC
8
0
10
53.0367744
20
-75.4280958
40
0.5
50
258
51
348
0
LINE
8
0
10
80.395087
20
-67.4416866
11
93.1110058
21
-70.1445386
0
LINE
8
0
10
77.4843234
20
-81.135753
11
90.2002422
21
-83.838605
0
LINE
8
0
10
79.8020574
20
-67.8268046
11
77.0992054
21
-80.5427234
0
LINE
8
0
10
93.4961238
20
-70.7375682
11
90.7932718
21
-83.453487
0
ARC
8
0
10
80.2911312
20
-67.9307604
40
0.5
50
78
51
168
0
ARC
8
0
10
93.00705
20
-70.6336124
40
0.5
50
348
51
78
0
ARC
8
0
10
77.5882792
20
-80.6466792
40
0.5
50
168
51
258
0
ARC
8
0
10
90.304198
20
-83.3495312
40
0.5
50
258
51
348
0
LINE
8
0
10
98.0386194
20
-76.0608323
11
110.7545382
21
-78.7636843
0
LINE
8
0
10
95.1278558
20
-89.7548987
11
107.8437746
21
-92.4577507
0
LINE
8
0
10
97.4455898
20
-76.4459503
11
94.7427378
21
-89.1618691
0
LINE
8
0
10
111.1396562
20
-79.3567139
11
108.4368042
21
-92.0726327
0
ARC
8
0
10
97.9346636
20
-76.5499061
40
0.5
50
78
51
168
0
ARC
8
0
10
110.6505824
20
-79.2527581
40
0.5
50
348
51
78
0
ARC
8
0
10
95.2318116
20
-89.2658249
40
0.5
50
168
51
258
0
ARC
8
0
10
107.9477304
20
-91.9686769
40
0.5
50
258
51
348
0
LINE
8
0
10
20.5332339
20
-74.1932453
11
33.2491527
21
-76.8960973
0
LINE
8
0
10
17.6224703
20
-87.8873117
11
30.3383891
21
-90.5901637
0
LINE
8
0
10
19.9402043
20
-74.5783633
11
17.2373523
21
-87.2942821
0
LINE
8
0
10
33.6342707
20
-77.4891269
11
30.9314187
21
-90.2050457
0
ARC
8
0
10
20.4292781
20
-74.6823191
40
0.5
50
78
51
168
0
ARC
8
0
10
33.1451969
20
-77.3851711
40
0.5
50
348
51
78
0
ARC
8
0
10
17.7264261
20
-87.3982379
40
0.5
50
168
51
258
0
ARC
8
0
10
30.4423449
20
-90.1010899
40
0.5
50
258
51
348
0
LINE
8
0
10
39.1669457
20
-78.153963
11
51.8828645
21
-80.856815
0
LINE
8
0
10
36.2561821
20
-91.8480294
11
48.9721009
21
-94.5508814
0
LINE
8
0
10
38.5739161
20
-78.539081
11
35.8710641
21
-91.2549998
0
LINE
8
0
10
52.2679825
20
-81.4498446
11
49.5651305
21
-94.1657634
0
ARC
8
0
10
39.0629899
20
-78.6430368
40
0.5
50
78
51
168
0
ARC
8
0
10
51.7789087
20
-81.3458888
40
0.5
50
348
51
78
0
ARC
8
0
10
36.3601379
20
-91.3589556
40
0.5
50
168
51
258
0
ARC
8
0
10
49.0760567
20
-94.0618076
40
0.5
50
258
51
348
0
LINE
8
0
10
57.8006575
20
-82.1146807
11
70.5165763
21
-84.8175327
0
LINE
8
0
10
54.8898939
20
-95.8087471
11
67.6058127
21
-98.5115991
0
LINE
8
0
10
57.2076279
20
-82.4997987
11
54.5047759
21
-95.2157175
0
LINE
8
0
10
70.9016943
20
-85.4105623
11
68.1988423
21
-98.1264811
0
ARC
8
0
10
57.6967017
20
-82.6037545
40
0.5
50
78
51
168
0
ARC
8
0
10
70.4126205
20
-85.3066065
40
0.5
50
348
51
78
0
ARC
8
0
10
54.9938497
20
-95.3196733
40
0.5
50
168
51
258
0
ARC
8
0
10
67.7097685
20
-98.0225253
40
0.5
50
258
51
348
0
LINE
8
0
10
126.30774
20
-99.6219294
11
123.604888
21
-112.3378482
0
LINE
8
0
10
112.6136736
20
-96.7111658
11
109.9108216
21
-109.4270846
0
LINE
8
0
10
125.922622
20
-99.0288998
11
113.2067032
21
-96.3260478
0
LINE
8
0
10
123.0118584
20
-112.7229662
11
110.2959396
21
-110.0201142
0
ARC
8
0
10
125.8186662
20
-99.5179736
40
0.5
50
348
51
78
0
ARC
8
0
10
123.1158142
20
-112.2338924
40
0.5
50
258
51
348
0
ARC
8
0
10
113.1027474
20
-96.8151216
40
0.5
50
78
51
168
0
ARC
8
0
10
110.3998954
20
-109.5310404
40
0.5
50
168
51
258
0
LINE
8
0
10
75.4441899
20
-90.7338264
11
88.1601087
21
-93.4366784
0
LINE
8
0
10
72.5334263
20
-104.4278928
11
85.2493451
21
-107.1307448
0
LINE
8
0
10
74.8511603
20
-91.1189444
11
72.1483083
21
-103.8348632
0
LINE
8
0
10
88.5452267
20
-94.029708
11
85.8423747
21
-106.7456268
0
ARC
8
0
10
75.3402341
20
-91.2229002
40
0.5
50
78
51
168
0
ARC
8
0
10
88.0561529
20
-93.9257522
40
0.5
50
348
51
78
0
ARC
8
0
10
72.6373821
20
-103.938819
40
0.5
50
168
51
258
0
ARC
8
0
10
85.3533009
20
-106.641671
40
0.5
50
258
51
348
0
LINE
8
0
10
94.0779017
20
-94.6945441
11
106.7938205
21
-97.3973961
0
LINE
8
0
10
91.1671381
20
-108.3886105
11
103.8830569
21
-111.0914625
0
LINE
8
0
10
93.4848721
20
-95.0796621
11
90.7820201
21
-107.7955809
0
LINE
8
0
10
107.1789385
20
-97.9904257
11
104.4760865
21
-110.7063445
0
ARC
8
0
10
93.9739459
20
-95.1836179
40
0.5
50
78
51
168
0
ARC
8
0
10
106.6898647
20
-97.8864699
40
0.5
50
348
51
78
0
ARC
8
0
10
91.2710939
20
-107.8995367
40
0.5
50
168
51
258
0
ARC
8
0
10
103.9870127
20
-110.6023887
40
0.5
50
258
51
348
0
LINE
8
0
10
178.5485911
20
-24.2579694
11
191.2645099
21
-21.5551174
0
LINE
8
0
10
181.4593547
20
-37.9520358
11
194.1752735
21
-35.2491838
0
LINE
8
0
10
178.1634731
20
-24.850999
11
180.8663251
21
-37.5669178
0
LINE
8
0
10
191.8575395
20
-21.9402354
11
194.5603915
21
-34.6561542
0
ARC
8
0
10
178.6525469
20
-24.7470432
40
0.5
50
102
51
192
0
ARC
8
0
10
191.3684657
20
-22.0441912
40
0.5
50
12
51
102
0
ARC
8
0
10
181.3553989
20
-37.462962
40
0.5
50
192
51
282
0
ARC
8
0
10
194.0713177
20
-34.76011
40
0.5
50
282
51
12
0
LINE
8
0
10
160.9050587
20
-32.877115
11
173.6209775
21
-30.174263
0
LINE
8
0
10
163.8158223
20
-46.5711814
11
176.5317411
21
-43.8683294
0
LINE
8
0
10
160.5199407
20
-33.4701446
11
163.2227927
21
-46.1860634
0
LINE
8
0
10
174.2140071
20
-30.559381
11
176.9168591
21
-43.2752998
0
ARC
8
0
10
161.0090145
20
-33.3661888
40
0.5
50
102
51
192
0
ARC
8
0
10
173.7249333
20
-30.6633368
40
0.5
50
12
51
102
0
ARC
8
0
10
163.7118665
20
-46.0821076
40
0.5
50
192
51
282
0
ARC
8
0
10
176.4277853
20
-43.3792556
40
0.5
50
282
51
12
0
LINE
8
0
10
198.1724823
20
-24.9556796
11
210.8884011
21
-22.2528276
0
LINE
8
0
10
201.0832459
20
-38.649746
11
213.7991647
21
-35.946894
0
LINE
8
0
10
197.7873643
20
-25.5487092
11
200.4902163
21
-38.264628
0
LINE
8
0
10
211.4814307
20
-22.6379456
11
214.1842827
21
-35.3538644
0
ARC
8
0
10
198.2764381
20
-25.4447534
40
0.5
50
102
51
192
0
ARC
8
0
10
210.9923569
20
-22.7419014
40
0.5
50
12
51
102
0
ARC
8
0
10
200.9792901
20
-38.1606722
40
0.5
50
192
51
282
0
ARC
8
0
10
213.6952089
20
-35.4578202
40
0.5
50
282
51
12
0
LINE
8
0
10
143.2615264
20
-41.4962607
11
155.9774452
21
-38.7934087
0
LINE
8
0
10
146.17229
20
-55.1903271
11
158.8882088
21
-52.4874751
0
LINE
8
0
10
142.8764084
20
-42.0892903
11
145.5792604
21
-54.8052091
0
LINE
8
0
10
156.5704748
20
-39.1785267
11
159.2733268
21
-51.8944455
0
ARC
8
0
10
143.3654822
20
-41.9853345
40
0.5
50
102
51
192
0
ARC
8
0
10
156.081401
20
-39.2824825
40
0.5
50
12
51
102
0
ARC
8
0
10
146.0683342
20
-54.7012533
40
0.5
50
192
51
282
0
ARC
8
0
10
158.784253
20
-51.9984013
40
0.5
50
282
51
12
0
LINE
8
0
10
182.5093088
20
-42.8916812
11
195.2252276
21
-40.1888292
0
LINE
8
0
10
185.4200724
20
-56.5857476
11
198.1359912
21
-53.8828956
0
LINE
8
0
10
182.1241908
20
-43.4847108
11
184.8270428
21
-56.2006296
0
LINE
8
0
10
195.8182572
20
-40.5739472
11
198.5211092
21
-53.289866
0
ARC
8
0
10
182.6132646
20
-43.380755
40
0.5
50
102
51
192
0
ARC
8
0
10
195.3291834
20
-40.677903
40
0.5
50
12
51
102
0
ARC
8
0
10
185.3161166
20
-56.0966738
40
0.5
50
192
51
282
0
ARC
8
0
10
198.0320354
20
-53.3938218
40
0.5
50
282
51
12
0
LINE
8
0
10
219.7767324
20
-34.9702457
11
232.4926512
21
-32.2673937
0
LINE
8
0
10
222.687496
20
-48.6643121
11
235.4034148
21
-45.9614601
0
LINE
8
0
10
219.3916144
20
-35.5632753
11
222.0944664
21
-48.2791941
0
LINE
8
0
10
233.0856808
20
-32.6525117
11
235.7885328
21
-45.3684305
0
ARC
8
0
10
219.8806882
20
-35.4593195
40
0.5
50
102
51
192
0
ARC
8
0
10
232.596607
20
-32.7564675
40
0.5
50
12
51
102
0
ARC
8
0
10
222.5835402
20
-48.1752383
40
0.5
50
192
51
282
0
ARC
8
0
10
235.299459
20
-45.4723863
40
0.5
50
282
51
12
0
LINE
8
0
10
164.8657765
20
-51.5108268
11
177.5816953
21
-48.8079748
0
LINE
8
0
10
167.7765401
20
-65.2048932
11
180.4924589
21
-62.5020412
0
LINE
8
0
10
164.4806585
20
-52.1038564
11
167.1835105
21
-64.8197752
0
LINE
8
0
10
178.1747249
20
-49.1930928
11
180.8775769
21
-61.9090116
0
ARC
8
0
10
164.9697323
20
-51.9999006
40
0.5
50
102
51
192
0
ARC
8
0
10
177.6856511
20
-49.2970486
40
0.5
50
12
51
102
0
ARC
8
0
10
167.6725843
20
-64.7158194
40
0.5
50
192
51
282
0
ARC
8
0
10
180.3885031
20
-62.0129674
40
0.5
50
282
51
12
0
LINE
8
0
10
202.1332
20
-43.5893914
11
214.8491188
21
-40.8865394
0
LINE
8
0
10
205.0439636
20
-57.2834578
11
217.7598824
21
-54.5806058
0
LINE
8
0
10
201.748082
20
-44.182421
11
204.450934
21
-56.8983398
0
LINE
8
0
10
215.4421484
20
-41.2716574
11
218.1450004
21
-53.9875762
0
ARC
8
0
10
202.2371558
20
-44.0784652
40
0.5
50
102
51
192
0
ARC
8
0
10
214.9530746
20
-41.3756132
40
0.5
50
12
51
102
0
ARC
8
0
10
204.9400078
20
-56.794384
40
0.5
50
192
51
282
0
ARC
8
0
10
217.6559266
20
-54.091532
40
0.5
50
282
51
12
0
LINE
8
0
10
147.2222441
20
-60.1299725
11
159.9381629
21
-57.4271205
0
LINE
8
0
10
150.1330077
20
-73.8240389
11
162.8489265
21
-71.1211869
0
LINE
8
0
10
146.8371261
20
-60.7230021
11
149.5399781
21
-73.4389209
0
LINE
8
0
10
160.5311925
20
-57.8122385
11
163.2340445
21
-70.5281573
0
ARC
8
0
10
147.3261999
20
-60.6190463
40
0.5
50
102
51
192
0
ARC
8
0
10
160.0421187
20
-57.9161943
40
0.5
50
12
51
102
0
ARC
8
0
10
150.0290519
20
-73.3349651
40
0.5
50
192
51
282
0
ARC
8
0
10
162.7449707
20
-70.6321131
40
0.5
50
282
51
12
0
LINE
8
0
10
186.4700265
20
-61.525393
11
199.1859453
21
-58.822541
0
LINE
8
0
10
189.3807901
20
-75.2194594
11
202.0967089
21
-72.5166074
0
LINE
8
0
10
186.0849085
20
-62.1184226
11
188.7877605
21
-74.8343414
0
LINE
8
0
10
199.7789749
20
-59.207659
11
202.4818269
21
-71.9235778
0
ARC
8
0
10
186.5739823
20
-62.0144668
40
0.5
50
102
51
192
0
ARC
8
0
10
199.2899011
20
-59.3116148
40
0.5
50
12
51
102
0
ARC
8
0
10
189.2768343
20
-74.7303856
40
0.5
50
192
51
282
0
ARC
8
0
10
201.9927531
20
-72.0275336
40
0.5
50
282
51
12
0
LINE
8
0
10
237.5414882
20
-53.6154375
11
240.2443402
21
-66.3313563
0
LINE
8
0
10
223.8474218
20
-56.5262011
11
226.5502738
21
-69.2421199
0
LINE
8
0
10
236.9484586
20
-53.2303195
11
224.2325398
21
-55.9331715
0
LINE
8
0
10
239.8592222
20
-66.9243859
11
227.1433034
21
-69.6272379
0
ARC
8
0
10
237.0524144
20
-53.7193933
40
0.5
50
12
51
102
0
ARC
8
0
10
239.7552664
20
-66.4353121
40
0.5
50
282
51
12
0
ARC
8
0
10
224.3364956
20
-56.4222453
40
0.5
50
102
51
192
0
ARC
8
0
10
227.0393476
20
-69.1381641
40
0.5
50
192
51
282
0
LINE
8
0
10
168.8264942
20
-70.1445386
11
181.542413
21
-67.4416866
0
LINE
8
0
10
171.7372578
20
-83.838605
11
184.4531766
21
-81.135753
0
LINE
8
0
10
168.4413762
20
-70.7375682
11
171.1442282
21
-83.453487
0
LINE
8
0
10
182.1354426
20
-67.8268046
11
184.8382946
21
-80.5427234
0
ARC
8
0
10
168.93045
20
-70.6336124
40
0.5
50
102
51
192
0
ARC
8
0
10
181.6463688
20
-67.9307604
40
0.5
50
12
51
102
0
ARC
8
0
10
171.633302
20
-83.3495312
40
0.5
50
192
51
282
0
ARC
8
0
10
184.3492208
20
-80.6466792
40
0.5
50
282
51
12
0
LINE
8
0
10
206.0939178
20
-62.2231032
11
218.8098366
21
-59.5202512
0
LINE
8
0
10
209.0046814
20
-75.9171696
11
221.7206002
21
-73.2143176
0
LINE
8
0
10
205.7087998
20
-62.8161328
11
208.4116518
21
-75.5320516
0
LINE
8
0
10
219.4028662
20
-59.9053692
11
222.1057182
21
-72.621288
0
ARC
8
0
10
206.1978736
20
-62.712177
40
0.5
50
102
51
192
0
ARC
8
0
10
218.9137924
20
-60.009325
40
0.5
50
12
51
102
0
ARC
8
0
10
208.9007256
20
-75.4280958
40
0.5
50
192
51
282
0
ARC
8
0
10
221.6166444
20
-72.7252438
40
0.5
50
282
51
12
0
LINE
8
0
10
151.1829618
20
-78.7636843
11
163.8988806
21
-76.0608323
0
LINE
8
0
10
154.0937254
20
-92.4577507
11
166.8096442
21
-89.7548987
0
LINE
8
0
10
150.7978438
20
-79.3567139
11
153.5006958
21
-92.0726327
0
LINE
8
0
10
164.4919102
20
-76.4459503
11
167.1947622
21
-89.1618691
0
ARC
8
0
10
151.2869176
20
-79.2527581
40
0.5
50
102
51
192
0
ARC
8
0
10
164.0028364
20
-76.5499061
40
0.5
50
12
51
102
0
ARC
8
0
10
153.9897696
20
-91.9686769
40
0.5
50
192
51
282
0
ARC
8
0
10
166.7056884
20
-89.2658249
40
0.5
50
282
51
12
0
LINE
8
0
10
149.3238264
20
-96.7111658
11
152.0266784
21
-109.4270846
0
LINE
8
0
10
135.62976
20
-99.6219294
11
138.332612
21
-112.3378482
0
LINE
8
0
10
148.7307968
20
-96.3260478
11
136.014878
21
-99.0288998
0
LINE
8
0
10
151.6415604
20
-110.0201142
11
138.9256416
21
-112.7229662
0
ARC
8
0
10
148.8347526
20
-96.8151216
40
0.5
50
12
51
102
0
ARC
8
0
10
151.5376046
20
-109.5310404
40
0.5
50
282
51
12
0
ARC
8
0
10
136.1188338
20
-99.5179736
40
0.5
50
102
51
192
0
ARC
8
0
10
138.8216858
20
-112.2338924
40
0.5
50
192
51
282
0
LINE
8
0
10
191.4209237
20
-84.8175327
11
204.1368425
21
-82.1146807
0
LINE
8
0
10
194.3316873
20
-98.5115991
11
207.0476061
21
-95.8087471
0
LINE
8
0
10
191.0358057
20
-85.4105623
11
193.7386577
21
-98.1264811
0
LINE
8
0
10
204.7298721
20
-82.4997987
11
207.4327241
21
-95.2157175
0
ARC
8
0
10
191.5248795
20
-85.3066065
40
0.5
50
102
51
192
0
ARC
8
0
10
204.2407983
20
-82.6037545
40
0.5
50
12
51
102
0
ARC
8
0
10
194.2277315
20
-98.0225253
40
0.5
50
192
51
282
0
ARC
8
0
10
206.9436503
20
-95.3196733
40
0.5
50
282
51
12
0
LINE
8
0
10
210.0546355
20
-80.856815
11
222.7705543
21
-78.153963
0
LINE
8
0
10
212.9653991
20
-94.5508814
11
225.6813179
21
-91.8480294
0
LINE
8
0
10
209.6695175
20
-81.4498446
11
212.3723695
21
-94.1657634
0
LINE
8
0
10
223.3635839
20
-78.539081
11
226.0664359
21
-91.2549998
0
ARC
8
0
10
210.1585913
20
-81.3458888
40
0.5
50
102
51
192
0
ARC
8
0
10
222.8745101
20
-78.6430368
40
0.5
50
12
51
102
0
ARC
8
0
10
212.8614433
20
-94.0618076
40
0.5
50
192
51
282
0
ARC
8
0
10
225.5773621
20
-91.3589556
40
0.5
50
282
51
12
0
LINE
8
0
10
228.6883473
20
-76.8960973
11
241.4042661
21
-74.1932453
0
LINE
8
0
10
231.5991109
20
-90.5901637
11
244.3150297
21
-87.8873117
0
LINE
8
0
10
228.3032293
20
-77.4891269
11
231.0060813
21
-90.2050457
0
LINE
8
0
10
241.9972957
20
-74.5783633
11
244.7001477
21
-87.2942821
0
ARC
8
0
10
228.7923031
20
-77.3851711
40
0.5
50
102
51
192
0
ARC
8
0
10
241.5082219
20
-74.6823191
40
0.5
50
12
51
102
0
ARC
8
0
10
231.4951551
20
-90.1010899
40
0.5
50
192
51
282
0
ARC
8
0
10
244.2110739
20
-87.3982379
40
0.5
50
282
51
12
0
LINE
8
0
10
155.1436795
20
-97.3973961
11
167.8595983
21
-94.6945441
0
LINE
8
0
10
158.0544431
20
-111.0914625
11
170.7703619
21
-108.3886105
0
LINE
8
0
10
154.7585615
20
-97.9904257
11
157.4614135
21
-110.7063445
0
LINE
8
0
10
168.4526279
20
-95.0796621
11
171.1554799
21
-107.7955809
0
ARC
8
0
10
155.2476353
20
-97.8864699
40
0.5
50
102
51
192
0
ARC
8
0
10
167.9635541
20
-95.1836179
40
0.5
50
12
51
102
0
ARC
8
0
10
157.9504873
20
-110.6023887
40
0.5
50
192
51
282
0
ARC
8
0
10
170.6664061
20
-107.8995367
40
0.5
50
282
51
12
0
LINE
8
0
10
173.7773913
20
-93.4366784
11
186.4933101
21
-90.7338264
0
LINE
8
0
10
176.6881549
20
-107.1307448
11
189.4040737
21
-104.4278928
0
LINE
8
0
10
173.3922733
20
-94.029708
11
176.0951253
21
-106.7456268
0
LINE
8
0
10
187.0863397
20
-91.1189444
11
189.7891917
21
-103.8348632
0
ARC
8
0
10
173.8813471
20
-93.9257522
40
0.5
50
102
51
192
0
ARC
8
0
10
186.5972659
20
-91.2229002
40
0.5
50
12
51
102
0
ARC
8
0
10
176.5841991
20
-106.641671
40
0.5
50
192
51
282
0
ARC
8
0
10
189.3001179
20
-103.938819
40
0.5
50
282
51
12
0
LINE
8
0
10
15.9108115
20
-116.430757
11
246.0266885
21
-116.430757
0
LINE
8
0
10
15.9108115
20
-20.2285766
11
246.0266885
21
-20.2285766
0
LINE
8
0
10
15.9108115
20
-116.430757
11
15.9108115
21
-20.2285766
0
LINE
8
0
10
246.0266885
20
-116.430757
11
246.0266885
21
-20.2285766
0
ENDSEC
0
EOF