0
SECTION
2
HEADER
9
$INSUNITS
70
4
0
ENDSEC
0
SECTION
2
TABLES
0
TABLE
2
LTYPE
0
LTYPE
72
65
70
64
2
CONTINUOUS
3
______
73
0
40
0
0
ENDTAB
0
TABLE
2
LAYER
0
ENDTAB
0
ENDSEC
0
SECTION
2
ENTITIES
0
LINE
8
0
10
124.564
20
-59.675
11
137.564
21
-59.675
0
LINE
8
0
10
124.564
20
-73.675
11
137.564
21
-73.675
0
LINE
8
0
10
124.064
20
-60.175
11
124.064
21
-73.175
0
LINE
8
0
10
138.064
20
-60.175
11
138.064
21
-73.175
0
ARC
8
0
10
124.564
20
-60.175
40
0.5
50
90
51
180
0
ARC
8
0
10
137.564
20
-60.175
40
0.5
50
0
51
90
0
ARC
8
0
10
124.564
20
-73.175
40
0.5
50
180
51
270
0
ARC
8
0
10
137.564
20
-73.175
40
0.5
50
270
51
0
0
LINE
8
0
10
124.564
20
-78.725
11
137.564
21
-78.725
0
LINE
8
0
10
124.564
20
-92.725
11
137.564
21
-92.725
0
LINE
8
0
10
124.064
20
-79.225
11
124.064
21
-92.225
0
LINE
8
0
10
138.064
20
-79.225
11
138.064
21
-92.225
0
ARC
8
0
10
124.564
20
-79.225
40
0.5
50
90
51
180
0
ARC
8
0
10
137.564
20
-79.225
40
0.5
50
0
51
90
0
ARC
8
0
10
124.564
20
-92.225
40
0.5
50
180
51
270
0
ARC
8
0
10
137.564
20
-92.225
40
0.5
50
270
51
0
0
LINE
8
0
10
71.6631695
20
-16.8966894
11
84.3790883
21
-19.5995414
0
LINE
8
0
10
68.7524059
20
-30.5907558
11
81.4683247
21
-33.2936078
0
LINE
8
0
10
71.0701399
20
-17.2818074
11
68.3672879
21
-29.9977262
0
LINE
8
0
10
84.7642063
20
-20.192571
11
82.0613543
21
-32.9084898
0
ARC
8
0
10
71.5592137
20
-17.3857632
40
0.5
50
78
51
168
0
ARC
8
0
10
84.2751325
20
-20.0886152
40
0.5
50
348
51
78
0
ARC
8
0
10
68.8563617
20
-30.101682
40
0.5
50
168
51
258
0
ARC
8
0
10
81.5722805
20
-32.804534
40
0.5
50
258
51
348
0
LINE
8
0
10
52.0392783
20
-17.5943997
11
64.7551971
21
-20.2972517
0
LINE
8
0
10
49.1285147
20
-31.2884661
11
61.8444335
21
-33.9913181
0
LINE
8
0
10
51.4462487
20
-17.9795177
11
48.7433967
21
-30.6954365
0
LINE
8
0
10
65.1403151
20
-20.8902813
11
62.4374631
21
-33.6062001
0
ARC
8
0
10
51.9353225
20
-18.0834735
40
0.5
50
78
51
168
0
ARC
8
0
10
64.6512413
20
-20.7863255
40
0.5
50
348
51
78
0
ARC
8
0
10
49.2324705
20
-30.7993923
40
0.5
50
168
51
258
0
ARC
8
0
10
61.9483893
20
-33.5022443
40
0.5
50
258
51
348
0
LINE
8
0
10
89.3067019
20
-25.5158351
11
102.0226207
21
-28.2186871
0
LINE
8
0
10
86.3959383
20
-39.2099015
11
99.1118571
21
-41.9127535
0
LINE
8
0
10
88.7136723
20
-25.9009531
11
86.0108203
21
-38.6168719
0
LINE
8
0
10
102.4077387
20
-28.8117167
11
99.7048867
21
-41.5276355
0
ARC
8
0
10
89.2027461
20
-26.0049089
40
0.5
50
78
51
168
0
ARC
8
0
10
101.9186649
20
-28.7077609
40
0.5
50
348
51
78
0
ARC
8
0
10
86.4998941
20
-38.7208277
40
0.5
50
168
51
258
0
ARC
8
0
10
99.2158129
20
-41.4236797
40
0.5
50
258
51
348
0
LINE
8
0
10
32.4153871
20
-18.2921099
11
45.1313059
21
-20.9949619
0
LINE
8
0
10
29.5046235
20
-31.9861763
11
42.2205423
21
-34.6890283
0
LINE
8
0
10
31.8223575
20
-18.6772279
11
29.1195055
21
-31.3931467
0
LINE
8
0
10
45.5164239
20
-21.5879915
11
42.8135719
21
-34.3039103
0
ARC
8
0
10
32.3114313
20
-18.7811837
40
0.5
50
78
51
168
0
ARC
8
0
10
45.0273501
20
-21.4840357
40
0.5
50
348
51
78
0
ARC
8
0
10
29.6085793
20
-31.4971025
40
0.5
50
168
51
258
0
ARC
8
0
10
42.3244981
20
-34.1999545
40
0.5
50
258
51
348
0
LINE
8
0
10
106.9502343
20
-34.1349807
11
119.6661531
21
-36.8378327
0
LINE
8
0
10
104.0394707
20
-47.8290471
11
116.7553895
21
-50.5318991
0
LINE
8
0
10
106.3572047
20
-34.5200987
11
103.6543527
21
-47.2360175
0
LINE
8
0
10
120.0512711
20
-37.4308623
11
117.3484191
21
-50.1467811
0
ARC
8
0
10
106.8462785
20
-34.6240545
40
0.5
50
78
51
168
0
ARC
8
0
10
119.5621973
20
-37.3269065
40
0.5
50
348
51
78
0
ARC
8
0
10
104.1434265
20
-47.3399733
40
0.5
50
168
51
258
0
ARC
8
0
10
116.8593453
20
-50.0428253
40
0.5
50
258
51
348
0
LINE
8
0
10
67.7024518
20
-35.5304012
11
80.4183706
21
-38.2332532
0
LINE
8
0
10
64.7916882
20
-49.2244676
11
77.507607
21
-51.9273196
0
LINE
8
0
10
67.1094222
20
-35.9155192
11
64.4065702
21
-48.631438
0
LINE
8
0
10
80.8034886
20
-38.8262828
11
78.1006366
21
-51.5422016
0
ARC
8
0
10
67.598496
20
-36.019475
40
0.5
50
78
51
168
0
ARC
8
0
10
80.3144148
20
-38.722327
40
0.5
50
348
51
78
0
ARC
8
0
10
64.895644
20
-48.7353938
40
0.5
50
168
51
258
0
ARC
8
0
10
77.6115628
20
-51.4382458
40
0.5
50
258
51
348
0
LINE
8
0
10
48.0785606
20
-36.2281114
11
60.7944794
21
-38.9309634
0
LINE
8
0
10
45.167797
20
-49.9221778
11
57.8837158
21
-52.6250298
0
LINE
8
0
10
47.485531
20
-36.6132294
11
44.782679
21
-49.3291482
0
LINE
8
0
10
61.1795974
20
-39.523993
11
58.4767454
21
-52.2399118
0
ARC
8
0
10
47.9746048
20
-36.7171852
40
0.5
50
78
51
168
0
ARC
8
0
10
60.6905236
20
-39.4200372
40
0.5
50
348
51
78
0
ARC
8
0
10
45.2717528
20
-49.433104
40
0.5
50
168
51
258
0
ARC
8
0
10
57.9876716
20
-52.135956
40
0.5
50
258
51
348
0
LINE
8
0
10
85.3459842
20
-44.1495469
11
98.061903
21
-46.8523989
0
LINE
8
0
10
82.4352206
20
-57.8436133
11
95.1511394
21
-60.5464653
0
LINE
8
0
10
84.7529546
20
-44.5346649
11
82.0501026
21
-57.2505837
0
LINE
8
0
10
98.447021
20
-47.4454285
11
95.744169
21
-60.1613473
0
ARC
8
0
10
85.2420284
20
-44.6386207
40
0.5
50
78
51
168
0
ARC
8
0
10
97.9579472
20
-47.3414727
40
0.5
50
348
51
78
0
ARC
8
0
10
82.5391764
20
-57.3545395
40
0.5
50
168
51
258
0
ARC
8
0
10
95.2550952
20
-60.0573915
40
0.5
50
258
51
348
0
LINE
8
0
10
28.4546694
20
-36.9258217
11
41.1705882
21
-39.6286737
0
LINE
8
0
10
25.5439058
20
-50.6198881
11
38.2598246
21
-53.3227401
0
LINE
8
0
10
27.8616398
20
-37.3109397
11
25.1587878
21
-50.0268585
0
LINE
8
0
10
41.5557062
20
-40.2217033
11
38.8528542
21
-52.9376221
0
ARC
8
0
10
28.3507136
20
-37.4148955
40
0.5
50
78
51
168
0
ARC
8
0
10
41.0666324
20
-40.1177475
40
0.5
50
348
51
78
0
ARC
8
0
10
25.6478616
20
-50.1308143
40
0.5
50
168
51
258
0
ARC
8
0
10
38.3637804
20
-52.8336663
40
0.5
50
258
51
348
0
LINE
8
0
10
102.9895165
20
-52.7686925
11
115.7054353
21
-55.4715445
0
LINE
8
0
10
100.0787529
20
-66.4627589
11
112.7946717
21
-69.1656109
0
LINE
8
0
10
102.3964869
20
-53.1538105
11
99.6936349
21
-65.8697293
0
LINE
8
0
10
116.0905533
20
-56.0645741
11
113.3877013
21
-68.7804929
0
ARC
8
0
10
102.8855607
20
-53.2577663
40
0.5
50
78
51
168
0
ARC
8
0
10
115.6014795
20
-55.9606183
40
0.5
50
348
51
78
0
ARC
8
0
10
100.1827087
20
-65.9736851
40
0.5
50
168
51
258
0
ARC
8
0
10
112.8986275
20
-68.6765371
40
0.5
50
258
51
348
0
LINE
8
0
10
63.7417341
20
-54.164113
11
76.4576529
21
-56.866965
0
LINE
8
0
10
60.8309705
20
-67.8581794
11
73.5468893
21
-70.5610314
0
LINE
8
0
10
63.1487045
20
-54.549231
11
60.4458525
21
-67.2651498
0
LINE
8
0
10
76.8427709
20
-57.4599946
11
74.1399189
21
-70.1759134
0
ARC
8
0
10
63.6377783
20
-54.6531868
40
0.5
50
78
51
168
0
ARC
8
0
10
76.3536971
20
-57.3560388
40
0.5
50
348
51
78
0
ARC
8
0
10
60.9349263
20
-67.3691056
40
0.5
50
168
51
258
0
ARC
8
0
10
73.6508451
20
-70.0719576
40
0.5
50
258
51
348
0
LINE
8
0
10
44.1178429
20
-54.8618232
11
56.8337617
21
-57.5646752
0
LINE
8
0
10
41.2070793
20
-68.5558896
11
53.9229981
21
-71.2587416
0
LINE
8
0
10
43.5248133
20
-55.2469412
11
40.8219613
21
-67.96286
0
LINE
8
0
10
57.2188797
20
-58.1577048
11
54.5160277
21
-70.8736236
0
ARC
8
0
10
44.0138871
20
-55.350897
40
0.5
50
78
51
168
0
ARC
8
0
10
56.7298059
20
-58.053749
40
0.5
50
348
51
78
0
ARC
8
0
10
41.3110351
20
-68.0668158
40
0.5
50
168
51
258
0
ARC
8
0
10
54.0269539
20
-70.7696678
40
0.5
50
258
51
348
0
LINE
8
0
10
81.3852665
20
-62.7832587
11
94.1011853
21
-65.4861107
0
LINE
8
0
10
78.4745029
20
-76.4773251
11
91.1904217
21
-79.1801771
0
LINE
8
0
10
80.7922369
20
-63.1683767
11
78.0893849
21
-75.8842955
0
LINE
8
0
10
94.4863033
20
-66.0791403
11
91.7834513
21
-78.7950591
0
ARC
8
0
10
81.2813107
20
-63.2723325
40
0.5
50
78
51
168
0
ARC
8
0
10
93.9972295
20
-65.9751845
40
0.5
50
348
51
78
0
ARC
8
0
10
78.5784587
20
-75.9882513
40
0.5
50
168
51
258
0
ARC
8
0
10
91.2943775
20
-78.6911033
40
0.5
50
258
51
348
0
LINE
8
0
10
24.4939517
20
-55.5595335
11
37.2098705
21
-58.2623855
0
LINE
8
0
10
21.5831881
20
-69.2535999
11
34.2991069
21
-71.9564519
0
LINE
8
0
10
23.9009221
20
-55.9446515
11
21.1980701
21
-68.6605703
0
LINE
8
0
10
37.5949885
20
-58.8554151
11
34.8921365
21
-71.5713339
0
ARC
8
0
10
24.3899959
20
-56.0486073
40
0.5
50
78
51
168
0
ARC
8
0
10
37.1059147
20
-58.7514593
40
0.5
50
348
51
78
0
ARC
8
0
10
21.6871439
20
-68.7645261
40
0.5
50
168
51
258
0
ARC
8
0
10
34.4030627
20
-71.4673781
40
0.5
50
258
51
348
0
LINE
8
0
10
99.0287988
20
-71.4024043
11
111.7447176
21
-74.1052563
0
LINE
8
0
10
96.1180352
20
-85.0964707
11
108.833954
21
-87.7993227
0
LINE
8
0
10
98.4357692
20
-71.7875223
11
95.7329172
21
-84.5034411
0
LINE
8
0
10
112.1298356
20
-74.6982859
11
109.4269836
21
-87.4142047
0
ARC
8
0
10
98.924843
20
-71.8914781
40
0.5
50
78
51
168
0
ARC
8
0
10
111.6407618
20
-74.5943301
40
0.5
50
348
51
78
0
ARC
8
0
10
96.221991
20
-84.6073969
40
0.5
50
168
51
258
0
ARC
8
0
10
108.9379098
20
-87.3102489
40
0.5
50
258
51
348
0
LINE
8
0
10
40.1571252
20
-73.495535
11
52.873044
21
-76.198387
0
LINE
8
0
10
37.2463616
20
-87.1896014
11
49.9622804
21
-89.8924534
0
LINE
8
0
10
39.5640956
20
-73.880653
11
36.8612436
21
-86.5965718
0
LINE
8
0
10
53.258162
20
-76.7914166
11
50.55531
21
-89.5073354
0
ARC
8
0
10
40.0531694
20
-73.9846088
40
0.5
50
78
51
168
0
ARC
8
0
10
52.7690882
20
-76.6874608
40
0.5
50
348
51
78
0
ARC
8
0
10
37.3503174
20
-86.7005276
40
0.5
50
168
51
258
0
ARC
8
0
10
50.0662362
20
-89.4033796
40
0.5
50
258
51
348
0
LINE
8
0
10
20.5332339
20
-74.1932453
11
33.2491527
21
-76.8960973
0
LINE
8
0
10
17.6224703
20
-87.8873117
11
30.3383891
21
-90.5901637
0
LINE
8
0
10
19.9402043
20
-74.5783633
11
17.2373523
21
-87.2942821
0
LINE
8
0
10
33.6342707
20
-77.4891269
11
30.9314187
21
-90.2050457
0
ARC
8
0
10
20.4292781
20
-74.6823191
40
0.5
50
78
51
168
0
ARC
8
0
10
33.1451969
20
-77.3851711
40
0.5
50
348
51
78
0
ARC
8
0
10
17.7264261
20
-87.3982379
40
0.5
50
168
51
258
0
ARC
8
0
10
30.4423449
20
-90.1010899
40
0.5
50
258
51
348
0
LINE
8
0
10
57.8006575
20
-82.1146807
11
70.5165763
21
-84.8175327
0
LINE
8
0
10
54.8898939
20
-95.8087471
11
67.6058127
21
-98.5115991
0
LINE
8
0
10
57.2076279
20
-82.4997987
11
54.5047759
21
-95.2157175
0
LINE
8
0
10
70.9016943
20
-85.4105623
11
68.1988423
21
-98.1264811
0
ARC
8
0
10
57.6967017
20
-82.6037545
40
0.5
50
78
51
168
0
ARC
8
0
10
70.4126205
20
-85.3066065
40
0.5
50
348
51
78
0
ARC
8
0
10
54.9938497
20
-95.3196733
40
0.5
50
168
51
258
0
ARC
8
0
10
67.7097685
20
-98.0225253
40
0.5
50
258
51
348
0
LINE
8
0
10
81.8706341
20
-83.8948219
11
93.1289643
21
-90.3948219
0
LINE
8
0
10
74.8706341
20
-96.0191775
11
86.1289643
21
-102.5191775
0
LINE
8
0
10
81.1876214
20
-84.0778346
11
74.6876214
21
-95.3361648
0
LINE
8
0
10
93.311977
20
-91.0778346
11
86.811977
21
-102.3361648
0
ARC
8
0
10
81.6206341
20
-84.3278346
40
0.5
50
60
51
150
0
ARC
8
0
10
92.8789643
20
-90.8278346
40
0.5
50
330
51
60
0
ARC
8
0
10
75.1206341
20
-95.5861648
40
0.5
50
150
51
240
0
ARC
8
0
10
86.3789643
20
-102.0861648
40
0.5
50
240
51
330
0
LINE
8
0
10
117.573581
20
-104.4534885
11
127.5321587
21
-112.8097275
0
LINE
8
0
10
108.5745545
20
-115.1781107
11
118.5331322
21
-123.5343497
0
LINE
8
0
10
116.869165
20
-104.515117
11
108.512926
21
-114.4736947
0
LINE
8
0
10
127.5937872
20
-113.5141435
11
119.2375482
21
-123.4727212
0
ARC
8
0
10
117.2521872
20
-104.8365108
40
0.5
50
50
51
140
0
ARC
8
0
10
127.2107649
20
-113.1927497
40
0.5
50
320
51
50
0
ARC
8
0
10
108.8959483
20
-114.7950885
40
0.5
50
140
51
230
0
ARC
8
0
10
118.854526
20
-123.1513274
40
0.5
50
230
51
320
0
LINE
8
0
10
99.9191583
20
-95.8566712
11
109.877736
21
-104.2129102
0
LINE
8
0
10
90.9201318
20
-106.5812934
11
100.8787095
21
-114.9375324
0
LINE
8
0
10
99.2147423
20
-95.9182997
11
90.8585033
21
-105.8768774
0
LINE
8
0
10
109.9393645
20
-104.9173262
11
101.5831255
21
-114.8759039
0
ARC
8
0
10
99.5977645
20
-96.2396935
40
0.5
50
50
51
140
0
ARC
8
0
10
109.5563422
20
-104.5959324
40
0.5
50
320
51
50
0
ARC
8
0
10
91.2415256
20
-106.1982712
40
0.5
50
140
51
230
0
ARC
8
0
10
101.2001033
20
-114.5545101
40
0.5
50
230
51
320
0
LINE
8
0
10
134.4053413
20
-112.8097275
11
144.363919
21
-104.4534885
0
LINE
8
0
10
143.4043678
20
-123.5343497
11
153.3629455
21
-115.1781107
0
LINE
8
0
10
134.3437128
20
-113.5141435
11
142.6999518
21
-123.4727212
0
LINE
8
0
10
145.068335
20
-104.515117
11
153.424574
21
-114.4736947
0
ARC
8
0
10
134.7267351
20
-113.1927497
40
0.5
50
130
51
220
0
ARC
8
0
10
144.6853128
20
-104.8365108
40
0.5
50
40
51
130
0
ARC
8
0
10
143.082974
20
-123.1513274
40
0.5
50
220
51
310
0
ARC
8
0
10
153.0415517
20
-114.7950885
40
0.5
50
310
51
40
0
LINE
8
0
10
152.059764
20
-104.2129102
11
162.0183417
21
-95.8566712
0
LINE
8
0
10
161.0587905
20
-114.9375324
11
171.0173682
21
-106.5812934
0
LINE
8
0
10
151.9981355
20
-104.9173262
11
160.3543745
21
-114.8759039
0
LINE
8
0
10
162.7227577
20
-95.9182997
11
171.0789967
21
-105.8768774
0
ARC
8
0
10
152.3811578
20
-104.5959324
40
0.5
50
130
51
220
0
ARC
8
0
10
162.3397355
20
-96.2396935
40
0.5
50
40
51
130
0
ARC
8
0
10
160.7373967
20
-114.5545101
40
0.5
50
220
51
310
0
ARC
8
0
10
170.6959744
20
-106.1982712
40
0.5
50
310
51
40
0
LINE
8
0
10
169.2209803
20
-90.1566969
11
180.4793105
21
-83.6566969
0
LINE
8
0
10
176.2209803
20
-102.2810525
11
187.4793105
21
-95.7810525
0
LINE
8
0
10
169.0379676
20
-90.8397096
11
175.5379676
21
-102.0980398
0
LINE
8
0
10
181.1623232
20
-83.8397096
11
187.6623232
21
-95.0980398
0
ARC
8
0
10
169.4709803
20
-90.5897096
40
0.5
50
120
51
210
0
ARC
8
0
10
180.7293105
20
-84.0897096
40
0.5
50
30
51
120
0
ARC
8
0
10
175.9709803
20
-101.8480398
40
0.5
50
210
51
300
0
ARC
8
0
10
187.2293105
20
-95.3480398
40
0.5
50
300
51
30
0
LINE
8
0
10
177.5584117
20
-19.5995414
11
190.2743305
21
-16.8966894
0
LINE
8
0
10
180.4691753
20
-33.2936078
11
193.1850941
21
-30.5907558
0
LINE
8
0
10
177.1732937
20
-20.192571
11
179.8761457
21
-32.9084898
0
LINE
8
0
10
190.8673601
20
-17.2818074
11
193.5702121
21
-29.9977262
0
ARC
8
0
10
177.6623675
20
-20.0886152
40
0.5
50
102
51
192
0
ARC
8
0
10
190.3782863
20
-17.3857632
40
0.5
50
12
51
102
0
ARC
8
0
10
180.3652195
20
-32.804534
40
0.5
50
192
51
282
0
ARC
8
0
10
193.0811383
20
-30.101682
40
0.5
50
282
51
12
0
LINE
8
0
10
159.9148793
20
-28.2186871
11
172.6307981
21
-25.5158351
0
LINE
8
0
10
162.8256429
20
-41.9127535
11
175.5415617
21
-39.2099015
0
LINE
8
0
10
159.5297613
20
-28.8117167
11
162.2326133
21
-41.5276355
0
LINE
8
0
10
173.2238277
20
-25.9009531
11
175.9266797
21
-38.6168719
0
ARC
8
0
10
160.0188351
20
-28.7077609
40
0.5
50
102
51
192
0
ARC
8
0
10
172.7347539
20
-26.0049089
40
0.5
50
12
51
102
0
ARC
8
0
10
162.7216871
20
-41.4236797
40
0.5
50
192
51
282
0
ARC
8
0
10
175.4376059
20
-38.7208277
40
0.5
50
282
51
12
0
LINE
8
0
10
197.1823029
20
-20.2972517
11
209.8982217
21
-17.5943997
0
LINE
8
0
10
200.0930665
20
-33.9913181
11
212.8089853
21
-31.2884661
0
LINE
8
0
10
196.7971849
20
-20.8902813
11
199.5000369
21
-33.6062001
0
LINE
8
0
10
210.4912513
20
-17.9795177
11
213.1941033
21
-30.6954365
0
ARC
8
0
10
197.2862587
20
-20.7863255
40
0.5
50
102
51
192
0
ARC
8
0
10
210.0021775
20
-18.0834735
40
0.5
50
12
51
102
0
ARC
8
0
10
199.9891107
20
-33.5022443
40
0.5
50
192
51
282
0
ARC
8
0
10
212.7050295
20
-30.7993923
40
0.5
50
282
51
12
0
LINE
8
0
10
142.2713469
20
-36.8378327
11
154.9872657
21
-34.1349807
0
LINE
8
0
10
145.1821105
20
-50.5318991
11
157.8980293
21
-47.8290471
0
LINE
8
0
10
141.8862289
20
-37.4308623
11
144.5890809
21
-50.1467811
0
LINE
8
0
10
155.5802953
20
-34.5200987
11
158.2831473
21
-47.2360175
0
ARC
8
0
10
142.3753027
20
-37.3269065
40
0.5
50
102
51
192
0
ARC
8
0
10
155.0912215
20
-34.6240545
40
0.5
50
12
51
102
0
ARC
8
0
10
145.0781547
20
-50.0428253
40
0.5
50
192
51
282
0
ARC
8
0
10
157.7940735
20
-47.3399733
40
0.5
50
282
51
12
0
LINE
8
0
10
216.8061941
20
-20.9949619
11
229.5221129
21
-18.2921099
0
LINE
8
0
10
219.7169577
20
-34.6890283
11
232.4328765
21
-31.9861763
0
LINE
8
0
10
216.4210761
20
-21.5879915
11
219.1239281
21
-34.3039103
0
LINE
8
0
10
230.1151425
20
-18.6772279
11
232.8179945
21
-31.3931467
0
ARC
8
0
10
216.9101499
20
-21.4840357
40
0.5
50
102
51
192
0
ARC
8
0
10
229.6260687
20
-18.7811837
40
0.5
50
12
51
102
0
ARC
8
0
10
219.6130019
20
-34.1999545
40
0.5
50
192
51
282
0
ARC
8
0
10
232.3289207
20
-31.4971025
40
0.5
50
282
51
12
0
LINE
8
0
10
181.5191294
20
-38.2332532
11
194.2350482
21
-35.5304012
0
LINE
8
0
10
184.429893
20
-51.9273196
11
197.1458118
21
-49.2244676
0
LINE
8
0
10
181.1340114
20
-38.8262828
11
183.8368634
21
-51.5422016
0
LINE
8
0
10
194.8280778
20
-35.9155192
11
197.5309298
21
-48.631438
0
ARC
8
0
10
181.6230852
20
-38.722327
40
0.5
50
102
51
192
0
ARC
8
0
10
194.339004
20
-36.019475
40
0.5
50
12
51
102
0
ARC
8
0
10
184.3259372
20
-51.4382458
40
0.5
50
192
51
282
0
ARC
8
0
10
197.041856
20
-48.7353938
40
0.5
50
282
51
12
0
LINE
8
0
10
163.875597
20
-46.8523989
11
176.5915158
21
-44.1495469
0
LINE
8
0
10
166.7863606
20
-60.5464653
11
179.5022794
21
-57.8436133
0
LINE
8
0
10
163.490479
20
-47.4454285
11
166.193331
21
-60.1613473
0
LINE
8
0
10
177.1845454
20
-44.5346649
11
179.8873974
21
-57.2505837
0
ARC
8
0
10
163.9795528
20
-47.3414727
40
0.5
50
102
51
192
0
ARC
8
0
10
176.6954716
20
-44.6386207
40
0.5
50
12
51
102
0
ARC
8
0
10
166.6824048
20
-60.0573915
40
0.5
50
192
51
282
0
ARC
8
0
10
179.3983236
20
-57.3545395
40
0.5
50
282
51
12
0
LINE
8
0
10
201.1430206
20
-38.9309634
11
213.8589394
21
-36.2281114
0
LINE
8
0
10
204.0537842
20
-52.6250298
11
216.769703
21
-49.9221778
0
LINE
8
0
10
200.7579026
20
-39.523993
11
203.4607546
21
-52.2399118
0
LINE
8
0
10
214.451969
20
-36.6132294
11
217.154821
21
-49.3291482
0
ARC
8
0
10
201.2469764
20
-39.4200372
40
0.5
50
102
51
192
0
ARC
8
0
10
213.9628952
20
-36.7171852
40
0.5
50
12
51
102
0
ARC
8
0
10
203.9498284
20
-52.135956
40
0.5
50
192
51
282
0
ARC
8
0
10
216.6657472
20
-49.433104
40
0.5
50
282
51
12
0
LINE
8
0
10
146.2320647
20
-55.4715445
11
158.9479835
21
-52.7686925
0
LINE
8
0
10
149.1428283
20
-69.1656109
11
161.8587471
21
-66.4627589
0
LINE
8
0
10
145.8469467
20
-56.0645741
11
148.5497987
21
-68.7804929
0
LINE
8
0
10
159.5410131
20
-53.1538105
11
162.2438651
21
-65.8697293
0
ARC
8
0
10
146.3360205
20
-55.9606183
40
0.5
50
102
51
192
0
ARC
8
0
10
159.0519393
20
-53.2577663
40
0.5
50
12
51
102
0
ARC
8
0
10
149.0388725
20
-68.6765371
40
0.5
50
192
51
282
0
ARC
8
0
10
161.7547913
20
-65.9736851
40
0.5
50
282
51
12
0
LINE
8
0
10
220.7669118
20
-39.6286737
11
233.4828306
21
-36.9258217
0
LINE
8
0
10
223.6776754
20
-53.3227401
11
236.3935942
21
-50.6198881
0
LINE
8
0
10
220.3817938
20
-40.2217033
11
223.0846458
21
-52.9376221
0
LINE
8
0
10
234.0758602
20
-37.3109397
11
236.7787122
21
-50.0268585
0
ARC
8
0
10
220.8708676
20
-40.1177475
40
0.5
50
102
51
192
0
ARC
8
0
10
233.5867864
20
-37.4148955
40
0.5
50
12
51
102
0
ARC
8
0
10
223.5737196
20
-52.8336663
40
0.5
50
192
51
282
0
ARC
8
0
10
236.2896384
20
-50.1308143
40
0.5
50
282
51
12
0
LINE
8
0
10
185.4798471
20
-56.866965
11
198.1957659
21
-54.164113
0
LINE
8
0
10
188.3906107
20
-70.5610314
11
201.1065295
21
-67.8581794
0
LINE
8
0
10
185.0947291
20
-57.4599946
11
187.7975811
21
-70.1759134
0
LINE
8
0
10
198.7887955
20
-54.549231
11
201.4916475
21
-67.2651498
0
ARC
8
0
10
185.5838029
20
-57.3560388
40
0.5
50
102
51
192
0
ARC
8
0
10
198.2997217
20
-54.6531868
40
0.5
50
12
51
102
0
ARC
8
0
10
188.2866549
20
-70.0719576
40
0.5
50
192
51
282
0
ARC
8
0
10
201.0025737
20
-67.3691056
40
0.5
50
282
51
12
0
LINE
8
0
10
167.8363147
20
-65.4861107
11
180.5522335
21
-62.7832587
0
LINE
8
0
10
170.7470783
20
-79.1801771
11
183.4629971
21
-76.4773251
0
LINE
8
0
10
167.4511967
20
-66.0791403
11
170.1540487
21
-78.7950591
0
LINE
8
0
10
181.1452631
20
-63.1683767
11
183.8481151
21
-75.8842955
0
ARC
8
0
10
167.9402705
20
-65.9751845
40
0.5
50
102
51
192
0
ARC
8
0
10
180.6561893
20
-63.2723325
40
0.5
50
12
51
102
0
ARC
8
0
10
170.6431225
20
-78.6911033
40
0.5
50
192
51
282
0
ARC
8
0
10
183.3590413
20
-75.9882513
40
0.5
50
282
51
12
0
LINE
8
0
10
205.1037383
20
-57.5646752
11
217.8196571
21
-54.8618232
0
LINE
8
0
10
208.0145019
20
-71.2587416
11
220.7304207
21
-68.5558896
0
LINE
8
0
10
204.7186203
20
-58.1577048
11
207.4214723
21
-70.8736236
0
LINE
8
0
10
218.4126867
20
-55.2469412
11
221.1155387
21
-67.96286
0
ARC
8
0
10
205.2076941
20
-58.053749
40
0.5
50
102
51
192
0
ARC
8
0
10
217.9236129
20
-55.350897
40
0.5
50
12
51
102
0
ARC
8
0
10
207.9105461
20
-70.7696678
40
0.5
50
192
51
282
0
ARC
8
0
10
220.6264649
20
-68.0668158
40
0.5
50
282
51
12
0
LINE
8
0
10
150.1927824
20
-74.1052563
11
162.9087012
21
-71.4024043
0
LINE
8
0
10
153.103546
20
-87.7993227
11
165.8194648
21
-85.0964707
0
LINE
8
0
10
149.8076644
20
-74.6982859
11
152.5105164
21
-87.4142047
0
LINE
8
0
10
163.5017308
20
-71.7875223
11
166.2045828
21
-84.5034411
0
ARC
8
0
10
150.2967382
20
-74.5943301
40
0.5
50
102
51
192
0
ARC
8
0
10
163.012657
20
-71.8914781
40
0.5
50
12
51
102
0
ARC
8
0
10
152.9995902
20
-87.3102489
40
0.5
50
192
51
282
0
ARC
8
0
10
165.715509
20
-84.6073969
40
0.5
50
282
51
12
0
LINE
8
0
10
224.7276295
20
-58.2623855
11
237.4435483
21
-55.5595335
0
LINE
8
0
10
227.6383931
20
-71.9564519
11
240.3543119
21
-69.2535999
0
LINE
8
0
10
224.3425115
20
-58.8554151
11
227.0453635
21
-71.5713339
0
LINE
8
0
10
238.0365779
20
-55.9446515
11
240.7394299
21
-68.6605703
0
ARC
8
0
10
224.8315853
20
-58.7514593
40
0.5
50
102
51
192
0
ARC
8
0
10
237.5475041
20
-56.0486073
40
0.5
50
12
51
102
0
ARC
8
0
10
227.5344373
20
-71.4673781
40
0.5
50
192
51
282
0
ARC
8
0
10
240.2503561
20
-68.7645261
40
0.5
50
282
51
12
0
LINE
8
0
10
209.064456
20
-76.198387
11
221.7803748
21
-73.495535
0
LINE
8
0
10
211.9752196
20
-89.8924534
11
224.6911384
21
-87.1896014
0
LINE
8
0
10
208.679338
20
-76.7914166
11
211.38219
21
-89.5073354
0
LINE
8
0
10
222.3734044
20
-73.880653
11
225.0762564
21
-86.5965718
0
ARC
8
0
10
209.1684118
20
-76.6874608
40
0.5
50
102
51
192
0
ARC
8
0
10
221.8843306
20
-73.9846088
40
0.5
50
12
51
102
0
ARC
8
0
10
211.8712638
20
-89.4033796
40
0.5
50
192
51
282
0
ARC
8
0
10
224.5871826
20
-86.7005276
40
0.5
50
282
51
12
0
LINE
8
0
10
191.4209237
20
-84.8175327
11
204.1368425
21
-82.1146807
0
LINE
8
0
10
194.3316873
20
-98.5115991
11
207.0476061
21
-95.8087471
0
LINE
8
0
10
191.0358057
20
-85.4105623
11
193.7386577
21
-98.1264811
0
LINE
8
0
10
204.7298721
20
-82.4997987
11
207.4327241
21
-95.2157175
0
ARC
8
0
10
191.5248795
20
-85.3066065
40
0.5
50
102
51
192
0
ARC
8
0
10
204.2407983
20
-82.6037545
40
0.5
50
12
51
102
0
ARC
8
0
10
194.2277315
20
-98.0225253
40
0.5
50
192
51
282
0
ARC
8
0
10
206.9436503
20
-95.3196733
40
0.5
50
282
51
12
0
LINE
8
0
10
228.6883473
20
-76.8960973
11
241.4042661
21
-74.1932453
0
LINE
8
0
10
231.5991109
20
-90.5901637
11
244.3150297
21
-87.8873117
0
LINE
8
0
10
228.3032293
20
-77.4891269
11
231.0060813
21
-90.2050457
0
LINE
8
0
10
241.9972957
20
-74.5783633
11
244.7001477
21
-87.2942821
0
ARC
8
0
10
228.7923031
20
-77.3851711
40
0.5
50
102
51
192
0
ARC
8
0
10
241.5082219
20
-74.6823191
40
0.5
50
12
51
102
0
ARC
8
0
10
231.4951551
20
-90.1010899
40
0.5
50
192
51
282
0
ARC
8
0
10
244.2110739
20
-87.3982379
40
0.5
50
282
51
12
0
LINE
8
0
10
15.9108115
20
-123.5189191
11
246.0266885
21
-123.5189191
0
LINE
8
0
10
15.9108115
20
-15.5701486
11
246.0266885
21
-15.5701486
0
LINE
8
0
10
15.9108115
20
-123.5189191
11
15.9108115
21
-15.5701486
0
LINE
8
0
10
246.0266885
20
-123.5189191
11
246.0266885
21
-15.5701486
0
ENDSEC
0
EOF