999
"DXF R12 Output" (www.mydxf.blogspot.com)
 0 
SECTION
 2 
HEADER
 9 
$ACADVER
 1 
AC1009
 9 
$EXTMIN
 10 
 0 
 20 
 0 
 9 
$EXTMAX
 10 
 8.5 
 20 
 11 
 0 
ENDSEC
 0 
SECTION
 2 
ENTITIES
0
LINE
8
Livello 1
10
61.026249
20
168.214860
11
57.533801
21
168.097439
0
LINE
8
Livello 1
10
57.533801
20
168.097439
11
54.099972
21
167.745202
0
LINE
8
Livello 1
10
54.099972
20
167.745202
11
50.724838
21
167.158184
0
LINE
8
Livello 1
10
50.724838
20
167.158184
11
47.408476
21
166.336422
0
LINE
8
Livello 1
10
47.408476
20
166.336422
11
44.214524
21
165.343476
0
LINE
8
Livello 1
10
44.214524
20
165.343476
11
41.128255
21
164.164646
0
LINE
8
Livello 1
10
41.128255
20
164.164646
11
38.149594
21
162.799946
0
LINE
8
Livello 1
10
38.149594
20
162.799946
11
35.278467
21
161.249394
0
LINE
8
Livello 1
10
35.278467
20
161.249394
11
32.519742
21
159.517897
0
LINE
8
Livello 1
10
32.519742
20
159.517897
11
29.878366
21
157.610338
0
LINE
8
Livello 1
10
29.878366
20
157.610338
11
27.354382
21
155.526692
0
LINE
8
Livello 1
10
27.354382
20
155.526692
11
24.947831
21
153.266935
0
LINE
8
Livello 1
10
24.947831
20
153.266935
11
22.688074
21
150.860382
0
LINE
8
Livello 1
10
22.688074
20
150.860382
11
20.604429
21
148.336398
0
LINE
8
Livello 1
10
20.604429
20
148.336398
11
18.696870
21
145.695024
0
LINE
8
Livello 1
10
18.696870
20
145.695024
11
16.965373
21
142.936300
0
LINE
8
Livello 1
10
16.965373
20
142.936300
11
15.409884
21
140.060236
0
LINE
8
Livello 1
10
15.409884
20
140.060236
11
14.030411
21
137.066801
0
LINE
8
Livello 1
10
14.030411
20
137.066801
11
12.827025
21
133.955977
0
LINE
8
Livello 1
10
12.827025
20
133.955977
11
11.799797
21
130.727743
0
LINE
8
Livello 1
10
11.799797
20
130.727743
11
11.012315
21
127.445667
0
LINE
8
Livello 1
10
11.012315
20
127.445667
11
10.449853
21
124.095087
0
LINE
8
Livello 1
10
10.449853
20
124.095087
11
10.112390
21
120.676030
0
LINE
8
Livello 1
10
10.112390
20
120.676030
11
9.999906
21
117.188517
0
LINE
8
Livello 1
10
9.999906
20
117.188517
11
10.239601
21
112.121131
0
LINE
8
Livello 1
10
10.239601
20
112.121131
11
10.958666
21
107.171129
0
LINE
8
Livello 1
10
10.958666
20
107.171129
11
12.157079
21
102.338517
0
LINE
8
Livello 1
10
12.157079
20
102.338517
11
13.834814
21
97.623300
0
LINE
8
Livello 1
10
13.834814
20
97.623300
11
15.022686
21
94.979470
0
LINE
8
Livello 1
10
15.022686
20
94.979470
11
16.356153
21
92.418414
0
LINE
8
Livello 1
10
16.356153
20
92.418414
11
17.835196
21
89.940058
0
LINE
8
Livello 1
10
17.835196
20
89.940058
11
19.459794
21
87.544330
0
LINE
8
Livello 1
10
19.459794
20
87.544330
11
21.851366
21
84.359983
0
LINE
8
Livello 1
10
21.851366
20
84.359983
11
24.745116
21
80.859019
0
LINE
8
Livello 1
10
24.745116
20
80.859019
11
27.864892
21
77.595473
0
LINE
8
Livello 1
10
27.864892
20
77.595473
11
29.423244
21
76.225867
0
LINE
8
Livello 1
10
29.423244
20
76.225867
11
30.934546
21
75.123380
0
LINE
8
Livello 1
10
30.934546
20
75.123380
11
95.979154
21
33.449440
0
LINE
8
Livello 1
10
95.979154
20
33.449440
11
97.983614
21
32.489095
0
LINE
8
Livello 1
10
97.983614
20
32.489095
11
98.996716
21
32.244129
0
LINE
8
Livello 1
10
98.996716
20
32.244129
11
100.011949
21
32.158570
0
LINE
8
Livello 1
10
100.011949
20
32.158570
11
101.025473
21
32.234370
0
LINE
8
Livello 1
10
101.025473
20
32.234370
11
102.033452
21
32.473480
0
LINE
8
Livello 1
10
102.033452
20
32.473480
11
103.032047
21
32.877853
0
LINE
8
Livello 1
10
103.032047
20
32.877853
11
104.017420
21
33.449440
0
LINE
8
Livello 1
10
104.017420
20
33.449440
11
175.052360
21
81.110620
0
LINE
8
Livello 1
10
175.052360
20
81.110620
11
177.061020
21
82.665319
0
LINE
8
Livello 1
10
177.061020
20
82.665319
11
178.833185
21
84.437889
0
LINE
8
Livello 1
10
178.833185
20
84.437889
11
180.398599
21
86.392165
0
LINE
8
Livello 1
10
180.398599
20
86.392165
11
181.787004
21
88.491980
0
LINE
8
Livello 1
10
181.787004
20
88.491980
11
183.028142
21
90.701167
0
LINE
8
Livello 1
10
183.028142
20
90.701167
11
184.151755
21
92.983561
0
LINE
8
Livello 1
10
184.151755
20
92.983561
11
186.165380
21
97.623300
0
LINE
8
Livello 1
10
186.165380
20
97.623300
11
187.843027
21
102.338517
0
LINE
8
Livello 1
10
187.843027
20
102.338517
11
189.041262
21
107.171129
0
LINE
8
Livello 1
10
189.041262
20
107.171129
11
189.760154
21
112.121131
0
LINE
8
Livello 1
10
189.760154
20
112.121131
11
189.999770
21
117.188517
0
LINE
8
Livello 1
10
189.999770
20
117.188517
11
189.745430
21
122.388023
0
LINE
8
Livello 1
10
189.745430
20
122.388023
11
188.982404
21
127.421296
0
LINE
8
Livello 1
10
188.982404
20
127.421296
11
187.710680
21
132.288265
0
LINE
8
Livello 1
10
187.710680
20
132.288265
11
185.930250
21
136.988859
0
LINE
8
Livello 1
10
185.930250
20
136.988859
11
183.748768
21
141.493751
0
LINE
8
Livello 1
10
183.748768
20
141.493751
11
181.195529
21
145.695399
0
LINE
8
Livello 1
10
181.195529
20
145.695399
11
178.270543
21
149.593788
0
LINE
8
Livello 1
10
178.270543
20
149.593788
11
174.973820
21
153.188904
0
LINE
8
Livello 1
10
174.973820
20
153.188904
11
171.378688
21
156.485627
0
LINE
8
Livello 1
10
171.378688
20
156.485627
11
167.480301
21
159.410600
0
LINE
8
Livello 1
10
167.480301
20
159.410600
11
163.278662
21
161.963835
0
LINE
8
Livello 1
10
163.278662
20
161.963835
11
158.773770
21
164.145341
0
LINE
8
Livello 1
10
158.773770
20
164.145341
11
154.073257
21
165.925768
0
LINE
8
Livello 1
10
154.073257
20
165.925768
11
149.206466
21
167.197491
0
LINE
8
Livello 1
10
149.206466
20
167.197491
11
144.173372
21
167.960519
0
LINE
8
Livello 1
10
144.173372
20
167.960519
11
138.973950
21
168.214860
0
LINE
8
Livello 1
10
138.973950
20
168.214860
11
135.970672
21
168.136603
0
LINE
8
Livello 1
10
135.970672
20
168.136603
11
133.065189
21
167.901832
0
LINE
8
Livello 1
10
133.065189
20
167.901832
11
130.257541
21
167.510545
0
LINE
8
Livello 1
10
130.257541
20
167.510545
11
127.547770
21
166.962740
0
LINE
8
Livello 1
10
127.547770
20
166.962740
11
122.421614
21
165.514793
0
LINE
8
Livello 1
10
122.421614
20
165.514793
11
117.530290
21
163.519023
0
LINE
8
Livello 1
10
117.530290
20
163.519023
11
112.873900
21
160.975536
0
LINE
8
Livello 1
10
112.873900
20
160.975536
11
108.452290
21
157.884224
0
LINE
8
Livello 1
10
108.452290
20
157.884224
11
105.624270
21
155.609629
0
LINE
8
Livello 1
10
105.624270
20
155.609629
11
102.830420
21
153.129993
0
LINE
8
Livello 1
10
102.830420
20
153.129993
11
102.193647
21
152.641957
0
LINE
8
Livello 1
10
102.193647
20
152.641957
11
101.495890
21
152.293178
0
LINE
8
Livello 1
10
101.495890
20
152.293178
11
99.998448
21
152.013310
0
LINE
8
Livello 1
10
99.998448
20
152.013310
11
98.500153
21
152.290234
0
LINE
8
Livello 1
10
98.500153
20
152.290234
11
97.801328
21
152.637444
0
LINE
8
Livello 1
10
97.801328
20
152.637444
11
97.163062
21
153.123793
0
LINE
8
Livello 1
10
97.163062
20
153.123793
11
94.341881
21
155.606966
0
LINE
8
Livello 1
10
94.341881
20
155.606966
11
91.469352
21
157.884742
0
LINE
8
Livello 1
10
91.469352
20
157.884742
11
87.047741
21
160.976050
0
LINE
8
Livello 1
10
87.047741
20
160.976050
11
82.391353
21
163.519540
0
LINE
8
Livello 1
10
82.391353
20
163.519540
11
80.004383
21
164.585799
0
LINE
8
Livello 1
10
80.004383
20
164.585799
11
77.539134
21
165.515052
0
LINE
8
Livello 1
10
77.539134
20
165.515052
11
74.995626
21
166.307350
0
LINE
8
Livello 1
10
74.995626
20
166.307350
11
72.373877
21
166.962740
0
LINE
8
Livello 1
10
72.373877
20
166.962740
11
69.698366
21
167.510558
0
LINE
8
Livello 1
10
69.698366
20
167.510558
11
66.915279
21
167.901844
0
LINE
8
Livello 1
10
66.915279
20
167.901844
11
64.024584
21
168.136608
0
LINE
8
Livello 1
10
64.024584
20
168.136608
11
61.026249
21
168.214860
0
LINE
8
Livello 1
10
61.026249
20
168.214860
11
61.026249
21
168.214860
0
LINE
8
Livello 1
10
61.026249
20
156.945264
11
64.141976
21
156.847430
0
LINE
8
Livello 1
10
64.141976
20
156.847430
11
67.071801
21
156.553934
0
LINE
8
Livello 1
10
67.071801
20
156.553934
11
69.815757
21
156.064783
0
LINE
8
Livello 1
10
69.815757
20
156.064783
11
72.373877
21
155.379985
0
LINE
8
Livello 1
10
72.373877
20
155.379985
11
74.790215
21
154.563181
0
LINE
8
Livello 1
10
74.790215
20
154.563181
11
77.108781
21
153.599686
0
LINE
8
Livello 1
10
77.108781
20
153.599686
11
79.329524
21
152.489454
0
LINE
8
Livello 1
10
79.329524
20
152.489454
11
81.452393
21
151.232434
0
LINE
8
Livello 1
10
81.452393
20
151.232434
11
85.502173
21
148.395239
0
LINE
8
Livello 1
10
85.502173
20
148.395239
11
89.356303
21
145.049349
0
LINE
8
Livello 1
10
89.356303
20
145.049349
11
97.104150
21
137.380050
0
LINE
8
Livello 1
10
97.104150
20
137.380050
11
97.169780
21
137.311320
0
LINE
8
Livello 1
10
97.169780
20
137.311320
11
97.797349
21
136.798686
0
LINE
8
Livello 1
10
97.797349
20
136.798686
11
98.493164
21
136.432519
0
LINE
8
Livello 1
10
98.493164
20
136.432519
11
99.998539
21
136.139585
0
LINE
8
Livello 1
10
99.998539
20
136.139585
11
101.503920
21
136.432519
0
LINE
8
Livello 1
10
101.503920
20
136.432519
11
102.199742
21
136.798686
0
LINE
8
Livello 1
10
102.199742
20
136.798686
11
102.827320
21
137.311320
0
LINE
8
Livello 1
10
102.827320
20
137.311320
11
102.895520
21
137.380050
0
LINE
8
Livello 1
10
102.895520
20
137.380050
11
110.564820
21
145.049349
0
LINE
8
Livello 1
10
110.564820
20
145.049349
11
114.419185
21
148.395239
0
LINE
8
Livello 1
10
114.419185
20
148.395239
11
118.469240
21
151.232434
0
LINE
8
Livello 1
10
118.469240
20
151.232434
11
120.626295
21
152.489454
0
LINE
8
Livello 1
10
120.626295
20
152.489454
11
122.871411
21
153.599686
0
LINE
8
Livello 1
10
122.871411
20
153.599686
11
125.204580
21
154.563181
0
LINE
8
Livello 1
10
125.204580
20
154.563181
11
127.625790
21
155.379985
0
LINE
8
Livello 1
10
127.625790
20
155.379985
11
130.183922
21
156.064775
0
LINE
8
Livello 1
10
130.183922
20
156.064775
11
132.927883
21
156.553927
0
LINE
8
Livello 1
10
132.927883
20
156.553927
11
135.857705
21
156.847428
0
LINE
8
Livello 1
10
135.857705
20
156.847428
11
138.973420
21
156.945264
0
LINE
8
Livello 1
10
138.973420
20
156.945264
11
143.018553
21
156.749592
0
LINE
8
Livello 1
10
143.018553
20
156.749592
11
146.936583
21
156.162592
0
LINE
8
Livello 1
10
146.936583
20
156.162592
11
150.727445
21
155.184289
0
LINE
8
Livello 1
10
150.727445
20
155.184289
11
154.391080
21
153.814705
0
LINE
8
Livello 1
10
154.391080
20
153.814705
11
157.912839
21
152.107675
0
LINE
8
Livello 1
10
157.912839
20
152.107675
11
161.199805
21
150.116983
0
LINE
8
Livello 1
10
161.199805
20
150.116983
11
164.251983
21
147.842594
0
LINE
8
Livello 1
10
164.251983
20
147.842594
11
167.069380
21
145.284477
0
LINE
8
Livello 1
10
167.069380
20
145.284477
11
169.627507
21
142.467079
0
LINE
8
Livello 1
10
169.627507
20
142.467079
11
171.901889
21
139.414890
0
LINE
8
Livello 1
10
171.901889
20
139.414890
11
173.892574
21
136.127920
0
LINE
8
Livello 1
10
173.892574
20
136.127920
11
175.599610
21
132.606181
0
LINE
8
Livello 1
10
175.599610
20
132.606181
11
176.969196
21
128.942555
0
LINE
8
Livello 1
10
176.969196
20
128.942555
11
177.947500
21
125.151697
0
LINE
8
Livello 1
10
177.947500
20
125.151697
11
178.534499
21
121.233665
0
LINE
8
Livello 1
10
178.534499
20
121.233665
11
178.730170
21
117.188517
0
LINE
8
Livello 1
10
178.730170
20
117.188517
11
178.539433
21
113.241287
0
LINE
8
Livello 1
10
178.539433
20
113.241287
11
177.967204
21
109.382149
0
LINE
8
Livello 1
10
177.967204
20
109.382149
11
177.013455
21
105.611054
0
LINE
8
Livello 1
10
177.013455
20
105.611054
11
175.678160
21
101.927950
0
LINE
8
Livello 1
10
175.678160
20
101.927950
11
174.024892
21
98.425759
0
LINE
8
Livello 1
10
174.024892
20
98.425759
11
172.038990
21
95.119201
0
LINE
8
Livello 1
10
172.038990
20
95.119201
11
169.720478
21
92.008298
0
LINE
8
Livello 1
10
169.720478
20
92.008298
11
167.069380
21
89.093070
0
LINE
8
Livello 1
10
167.069380
20
89.093070
11
166.178990
21
88.202690
0
LINE
8
Livello 1
10
166.178990
20
88.202690
11
160.611985
21
87.535611
0
LINE
8
Livello 1
10
160.611985
20
87.535611
11
155.613289
21
87.070408
0
LINE
8
Livello 1
10
155.613289
20
87.070408
11
151.102004
21
86.835712
0
LINE
8
Livello 1
10
151.102004
20
86.835712
11
146.997228
21
86.860157
0
LINE
8
Livello 1
10
146.997228
20
86.860157
11
143.218062
21
87.172374
0
LINE
8
Livello 1
10
143.218062
20
87.172374
11
139.683606
21
87.800995
0
LINE
8
Livello 1
10
139.683606
20
87.800995
11
136.312960
21
88.774652
0
LINE
8
Livello 1
10
136.312960
20
88.774652
11
133.025224
21
90.121978
0
LINE
8
Livello 1
10
133.025224
20
90.121978
11
129.739497
21
91.871603
0
LINE
8
Livello 1
10
129.739497
20
91.871603
11
126.374881
21
94.052161
0
LINE
8
Livello 1
10
126.374881
20
94.052161
11
122.850474
21
96.692283
0
LINE
8
Livello 1
10
122.850474
20
96.692283
11
119.085378
21
99.820602
0
LINE
8
Livello 1
10
119.085378
20
99.820602
11
110.509514
21
107.656356
0
LINE
8
Livello 1
10
110.509514
20
107.656356
11
100.000090
21
117.788481
0
LINE
8
Livello 1
10
100.000090
20
117.788481
11
94.898023
21
114.611738
0
LINE
8
Livello 1
10
94.898023
20
114.611738
11
90.909746
21
111.814985
0
LINE
8
Livello 1
10
90.909746
20
111.814985
11
87.707150
21
109.540064
0
LINE
8
Livello 1
10
87.707150
20
109.540064
11
84.962128
21
107.928816
0
LINE
8
Livello 1
10
84.962128
20
107.928816
11
83.658672
21
107.416394
0
LINE
8
Livello 1
10
83.658672
20
107.416394
11
82.346569
21
107.123081
0
LINE
8
Livello 1
10
82.346569
20
107.123081
11
80.984805
21
107.066607
0
LINE
8
Livello 1
10
80.984805
20
107.066607
11
79.532367
21
107.264702
0
LINE
8
Livello 1
10
79.532367
20
107.264702
11
77.948240
21
107.735096
0
LINE
8
Livello 1
10
77.948240
20
107.735096
11
76.191412
21
108.495519
0
LINE
8
Livello 1
10
76.191412
20
108.495519
11
74.220868
21
109.563701
0
LINE
8
Livello 1
10
74.220868
20
109.563701
11
71.995596
21
110.957373
0
LINE
8
Livello 1
10
71.995596
20
110.957373
11
69.967227
21
108.782349
0
LINE
8
Livello 1
10
69.967227
20
108.782349
11
67.804852
21
106.791588
0
LINE
8
Livello 1
10
67.804852
20
106.791588
11
65.520715
21
104.973818
0
LINE
8
Livello 1
10
65.520715
20
104.973818
11
63.127064
21
103.317765
0
LINE
8
Livello 1
10
63.127064
20
103.317765
11
60.636144
21
101.812158
0
LINE
8
Livello 1
10
60.636144
20
101.812158
11
58.060200
21
100.445723
0
LINE
8
Livello 1
10
58.060200
20
100.445723
11
52.702226
21
98.085283
0
LINE
8
Livello 1
10
52.702226
20
98.085283
11
47.151108
21
96.146265
0
LINE
8
Livello 1
10
47.151108
20
96.146265
11
41.504813
21
94.538490
0
LINE
8
Livello 1
10
41.504813
20
94.538490
11
35.861306
21
93.171778
0
LINE
8
Livello 1
10
35.861306
20
93.171778
11
30.318554
21
91.955950
0
LINE
8
Livello 1
10
30.318554
20
91.955950
11
28.524222
21
94.281979
0
LINE
8
Livello 1
10
28.524222
20
94.281979
11
26.913570
21
96.719264
0
LINE
8
Livello 1
10
26.913570
20
96.719264
11
25.486639
21
99.267892
0
LINE
8
Livello 1
10
25.486639
20
99.267892
11
24.243472
21
101.927950
0
LINE
8
Livello 1
10
24.243472
20
101.927950
11
22.942378
21
105.611054
0
LINE
8
Livello 1
10
22.942378
20
105.611054
11
22.013007
21
109.382149
0
LINE
8
Livello 1
10
22.013007
20
109.382149
11
21.455375
21
113.241287
0
LINE
8
Livello 1
10
21.455375
20
113.241287
11
21.269494
21
117.188517
0
LINE
8
Livello 1
10
21.269494
20
117.188517
11
21.465166
21
121.233665
0
LINE
8
Livello 1
10
21.465166
20
121.233665
11
22.052166
21
125.151697
0
LINE
8
Livello 1
10
22.052166
20
125.151697
11
23.030469
21
128.942555
0
LINE
8
Livello 1
10
23.030469
20
128.942555
11
24.400052
21
132.606181
0
LINE
8
Livello 1
10
24.400052
20
132.606181
11
26.107084
21
136.127920
0
LINE
8
Livello 1
10
26.107084
20
136.127920
11
28.097775
21
139.414890
0
LINE
8
Livello 1
10
28.097775
20
139.414890
11
30.372161
21
142.467079
0
LINE
8
Livello 1
10
30.372161
20
142.467079
11
32.930281
21
145.284477
0
LINE
8
Livello 1
10
32.930281
20
145.284477
11
35.742816
21
147.842594
0
LINE
8
Livello 1
10
35.742816
20
147.842594
11
38.780409
21
150.116983
0
LINE
8
Livello 1
10
38.780409
20
150.116983
11
42.043004
21
152.107675
0
LINE
8
Livello 1
10
42.043004
20
152.107675
11
45.530545
21
153.814705
0
LINE
8
Livello 1
10
45.530545
20
153.814705
11
49.228374
21
155.184289
0
LINE
8
Livello 1
10
49.228374
20
155.184289
11
53.043610
21
156.162592
0
LINE
8
Livello 1
10
53.043610
20
156.162592
11
56.976237
21
156.749592
0
LINE
8
Livello 1
10
56.976237
20
156.749592
11
61.026240
21
156.945264
0
LINE
8
Livello 1
10
61.026240
20
156.945264
11
61.026249
21
156.945264
0
LINE
8
Livello 1
10
42.525053
20
83.730610
11
95.474276
21
48.049580
0
LINE
8
Livello 1
10
95.474276
20
48.049580
11
96.542013
21
47.440437
0
LINE
8
Livello 1
10
96.542013
20
47.440437
11
97.669416
21
47.003211
0
LINE
8
Livello 1
10
97.669416
20
47.003211
11
98.836945
21
46.738045
0
LINE
8
Livello 1
10
98.836945
20
46.738045
11
100.025060
21
46.645080
0
LINE
8
Livello 1
10
100.025060
20
46.645080
11
101.207613
21
46.723555
0
LINE
8
Livello 1
10
101.207613
20
46.723555
11
102.371985
21
46.972580
0
LINE
8
Livello 1
10
102.371985
20
46.972580
11
103.498962
21
47.392305
0
LINE
8
Livello 1
10
103.498962
20
47.392305
11
104.569330
21
47.982880
0
LINE
8
Livello 1
10
104.569330
20
47.982880
11
151.347350
21
75.948620
0
LINE
8
Livello 1
10
151.347350
20
75.948620
11
151.571280
21
75.993934
0
LINE
8
Livello 1
10
151.571280
20
75.993934
11
151.739573
21
75.875091
0
LINE
8
Livello 1
10
151.739573
20
75.875091
11
151.793404
21
75.676225
0
LINE
8
Livello 1
10
151.793404
20
75.676225
11
151.673950
21
75.481470
0
LINE
8
Livello 1
10
151.673950
20
75.481470
11
103.848440
21
41.538310
0
LINE
8
Livello 1
10
103.848440
20
41.538310
11
102.958067
21
40.979857
0
LINE
8
Livello 1
10
102.958067
20
40.979857
11
102.007768
21
40.582595
0
LINE
8
Livello 1
10
102.007768
20
40.582595
11
101.017795
21
40.346416
0
LINE
8
Livello 1
10
101.017795
20
40.346416
11
100.008402
21
40.271217
0
LINE
8
Livello 1
10
100.008402
20
40.271217
11
98.999845
21
40.356893
0
LINE
8
Livello 1
10
98.999845
20
40.356893
11
98.012377
21
40.603337
0
LINE
8
Livello 1
10
98.012377
20
40.603337
11
97.066253
21
41.010444
0
LINE
8
Livello 1
10
97.066253
20
41.010444
11
96.181726
21
41.578110
0
LINE
8
Livello 1
10
96.181726
20
41.578110
11
42.010356
21
83.013300
0
LINE
8
Livello 1
10
42.010356
20
83.013300
11
41.833696
21
83.316400
0
LINE
8
Livello 1
10
41.833696
20
83.316400
11
41.920791
21
83.620871
0
LINE
8
Livello 1
10
41.920791
20
83.620871
11
42.181343
21
83.800875
0
LINE
8
Livello 1
10
42.181343
20
83.800875
11
42.525053
21
83.730570
0
LINE
8
Livello 1
10
42.525053
20
83.730570
11
42.525053
21
83.730610
 0 
ENDSEC
 0 
EOF