999
"DXF R12 Output" (www.mydxf.blogspot.com)
 0 
SECTION
 2 
HEADER
 9 
$ACADVER
 1 
AC1009
 9 
$EXTMIN
 10 
 0 
 20 
 0 
 9 
$EXTMAX
 10 
 8.5 
 20 
 11 
 0 
ENDSEC
 0 
SECTION
 2 
ENTITIES
0
LINE
8
Layer 1
10
3.000000
20
203.000000
11
-3.000000
21
197.000000
0
LINE
8
Layer 1
10
0.000000
20
205.000000
11
0.000000
21
195.000000
0
LINE
8
Layer 1
10
8.000000
20
196.000000
11
4.000000
21
192.000000
0
LINE
8
Layer 1
10
6.000000
20
198.000000
11
2.000000
21
194.000000
0
LINE
8
Layer 1
10
4.000000
20
200.000000
11
0.000000
21
196.000000
0
LINE
8
Layer 1
10
44.755758
20
145.991830
11
43.826487
21
145.776609
0
LINE
8
Layer 1
10
43.826487
20
145.776609
11
42.956830
21
145.384745
0
LINE
8
Layer 1
10
42.956830
20
145.384745
11
29.730219
21
137.790313
0
LINE
8
Layer 1
10
29.730219
20
137.790313
11
28.289052
21
136.747084
0
LINE
8
Layer 1
10
28.289052
20
136.747084
11
27.109292
21
135.440794
0
LINE
8
Layer 1
10
27.109292
20
135.440794
11
26.225381
21
133.918647
0
LINE
8
Layer 1
10
26.225381
20
133.918647
11
25.671761
21
132.227851
0
LINE
8
Layer 1
10
25.671761
20
132.227851
11
18.338962
21
98.008649
0
LINE
8
Layer 1
10
18.338962
20
98.008649
11
18.209291
21
97.003550
0
LINE
8
Layer 1
10
18.209291
20
97.003550
11
18.245729
21
96.011249
0
LINE
8
Layer 1
10
18.245729
20
96.011249
11
18.439885
21
95.049581
0
LINE
8
Layer 1
10
18.439885
20
95.049581
11
18.783373
21
94.136376
0
LINE
8
Layer 1
10
18.783373
20
94.136376
11
19.267805
21
93.289468
0
LINE
8
Layer 1
10
19.267805
20
93.289468
11
19.884791
21
92.526690
0
LINE
8
Layer 1
10
19.884791
20
92.526690
11
20.625945
21
91.865873
0
LINE
8
Layer 1
10
20.625945
20
91.865873
11
21.482877
21
91.324850
0
LINE
8
Layer 1
10
21.482877
20
91.324850
11
96.742410
21
52.111560
0
LINE
8
Layer 1
10
96.742410
20
52.111560
11
98.695119
21
51.378008
0
LINE
8
Layer 1
10
98.695119
20
51.378008
11
100.737623
21
51.134013
0
LINE
8
Layer 1
10
100.737623
20
51.134013
11
102.779943
21
51.379542
0
LINE
8
Layer 1
10
102.779943
20
51.379542
11
104.732101
21
52.114560
0
LINE
8
Layer 1
10
104.732101
20
52.114560
11
179.860681
21
91.325110
0
LINE
8
Layer 1
10
179.860681
20
91.325110
11
180.717611
21
91.866133
0
LINE
8
Layer 1
10
180.717611
20
91.866133
11
181.458762
21
92.526950
0
LINE
8
Layer 1
10
181.458762
20
92.526950
11
182.075748
21
93.289728
0
LINE
8
Layer 1
10
182.075748
20
93.289728
11
182.560179
21
94.136636
0
LINE
8
Layer 1
10
182.560179
20
94.136636
11
182.903667
21
95.049841
0
LINE
8
Layer 1
10
182.903667
20
95.049841
11
183.097824
21
96.011509
0
LINE
8
Layer 1
10
183.097824
20
96.011509
11
183.134261
21
97.003810
0
LINE
8
Layer 1
10
183.134261
20
97.003810
11
183.004591
21
98.008909
0
LINE
8
Layer 1
10
183.004591
20
98.008909
11
175.671761
21
132.227851
0
LINE
8
Layer 1
10
175.671761
20
132.227851
11
175.118140
21
133.918648
0
LINE
8
Layer 1
10
175.118140
20
133.918648
11
174.234229
21
135.440794
0
LINE
8
Layer 1
10
174.234229
20
135.440794
11
173.054468
21
136.747084
0
LINE
8
Layer 1
10
173.054468
20
136.747084
11
171.613301
21
137.790313
0
LINE
8
Layer 1
10
171.613301
20
137.790313
11
158.386701
21
145.384745
0
LINE
8
Layer 1
10
158.386701
20
145.384745
11
157.512693
21
145.778127
0
LINE
8
Layer 1
10
157.512693
20
145.778127
11
156.587557
21
145.991915
0
LINE
8
Layer 1
10
156.587557
20
145.991915
11
155.638536
21
146.022555
0
LINE
8
Layer 1
10
155.638536
20
146.022555
11
154.692871
21
145.866496
0
LINE
8
Layer 1
10
154.692871
20
145.866496
11
103.618721
21
132.173861
0
LINE
8
Layer 1
10
103.618721
20
132.173861
11
102.154839
21
131.882731
0
LINE
8
Layer 1
10
102.154839
20
131.882731
11
100.671783
21
131.785688
0
LINE
8
Layer 1
10
100.671783
20
131.785688
11
99.188727
21
131.882731
0
LINE
8
Layer 1
10
99.188727
20
131.882731
11
97.724845
21
132.173861
0
LINE
8
Layer 1
10
97.724845
20
132.173861
11
46.650645
21
145.866496
0
LINE
8
Layer 1
10
46.650645
20
145.866496
11
45.709357
21
146.022219
0
LINE
8
Layer 1
10
45.709357
20
146.022219
11
44.755758
21
145.991830
0
LINE
8
Layer 1
10
44.755758
20
145.991830
11
44.755758
21
145.991830
0
LINE
8
Layer 1
10
44.083982
20
148.015830
11
43.154711
21
147.800609
0
LINE
8
Layer 1
10
43.154711
20
147.800609
11
42.285054
21
147.408745
0
LINE
8
Layer 1
10
42.285054
20
147.408745
11
29.058443
21
139.814313
0
LINE
8
Layer 1
10
29.058443
20
139.814313
11
27.617276
21
138.771084
0
LINE
8
Layer 1
10
27.617276
20
138.771084
11
26.437516
21
137.464794
0
LINE
8
Layer 1
10
26.437516
20
137.464794
11
25.553605
21
135.942647
0
LINE
8
Layer 1
10
25.553605
20
135.942647
11
24.999985
21
134.251851
0
LINE
8
Layer 1
10
24.999985
20
134.251851
11
17.667186
21
100.032649
0
LINE
8
Layer 1
10
17.667186
20
100.032649
11
17.537515
21
99.027550
0
LINE
8
Layer 1
10
17.537515
20
99.027550
11
17.573952
21
98.035249
0
LINE
8
Layer 1
10
17.573952
20
98.035249
11
17.768109
21
97.073581
0
LINE
8
Layer 1
10
17.768109
20
97.073581
11
18.111597
21
96.160376
0
LINE
8
Layer 1
10
18.111597
20
96.160376
11
18.596028
21
95.313468
0
LINE
8
Layer 1
10
18.596028
20
95.313468
11
19.213015
21
94.550690
0
LINE
8
Layer 1
10
19.213015
20
94.550690
11
19.954168
21
93.889873
0
LINE
8
Layer 1
10
19.954168
20
93.889873
11
20.811101
21
93.348850
0
LINE
8
Layer 1
10
20.811101
20
93.348850
11
96.070634
21
54.135560
0
LINE
8
Layer 1
10
96.070634
20
54.135560
11
98.023343
21
53.402008
0
LINE
8
Layer 1
10
98.023343
20
53.402008
11
100.065847
21
53.158013
0
LINE
8
Layer 1
10
100.065847
20
53.158013
11
102.108167
21
53.403542
0
LINE
8
Layer 1
10
102.108167
20
53.403542
11
104.060325
21
54.138560
0
LINE
8
Layer 1
10
104.060325
20
54.138560
11
179.188905
21
93.349110
0
LINE
8
Layer 1
10
179.188905
20
93.349110
11
180.045834
21
93.890133
0
LINE
8
Layer 1
10
180.045834
20
93.890133
11
180.786986
21
94.550950
0
LINE
8
Layer 1
10
180.786986
20
94.550950
11
181.403971
21
95.313728
0
LINE
8
Layer 1
10
181.403971
20
95.313728
11
181.888402
21
96.160636
0
LINE
8
Layer 1
10
181.888402
20
96.160636
11
182.231890
21
97.073841
0
LINE
8
Layer 1
10
182.231890
20
97.073841
11
182.426047
21
98.035509
0
LINE
8
Layer 1
10
182.426047
20
98.035509
11
182.462485
21
99.027810
0
LINE
8
Layer 1
10
182.462485
20
99.027810
11
182.332815
21
100.032909
0
LINE
8
Layer 1
10
182.332815
20
100.032909
11
174.999985
21
134.251851
0
LINE
8
Layer 1
10
174.999985
20
134.251851
11
174.446364
21
135.942648
0
LINE
8
Layer 1
10
174.446364
20
135.942648
11
173.562452
21
137.464794
0
LINE
8
Layer 1
10
173.562452
20
137.464794
11
172.382692
21
138.771084
0
LINE
8
Layer 1
10
172.382692
20
138.771084
11
170.941525
21
139.814313
0
LINE
8
Layer 1
10
170.941525
20
139.814313
11
157.714925
21
147.408745
0
LINE
8
Layer 1
10
157.714925
20
147.408745
11
156.840917
21
147.802127
0
LINE
8
Layer 1
10
156.840917
20
147.802127
11
155.915781
21
148.015915
0
LINE
8
Layer 1
10
155.915781
20
148.015915
11
154.966759
21
148.046555
0
LINE
8
Layer 1
10
154.966759
20
148.046555
11
154.021095
21
147.890496
0
LINE
8
Layer 1
10
154.021095
20
147.890496
11
102.946945
21
134.197861
0
LINE
8
Layer 1
10
102.946945
20
134.197861
11
101.483063
21
133.906731
0
LINE
8
Layer 1
10
101.483063
20
133.906731
11
100.000007
21
133.809688
0
LINE
8
Layer 1
10
100.000007
20
133.809688
11
98.516951
21
133.906731
0
LINE
8
Layer 1
10
98.516951
20
133.906731
11
97.053069
21
134.197861
0
LINE
8
Layer 1
10
97.053069
20
134.197861
11
45.978869
21
147.890496
0
LINE
8
Layer 1
10
45.978869
20
147.890496
11
45.037580
21
148.046219
0
LINE
8
Layer 1
10
45.037580
20
148.046219
11
44.083982
21
148.015830
0
LINE
8
Layer 1
10
44.083982
20
148.015830
11
44.083982
21
148.015830
0
LINE
8
Layer 1
10
100.382500
20
119.251959
11
99.013086
21
119.109722
0
LINE
8
Layer 1
10
99.013086
20
119.109722
11
97.642553
21
118.785065
0
LINE
8
Layer 1
10
97.642553
20
118.785065
11
95.053627
21
117.809154
0
LINE
8
Layer 1
10
95.053627
20
117.809154
11
93.554166
21
117.245789
0
LINE
8
Layer 1
10
93.554166
20
117.245789
11
91.953732
21
116.837111
0
LINE
8
Layer 1
10
91.953732
20
116.837111
11
88.586264
21
116.416861
0
LINE
8
Layer 1
10
88.586264
20
116.416861
11
85.223863
21
116.414479
0
LINE
8
Layer 1
10
85.223863
20
116.414479
11
82.139170
21
116.696044
0
LINE
8
Layer 1
10
82.139170
20
116.696044
11
81.213347
21
116.657554
0
LINE
8
Layer 1
10
81.213347
20
116.657554
11
80.311620
21
116.340429
0
LINE
8
Layer 1
10
80.311620
20
116.340429
11
79.503951
21
115.806303
0
LINE
8
Layer 1
10
79.503951
20
115.806303
11
78.860301
21
115.116811
0
LINE
8
Layer 1
10
78.860301
20
115.116811
11
77.631230
21
113.682671
0
LINE
8
Layer 1
10
77.631230
20
113.682671
11
76.092511
21
112.320082
0
LINE
8
Layer 1
10
76.092511
20
112.320082
11
76.509023
21
112.092706
0
LINE
8
Layer 1
10
76.509023
20
112.092706
11
76.512123
21
112.092706
0
LINE
8
Layer 1
10
76.512123
20
112.092706
11
78.087221
21
111.274151
0
LINE
8
Layer 1
10
78.087221
20
111.274151
11
78.552896
21
110.919131
0
LINE
8
Layer 1
10
78.552896
20
110.919131
11
78.847160
21
110.412869
0
LINE
8
Layer 1
10
78.847160
20
110.412869
11
78.925169
21
109.832518
0
LINE
8
Layer 1
10
78.925169
20
109.832518
11
78.775034
21
109.266522
0
LINE
8
Layer 1
10
78.775034
20
109.266522
11
78.412781
21
108.794340
0
LINE
8
Layer 1
10
78.412781
20
108.794340
11
77.914935
21
108.507490
0
LINE
8
Layer 1
10
77.914935
20
108.507490
11
77.345878
21
108.428074
0
LINE
8
Layer 1
10
77.345878
20
108.428074
11
76.769989
21
108.578192
0
LINE
8
Layer 1
10
76.769989
20
108.578192
11
75.079653
21
109.456175
0
LINE
8
Layer 1
10
75.079653
20
109.456175
11
75.076553
21
109.459275
0
LINE
8
Layer 1
10
75.076553
20
109.459275
11
73.302501
21
110.426659
0
LINE
8
Layer 1
10
73.302501
20
110.426659
11
70.600802
21
108.984868
0
LINE
8
Layer 1
10
70.600802
20
108.984868
11
67.533987
21
107.617487
0
LINE
8
Layer 1
10
67.533987
20
107.617487
11
60.489847
21
105.055926
0
LINE
8
Layer 1
10
60.489847
20
105.055926
11
76.600491
21
96.266800
0
LINE
8
Layer 1
10
76.600491
20
96.266800
11
76.603591
21
96.266800
0
LINE
8
Layer 1
10
76.603591
20
96.266800
11
78.178688
21
95.448250
0
LINE
8
Layer 1
10
78.178688
20
95.448250
11
78.644682
21
95.093270
0
LINE
8
Layer 1
10
78.644682
20
95.093270
11
78.939177
21
94.586878
0
LINE
8
Layer 1
10
78.939177
20
94.586878
11
79.017259
21
94.006306
0
LINE
8
Layer 1
10
79.017259
20
94.006306
11
78.867019
21
93.440100
0
LINE
8
Layer 1
10
78.867019
20
93.440100
11
78.504665
21
92.968072
0
LINE
8
Layer 1
10
78.504665
20
92.968072
11
78.006796
21
92.681374
0
LINE
8
Layer 1
10
78.006796
20
92.681374
11
77.437776
21
92.602087
0
LINE
8
Layer 1
10
77.437776
20
92.602087
11
76.861973
21
92.752290
0
LINE
8
Layer 1
10
76.861973
20
92.752290
11
75.171120
21
93.630270
0
LINE
8
Layer 1
10
75.171120
20
93.630270
11
75.168020
21
93.633270
0
LINE
8
Layer 1
10
75.168020
20
93.633270
11
56.536082
21
103.796055
0
LINE
8
Layer 1
10
56.536082
20
103.796055
11
47.873912
21
101.400262
0
LINE
8
Layer 1
10
47.873912
20
101.400262
11
38.528395
21
99.052160
0
LINE
8
Layer 1
10
38.528395
20
99.052160
11
37.760354
21
98.576153
0
LINE
8
Layer 1
10
37.760354
20
98.576153
11
36.854596
21
98.643400
0
LINE
8
Layer 1
10
36.854596
20
98.643400
11
21.093801
21
94.743900
0
LINE
8
Layer 1
10
21.093801
20
94.743900
11
26.132770
21
91.995230
0
LINE
8
Layer 1
10
26.132770
20
91.995230
11
26.675541
21
91.476721
0
LINE
8
Layer 1
10
26.675541
20
91.476721
11
26.899131
21
90.760160
0
LINE
8
Layer 1
10
26.899131
20
90.760160
11
32.913751
21
87.691100
0
LINE
8
Layer 1
10
32.913751
20
87.691100
11
33.529328
21
87.790876
0
LINE
8
Layer 1
10
33.529328
20
87.790876
11
34.132281
21
87.631700
0
LINE
8
Layer 1
10
34.132281
20
87.631700
11
38.133588
21
85.451990
0
LINE
8
Layer 1
10
38.133588
20
85.451990
11
38.530274
21
85.128411
0
LINE
8
Layer 1
10
38.530274
20
85.128411
11
38.795046
21
84.690280
0
LINE
8
Layer 1
10
38.795046
20
84.690280
11
45.778082
21
81.126670
0
LINE
8
Layer 1
10
45.778082
20
81.126670
11
46.133099
21
81.088470
0
LINE
8
Layer 1
10
46.133099
20
81.088470
11
50.185048
21
78.877750
0
LINE
8
Layer 1
10
50.185048
20
78.877750
11
86.179750
21
60.510400
0
LINE
8
Layer 1
10
86.179750
20
60.510400
11
86.327028
21
60.528000
0
LINE
8
Layer 1
10
86.327028
20
60.528000
11
90.621857
21
59.543050
0
LINE
8
Layer 1
10
90.621857
20
59.543050
11
91.167013
21
59.329651
0
LINE
8
Layer 1
10
91.167013
20
59.329651
11
91.588961
21
58.923827
0
LINE
8
Layer 1
10
91.588961
20
58.923827
11
91.823430
21
58.387396
0
LINE
8
Layer 1
10
91.823430
20
58.387396
11
91.834702
21
57.802070
0
LINE
8
Layer 1
10
91.834702
20
57.802070
11
91.749432
21
57.668230
0
LINE
8
Layer 1
10
91.749432
20
57.668230
11
98.941756
21
53.998170
0
LINE
8
Layer 1
10
98.941756
20
53.998170
11
102.767360
21
55.949980
0
LINE
8
Layer 1
10
102.767360
20
55.949980
11
99.436816
21
55.799610
0
LINE
8
Layer 1
10
99.436816
20
55.799610
11
98.852246
21
55.912458
0
LINE
8
Layer 1
10
98.852246
20
55.912458
11
98.372889
21
56.229616
0
LINE
8
Layer 1
10
98.372889
20
56.229616
11
98.047354
21
56.703324
0
LINE
8
Layer 1
10
98.047354
20
56.703324
11
97.924249
21
57.285820
0
LINE
8
Layer 1
10
97.924249
20
57.285820
11
98.032593
21
57.861482
0
LINE
8
Layer 1
10
98.032593
20
57.861482
11
98.353152
21
58.351755
0
LINE
8
Layer 1
10
98.353152
20
58.351755
11
98.837040
21
58.681872
0
LINE
8
Layer 1
10
98.837040
20
58.681872
11
99.410466
21
58.801490
0
LINE
8
Layer 1
10
99.410466
20
58.801490
11
102.606434
21
58.943330
0
LINE
8
Layer 1
10
102.606434
20
58.943330
11
105.785174
21
59.307039
0
LINE
8
Layer 1
10
105.785174
20
59.307039
11
108.932310
21
59.887195
0
LINE
8
Layer 1
10
108.932310
20
59.887195
11
112.033460
21
60.678380
0
LINE
8
Layer 1
10
112.033460
20
60.678380
11
152.365370
21
81.259550
0
LINE
8
Layer 1
10
152.365370
20
81.259550
11
152.598430
21
81.548420
0
LINE
8
Layer 1
10
152.598430
20
81.548420
11
176.886870
21
94.797230
0
LINE
8
Layer 1
10
176.886870
20
94.797230
11
162.385940
21
99.346300
0
LINE
8
Layer 1
10
162.385940
20
99.346300
11
154.037100
21
94.792570
0
LINE
8
Layer 1
10
154.037100
20
94.792570
11
153.467745
21
94.615137
0
LINE
8
Layer 1
10
153.467745
20
94.615137
11
152.894414
21
94.668217
0
LINE
8
Layer 1
10
152.894414
20
94.668217
11
152.382896
21
94.932562
0
LINE
8
Layer 1
10
152.382896
20
94.932562
11
151.998980
21
95.388920
0
LINE
8
Layer 1
10
151.998980
20
95.388920
11
151.823171
21
95.957902
0
LINE
8
Layer 1
10
151.823171
20
95.957902
11
151.877359
21
96.530243
0
LINE
8
Layer 1
10
151.877359
20
96.530243
11
152.142219
21
97.040547
0
LINE
8
Layer 1
10
152.142219
20
97.040547
11
152.598430
21
97.423420
0
LINE
8
Layer 1
10
152.598430
20
97.423420
11
158.410480
21
100.593764
0
LINE
8
Layer 1
10
158.410480
20
100.593764
11
143.968980
21
105.124240
0
LINE
8
Layer 1
10
143.968980
20
105.124240
11
142.127750
21
104.121200
0
LINE
8
Layer 1
10
142.127750
20
104.121200
11
141.569027
21
103.946751
0
LINE
8
Layer 1
10
141.569027
20
103.946751
11
140.986078
21
103.999415
0
LINE
8
Layer 1
10
140.986078
20
103.999415
11
140.467666
21
104.271174
0
LINE
8
Layer 1
10
140.467666
20
104.271174
11
140.092730
21
104.720647
0
LINE
8
Layer 1
10
140.092730
20
104.720647
11
139.929696
21
105.311644
0
LINE
8
Layer 1
10
139.929696
20
105.311644
11
140.016730
21
105.918507
0
LINE
8
Layer 1
10
140.016730
20
105.918507
11
138.942370
21
105.992407
0
LINE
8
Layer 1
10
138.942370
20
105.992407
11
133.883861
21
106.122814
0
LINE
8
Layer 1
10
133.883861
20
106.122814
11
129.324225
21
106.658407
0
LINE
8
Layer 1
10
129.324225
20
106.658407
11
125.188272
21
107.547393
0
LINE
8
Layer 1
10
125.188272
20
107.547393
11
121.400810
21
108.737976
0
LINE
8
Layer 1
10
121.400810
20
108.737976
11
117.475139
21
106.954436
0
LINE
8
Layer 1
10
117.475139
20
106.954436
11
113.410080
21
105.517501
0
LINE
8
Layer 1
10
113.410080
20
105.517501
11
109.983199
21
104.609812
0
LINE
8
Layer 1
10
109.983199
20
104.609812
11
106.500402
21
103.947953
0
LINE
8
Layer 1
10
106.500402
20
103.947953
11
102.979118
21
103.535371
0
LINE
8
Layer 1
10
102.979118
20
103.535371
11
99.436776
21
103.375513
0
LINE
8
Layer 1
10
99.436776
20
103.375513
11
98.852205
21
103.488361
0
LINE
8
Layer 1
10
98.852205
20
103.488361
11
98.372848
21
103.805520
0
LINE
8
Layer 1
10
98.372848
20
103.805520
11
98.047313
21
104.279230
0
LINE
8
Layer 1
10
98.047313
20
104.279230
11
97.924209
21
104.861727
0
LINE
8
Layer 1
10
97.924209
20
104.861727
11
98.032553
21
105.437389
0
LINE
8
Layer 1
10
98.032553
20
105.437389
11
98.353112
21
105.927662
0
LINE
8
Layer 1
10
98.353112
20
105.927662
11
98.837000
21
106.257779
0
LINE
8
Layer 1
10
98.837000
20
106.257779
11
99.410426
21
106.377397
0
LINE
8
Layer 1
10
99.410426
20
106.377397
11
102.737196
21
106.527359
0
LINE
8
Layer 1
10
102.737196
20
106.527359
11
106.045498
21
106.914570
0
LINE
8
Layer 1
10
106.045498
20
106.914570
11
109.318233
21
107.536006
0
LINE
8
Layer 1
10
109.318233
20
107.536006
11
112.538300
21
108.388643
0
LINE
8
Layer 1
10
112.538300
20
108.388643
11
115.123987
21
109.262694
0
LINE
8
Layer 1
10
115.123987
20
109.262694
11
117.655300
21
110.286719
0
LINE
8
Layer 1
10
117.655300
20
110.286719
11
113.982975
21
112.146574
0
LINE
8
Layer 1
10
113.982975
20
112.146574
11
110.455124
21
114.183900
0
LINE
8
Layer 1
10
110.455124
20
114.183900
11
103.431880
21
118.518774
0
LINE
8
Layer 1
10
103.431880
20
118.518774
11
101.969640
21
119.104229
0
LINE
8
Layer 1
10
101.969640
20
119.104229
11
100.382450
21
119.252063
0
LINE
8
Layer 1
10
100.382450
20
119.252063
11
100.382500
21
119.251959
0
LINE
8
Layer 1
10
86.327028
20
108.103802
11
90.621857
21
107.118850
0
LINE
8
Layer 1
10
90.621857
20
107.118850
11
91.167013
21
106.905451
0
LINE
8
Layer 1
10
91.167013
20
106.905451
11
91.588961
21
106.499627
0
LINE
8
Layer 1
10
91.588961
20
106.499627
11
91.823430
21
105.963196
0
LINE
8
Layer 1
10
91.823430
20
105.963196
11
91.834702
21
105.377870
0
LINE
8
Layer 1
10
91.834702
20
105.377870
11
91.621432
21
104.832555
0
LINE
8
Layer 1
10
91.621432
20
104.832555
11
91.215636
21
104.410437
0
LINE
8
Layer 1
10
91.215636
20
104.410437
11
90.679150
21
104.175839
0
LINE
8
Layer 1
10
90.679150
20
104.175839
11
90.093723
21
104.164509
0
LINE
8
Layer 1
10
90.093723
20
104.164509
11
85.514158
21
105.217674
0
LINE
8
Layer 1
10
85.514158
20
105.217674
11
84.984560
21
105.488929
0
LINE
8
Layer 1
10
84.984560
20
105.488929
11
84.612782
21
105.926880
0
LINE
8
Layer 1
10
84.612782
20
105.926880
11
84.432148
21
106.472216
0
LINE
8
Layer 1
10
84.432148
20
106.472216
11
84.475978
21
107.065624
0
LINE
8
Layer 1
10
84.475978
20
107.065624
11
84.741328
21
107.587671
0
LINE
8
Layer 1
10
84.741328
20
107.587671
11
85.186348
21
107.968331
0
LINE
8
Layer 1
10
85.186348
20
107.968331
11
85.743206
21
108.149583
0
LINE
8
Layer 1
10
85.743206
20
108.149583
11
86.327028
21
108.103802
0
LINE
8
Layer 1
10
86.327028
20
108.103802
11
86.327028
21
108.103802
0
LINE
8
Layer 1
10
133.834710
20
102.513447
11
134.352509
21
102.241928
0
LINE
8
Layer 1
10
134.352509
20
102.241928
11
134.727170
21
101.793077
0
LINE
8
Layer 1
10
134.727170
20
101.793077
11
134.901705
21
101.234435
0
LINE
8
Layer 1
10
134.901705
20
101.234435
11
134.849171
21
100.651526
0
LINE
8
Layer 1
10
134.849171
20
100.651526
11
134.577566
21
100.133092
0
LINE
8
Layer 1
10
134.577566
20
100.133092
11
134.128240
21
99.758060
0
LINE
8
Layer 1
10
134.128240
20
99.758060
11
122.898440
21
93.633370
0
LINE
8
Layer 1
10
122.898440
20
93.633370
11
118.301406
21
91.421406
0
LINE
8
Layer 1
10
118.301406
20
91.421406
11
113.502120
21
89.690980
0
LINE
8
Layer 1
10
113.502120
20
89.690980
11
110.075217
21
88.783371
0
LINE
8
Layer 1
10
110.075217
20
88.783371
11
106.592419
21
88.121690
0
LINE
8
Layer 1
10
106.592419
20
88.121690
11
103.071145
21
87.709287
0
LINE
8
Layer 1
10
103.071145
20
87.709287
11
99.528813
21
87.549510
0
LINE
8
Layer 1
10
99.528813
20
87.549510
11
98.944074
21
87.662205
0
LINE
8
Layer 1
10
98.944074
20
87.662205
11
98.464546
21
87.979329
0
LINE
8
Layer 1
10
98.464546
20
87.979329
11
98.138878
21
88.453095
0
LINE
8
Layer 1
10
98.138878
20
88.453095
11
98.015720
21
89.035720
0
LINE
8
Layer 1
10
98.015720
20
89.035720
11
98.124064
21
89.611384
0
LINE
8
Layer 1
10
98.124064
20
89.611384
11
98.444625
21
90.101657
0
LINE
8
Layer 1
10
98.444625
20
90.101657
11
98.928515
21
90.431774
0
LINE
8
Layer 1
10
98.928515
20
90.431774
11
99.501943
21
90.551390
0
LINE
8
Layer 1
10
99.501943
20
90.551390
11
102.828730
21
90.701255
0
LINE
8
Layer 1
10
102.828730
20
90.701255
11
106.137029
21
91.088290
0
LINE
8
Layer 1
10
106.137029
20
91.088290
11
109.409755
21
91.709558
0
LINE
8
Layer 1
10
109.409755
20
91.709558
11
112.629820
21
92.562120
0
LINE
8
Layer 1
10
112.629820
20
92.562120
11
117.141044
21
94.188121
0
LINE
8
Layer 1
10
117.141044
20
94.188121
11
121.462870
21
96.266800
0
LINE
8
Layer 1
10
121.462870
20
96.266800
11
132.692670
21
102.392007
0
LINE
8
Layer 1
10
132.692670
20
102.392007
11
133.251607
21
102.566356
0
LINE
8
Layer 1
10
133.251607
20
102.566356
11
133.834710
21
102.513447
0
LINE
8
Layer 1
10
133.834710
20
102.513447
11
133.834710
21
102.513447
0
LINE
8
Layer 1
10
45.563625
20
97.140650
11
46.133099
21
96.963920
0
LINE
8
Layer 1
10
46.133099
20
96.963920
11
76.509023
21
80.391800
0
LINE
8
Layer 1
10
76.509023
20
80.391800
11
76.512123
21
80.391800
0
LINE
8
Layer 1
10
76.512123
20
80.391800
11
78.087221
21
79.573250
0
LINE
8
Layer 1
10
78.087221
20
79.573250
11
78.560309
21
79.210563
0
LINE
8
Layer 1
10
78.560309
20
79.210563
11
78.847386
21
78.711821
0
LINE
8
Layer 1
10
78.847386
20
78.711821
11
78.926334
21
78.141756
0
LINE
8
Layer 1
10
78.926334
20
78.141756
11
78.775034
21
77.565100
0
LINE
8
Layer 1
10
78.775034
20
77.565100
11
78.412743
21
77.093016
0
LINE
8
Layer 1
10
78.412743
20
77.093016
11
77.914890
21
76.806329
0
LINE
8
Layer 1
10
77.914890
20
76.806329
11
77.345848
21
76.727075
0
LINE
8
Layer 1
10
77.345848
20
76.727075
11
76.769989
21
76.877290
0
LINE
8
Layer 1
10
76.769989
20
76.877290
11
75.079653
21
77.755270
0
LINE
8
Layer 1
10
75.079653
20
77.755270
11
75.076553
21
77.758270
0
LINE
8
Layer 1
10
75.076553
20
77.758270
11
44.694945
21
94.329870
0
LINE
8
Layer 1
10
44.694945
20
94.329870
11
44.238731
21
94.712748
0
LINE
8
Layer 1
10
44.238731
20
94.712748
11
43.973867
21
95.223051
0
LINE
8
Layer 1
10
43.973867
20
95.223051
11
43.919681
21
95.795389
0
LINE
8
Layer 1
10
43.919681
20
95.795389
11
44.095499
21
96.364370
0
LINE
8
Layer 1
10
44.095499
20
96.364370
11
44.722636
21
96.979380
0
LINE
8
Layer 1
10
44.722636
20
96.979380
11
45.563626
21
97.140550
0
LINE
8
Layer 1
10
45.563626
20
97.140550
11
45.563625
21
97.140650
0
LINE
8
Layer 1
10
145.167360
20
93.236500
11
146.006568
21
93.076317
0
LINE
8
Layer 1
10
146.006568
20
93.076317
11
146.633420
21
92.463930
0
LINE
8
Layer 1
10
146.633420
20
92.463930
11
146.810939
21
91.894665
0
LINE
8
Layer 1
10
146.810939
20
91.894665
11
146.758036
21
91.321511
0
LINE
8
Layer 1
10
146.758036
20
91.321511
11
146.493868
21
90.810167
0
LINE
8
Layer 1
10
146.493868
20
90.810167
11
146.037590
21
90.426330
0
LINE
8
Layer 1
10
146.037590
20
90.426330
11
142.036280
21
88.246100
0
LINE
8
Layer 1
10
142.036280
20
88.246100
11
141.467218
21
88.070291
0
LINE
8
Layer 1
10
141.467218
20
88.070291
11
140.894701
21
88.124479
0
LINE
8
Layer 1
10
140.894701
20
88.124479
11
140.384219
21
88.389339
0
LINE
8
Layer 1
10
140.384219
20
88.389339
11
140.001260
21
88.845550
0
LINE
8
Layer 1
10
140.001260
20
88.845550
11
139.825451
21
89.414532
0
LINE
8
Layer 1
10
139.825451
20
89.414532
11
139.879639
21
89.986873
0
LINE
8
Layer 1
10
139.879639
20
89.986873
11
140.144499
21
90.497177
0
LINE
8
Layer 1
10
140.144499
20
90.497177
11
140.600710
21
90.880050
0
LINE
8
Layer 1
10
140.600710
20
90.880050
11
144.598920
21
93.060280
0
LINE
8
Layer 1
10
144.598920
20
93.060280
11
145.167360
21
93.236500
0
LINE
8
Layer 1
10
145.167360
20
93.236500
11
145.167360
21
93.236500
0
LINE
8
Layer 1
10
86.418496
20
92.277900
11
90.713324
21
91.292950
0
LINE
8
Layer 1
10
90.713324
20
91.292950
11
91.258640
21
91.079680
0
LINE
8
Layer 1
10
91.258640
20
91.079680
11
91.680758
21
90.673884
0
LINE
8
Layer 1
10
91.680758
20
90.673884
11
91.915356
21
90.137398
0
LINE
8
Layer 1
10
91.915356
20
90.137398
11
91.926686
21
89.551970
0
LINE
8
Layer 1
10
91.926686
20
89.551970
11
91.713368
21
89.006516
0
LINE
8
Layer 1
10
91.713368
20
89.006516
11
91.307433
21
88.584329
0
LINE
8
Layer 1
10
91.307433
20
88.584329
11
90.770768
21
88.349774
0
LINE
8
Layer 1
10
90.770768
20
88.349774
11
90.185191
21
88.338610
0
LINE
8
Layer 1
10
90.185191
20
88.338610
11
85.605625
21
89.391770
0
LINE
8
Layer 1
10
85.605625
20
89.391770
11
85.076027
21
89.663025
0
LINE
8
Layer 1
10
85.076027
20
89.663025
11
84.704250
21
90.100977
0
LINE
8
Layer 1
10
84.704250
20
90.100977
11
84.523616
21
90.646313
0
LINE
8
Layer 1
10
84.523616
20
90.646313
11
84.567446
21
91.239720
0
LINE
8
Layer 1
10
84.567446
20
91.239720
11
84.832796
21
91.761768
0
LINE
8
Layer 1
10
84.832796
20
91.761768
11
85.277815
21
92.142428
0
LINE
8
Layer 1
10
85.277815
20
92.142428
11
85.834674
21
92.323681
0
LINE
8
Layer 1
10
85.834674
20
92.323681
11
86.418496
21
92.277900
0
LINE
8
Layer 1
10
86.418496
20
92.277900
11
86.418496
21
92.277900
0
LINE
8
Layer 1
10
133.159820
20
86.691680
11
133.742730
21
86.638480
0
LINE
8
Layer 1
10
133.742730
20
86.638480
11
134.260855
21
86.367035
0
LINE
8
Layer 1
10
134.260855
20
86.367035
11
134.635700
21
85.918110
0
LINE
8
Layer 1
10
134.635700
20
85.918110
11
134.811590
21
85.349048
0
LINE
8
Layer 1
10
134.811590
20
85.349048
11
134.757581
21
84.776531
0
LINE
8
Layer 1
10
134.757581
20
84.776531
11
134.492900
21
84.266049
0
LINE
8
Layer 1
10
134.492900
20
84.266049
11
134.036770
21
83.883090
0
LINE
8
Layer 1
10
134.036770
20
83.883090
11
122.806960
21
77.758400
0
LINE
8
Layer 1
10
122.806960
20
77.758400
11
118.209681
21
75.546436
0
LINE
8
Layer 1
10
118.209681
20
75.546436
11
113.410120
21
73.816010
0
LINE
8
Layer 1
10
113.410120
20
73.816010
11
109.983227
21
72.908401
0
LINE
8
Layer 1
10
109.983227
20
72.908401
11
106.500438
21
72.246720
0
LINE
8
Layer 1
10
106.500438
20
72.246720
11
102.979165
21
71.834317
0
LINE
8
Layer 1
10
102.979165
20
71.834317
11
99.436816
21
71.674540
0
LINE
8
Layer 1
10
99.436816
20
71.674540
11
98.852285
21
71.787380
0
LINE
8
Layer 1
10
98.852285
20
71.787380
11
98.372966
21
72.104546
0
LINE
8
Layer 1
10
98.372966
20
72.104546
11
98.047431
21
72.578262
0
LINE
8
Layer 1
10
98.047431
20
72.578262
11
97.924253
21
73.160750
0
LINE
8
Layer 1
10
97.924253
20
73.160750
11
98.036210
21
73.746283
0
LINE
8
Layer 1
10
98.036210
20
73.746283
11
98.353182
21
74.226651
0
LINE
8
Layer 1
10
98.353182
20
74.226651
11
98.827242
21
74.552987
0
LINE
8
Layer 1
10
98.827242
20
74.552987
11
99.410466
21
74.676420
0
LINE
8
Layer 1
10
99.410466
20
74.676420
11
102.737255
21
74.826365
0
LINE
8
Layer 1
10
102.737255
20
74.826365
11
106.045553
21
75.213576
0
LINE
8
Layer 1
10
106.045553
20
75.213576
11
109.318276
21
75.835022
0
LINE
8
Layer 1
10
109.318276
20
75.835022
11
112.538340
21
76.687670
0
LINE
8
Layer 1
10
112.538340
20
76.687670
11
117.049575
21
78.313407
0
LINE
8
Layer 1
10
117.049575
20
78.313407
11
121.371390
21
80.391830
0
LINE
8
Layer 1
10
121.371390
20
80.391830
11
132.600680
21
86.517040
0
LINE
8
Layer 1
10
132.600680
20
86.517040
11
133.159820
21
86.691710
0
LINE
8
Layer 1
10
133.159820
20
86.691710
11
133.159820
21
86.691680
0
LINE
8
Layer 1
10
85.732749
20
76.447340
11
86.327028
21
76.402940
0
LINE
8
Layer 1
10
86.327028
20
76.402940
11
90.621857
21
75.417990
0
LINE
8
Layer 1
10
90.621857
20
75.417990
11
91.176138
21
75.199297
0
LINE
8
Layer 1
10
91.176138
20
75.199297
11
91.589046
21
74.798874
0
LINE
8
Layer 1
10
91.589046
20
74.798874
11
91.821571
21
74.272764
0
LINE
8
Layer 1
10
91.821571
20
74.272764
11
91.834702
21
73.677010
0
LINE
8
Layer 1
10
91.834702
20
73.677010
11
91.616009
21
73.122648
0
LINE
8
Layer 1
10
91.616009
20
73.122648
11
91.215585
21
72.709561
0
LINE
8
Layer 1
10
91.215585
20
72.709561
11
90.689475
21
72.476859
0
LINE
8
Layer 1
10
90.689475
20
72.476859
11
90.093723
21
72.463650
0
LINE
8
Layer 1
10
90.093723
20
72.463650
11
85.514158
21
73.516810
0
LINE
8
Layer 1
10
85.514158
20
73.516810
11
84.984592
21
73.788078
0
LINE
8
Layer 1
10
84.984592
20
73.788078
11
84.612824
21
74.226038
0
LINE
8
Layer 1
10
84.612824
20
74.226038
11
84.432178
21
74.771371
0
LINE
8
Layer 1
10
84.432178
20
74.771371
11
84.475978
21
75.364760
0
LINE
8
Layer 1
10
84.475978
20
75.364760
11
84.949832
21
76.103001
0
LINE
8
Layer 1
10
84.949832
20
76.103001
11
85.732749
21
76.447380
0
LINE
8
Layer 1
10
85.732749
20
76.447380
11
85.732749
21
76.447340
0
LINE
8
Layer 1
10
101.440830
20
118.193624
11
100.071419
21
118.051386
0
LINE
8
Layer 1
10
100.071419
20
118.051386
11
98.700887
21
117.726730
0
LINE
8
Layer 1
10
98.700887
20
117.726730
11
96.111962
21
116.750818
0
LINE
8
Layer 1
10
96.111962
20
116.750818
11
94.612501
21
116.187453
0
LINE
8
Layer 1
10
94.612501
20
116.187453
11
93.012067
21
115.778776
0
LINE
8
Layer 1
10
93.012067
20
115.778776
11
89.644599
21
115.358525
0
LINE
8
Layer 1
10
89.644599
20
115.358525
11
86.282198
21
115.356143
0
LINE
8
Layer 1
10
86.282198
20
115.356143
11
83.197505
21
115.637708
0
LINE
8
Layer 1
10
83.197505
20
115.637708
11
82.271682
21
115.599218
0
LINE
8
Layer 1
10
82.271682
20
115.599218
11
81.369955
21
115.282094
0
LINE
8
Layer 1
10
81.369955
20
115.282094
11
80.562286
21
114.747968
0
LINE
8
Layer 1
10
80.562286
20
114.747968
11
79.918636
21
114.058476
0
LINE
8
Layer 1
10
79.918636
20
114.058476
11
78.689565
21
112.624336
0
LINE
8
Layer 1
10
78.689565
20
112.624336
11
77.150846
21
111.261747
0
LINE
8
Layer 1
10
77.150846
20
111.261747
11
77.567358
21
111.034371
0
LINE
8
Layer 1
10
77.567358
20
111.034371
11
77.570458
21
111.034371
0
LINE
8
Layer 1
10
77.570458
20
111.034371
11
79.145556
21
110.215816
0
LINE
8
Layer 1
10
79.145556
20
110.215816
11
79.611231
21
109.860796
0
LINE
8
Layer 1
10
79.611231
20
109.860796
11
79.905495
21
109.354534
0
LINE
8
Layer 1
10
79.905495
20
109.354534
11
79.983504
21
108.774183
0
LINE
8
Layer 1
10
79.983504
20
108.774183
11
79.833369
21
108.208187
0
LINE
8
Layer 1
10
79.833369
20
108.208187
11
79.471116
21
107.736005
0
LINE
8
Layer 1
10
79.471116
20
107.736005
11
78.973270
21
107.449155
0
LINE
8
Layer 1
10
78.973270
20
107.449155
11
78.404213
21
107.369739
0
LINE
8
Layer 1
10
78.404213
20
107.369739
11
77.828324
21
107.519857
0
LINE
8
Layer 1
10
77.828324
20
107.519857
11
76.137988
21
108.397839
0
LINE
8
Layer 1
10
76.137988
20
108.397839
11
76.134888
21
108.400939
0
LINE
8
Layer 1
10
76.134888
20
108.400939
11
74.360836
21
109.368322
0
LINE
8
Layer 1
10
74.360836
20
109.368322
11
71.659137
21
107.926532
0
LINE
8
Layer 1
10
71.659137
20
107.926532
11
68.592322
21
106.559150
0
LINE
8
Layer 1
10
68.592322
20
106.559150
11
61.548182
21
103.997590
0
LINE
8
Layer 1
10
61.548182
20
103.997590
11
77.658826
21
95.208460
0
LINE
8
Layer 1
10
77.658826
20
95.208460
11
77.661926
21
95.208460
0
LINE
8
Layer 1
10
77.661926
20
95.208460
11
79.237023
21
94.389910
0
LINE
8
Layer 1
10
79.237023
20
94.389910
11
79.703017
21
94.034930
0
LINE
8
Layer 1
10
79.703017
20
94.034930
11
79.997512
21
93.528538
0
LINE
8
Layer 1
10
79.997512
20
93.528538
11
80.075594
21
92.947966
0
LINE
8
Layer 1
10
80.075594
20
92.947966
11
79.925354
21
92.381760
0
LINE
8
Layer 1
10
79.925354
20
92.381760
11
79.563000
21
91.909732
0
LINE
8
Layer 1
10
79.563000
20
91.909732
11
79.065131
21
91.623034
0
LINE
8
Layer 1
10
79.065131
20
91.623034
11
78.496111
21
91.543747
0
LINE
8
Layer 1
10
78.496111
20
91.543747
11
77.920308
21
91.693950
0
LINE
8
Layer 1
10
77.920308
20
91.693950
11
76.229455
21
92.571930
0
LINE
8
Layer 1
10
76.229455
20
92.571930
11
76.226355
21
92.574930
0
LINE
8
Layer 1
10
76.226355
20
92.574930
11
57.594417
21
102.737720
0
LINE
8
Layer 1
10
57.594417
20
102.737720
11
48.932247
21
100.341926
0
LINE
8
Layer 1
10
48.932247
20
100.341926
11
39.586730
21
97.993820
0
LINE
8
Layer 1
10
39.586730
20
97.993820
11
38.818689
21
97.517812
0
LINE
8
Layer 1
10
38.818689
20
97.517812
11
37.912931
21
97.585060
0
LINE
8
Layer 1
10
37.912931
20
97.585060
11
22.152136
21
93.685560
0
LINE
8
Layer 1
10
22.152136
20
93.685560
11
27.191105
21
90.936890
0
LINE
8
Layer 1
10
27.191105
20
90.936890
11
27.733876
21
90.418381
0
LINE
8
Layer 1
10
27.733876
20
90.418381
11
27.957466
21
89.701820
0
LINE
8
Layer 1
10
27.957466
20
89.701820
11
33.972086
21
86.632760
0
LINE
8
Layer 1
10
33.972086
20
86.632760
11
34.587663
21
86.732536
0
LINE
8
Layer 1
10
34.587663
20
86.732536
11
35.190616
21
86.573360
0
LINE
8
Layer 1
10
35.190616
20
86.573360
11
39.191923
21
84.393650
0
LINE
8
Layer 1
10
39.191923
20
84.393650
11
39.588609
21
84.070071
0
LINE
8
Layer 1
10
39.588609
20
84.070071
11
39.853381
21
83.631940
0
LINE
8
Layer 1
10
39.853381
20
83.631940
11
46.836417
21
80.068330
0
LINE
8
Layer 1
10
46.836417
20
80.068330
11
47.191434
21
80.030130
0
LINE
8
Layer 1
10
47.191434
20
80.030130
11
51.243383
21
77.819410
0
LINE
8
Layer 1
10
51.243383
20
77.819410
11
87.238085
21
59.452060
0
LINE
8
Layer 1
10
87.238085
20
59.452060
11
87.385363
21
59.469660
0
LINE
8
Layer 1
10
87.385363
20
59.469660
11
91.680192
21
58.484710
0
LINE
8
Layer 1
10
91.680192
20
58.484710
11
92.225348
21
58.271311
0
LINE
8
Layer 1
10
92.225348
20
58.271311
11
92.647296
21
57.865487
0
LINE
8
Layer 1
10
92.647296
20
57.865487
11
92.881765
21
57.329056
0
LINE
8
Layer 1
10
92.881765
20
57.329056
11
92.893037
21
56.743730
0
LINE
8
Layer 1
10
92.893037
20
56.743730
11
92.807767
21
56.609890
0
LINE
8
Layer 1
10
92.807767
20
56.609890
11
100.000090
21
52.939830
0
LINE
8
Layer 1
10
100.000090
20
52.939830
11
103.825700
21
54.891640
0
LINE
8
Layer 1
10
103.825700
20
54.891640
11
100.495150
21
54.741270
0
LINE
8
Layer 1
10
100.495150
20
54.741270
11
99.910580
21
54.854118
0
LINE
8
Layer 1
10
99.910580
20
54.854118
11
99.431224
21
55.171276
0
LINE
8
Layer 1
10
99.431224
20
55.171276
11
99.105689
21
55.644984
0
LINE
8
Layer 1
10
99.105689
20
55.644984
11
98.982584
21
56.227480
0
LINE
8
Layer 1
10
98.982584
20
56.227480
11
99.090928
21
56.803142
0
LINE
8
Layer 1
10
99.090928
20
56.803142
11
99.411486
21
57.293415
0
LINE
8
Layer 1
10
99.411486
20
57.293415
11
99.895375
21
57.623532
0
LINE
8
Layer 1
10
99.895375
20
57.623532
11
100.468800
21
57.743150
0
LINE
8
Layer 1
10
100.468800
20
57.743150
11
103.664771
21
57.884990
0
LINE
8
Layer 1
10
103.664771
20
57.884990
11
106.843514
21
58.248699
0
LINE
8
Layer 1
10
106.843514
20
58.248699
11
109.990650
21
58.828855
0
LINE
8
Layer 1
10
109.990650
20
58.828855
11
113.091800
21
59.620040
0
LINE
8
Layer 1
10
113.091800
20
59.620040
11
153.423710
21
80.201210
0
LINE
8
Layer 1
10
153.423710
20
80.201210
11
153.656770
21
80.490080
0
LINE
8
Layer 1
10
153.656770
20
80.490080
11
177.945210
21
93.738890
0
LINE
8
Layer 1
10
177.945210
20
93.738890
11
163.444280
21
98.287960
0
LINE
8
Layer 1
10
163.444280
20
98.287960
11
155.095440
21
93.734230
0
LINE
8
Layer 1
10
155.095440
20
93.734230
11
154.526085
21
93.556797
0
LINE
8
Layer 1
10
154.526085
20
93.556797
11
153.952754
21
93.609877
0
LINE
8
Layer 1
10
153.952754
20
93.609877
11
153.441236
21
93.874222
0
LINE
8
Layer 1
10
153.441236
20
93.874222
11
153.057320
21
94.330580
0
LINE
8
Layer 1
10
153.057320
20
94.330580
11
152.881511
21
94.899562
0
LINE
8
Layer 1
10
152.881511
20
94.899562
11
152.935699
21
95.471902
0
LINE
8
Layer 1
10
152.935699
20
95.471902
11
153.200559
21
95.982207
0
LINE
8
Layer 1
10
153.200559
20
95.982207
11
153.656770
21
96.365080
0
LINE
8
Layer 1
10
153.656770
20
96.365080
11
159.468820
21
99.535430
0
LINE
8
Layer 1
10
159.468820
20
99.535430
11
145.027320
21
104.065904
0
LINE
8
Layer 1
10
145.027320
20
104.065904
11
143.186090
21
103.062864
0
LINE
8
Layer 1
10
143.186090
20
103.062864
11
142.627367
21
102.888415
0
LINE
8
Layer 1
10
142.627367
20
102.888415
11
142.044418
21
102.941079
0
LINE
8
Layer 1
10
142.044418
20
102.941079
11
141.526006
21
103.212838
0
LINE
8
Layer 1
10
141.526006
20
103.212838
11
141.151070
21
103.662311
0
LINE
8
Layer 1
10
141.151070
20
103.662311
11
140.988036
21
104.253308
0
LINE
8
Layer 1
10
140.988036
20
104.253308
11
141.075070
21
104.860171
0
LINE
8
Layer 1
10
141.075070
20
104.860171
11
140.000710
21
104.934071
0
LINE
8
Layer 1
10
140.000710
20
104.934071
11
134.942201
21
105.064478
0
LINE
8
Layer 1
10
134.942201
20
105.064478
11
130.382565
21
105.600071
0
LINE
8
Layer 1
10
130.382565
20
105.600071
11
126.246612
21
106.489057
0
LINE
8
Layer 1
10
126.246612
20
106.489057
11
122.459150
21
107.679640
0
LINE
8
Layer 1
10
122.459150
20
107.679640
11
118.533479
21
105.896100
0
LINE
8
Layer 1
10
118.533479
20
105.896100
11
114.468420
21
104.459165
0
LINE
8
Layer 1
10
114.468420
20
104.459165
11
111.041539
21
103.551476
0
LINE
8
Layer 1
10
111.041539
20
103.551476
11
107.558741
21
102.889617
0
LINE
8
Layer 1
10
107.558741
20
102.889617
11
104.037455
21
102.477035
0
LINE
8
Layer 1
10
104.037455
20
102.477035
11
100.495110
21
102.317177
0
LINE
8
Layer 1
10
100.495110
20
102.317177
11
99.910539
21
102.430025
0
LINE
8
Layer 1
10
99.910539
20
102.430025
11
99.431183
21
102.747185
0
LINE
8
Layer 1
10
99.431183
20
102.747185
11
99.105648
21
103.220894
0
LINE
8
Layer 1
10
99.105648
20
103.220894
11
98.982544
21
103.803391
0
LINE
8
Layer 1
10
98.982544
20
103.803391
11
99.090888
21
104.379053
0
LINE
8
Layer 1
10
99.090888
20
104.379053
11
99.411446
21
104.869326
0
LINE
8
Layer 1
10
99.411446
20
104.869326
11
99.895335
21
105.199443
0
LINE
8
Layer 1
10
99.895335
20
105.199443
11
100.468760
21
105.319061
0
LINE
8
Layer 1
10
100.468760
20
105.319061
11
103.795533
21
105.469023
0
LINE
8
Layer 1
10
103.795533
20
105.469023
11
107.103837
21
105.856234
0
LINE
8
Layer 1
10
107.103837
20
105.856234
11
110.376573
21
106.477670
0
LINE
8
Layer 1
10
110.376573
20
106.477670
11
113.596640
21
107.330307
0
LINE
8
Layer 1
10
113.596640
20
107.330307
11
116.182327
21
108.204358
0
LINE
8
Layer 1
10
116.182327
20
108.204358
11
118.713640
21
109.228383
0
LINE
8
Layer 1
10
118.713640
20
109.228383
11
115.041315
21
111.088238
0
LINE
8
Layer 1
10
115.041315
20
111.088238
11
111.513464
21
113.125563
0
LINE
8
Layer 1
10
111.513464
20
113.125563
11
104.490220
21
117.460438
0
LINE
8
Layer 1
10
104.490220
20
117.460438
11
103.027980
21
118.045893
0
LINE
8
Layer 1
10
103.027980
20
118.045893
11
101.440790
21
118.193727
0
LINE
8
Layer 1
10
101.440790
20
118.193727
11
101.440830
21
118.193624
0
LINE
8
Layer 1
10
87.385363
20
107.045467
11
91.680192
21
106.060514
0
LINE
8
Layer 1
10
91.680192
20
106.060514
11
92.225347
21
105.847115
0
LINE
8
Layer 1
10
92.225347
20
105.847115
11
92.647296
21
105.441292
0
LINE
8
Layer 1
10
92.647296
20
105.441292
11
92.881764
21
104.904861
0
LINE
8
Layer 1
10
92.881764
20
104.904861
11
92.893037
21
104.319535
0
LINE
8
Layer 1
10
92.893037
20
104.319535
11
92.679767
21
103.774219
0
LINE
8
Layer 1
10
92.679767
20
103.774219
11
92.273971
21
103.352101
0
LINE
8
Layer 1
10
92.273971
20
103.352101
11
91.737485
21
103.117503
0
LINE
8
Layer 1
10
91.737485
20
103.117503
11
91.152058
21
103.106173
0
LINE
8
Layer 1
10
91.152058
20
103.106173
11
86.572493
21
104.159338
0
LINE
8
Layer 1
10
86.572493
20
104.159338
11
86.042895
21
104.430593
0
LINE
8
Layer 1
10
86.042895
20
104.430593
11
85.671117
21
104.868544
0
LINE
8
Layer 1
10
85.671117
20
104.868544
11
85.490483
21
105.413880
0
LINE
8
Layer 1
10
85.490483
20
105.413880
11
85.534313
21
106.007288
0
LINE
8
Layer 1
10
85.534313
20
106.007288
11
85.799663
21
106.529335
0
LINE
8
Layer 1
10
85.799663
20
106.529335
11
86.244682
21
106.909995
0
LINE
8
Layer 1
10
86.244682
20
106.909995
11
86.801541
21
107.091248
0
LINE
8
Layer 1
10
86.801541
20
107.091248
11
87.385363
21
107.045467
0
LINE
8
Layer 1
10
87.385363
20
107.045467
11
87.385363
21
107.045467
0
LINE
8
Layer 1
10
134.893050
20
101.455111
11
135.410849
21
101.183592
0
LINE
8
Layer 1
10
135.410849
20
101.183592
11
135.785510
21
100.734741
0
LINE
8
Layer 1
10
135.785510
20
100.734741
11
135.960046
21
100.176098
0
LINE
8
Layer 1
10
135.960046
20
100.176098
11
135.907513
21
99.593188
0
LINE
8
Layer 1
10
135.907513
20
99.593188
11
135.635908
21
99.074752
0
LINE
8
Layer 1
10
135.635908
20
99.074752
11
135.186580
21
98.699720
0
LINE
8
Layer 1
10
135.186580
20
98.699720
11
123.956770
21
92.575030
0
LINE
8
Layer 1
10
123.956770
20
92.575030
11
119.359736
21
90.363066
0
LINE
8
Layer 1
10
119.359736
20
90.363066
11
114.560450
21
88.632640
0
LINE
8
Layer 1
10
114.560450
20
88.632640
11
111.133548
21
87.725031
0
LINE
8
Layer 1
10
111.133548
20
87.725031
11
107.650752
21
87.063350
0
LINE
8
Layer 1
10
107.650752
20
87.063350
11
104.129478
21
86.650947
0
LINE
8
Layer 1
10
104.129478
20
86.650947
11
100.587140
21
86.491170
0
LINE
8
Layer 1
10
100.587140
20
86.491170
11
100.002404
21
86.603867
0
LINE
8
Layer 1
10
100.002404
20
86.603867
11
99.522878
21
86.920992
0
LINE
8
Layer 1
10
99.522878
20
86.920992
11
99.197213
21
87.394757
0
LINE
8
Layer 1
10
99.197213
20
87.394757
11
99.074055
21
87.977380
0
LINE
8
Layer 1
10
99.074055
20
87.977380
11
99.182398
21
88.553042
0
LINE
8
Layer 1
10
99.182398
20
88.553042
11
99.502957
21
89.043315
0
LINE
8
Layer 1
10
99.502957
20
89.043315
11
99.986845
21
89.373431
0
LINE
8
Layer 1
10
99.986845
20
89.373431
11
100.560270
21
89.493050
0
LINE
8
Layer 1
10
100.560270
20
89.493050
11
103.887059
21
89.642915
0
LINE
8
Layer 1
10
103.887059
20
89.642915
11
107.195359
21
90.029950
0
LINE
8
Layer 1
10
107.195359
20
90.029950
11
110.468085
21
90.651218
0
LINE
8
Layer 1
10
110.468085
20
90.651218
11
113.688150
21
91.503780
0
LINE
8
Layer 1
10
113.688150
20
91.503780
11
118.199374
21
93.129781
0
LINE
8
Layer 1
10
118.199374
20
93.129781
11
122.521200
21
95.208460
0
LINE
8
Layer 1
10
122.521200
20
95.208460
11
133.751010
21
101.333671
0
LINE
8
Layer 1
10
133.751010
20
101.333671
11
134.309947
21
101.508020
0
LINE
8
Layer 1
10
134.309947
20
101.508020
11
134.893050
21
101.455111
0
LINE
8
Layer 1
10
134.893050
20
101.455111
11
134.893050
21
101.455111
0
LINE
8
Layer 1
10
46.621960
20
96.082310
11
47.191434
21
95.905580
0
LINE
8
Layer 1
10
47.191434
20
95.905580
11
77.567358
21
79.333460
0
LINE
8
Layer 1
10
77.567358
20
79.333460
11
77.570458
21
79.333460
0
LINE
8
Layer 1
10
77.570458
20
79.333460
11
79.145556
21
78.514910
0
LINE
8
Layer 1
10
79.145556
20
78.514910
11
79.618644
21
78.152223
0
LINE
8
Layer 1
10
79.618644
20
78.152223
11
79.905721
21
77.653481
0
LINE
8
Layer 1
10
79.905721
20
77.653481
11
79.984669
21
77.083416
0
LINE
8
Layer 1
10
79.984669
20
77.083416
11
79.833369
21
76.506760
0
LINE
8
Layer 1
10
79.833369
20
76.506760
11
79.471078
21
76.034676
0
LINE
8
Layer 1
10
79.471078
20
76.034676
11
78.973225
21
75.747989
0
LINE
8
Layer 1
10
78.973225
20
75.747989
11
78.404183
21
75.668735
0
LINE
8
Layer 1
10
78.404183
20
75.668735
11
77.828324
21
75.818950
0
LINE
8
Layer 1
10
77.828324
20
75.818950
11
76.137988
21
76.696930
0
LINE
8
Layer 1
10
76.137988
20
76.696930
11
76.134888
21
76.699930
0
LINE
8
Layer 1
10
76.134888
20
76.699930
11
45.753280
21
93.271530
0
LINE
8
Layer 1
10
45.753280
20
93.271530
11
45.297066
21
93.654408
0
LINE
8
Layer 1
10
45.297066
20
93.654408
11
45.032202
21
94.164711
0
LINE
8
Layer 1
10
45.032202
20
94.164711
11
44.978016
21
94.737049
0
LINE
8
Layer 1
10
44.978016
20
94.737049
11
45.153834
21
95.306030
0
LINE
8
Layer 1
10
45.153834
20
95.306030
11
45.780971
21
95.921040
0
LINE
8
Layer 1
10
45.780971
20
95.921040
11
46.621961
21
96.082210
0
LINE
8
Layer 1
10
46.621961
20
96.082210
11
46.621960
21
96.082310
0
LINE
8
Layer 1
10
146.225700
20
92.178160
11
147.064904
21
92.017978
0
LINE
8
Layer 1
10
147.064904
20
92.017978
11
147.691760
21
91.405590
0
LINE
8
Layer 1
10
147.691760
20
91.405590
11
147.869279
21
90.836325
0
LINE
8
Layer 1
10
147.869279
20
90.836325
11
147.816376
21
90.263171
0
LINE
8
Layer 1
10
147.816376
20
90.263171
11
147.552208
21
89.751827
0
LINE
8
Layer 1
10
147.552208
20
89.751827
11
147.095930
21
89.367990
0
LINE
8
Layer 1
10
147.095930
20
89.367990
11
143.094620
21
87.187760
0
LINE
8
Layer 1
10
143.094620
20
87.187760
11
142.525558
21
87.011951
0
LINE
8
Layer 1
10
142.525558
20
87.011951
11
141.953041
21
87.066139
0
LINE
8
Layer 1
10
141.953041
20
87.066139
11
141.442559
21
87.330999
0
LINE
8
Layer 1
10
141.442559
20
87.330999
11
141.059600
21
87.787210
0
LINE
8
Layer 1
10
141.059600
20
87.787210
11
140.883791
21
88.356192
0
LINE
8
Layer 1
10
140.883791
20
88.356192
11
140.937979
21
88.928533
0
LINE
8
Layer 1
10
140.937979
20
88.928533
11
141.202839
21
89.438837
0
LINE
8
Layer 1
10
141.202839
20
89.438837
11
141.659050
21
89.821710
0
LINE
8
Layer 1
10
141.659050
20
89.821710
11
145.657260
21
92.001940
0
LINE
8
Layer 1
10
145.657260
20
92.001940
11
146.225700
21
92.178160
0
LINE
8
Layer 1
10
146.225700
20
92.178160
11
146.225700
21
92.178160
0
LINE
8
Layer 1
10
87.476831
20
91.219560
11
91.771659
21
90.234610
0
LINE
8
Layer 1
10
91.771659
20
90.234610
11
92.316975
21
90.021340
0
LINE
8
Layer 1
10
92.316975
20
90.021340
11
92.739093
21
89.615544
0
LINE
8
Layer 1
10
92.739093
20
89.615544
11
92.973691
21
89.079058
0
LINE
8
Layer 1
10
92.973691
20
89.079058
11
92.985021
21
88.493630
0
LINE
8
Layer 1
10
92.985021
20
88.493630
11
92.771703
21
87.948176
0
LINE
8
Layer 1
10
92.771703
20
87.948176
11
92.365768
21
87.525989
0
LINE
8
Layer 1
10
92.365768
20
87.525989
11
91.829103
21
87.291434
0
LINE
8
Layer 1
10
91.829103
20
87.291434
11
91.243526
21
87.280270
0
LINE
8
Layer 1
10
91.243526
20
87.280270
11
86.663960
21
88.333430
0
LINE
8
Layer 1
10
86.663960
20
88.333430
11
86.134362
21
88.604685
0
LINE
8
Layer 1
10
86.134362
20
88.604685
11
85.762585
21
89.042637
0
LINE
8
Layer 1
10
85.762585
20
89.042637
11
85.581951
21
89.587973
0
LINE
8
Layer 1
10
85.581951
20
89.587973
11
85.625781
21
90.181380
0
LINE
8
Layer 1
10
85.625781
20
90.181380
11
85.891131
21
90.703428
0
LINE
8
Layer 1
10
85.891131
20
90.703428
11
86.336150
21
91.084088
0
LINE
8
Layer 1
10
86.336150
20
91.084088
11
86.893009
21
91.265341
0
LINE
8
Layer 1
10
86.893009
20
91.265341
11
87.476831
21
91.219560
0
LINE
8
Layer 1
10
87.476831
20
91.219560
11
87.476831
21
91.219560
0
LINE
8
Layer 1
10
134.218160
20
85.633340
11
134.801070
21
85.580140
0
LINE
8
Layer 1
10
134.801070
20
85.580140
11
135.319195
21
85.308695
0
LINE
8
Layer 1
10
135.319195
20
85.308695
11
135.694040
21
84.859770
0
LINE
8
Layer 1
10
135.694040
20
84.859770
11
135.869930
21
84.290708
0
LINE
8
Layer 1
10
135.869930
20
84.290708
11
135.815921
21
83.718191
0
LINE
8
Layer 1
10
135.815921
20
83.718191
11
135.551240
21
83.207709
0
LINE
8
Layer 1
10
135.551240
20
83.207709
11
135.095110
21
82.824750
0
LINE
8
Layer 1
10
135.095110
20
82.824750
11
123.865300
21
76.700060
0
LINE
8
Layer 1
10
123.865300
20
76.700060
11
119.268021
21
74.488096
0
LINE
8
Layer 1
10
119.268021
20
74.488096
11
114.468460
21
72.757670
0
LINE
8
Layer 1
10
114.468460
20
72.757670
11
111.041567
21
71.850061
0
LINE
8
Layer 1
10
111.041567
20
71.850061
11
107.558777
21
71.188380
0
LINE
8
Layer 1
10
107.558777
20
71.188380
11
104.037502
21
70.775977
0
LINE
8
Layer 1
10
104.037502
20
70.775977
11
100.495150
21
70.616200
0
LINE
8
Layer 1
10
100.495150
20
70.616200
11
99.910620
21
70.729040
0
LINE
8
Layer 1
10
99.910620
20
70.729040
11
99.431301
21
71.046206
0
LINE
8
Layer 1
10
99.431301
20
71.046206
11
99.105766
21
71.519922
0
LINE
8
Layer 1
10
99.105766
20
71.519922
11
98.982588
21
72.102410
0
LINE
8
Layer 1
10
98.982588
20
72.102410
11
99.094545
21
72.687943
0
LINE
8
Layer 1
10
99.094545
20
72.687943
11
99.411516
21
73.168311
0
LINE
8
Layer 1
10
99.411516
20
73.168311
11
99.885576
21
73.494647
0
LINE
8
Layer 1
10
99.885576
20
73.494647
11
100.468800
21
73.618080
0
LINE
8
Layer 1
10
100.468800
20
73.618080
11
103.795593
21
73.768025
0
LINE
8
Layer 1
10
103.795593
20
73.768025
11
107.103892
21
74.155236
0
LINE
8
Layer 1
10
107.103892
20
74.155236
11
110.376616
21
74.776682
0
LINE
8
Layer 1
10
110.376616
20
74.776682
11
113.596680
21
75.629330
0
LINE
8
Layer 1
10
113.596680
20
75.629330
11
118.107915
21
77.255067
0
LINE
8
Layer 1
10
118.107915
20
77.255067
11
122.429730
21
79.333490
0
LINE
8
Layer 1
10
122.429730
20
79.333490
11
133.659020
21
85.458700
0
LINE
8
Layer 1
10
133.659020
20
85.458700
11
134.218160
21
85.633370
0
LINE
8
Layer 1
10
134.218160
20
85.633370
11
134.218160
21
85.633340
0
LINE
8
Layer 1
10
86.791084
20
75.389000
11
87.385363
21
75.344600
0
LINE
8
Layer 1
10
87.385363
20
75.344600
11
91.680192
21
74.359650
0
LINE
8
Layer 1
10
91.680192
20
74.359650
11
92.234473
21
74.140957
0
LINE
8
Layer 1
10
92.234473
20
74.140957
11
92.647381
21
73.740534
0
LINE
8
Layer 1
10
92.647381
20
73.740534
11
92.879906
21
73.214424
0
LINE
8
Layer 1
10
92.879906
20
73.214424
11
92.893037
21
72.618670
0
LINE
8
Layer 1
10
92.893037
20
72.618670
11
92.674344
21
72.064308
0
LINE
8
Layer 1
10
92.674344
20
72.064308
11
92.273920
21
71.651221
0
LINE
8
Layer 1
10
92.273920
20
71.651221
11
91.747810
21
71.418519
0
LINE
8
Layer 1
10
91.747810
20
71.418519
11
91.152058
21
71.405310
0
LINE
8
Layer 1
10
91.152058
20
71.405310
11
86.572493
21
72.458470
0
LINE
8
Layer 1
10
86.572493
20
72.458470
11
86.042927
21
72.729738
0
LINE
8
Layer 1
10
86.042927
20
72.729738
11
85.671159
21
73.167698
0
LINE
8
Layer 1
10
85.671159
20
73.167698
11
85.490513
21
73.713031
0
LINE
8
Layer 1
10
85.490513
20
73.713031
11
85.534313
21
74.306420
0
LINE
8
Layer 1
10
85.534313
20
74.306420
11
86.008167
21
75.044661
0
LINE
8
Layer 1
10
86.008167
20
75.044661
11
86.791084
21
75.389040
0
LINE
8
Layer 1
10
86.791084
20
75.389040
11
86.791084
21
75.389000
0
LINE
8
luna
10
58.665515
20
126.649000
11
55.616003
21
120.316622
0
LINE
8
luna
10
55.616003
20
120.316622
11
48.763811
21
118.752654
0
LINE
8
luna
10
48.763811
20
118.752654
11
43.268779
21
123.134796
0
LINE
8
luna
10
43.268779
20
123.134796
11
43.268779
21
130.163204
0
LINE
8
luna
10
43.268779
20
130.163204
11
48.763811
21
134.545346
0
LINE
8
luna
10
48.763811
20
134.545346
11
55.616003
21
132.981378
0
LINE
8
luna
10
55.616003
20
132.981378
11
58.665515
21
126.649000
0
LINE
8
luna
10
58.641415
20
126.579000
11
55.591903
21
120.246622
0
LINE
8
luna
10
55.591903
20
120.246622
11
48.739711
21
118.682654
0
LINE
8
luna
10
48.739711
20
118.682654
11
43.244679
21
123.064796
0
LINE
8
luna
10
43.244679
20
123.064796
11
43.244679
21
130.093204
0
LINE
8
luna
10
43.244679
20
130.093204
11
48.739711
21
134.475346
0
LINE
8
luna
10
48.739711
20
134.475346
11
55.591903
21
132.911378
0
LINE
8
luna
10
55.591903
20
132.911378
11
58.641415
21
126.579000
0
LINE
8
luna
10
58.641415
20
125.520000
11
55.591903
21
119.187622
0
LINE
8
luna
10
55.591903
20
119.187622
11
48.739711
21
117.623654
0
LINE
8
luna
10
48.739711
20
117.623654
11
43.244679
21
122.005796
0
LINE
8
luna
10
43.244679
20
122.005796
11
43.244679
21
129.034204
0
LINE
8
luna
10
43.244679
20
129.034204
11
48.739711
21
133.416346
0
LINE
8
luna
10
48.739711
20
133.416346
11
55.591903
21
131.852378
0
LINE
8
luna
10
55.591903
20
131.852378
11
58.641415
21
125.520000
0
LINE
8
luna
10
57.583115
20
127.108000
11
54.533603
21
120.775622
0
LINE
8
luna
10
54.533603
20
120.775622
11
47.681411
21
119.211654
0
LINE
8
luna
10
47.681411
20
119.211654
11
42.186379
21
123.593796
0
LINE
8
luna
10
42.186379
20
123.593796
11
42.186379
21
130.622204
0
LINE
8
luna
10
42.186379
20
130.622204
11
47.681411
21
135.004346
0
LINE
8
luna
10
47.681411
20
135.004346
11
54.533603
21
133.440378
0
LINE
8
luna
10
54.533603
20
133.440378
11
57.583115
21
127.108000
0
LINE
8
luna
10
60.413515
20
124.636000
11
57.364003
21
118.303622
0
LINE
8
luna
10
57.364003
20
118.303622
11
50.511811
21
116.739654
0
LINE
8
luna
10
50.511811
20
116.739654
11
45.016779
21
121.121796
0
LINE
8
luna
10
45.016779
20
121.121796
11
45.016779
21
128.150204
0
LINE
8
luna
10
45.016779
20
128.150204
11
50.511811
21
132.532346
0
LINE
8
luna
10
50.511811
20
132.532346
11
57.364003
21
130.968378
0
LINE
8
luna
10
57.364003
20
130.968378
11
60.413515
21
124.636000
0
LINE
8
luna
10
60.389415
20
124.566000
11
57.339903
21
118.233622
0
LINE
8
luna
10
57.339903
20
118.233622
11
50.487711
21
116.669654
0
LINE
8
luna
10
50.487711
20
116.669654
11
44.992679
21
121.051796
0
LINE
8
luna
10
44.992679
20
121.051796
11
44.992679
21
128.080204
0
LINE
8
luna
10
44.992679
20
128.080204
11
50.487711
21
132.462346
0
LINE
8
luna
10
50.487711
20
132.462346
11
57.339903
21
130.898378
0
LINE
8
luna
10
57.339903
20
130.898378
11
60.389415
21
124.566000
0
LINE
8
luna
10
60.389415
20
123.508000
11
57.339903
21
117.175622
0
LINE
8
luna
10
57.339903
20
117.175622
11
50.487711
21
115.611654
0
LINE
8
luna
10
50.487711
20
115.611654
11
44.992679
21
119.993796
0
LINE
8
luna
10
44.992679
20
119.993796
11
44.992679
21
127.022204
0
LINE
8
luna
10
44.992679
20
127.022204
11
50.487711
21
131.404346
0
LINE
8
luna
10
50.487711
20
131.404346
11
57.339903
21
129.840378
0
LINE
8
luna
10
57.339903
20
129.840378
11
60.389415
21
123.508000
0
LINE
8
luna
10
59.331115
20
125.095000
11
56.281603
21
118.762622
0
LINE
8
luna
10
56.281603
20
118.762622
11
49.429411
21
117.198654
0
LINE
8
luna
10
49.429411
20
117.198654
11
43.934379
21
121.580796
0
LINE
8
luna
10
43.934379
20
121.580796
11
43.934379
21
128.609204
0
LINE
8
luna
10
43.934379
20
128.609204
11
49.429411
21
132.991346
0
LINE
8
luna
10
49.429411
20
132.991346
11
56.281603
21
131.427378
0
LINE
8
luna
10
56.281603
20
131.427378
11
59.331115
21
125.095000
0
LINE
8
luna
10
56.893415
20
127.533000
11
53.843903
21
121.200622
0
LINE
8
luna
10
53.843903
20
121.200622
11
46.991711
21
119.636654
0
LINE
8
luna
10
46.991711
20
119.636654
11
41.496679
21
124.018796
0
LINE
8
luna
10
41.496679
20
124.018796
11
41.496679
21
131.047204
0
LINE
8
luna
10
41.496679
20
131.047204
11
46.991711
21
135.429346
0
LINE
8
luna
10
46.991711
20
135.429346
11
53.843903
21
133.865378
0
LINE
8
luna
10
53.843903
20
133.865378
11
56.893415
21
127.533000
0
LINE
8
luna
10
56.869315
20
127.463000
11
53.819803
21
121.130622
0
LINE
8
luna
10
53.819803
20
121.130622
11
46.967611
21
119.566654
0
LINE
8
luna
10
46.967611
20
119.566654
11
41.472579
21
123.948796
0
LINE
8
luna
10
41.472579
20
123.948796
11
41.472579
21
130.977204
0
LINE
8
luna
10
41.472579
20
130.977204
11
46.967611
21
135.359346
0
LINE
8
luna
10
46.967611
20
135.359346
11
53.819803
21
133.795378
0
LINE
8
luna
10
53.819803
20
133.795378
11
56.869315
21
127.463000
0
LINE
8
luna
10
56.869315
20
126.404000
11
53.819803
21
120.071622
0
LINE
8
luna
10
53.819803
20
120.071622
11
46.967611
21
118.507654
0
LINE
8
luna
10
46.967611
20
118.507654
11
41.472579
21
122.889796
0
LINE
8
luna
10
41.472579
20
122.889796
11
41.472579
21
129.918204
0
LINE
8
luna
10
41.472579
20
129.918204
11
46.967611
21
134.300346
0
LINE
8
luna
10
46.967611
20
134.300346
11
53.819803
21
132.736378
0
LINE
8
luna
10
53.819803
20
132.736378
11
56.869315
21
126.404000
0
LINE
8
luna
10
55.811015
20
127.992000
11
52.761503
21
121.659622
0
LINE
8
luna
10
52.761503
20
121.659622
11
45.909311
21
120.095654
0
LINE
8
luna
10
45.909311
20
120.095654
11
40.414279
21
124.477796
0
LINE
8
luna
10
40.414279
20
124.477796
11
40.414279
21
131.506204
0
LINE
8
luna
10
40.414279
20
131.506204
11
45.909311
21
135.888346
0
LINE
8
luna
10
45.909311
20
135.888346
11
52.761503
21
134.324378
0
LINE
8
luna
10
52.761503
20
134.324378
11
55.811015
21
127.992000
0
LINE
8
luna
10
56.893415
20
127.533000
11
53.843903
21
121.200622
0
LINE
8
luna
10
53.843903
20
121.200622
11
46.991711
21
119.636654
0
LINE
8
luna
10
46.991711
20
119.636654
11
41.496679
21
124.018796
0
LINE
8
luna
10
41.496679
20
124.018796
11
41.496679
21
131.047204
0
LINE
8
luna
10
41.496679
20
131.047204
11
46.991711
21
135.429346
0
LINE
8
luna
10
46.991711
20
135.429346
11
53.843903
21
133.865378
0
LINE
8
luna
10
53.843903
20
133.865378
11
56.893415
21
127.533000
0
LINE
8
luna
10
56.869315
20
127.463000
11
53.819803
21
121.130622
0
LINE
8
luna
10
53.819803
20
121.130622
11
46.967611
21
119.566654
0
LINE
8
luna
10
46.967611
20
119.566654
11
41.472579
21
123.948796
0
LINE
8
luna
10
41.472579
20
123.948796
11
41.472579
21
130.977204
0
LINE
8
luna
10
41.472579
20
130.977204
11
46.967611
21
135.359346
0
LINE
8
luna
10
46.967611
20
135.359346
11
53.819803
21
133.795378
0
LINE
8
luna
10
53.819803
20
133.795378
11
56.869315
21
127.463000
0
LINE
8
luna
10
56.869315
20
126.404000
11
53.819803
21
120.071622
0
LINE
8
luna
10
53.819803
20
120.071622
11
46.967611
21
118.507654
0
LINE
8
luna
10
46.967611
20
118.507654
11
41.472579
21
122.889796
0
LINE
8
luna
10
41.472579
20
122.889796
11
41.472579
21
129.918204
0
LINE
8
luna
10
41.472579
20
129.918204
11
46.967611
21
134.300346
0
LINE
8
luna
10
46.967611
20
134.300346
11
53.819803
21
132.736378
0
LINE
8
luna
10
53.819803
20
132.736378
11
56.869315
21
126.404000
0
LINE
8
luna
10
55.811015
20
127.992000
11
52.761503
21
121.659622
0
LINE
8
luna
10
52.761503
20
121.659622
11
45.909311
21
120.095654
0
LINE
8
luna
10
45.909311
20
120.095654
11
40.414279
21
124.477796
0
LINE
8
luna
10
40.414279
20
124.477796
11
40.414279
21
131.506204
0
LINE
8
luna
10
40.414279
20
131.506204
11
45.909311
21
135.888346
0
LINE
8
luna
10
45.909311
20
135.888346
11
52.761503
21
134.324378
0
LINE
8
luna
10
52.761503
20
134.324378
11
55.811015
21
127.992000
 0 
ENDSEC
 0 
EOF