0
SECTION
2
HEADER
9
$INSUNITS
70
4
0
ENDSEC
0
SECTION
2
TABLES
0
TABLE
2
LTYPE
0
LTYPE
72
65
70
64
2
CONTINUOUS
3
______
73
0
40
0
0
ENDTAB
0
TABLE
2
LAYER
0
ENDTAB
0
ENDSEC
0
SECTION
2
ENTITIES
0
LINE
8
0
10
51.864809
20
-2.9987707
11
64.5807278
21
-5.7016227
0
LINE
8
0
10
48.9540454
20
-16.6928371
11
61.6699642
21
-19.3956891
0
LINE
8
0
10
51.2717794
20
-3.3838887
11
48.5689274
21
-16.0998075
0
LINE
8
0
10
64.9658458
20
-6.2946523
11
62.2629938
21
-19.0105711
0
ARC
8
0
10
51.7608532
20
-3.4878445
40
0.5
50
78
51
168
0
ARC
8
0
10
64.476772
20
-6.1906965
40
0.5
50
348
51
78
0
ARC
8
0
10
49.0580012
20
-16.2037633
40
0.5
50
168
51
258
0
ARC
8
0
10
61.77392
20
-18.9066153
40
0.5
50
258
51
348
0
LINE
8
0
10
69.5203732
20
-6.7515767
11
82.236292
21
-9.4544287
0
LINE
8
0
10
66.6096096
20
-20.4456431
11
79.3255284
21
-23.1484951
0
LINE
8
0
10
68.9273436
20
-7.1366947
11
66.2244916
21
-19.8526135
0
LINE
8
0
10
82.62141
20
-10.0474583
11
79.918558
21
-22.7633771
0
ARC
8
0
10
69.4164174
20
-7.2406505
40
0.5
50
78
51
168
0
ARC
8
0
10
82.1323362
20
-9.9435025
40
0.5
50
348
51
78
0
ARC
8
0
10
66.7135654
20
-19.9565693
40
0.5
50
168
51
258
0
ARC
8
0
10
79.4294842
20
-22.6594213
40
0.5
50
258
51
348
0
LINE
8
0
10
87.1759374
20
-10.5043827
11
99.8918562
21
-13.2072347
0
LINE
8
0
10
84.2651738
20
-24.1984491
11
96.9810926
21
-26.9013011
0
LINE
8
0
10
86.5829078
20
-10.8895007
11
83.8800558
21
-23.6054195
0
LINE
8
0
10
100.2769742
20
-13.8002643
11
97.5741222
21
-26.5161831
0
ARC
8
0
10
87.0719816
20
-10.9934565
40
0.5
50
78
51
168
0
ARC
8
0
10
99.7879004
20
-13.6963085
40
0.5
50
348
51
78
0
ARC
8
0
10
84.3691296
20
-23.7093753
40
0.5
50
168
51
258
0
ARC
8
0
10
97.0850484
20
-26.4122273
40
0.5
50
258
51
348
0
LINE
8
0
10
104.8315016
20
-14.2571887
11
117.5474204
21
-16.9600407
0
LINE
8
0
10
101.920738
20
-27.9512551
11
114.6366568
21
-30.6541071
0
LINE
8
0
10
104.238472
20
-14.6423067
11
101.53562
21
-27.3582255
0
LINE
8
0
10
117.9325384
20
-17.5530703
11
115.2296864
21
-30.2689891
0
ARC
8
0
10
104.7275458
20
-14.7462625
40
0.5
50
78
51
168
0
ARC
8
0
10
117.4434646
20
-17.4491145
40
0.5
50
348
51
78
0
ARC
8
0
10
102.0246938
20
-27.4621813
40
0.5
50
168
51
258
0
ARC
8
0
10
114.7406126
20
-30.1650333
40
0.5
50
258
51
348
0
LINE
8
0
10
31.3946403
20
-12.4876378
11
44.1105591
21
-15.1904898
0
LINE
8
0
10
28.4838767
20
-26.1817042
11
41.1997955
21
-28.8845562
0
LINE
8
0
10
30.8016107
20
-12.8727558
11
28.0987587
21
-25.5886746
0
LINE
8
0
10
44.4956771
20
-15.7835194
11
41.7928251
21
-28.4994382
0
ARC
8
0
10
31.2906845
20
-12.9767116
40
0.5
50
78
51
168
0
ARC
8
0
10
44.0066033
20
-15.6795636
40
0.5
50
348
51
78
0
ARC
8
0
10
28.5878325
20
-25.6926304
40
0.5
50
168
51
258
0
ARC
8
0
10
41.3037513
20
-28.3954824
40
0.5
50
258
51
348
0
LINE
8
0
10
48.112003
20
-20.6543349
11
60.8279218
21
-23.3571869
0
LINE
8
0
10
45.2012394
20
-34.3484013
11
57.9171582
21
-37.0512533
0
LINE
8
0
10
47.5189734
20
-21.0394529
11
44.8161214
21
-33.7553717
0
LINE
8
0
10
61.2130398
20
-23.9502165
11
58.5101878
21
-36.6661353
0
ARC
8
0
10
48.0080472
20
-21.1434087
40
0.5
50
78
51
168
0
ARC
8
0
10
60.723966
20
-23.8462607
40
0.5
50
348
51
78
0
ARC
8
0
10
45.3051952
20
-33.8593275
40
0.5
50
168
51
258
0
ARC
8
0
10
58.021114
20
-36.5621795
40
0.5
50
258
51
348
0
LINE
8
0
10
65.7675672
20
-24.4071409
11
78.483486
21
-27.1099929
0
LINE
8
0
10
62.8568036
20
-38.1012073
11
75.5727224
21
-40.8040593
0
LINE
8
0
10
65.1745376
20
-24.7922589
11
62.4716856
21
-37.5081777
0
LINE
8
0
10
78.868604
20
-27.7030225
11
76.165752
21
-40.4189413
0
ARC
8
0
10
65.6636114
20
-24.8962147
40
0.5
50
78
51
168
0
ARC
8
0
10
78.3795302
20
-27.5990667
40
0.5
50
348
51
78
0
ARC
8
0
10
62.9607594
20
-37.6121335
40
0.5
50
168
51
258
0
ARC
8
0
10
75.6766782
20
-40.3149855
40
0.5
50
258
51
348
0
LINE
8
0
10
83.4231314
20
-28.1599469
11
96.1390502
21
-30.8627989
0
LINE
8
0
10
80.5123678
20
-41.8540133
11
93.2282866
21
-44.5568653
0
LINE
8
0
10
82.8301018
20
-28.5450649
11
80.1272498
21
-41.2609837
0
LINE
8
0
10
96.5241682
20
-31.4558285
11
93.8213162
21
-44.1717473
0
ARC
8
0
10
83.3191756
20
-28.6490207
40
0.5
50
78
51
168
0
ARC
8
0
10
96.0350944
20
-31.3518727
40
0.5
50
348
51
78
0
ARC
8
0
10
80.6163236
20
-41.3649395
40
0.5
50
168
51
258
0
ARC
8
0
10
93.3322424
20
-44.0677915
40
0.5
50
258
51
348
0
LINE
8
0
10
101.0786956
20
-31.9127529
11
113.7946144
21
-34.6156049
0
LINE
8
0
10
98.167932
20
-45.6068193
11
110.8838508
21
-48.3096713
0
LINE
8
0
10
100.485666
20
-32.2978709
11
97.782814
21
-45.0137897
0
LINE
8
0
10
114.1797324
20
-35.2086345
11
111.4768804
21
-47.9245533
0
ARC
8
0
10
100.9747398
20
-32.4018267
40
0.5
50
78
51
168
0
ARC
8
0
10
113.6906586
20
-35.1046787
40
0.5
50
348
51
78
0
ARC
8
0
10
98.2718878
20
-45.1177455
40
0.5
50
168
51
258
0
ARC
8
0
10
110.9878066
20
-47.8205975
40
0.5
50
258
51
348
0
LINE
8
0
10
40.2737703
20
-35.6460291
11
37.5709183
21
-48.3619479
0
LINE
8
0
10
26.5797039
20
-32.7352655
11
23.8768519
21
-45.4511843
0
LINE
8
0
10
39.8886523
20
-35.0529995
11
27.1727335
21
-32.3501475
0
LINE
8
0
10
36.9778887
20
-48.7470659
11
24.2619699
21
-46.0442139
0
ARC
8
0
10
39.7846965
20
-35.5420733
40
0.5
50
348
51
78
0
ARC
8
0
10
37.0818445
20
-48.2579921
40
0.5
50
258
51
348
0
ARC
8
0
10
27.0687777
20
-32.8392213
40
0.5
50
78
51
168
0
ARC
8
0
10
24.3659257
20
-45.5551401
40
0.5
50
168
51
258
0
LINE
8
0
10
44.359197
20
-38.3098991
11
57.0751158
21
-41.0127511
0
LINE
8
0
10
41.4484334
20
-52.0039655
11
54.1643522
21
-54.7068175
0
LINE
8
0
10
43.7661674
20
-38.6950171
11
41.0633154
21
-51.4109359
0
LINE
8
0
10
57.4602338
20
-41.6057807
11
54.7573818
21
-54.3216995
0
ARC
8
0
10
44.2552412
20
-38.7989729
40
0.5
50
78
51
168
0
ARC
8
0
10
56.97116
20
-41.5018249
40
0.5
50
348
51
78
0
ARC
8
0
10
41.5523892
20
-51.5148917
40
0.5
50
168
51
258
0
ARC
8
0
10
54.268308
20
-54.2177437
40
0.5
50
258
51
348
0
LINE
8
0
10
62.0147612
20
-42.0627051
11
74.73068
21
-44.7655571
0
LINE
8
0
10
59.1039976
20
-55.7567715
11
71.8199164
21
-58.4596235
0
LINE
8
0
10
61.4217316
20
-42.4478231
11
58.7188796
21
-55.1637419
0
LINE
8
0
10
75.115798
20
-45.3585867
11
72.412946
21
-58.0745055
0
ARC
8
0
10
61.9108054
20
-42.5517789
40
0.5
50
78
51
168
0
ARC
8
0
10
74.6267242
20
-45.2546309
40
0.5
50
348
51
78
0
ARC
8
0
10
59.2079534
20
-55.2676977
40
0.5
50
168
51
258
0
ARC
8
0
10
71.9238722
20
-57.9705497
40
0.5
50
258
51
348
0
LINE
8
0
10
79.6703254
20
-45.8155111
11
92.3862442
21
-48.5183631
0
LINE
8
0
10
76.7595618
20
-59.5095775
11
89.4754806
21
-62.2124295
0
LINE
8
0
10
79.0772958
20
-46.2006291
11
76.3744438
21
-58.9165479
0
LINE
8
0
10
92.7713622
20
-49.1113927
11
90.0685102
21
-61.8273115
0
ARC
8
0
10
79.5663696
20
-46.3045849
40
0.5
50
78
51
168
0
ARC
8
0
10
92.2822884
20
-49.0074369
40
0.5
50
348
51
78
0
ARC
8
0
10
76.8635176
20
-59.0205037
40
0.5
50
168
51
258
0
ARC
8
0
10
89.5794364
20
-61.7233557
40
0.5
50
258
51
348
0
LINE
8
0
10
97.3258896
20
-49.5683171
11
110.0418084
21
-52.2711691
0
LINE
8
0
10
94.415126
20
-63.2623835
11
107.1310448
21
-65.9652355
0
LINE
8
0
10
96.73286
20
-49.9534351
11
94.030008
21
-62.6693539
0
LINE
8
0
10
110.4269264
20
-52.8641987
11
107.7240744
21
-65.5801175
0
ARC
8
0
10
97.2219338
20
-50.0573909
40
0.5
50
78
51
168
0
ARC
8
0
10
109.9378526
20
-52.7602429
40
0.5
50
348
51
78
0
ARC
8
0
10
94.5190818
20
-62.7733097
40
0.5
50
168
51
258
0
ARC
8
0
10
107.2350006
20
-65.4761617
40
0.5
50
258
51
348
0
LINE
8
0
10
22.9508268
20
-52.2126572
11
35.6667456
21
-54.9155092
0
LINE
8
0
10
20.0400632
20
-65.9067236
11
32.755982
21
-68.6095756
0
LINE
8
0
10
22.3577972
20
-52.5977752
11
19.6549452
21
-65.313694
0
LINE
8
0
10
36.0518636
20
-55.5085388
11
33.3490116
21
-68.2244576
0
ARC
8
0
10
22.846871
20
-52.701731
40
0.5
50
78
51
168
0
ARC
8
0
10
35.5627898
20
-55.404583
40
0.5
50
348
51
78
0
ARC
8
0
10
20.144019
20
-65.4176498
40
0.5
50
168
51
258
0
ARC
8
0
10
32.8599378
20
-68.1205018
40
0.5
50
258
51
348
0
LINE
8
0
10
40.606391
20
-55.9654632
11
53.3223098
21
-58.6683152
0
LINE
8
0
10
37.6956274
20
-69.6595296
11
50.4115462
21
-72.3623816
0
LINE
8
0
10
40.0133614
20
-56.3505812
11
37.3105094
21
-69.0665
0
LINE
8
0
10
53.7074278
20
-59.2613448
11
51.0045758
21
-71.9772636
0
ARC
8
0
10
40.5024352
20
-56.454537
40
0.5
50
78
51
168
0
ARC
8
0
10
53.218354
20
-59.157389
40
0.5
50
348
51
78
0
ARC
8
0
10
37.7995832
20
-69.1704558
40
0.5
50
168
51
258
0
ARC
8
0
10
50.515502
20
-71.8733078
40
0.5
50
258
51
348
0
LINE
8
0
10
58.2619551
20
-59.7182693
11
70.9778739
21
-62.4211213
0
LINE
8
0
10
55.3511915
20
-73.4123357
11
68.0671103
21
-76.1151877
0
LINE
8
0
10
57.6689255
20
-60.1033873
11
54.9660735
21
-72.8193061
0
LINE
8
0
10
71.3629919
20
-63.0141509
11
68.6601399
21
-75.7300697
0
ARC
8
0
10
58.1579993
20
-60.2073431
40
0.5
50
78
51
168
0
ARC
8
0
10
70.8739181
20
-62.9101951
40
0.5
50
348
51
78
0
ARC
8
0
10
55.4551473
20
-72.9232619
40
0.5
50
168
51
258
0
ARC
8
0
10
68.1710661
20
-75.6261139
40
0.5
50
258
51
348
0
LINE
8
0
10
95.8449838
20
-78.3682401
11
105.8035615
21
-86.7244791
0
LINE
8
0
10
86.8459573
20
-89.0928623
11
96.804535
21
-97.4491013
0
LINE
8
0
10
95.1405678
20
-78.4298686
11
86.7843288
21
-88.3884463
0
LINE
8
0
10
105.86519
20
-87.4288951
11
97.508951
21
-97.3874728
0
ARC
8
0
10
95.52359
20
-78.7512624
40
0.5
50
50
51
140
0
ARC
8
0
10
105.4821677
20
-87.1075013
40
0.5
50
320
51
50
0
ARC
8
0
10
87.1673511
20
-88.7098401
40
0.5
50
140
51
230
0
ARC
8
0
10
97.1259288
20
-97.066079
40
0.5
50
230
51
320
0
LINE
8
0
10
109.672086
20
-89.9705564
11
119.6306637
21
-98.3267954
0
LINE
8
0
10
100.6730595
20
-100.6951786
11
110.6316372
21
-109.0514176
0
LINE
8
0
10
108.96767
20
-90.0321849
11
100.611431
21
-99.9907626
0
LINE
8
0
10
119.6922922
20
-99.0312114
11
111.3360532
21
-108.9897891
0
ARC
8
0
10
109.3506922
20
-90.3535787
40
0.5
50
50
51
140
0
ARC
8
0
10
119.3092699
20
-98.7098176
40
0.5
50
320
51
50
0
ARC
8
0
10
100.9944533
20
-100.3121564
40
0.5
50
140
51
230
0
ARC
8
0
10
110.953031
20
-108.6683953
40
0.5
50
230
51
320
0
LINE
8
0
10
82.0178816
20
-66.7659237
11
91.9764593
21
-75.1221627
0
LINE
8
0
10
73.0188551
20
-77.4905459
11
82.9774328
21
-85.8467849
0
LINE
8
0
10
81.3134656
20
-66.8275522
11
72.9572266
21
-76.7861299
0
LINE
8
0
10
92.0380878
20
-75.8265787
11
83.6818488
21
-85.7851564
0
ARC
8
0
10
81.6964878
20
-67.148946
40
0.5
50
50
51
140
0
ARC
8
0
10
91.6550655
20
-75.5051849
40
0.5
50
320
51
50
0
ARC
8
0
10
73.3402489
20
-77.1075237
40
0.5
50
140
51
230
0
ARC
8
0
10
83.2988266
20
-85.4637626
40
0.5
50
230
51
320
0
LINE
8
0
10
18.8284044
20
-108.535987
11
119.1768616
21
-108.535987
0
LINE
8
0
10
18.8284044
20
-2.1722299
11
119.1768616
21
-2.1722299
0
LINE
8
0
10
18.8284044
20
-108.535987
11
18.8284044
21
-2.1722299
0
LINE
8
0
10
119.1768616
20
-108.535987
11
119.1768616
21
-2.1722299
0
ENDSEC
0
EOF