0
SECTION
2
HEADER
9
$INSUNITS
70
4
0
ENDSEC
0
SECTION
2
TABLES
0
TABLE
2
LTYPE
0
LTYPE
72
65
70
64
2
CONTINUOUS
3
______
73
0
40
0
0
ENDTAB
0
TABLE
2
LAYER
0
ENDTAB
0
ENDSEC
0
SECTION
2
ENTITIES
0
LINE
8
0
10
55.0098166
20
-3.6191158
11
67.7257354
21
-6.3219678
0
LINE
8
0
10
52.099053
20
-17.3131822
11
64.8149718
21
-20.0160342
0
LINE
8
0
10
54.416787
20
-4.0042338
11
51.713935
21
-16.7201526
0
LINE
8
0
10
68.1108534
20
-6.9149974
11
65.4080014
21
-19.6309162
0
ARC
8
0
10
54.9058608
20
-4.1081896
40
0.5
50
78
51
168
0
ARC
8
0
10
67.6217796
20
-6.8110416
40
0.5
50
348
51
78
0
ARC
8
0
10
52.2030088
20
-16.8241084
40
0.5
50
168
51
258
0
ARC
8
0
10
64.9189276
20
-19.5269604
40
0.5
50
258
51
348
0
LINE
8
0
10
73.6435284
20
-7.5798335
11
86.3594472
21
-10.2826855
0
LINE
8
0
10
70.7327648
20
-21.2738999
11
83.4486836
21
-23.9767519
0
LINE
8
0
10
73.0504988
20
-7.9649515
11
70.3476468
21
-20.6808703
0
LINE
8
0
10
86.7445652
20
-10.8757151
11
84.0417132
21
-23.5916339
0
ARC
8
0
10
73.5395726
20
-8.0689073
40
0.5
50
78
51
168
0
ARC
8
0
10
86.2554914
20
-10.7717593
40
0.5
50
348
51
78
0
ARC
8
0
10
70.8367206
20
-20.7848261
40
0.5
50
168
51
258
0
ARC
8
0
10
83.5526394
20
-23.4876781
40
0.5
50
258
51
348
0
LINE
8
0
10
92.2772402
20
-11.5405512
11
104.993159
21
-14.2434032
0
LINE
8
0
10
89.3664766
20
-25.2346176
11
102.0823954
21
-27.9374696
0
LINE
8
0
10
91.6842106
20
-11.9256692
11
88.9813586
21
-24.641588
0
LINE
8
0
10
105.378277
20
-14.8364328
11
102.675425
21
-27.5523516
0
ARC
8
0
10
92.1732844
20
-12.029625
40
0.5
50
78
51
168
0
ARC
8
0
10
104.8892032
20
-14.732477
40
0.5
50
348
51
78
0
ARC
8
0
10
89.4704324
20
-24.7455438
40
0.5
50
168
51
258
0
ARC
8
0
10
102.1863512
20
-27.4483958
40
0.5
50
258
51
348
0
LINE
8
0
10
110.910952
20
-15.5012689
11
123.6268708
21
-18.2041209
0
LINE
8
0
10
108.0001884
20
-29.1953353
11
120.7161072
21
-31.8981873
0
LINE
8
0
10
110.3179224
20
-15.8863869
11
107.6150704
21
-28.6023057
0
LINE
8
0
10
124.0119888
20
-18.7971505
11
121.3091368
21
-31.5130693
0
ARC
8
0
10
110.8069962
20
-15.9903427
40
0.5
50
78
51
168
0
ARC
8
0
10
123.522915
20
-18.6931947
40
0.5
50
348
51
78
0
ARC
8
0
10
108.1041442
20
-28.7062615
40
0.5
50
168
51
258
0
ARC
8
0
10
120.820063
20
-31.4091135
40
0.5
50
258
51
348
0
LINE
8
0
10
33.4055665
20
-13.6336819
11
46.1214853
21
-16.3365339
0
LINE
8
0
10
30.4948029
20
-27.3277483
11
43.2107217
21
-30.0306003
0
LINE
8
0
10
32.8125369
20
-14.0187999
11
30.1096849
21
-26.7347187
0
LINE
8
0
10
46.5066033
20
-16.9295635
11
43.8037513
21
-29.6454823
0
ARC
8
0
10
33.3016107
20
-14.1227557
40
0.5
50
78
51
168
0
ARC
8
0
10
46.0175295
20
-16.8256077
40
0.5
50
348
51
78
0
ARC
8
0
10
30.5987587
20
-26.8386745
40
0.5
50
168
51
258
0
ARC
8
0
10
43.3146775
20
-29.5415265
40
0.5
50
258
51
348
0
LINE
8
0
10
51.0490989
20
-22.2528276
11
63.7650177
21
-24.9556796
0
LINE
8
0
10
48.1383353
20
-35.946894
11
60.8542541
21
-38.649746
0
LINE
8
0
10
50.4560693
20
-22.6379456
11
47.7532173
21
-35.3538644
0
LINE
8
0
10
64.1501357
20
-25.5487092
11
61.4472837
21
-38.264628
0
ARC
8
0
10
50.9451431
20
-22.7419014
40
0.5
50
78
51
168
0
ARC
8
0
10
63.6610619
20
-25.4447534
40
0.5
50
348
51
78
0
ARC
8
0
10
48.2422911
20
-35.4578202
40
0.5
50
168
51
258
0
ARC
8
0
10
60.9582099
20
-38.1606722
40
0.5
50
258
51
348
0
LINE
8
0
10
69.6828107
20
-26.2135453
11
82.3987295
21
-28.9163973
0
LINE
8
0
10
66.7720471
20
-39.9076117
11
79.4879659
21
-42.6104637
0
LINE
8
0
10
69.0897811
20
-26.5986633
11
66.3869291
21
-39.3145821
0
LINE
8
0
10
82.7838475
20
-29.5094269
11
80.0809955
21
-42.2253457
0
ARC
8
0
10
69.5788549
20
-26.7026191
40
0.5
50
78
51
168
0
ARC
8
0
10
82.2947737
20
-29.4054711
40
0.5
50
348
51
78
0
ARC
8
0
10
66.8760029
20
-39.4185379
40
0.5
50
168
51
258
0
ARC
8
0
10
79.5919217
20
-42.1213899
40
0.5
50
258
51
348
0
LINE
8
0
10
88.3165225
20
-30.174263
11
101.0324413
21
-32.877115
0
LINE
8
0
10
85.4057589
20
-43.8683294
11
98.1216777
21
-46.5711814
0
LINE
8
0
10
87.7234929
20
-30.559381
11
85.0206409
21
-43.2752998
0
LINE
8
0
10
101.4175593
20
-33.4701446
11
98.7147073
21
-46.1860634
0
ARC
8
0
10
88.2125667
20
-30.6633368
40
0.5
50
78
51
168
0
ARC
8
0
10
100.9284855
20
-33.3661888
40
0.5
50
348
51
78
0
ARC
8
0
10
85.5097147
20
-43.3792556
40
0.5
50
168
51
258
0
ARC
8
0
10
98.2256335
20
-46.0821076
40
0.5
50
258
51
348
0
LINE
8
0
10
106.9502343
20
-34.1349807
11
119.6661531
21
-36.8378327
0
LINE
8
0
10
104.0394707
20
-47.8290471
11
116.7553895
21
-50.5318991
0
LINE
8
0
10
106.3572047
20
-34.5200987
11
103.6543527
21
-47.2360175
0
LINE
8
0
10
120.0512711
20
-37.4308623
11
117.3484191
21
-50.1467811
0
ARC
8
0
10
106.8462785
20
-34.6240545
40
0.5
50
78
51
168
0
ARC
8
0
10
119.5621973
20
-37.3269065
40
0.5
50
348
51
78
0
ARC
8
0
10
104.1434265
20
-47.3399733
40
0.5
50
168
51
258
0
ARC
8
0
10
116.8593453
20
-50.0428253
40
0.5
50
258
51
348
0
LINE
8
0
10
42.0507959
20
-37.8924893
11
39.3479439
21
-50.6084081
0
LINE
8
0
10
28.3567295
20
-34.9817257
11
25.6538775
21
-47.6976445
0
LINE
8
0
10
41.6656779
20
-37.2994597
11
28.9497591
21
-34.5966077
0
LINE
8
0
10
38.7549143
20
-50.9935261
11
26.0389955
21
-48.2906741
0
ARC
8
0
10
41.5617221
20
-37.7885335
40
0.5
50
348
51
78
0
ARC
8
0
10
38.8588701
20
-50.5044523
40
0.5
50
258
51
348
0
ARC
8
0
10
28.8458033
20
-35.0856815
40
0.5
50
78
51
168
0
ARC
8
0
10
26.1429513
20
-47.8016003
40
0.5
50
168
51
258
0
LINE
8
0
10
47.0883812
20
-40.8865394
11
59.8043
21
-43.5893914
0
LINE
8
0
10
44.1776176
20
-54.5806058
11
56.8935364
21
-57.2834578
0
LINE
8
0
10
46.4953516
20
-41.2716574
11
43.7924996
21
-53.9875762
0
LINE
8
0
10
60.189418
20
-44.182421
11
57.486566
21
-56.8983398
0
ARC
8
0
10
46.9844254
20
-41.3756132
40
0.5
50
78
51
168
0
ARC
8
0
10
59.7003442
20
-44.0784652
40
0.5
50
348
51
78
0
ARC
8
0
10
44.2815734
20
-54.091532
40
0.5
50
168
51
258
0
ARC
8
0
10
56.9974922
20
-56.794384
40
0.5
50
258
51
348
0
LINE
8
0
10
65.722093
20
-44.8472571
11
78.4380118
21
-47.5501091
0
LINE
8
0
10
62.8113294
20
-58.5413235
11
75.5272482
21
-61.2441755
0
LINE
8
0
10
65.1290634
20
-45.2323751
11
62.4262114
21
-57.9482939
0
LINE
8
0
10
78.8231298
20
-48.1431387
11
76.1202778
21
-60.8590575
0
ARC
8
0
10
65.6181372
20
-45.3363309
40
0.5
50
78
51
168
0
ARC
8
0
10
78.334056
20
-48.0391829
40
0.5
50
348
51
78
0
ARC
8
0
10
62.9152852
20
-58.0522497
40
0.5
50
168
51
258
0
ARC
8
0
10
75.631204
20
-60.7551017
40
0.5
50
258
51
348
0
LINE
8
0
10
84.3558047
20
-48.8079748
11
97.0717235
21
-51.5108268
0
LINE
8
0
10
81.4450411
20
-62.5020412
11
94.1609599
21
-65.2048932
0
LINE
8
0
10
83.7627751
20
-49.1930928
11
81.0599231
21
-61.9090116
0
LINE
8
0
10
97.4568415
20
-52.1038564
11
94.7539895
21
-64.8197752
0
ARC
8
0
10
84.2518489
20
-49.2970486
40
0.5
50
78
51
168
0
ARC
8
0
10
96.9677677
20
-51.9999006
40
0.5
50
348
51
78
0
ARC
8
0
10
81.5489969
20
-62.0129674
40
0.5
50
168
51
258
0
ARC
8
0
10
94.2649157
20
-64.7158194
40
0.5
50
258
51
348
0
LINE
8
0
10
102.9895165
20
-52.7686925
11
115.7054353
21
-55.4715445
0
LINE
8
0
10
100.0787529
20
-66.4627589
11
112.7946717
21
-69.1656109
0
LINE
8
0
10
102.3964869
20
-53.1538105
11
99.6936349
21
-65.8697293
0
LINE
8
0
10
116.0905533
20
-56.0645741
11
113.3877013
21
-68.7804929
0
ARC
8
0
10
102.8855607
20
-53.2577663
40
0.5
50
78
51
168
0
ARC
8
0
10
115.6014795
20
-55.9606183
40
0.5
50
348
51
78
0
ARC
8
0
10
100.1827087
20
-65.9736851
40
0.5
50
168
51
258
0
ARC
8
0
10
112.8986275
20
-68.6765371
40
0.5
50
258
51
348
0
LINE
8
0
10
24.4939517
20
-55.5595335
11
37.2098705
21
-58.2623855
0
LINE
8
0
10
21.5831881
20
-69.2535999
11
34.2991069
21
-71.9564519
0
LINE
8
0
10
23.9009221
20
-55.9446515
11
21.1980701
21
-68.6605703
0
LINE
8
0
10
37.5949885
20
-58.8554151
11
34.8921365
21
-71.5713339
0
ARC
8
0
10
24.3899959
20
-56.0486073
40
0.5
50
78
51
168
0
ARC
8
0
10
37.1059147
20
-58.7514593
40
0.5
50
348
51
78
0
ARC
8
0
10
21.6871439
20
-68.7645261
40
0.5
50
168
51
258
0
ARC
8
0
10
34.4030627
20
-71.4673781
40
0.5
50
258
51
348
0
LINE
8
0
10
43.1276634
20
-59.5202512
11
55.8435822
21
-62.2231032
0
LINE
8
0
10
40.2168998
20
-73.2143176
11
52.9328186
21
-75.9171696
0
LINE
8
0
10
42.5346338
20
-59.9053692
11
39.8317818
21
-72.621288
0
LINE
8
0
10
56.2287002
20
-62.8161328
11
53.5258482
21
-75.5320516
0
ARC
8
0
10
43.0237076
20
-60.009325
40
0.5
50
78
51
168
0
ARC
8
0
10
55.7396264
20
-62.712177
40
0.5
50
348
51
78
0
ARC
8
0
10
40.3208556
20
-72.7252438
40
0.5
50
168
51
258
0
ARC
8
0
10
53.0367744
20
-75.4280958
40
0.5
50
258
51
348
0
LINE
8
0
10
61.7613752
20
-63.4809689
11
74.477294
21
-66.1838209
0
LINE
8
0
10
58.8506116
20
-77.1750353
11
71.5665304
21
-79.8778873
0
LINE
8
0
10
61.1683456
20
-63.8660869
11
58.4654936
21
-76.5820057
0
LINE
8
0
10
74.862412
20
-66.7768505
11
72.15956
21
-79.4927693
0
ARC
8
0
10
61.6574194
20
-63.9700427
40
0.5
50
78
51
168
0
ARC
8
0
10
74.3733382
20
-66.6728947
40
0.5
50
348
51
78
0
ARC
8
0
10
58.9545674
20
-76.6859615
40
0.5
50
168
51
258
0
ARC
8
0
10
71.6704862
20
-79.3888135
40
0.5
50
258
51
348
0
LINE
8
0
10
101.1815355
20
-83.2385265
11
111.1401132
21
-91.5947655
0
LINE
8
0
10
92.182509
20
-93.9631487
11
102.1410867
21
-102.3193877
0
LINE
8
0
10
100.4771195
20
-83.300155
11
92.1208805
21
-93.2587327
0
LINE
8
0
10
111.2017417
20
-92.2991815
11
102.8455027
21
-102.2577592
0
ARC
8
0
10
100.8601417
20
-83.6215488
40
0.5
50
50
51
140
0
ARC
8
0
10
110.8187194
20
-91.9777877
40
0.5
50
320
51
50
0
ARC
8
0
10
92.5039028
20
-93.5801265
40
0.5
50
140
51
230
0
ARC
8
0
10
102.4624805
20
-101.9363654
40
0.5
50
230
51
320
0
LINE
8
0
10
115.7746822
20
-95.4836305
11
125.7332599
21
-103.8398695
0
LINE
8
0
10
106.7756557
20
-106.2082527
11
116.7342334
21
-114.5644917
0
LINE
8
0
10
115.0702662
20
-95.545259
11
106.7140272
21
-105.5038367
0
LINE
8
0
10
125.7948884
20
-104.5442855
11
117.4386494
21
-114.5028632
0
ARC
8
0
10
115.4532884
20
-95.8666528
40
0.5
50
50
51
140
0
ARC
8
0
10
125.4118661
20
-104.2228917
40
0.5
50
320
51
50
0
ARC
8
0
10
107.0970495
20
-105.8252305
40
0.5
50
140
51
230
0
ARC
8
0
10
117.0556272
20
-114.1814694
40
0.5
50
230
51
320
0
LINE
8
0
10
86.5883889
20
-70.9934226
11
96.5469666
21
-79.3496616
0
LINE
8
0
10
77.5893624
20
-81.7180448
11
87.5479401
21
-90.0742838
0
LINE
8
0
10
85.8839729
20
-71.0550511
11
77.5277339
21
-81.0136288
0
LINE
8
0
10
96.6085951
20
-80.0540776
11
88.2523561
21
-90.0126553
0
ARC
8
0
10
86.2669951
20
-71.3764449
40
0.5
50
50
51
140
0
ARC
8
0
10
96.2255728
20
-79.7326838
40
0.5
50
320
51
50
0
ARC
8
0
10
77.9107562
20
-81.3350226
40
0.5
50
140
51
230
0
ARC
8
0
10
87.8693339
20
-89.6912615
40
0.5
50
230
51
320
0
LINE
8
0
10
19.8715293
20
-114.5490611
11
125.7794578
21
-114.5490611
0
LINE
8
0
10
19.8715293
20
-2.292575
11
125.7794578
21
-2.292575
0
LINE
8
0
10
19.8715293
20
-114.5490611
11
19.8715293
21
-2.292575
0
LINE
8
0
10
125.7794578
20
-114.5490611
11
125.7794578
21
-2.292575
0
ENDSEC
0
EOF