0
SECTION
2
HEADER
9
$INSUNITS
70
4
0
ENDSEC
0
SECTION
2
TABLES
0
TABLE
2
LTYPE
0
LTYPE
72
65
70
64
2
CONTINUOUS
3
______
73
0
40
0
0
ENDTAB
0
TABLE
2
LAYER
0
ENDTAB
0
ENDSEC
0
SECTION
2
ENTITIES
0
LINE
8
0
10
73.6435284
20
-7.5798335
11
86.3594472
21
-10.2826855
0
LINE
8
0
10
70.7327648
20
-21.2738999
11
83.4486836
21
-23.9767519
0
LINE
8
0
10
73.0504988
20
-7.9649515
11
70.3476468
21
-20.6808703
0
LINE
8
0
10
86.7445652
20
-10.8757151
11
84.0417132
21
-23.5916339
0
ARC
8
0
10
73.5395726
20
-8.0689073
40
0.5
50
78
51
168
0
ARC
8
0
10
86.2554914
20
-10.7717593
40
0.5
50
348
51
78
0
ARC
8
0
10
70.8367206
20
-20.7848261
40
0.5
50
168
51
258
0
ARC
8
0
10
83.5526394
20
-23.4876781
40
0.5
50
258
51
348
0
LINE
8
0
10
54.0196372
20
-8.2775438
11
66.735556
21
-10.9803958
0
LINE
8
0
10
51.1088736
20
-21.9716102
11
63.8247924
21
-24.6744622
0
LINE
8
0
10
53.4266076
20
-8.6626618
11
50.7237556
21
-21.3785806
0
LINE
8
0
10
67.120674
20
-11.5734254
11
64.417822
21
-24.2893442
0
ARC
8
0
10
53.9156814
20
-8.7666176
40
0.5
50
78
51
168
0
ARC
8
0
10
66.6316002
20
-11.4694696
40
0.5
50
348
51
78
0
ARC
8
0
10
51.2128294
20
-21.4825364
40
0.5
50
168
51
258
0
ARC
8
0
10
63.9287482
20
-24.1853884
40
0.5
50
258
51
348
0
LINE
8
0
10
91.2870607
20
-16.1989792
11
104.0029795
21
-18.9018312
0
LINE
8
0
10
88.3762971
20
-29.8930456
11
101.0922159
21
-32.5958976
0
LINE
8
0
10
90.6940311
20
-16.5840972
11
87.9911791
21
-29.300016
0
LINE
8
0
10
104.3880975
20
-19.4948608
11
101.6852455
21
-32.2107796
0
ARC
8
0
10
91.1831049
20
-16.688053
40
0.5
50
78
51
168
0
ARC
8
0
10
103.8990237
20
-19.390905
40
0.5
50
348
51
78
0
ARC
8
0
10
88.4802529
20
-29.4039718
40
0.5
50
168
51
258
0
ARC
8
0
10
101.1961717
20
-32.1068238
40
0.5
50
258
51
348
0
LINE
8
0
10
109.9207725
20
-20.1596969
11
122.6366913
21
-22.8625489
0
LINE
8
0
10
107.0100089
20
-33.8537633
11
119.7259277
21
-36.5566153
0
LINE
8
0
10
109.3277429
20
-20.5448149
11
106.6248909
21
-33.2607337
0
LINE
8
0
10
123.0218093
20
-23.4555785
11
120.3189573
21
-36.1714973
0
ARC
8
0
10
109.8168167
20
-20.6487707
40
0.5
50
78
51
168
0
ARC
8
0
10
122.5327355
20
-23.3516227
40
0.5
50
348
51
78
0
ARC
8
0
10
107.1139647
20
-33.3646895
40
0.5
50
168
51
258
0
ARC
8
0
10
119.8298835
20
-36.0675415
40
0.5
50
258
51
348
0
LINE
8
0
10
32.4153871
20
-18.2921099
11
45.1313059
21
-20.9949619
0
LINE
8
0
10
29.5046235
20
-31.9861763
11
42.2205423
21
-34.6890283
0
LINE
8
0
10
31.8223575
20
-18.6772279
11
29.1195055
21
-31.3931467
0
LINE
8
0
10
45.5164239
20
-21.5879915
11
42.8135719
21
-34.3039103
0
ARC
8
0
10
32.3114313
20
-18.7811837
40
0.5
50
78
51
168
0
ARC
8
0
10
45.0273501
20
-21.4840357
40
0.5
50
348
51
78
0
ARC
8
0
10
29.6085793
20
-31.4971025
40
0.5
50
168
51
258
0
ARC
8
0
10
42.3244981
20
-34.1999545
40
0.5
50
258
51
348
0
LINE
8
0
10
69.6828107
20
-26.2135453
11
82.3987295
21
-28.9163973
0
LINE
8
0
10
66.7720471
20
-39.9076117
11
79.4879659
21
-42.6104637
0
LINE
8
0
10
69.0897811
20
-26.5986633
11
66.3869291
21
-39.3145821
0
LINE
8
0
10
82.7838475
20
-29.5094269
11
80.0809955
21
-42.2253457
0
ARC
8
0
10
69.5788549
20
-26.7026191
40
0.5
50
78
51
168
0
ARC
8
0
10
82.2947737
20
-29.4054711
40
0.5
50
348
51
78
0
ARC
8
0
10
66.8760029
20
-39.4185379
40
0.5
50
168
51
258
0
ARC
8
0
10
79.5919217
20
-42.1213899
40
0.5
50
258
51
348
0
LINE
8
0
10
50.0589194
20
-26.9112556
11
62.7748382
21
-29.6141076
0
LINE
8
0
10
47.1481558
20
-40.605322
11
59.8640746
21
-43.308174
0
LINE
8
0
10
49.4658898
20
-27.2963736
11
46.7630378
21
-40.0122924
0
LINE
8
0
10
63.1599562
20
-30.2071372
11
60.4571042
21
-42.923056
0
ARC
8
0
10
49.9549636
20
-27.4003294
40
0.5
50
78
51
168
0
ARC
8
0
10
62.6708824
20
-30.1031814
40
0.5
50
348
51
78
0
ARC
8
0
10
47.2521116
20
-40.1162482
40
0.5
50
168
51
258
0
ARC
8
0
10
59.9680304
20
-42.8191002
40
0.5
50
258
51
348
0
LINE
8
0
10
87.326343
20
-34.832691
11
100.0422618
21
-37.535543
0
LINE
8
0
10
84.4155794
20
-48.5267574
11
97.1314982
21
-51.2296094
0
LINE
8
0
10
86.7333134
20
-35.217809
11
84.0304614
21
-47.9337278
0
LINE
8
0
10
100.4273798
20
-38.1285726
11
97.7245278
21
-50.8444914
0
ARC
8
0
10
87.2223872
20
-35.3217648
40
0.5
50
78
51
168
0
ARC
8
0
10
99.938306
20
-38.0246168
40
0.5
50
348
51
78
0
ARC
8
0
10
84.5195352
20
-48.0376836
40
0.5
50
168
51
258
0
ARC
8
0
10
97.235454
20
-50.7405356
40
0.5
50
258
51
348
0
LINE
8
0
10
105.9600548
20
-38.7934087
11
118.6759736
21
-41.4962607
0
LINE
8
0
10
103.0492912
20
-52.4874751
11
115.76521
21
-55.1903271
0
LINE
8
0
10
105.3670252
20
-39.1785267
11
102.6641732
21
-51.8944455
0
LINE
8
0
10
119.0610916
20
-42.0892903
11
116.3582396
21
-54.8052091
0
ARC
8
0
10
105.856099
20
-39.2824825
40
0.5
50
78
51
168
0
ARC
8
0
10
118.5720178
20
-41.9853345
40
0.5
50
348
51
78
0
ARC
8
0
10
103.153247
20
-51.9984013
40
0.5
50
168
51
258
0
ARC
8
0
10
115.8691658
20
-54.7012533
40
0.5
50
258
51
348
0
LINE
8
0
10
28.4546694
20
-36.9258217
11
41.1705882
21
-39.6286737
0
LINE
8
0
10
25.5439058
20
-50.6198881
11
38.2598246
21
-53.3227401
0
LINE
8
0
10
27.8616398
20
-37.3109397
11
25.1587878
21
-50.0268585
0
LINE
8
0
10
41.5557062
20
-40.2217033
11
38.8528542
21
-52.9376221
0
ARC
8
0
10
28.3507136
20
-37.4148955
40
0.5
50
78
51
168
0
ARC
8
0
10
41.0666324
20
-40.1177475
40
0.5
50
348
51
78
0
ARC
8
0
10
25.6478616
20
-50.1308143
40
0.5
50
168
51
258
0
ARC
8
0
10
38.3637804
20
-52.8336663
40
0.5
50
258
51
348
0
LINE
8
0
10
65.722093
20
-44.8472571
11
78.4380118
21
-47.5501091
0
LINE
8
0
10
62.8113294
20
-58.5413235
11
75.5272482
21
-61.2441755
0
LINE
8
0
10
65.1290634
20
-45.2323751
11
62.4262114
21
-57.9482939
0
LINE
8
0
10
78.8231298
20
-48.1431387
11
76.1202778
21
-60.8590575
0
ARC
8
0
10
65.6181372
20
-45.3363309
40
0.5
50
78
51
168
0
ARC
8
0
10
78.334056
20
-48.0391829
40
0.5
50
348
51
78
0
ARC
8
0
10
62.9152852
20
-58.0522497
40
0.5
50
168
51
258
0
ARC
8
0
10
75.631204
20
-60.7551017
40
0.5
50
258
51
348
0
LINE
8
0
10
46.0982017
20
-45.5449673
11
58.8141205
21
-48.2478193
0
LINE
8
0
10
43.1874381
20
-59.2390337
11
55.9033569
21
-61.9418857
0
LINE
8
0
10
45.5051721
20
-45.9300853
11
42.8023201
21
-58.6460041
0
LINE
8
0
10
59.1992385
20
-48.8408489
11
56.4963865
21
-61.5567677
0
ARC
8
0
10
45.9942459
20
-46.0340411
40
0.5
50
78
51
168
0
ARC
8
0
10
58.7101647
20
-48.7368931
40
0.5
50
348
51
78
0
ARC
8
0
10
43.2913939
20
-58.7499599
40
0.5
50
168
51
258
0
ARC
8
0
10
56.0073127
20
-61.4528119
40
0.5
50
258
51
348
0
LINE
8
0
10
83.3656253
20
-53.4664028
11
96.0815441
21
-56.1692548
0
LINE
8
0
10
80.4548617
20
-67.1604692
11
93.1707805
21
-69.8633212
0
LINE
8
0
10
82.7725957
20
-53.8515208
11
80.0697437
21
-66.5674396
0
LINE
8
0
10
96.4666621
20
-56.7622844
11
93.7638101
21
-69.4782032
0
ARC
8
0
10
83.2616695
20
-53.9554766
40
0.5
50
78
51
168
0
ARC
8
0
10
95.9775883
20
-56.6583286
40
0.5
50
348
51
78
0
ARC
8
0
10
80.5588175
20
-66.6713954
40
0.5
50
168
51
258
0
ARC
8
0
10
93.2747363
20
-69.3742474
40
0.5
50
258
51
348
0
LINE
8
0
10
101.9993371
20
-57.4271205
11
114.7152559
21
-60.1299725
0
LINE
8
0
10
99.0885735
20
-71.1211869
11
111.8044923
21
-73.8240389
0
LINE
8
0
10
101.4063075
20
-57.8122385
11
98.7034555
21
-70.5281573
0
LINE
8
0
10
115.1003739
20
-60.7230021
11
112.3975219
21
-73.4389209
0
ARC
8
0
10
101.8953813
20
-57.9161943
40
0.5
50
78
51
168
0
ARC
8
0
10
114.6113001
20
-60.6190463
40
0.5
50
348
51
78
0
ARC
8
0
10
99.1925293
20
-70.6321131
40
0.5
50
168
51
258
0
ARC
8
0
10
111.9084481
20
-73.3349651
40
0.5
50
258
51
348
0
LINE
8
0
10
24.4939517
20
-55.5595335
11
37.2098705
21
-58.2623855
0
LINE
8
0
10
21.5831881
20
-69.2535999
11
34.2991069
21
-71.9564519
0
LINE
8
0
10
23.9009221
20
-55.9446515
11
21.1980701
21
-68.6605703
0
LINE
8
0
10
37.5949885
20
-58.8554151
11
34.8921365
21
-71.5713339
0
ARC
8
0
10
24.3899959
20
-56.0486073
40
0.5
50
78
51
168
0
ARC
8
0
10
37.1059147
20
-58.7514593
40
0.5
50
348
51
78
0
ARC
8
0
10
21.6871439
20
-68.7645261
40
0.5
50
168
51
258
0
ARC
8
0
10
34.4030627
20
-71.4673781
40
0.5
50
258
51
348
0
LINE
8
0
10
61.7613752
20
-63.4809689
11
74.477294
21
-66.1838209
0
LINE
8
0
10
58.8506116
20
-77.1750353
11
71.5665304
21
-79.8778873
0
LINE
8
0
10
61.1683456
20
-63.8660869
11
58.4654936
21
-76.5820057
0
LINE
8
0
10
74.862412
20
-66.7768505
11
72.15956
21
-79.4927693
0
ARC
8
0
10
61.6574194
20
-63.9700427
40
0.5
50
78
51
168
0
ARC
8
0
10
74.3733382
20
-66.6728947
40
0.5
50
348
51
78
0
ARC
8
0
10
58.9545674
20
-76.6859615
40
0.5
50
168
51
258
0
ARC
8
0
10
71.6704862
20
-79.3888135
40
0.5
50
258
51
348
0
LINE
8
0
10
42.137484
20
-64.1786791
11
54.8534028
21
-66.8815311
0
LINE
8
0
10
39.2267204
20
-77.8727455
11
51.9426392
21
-80.5755975
0
LINE
8
0
10
41.5444544
20
-64.5637971
11
38.8416024
21
-77.2797159
0
LINE
8
0
10
55.2385208
20
-67.4745607
11
52.5356688
21
-80.1904795
0
ARC
8
0
10
42.0335282
20
-64.6677529
40
0.5
50
78
51
168
0
ARC
8
0
10
54.749447
20
-67.3706049
40
0.5
50
348
51
78
0
ARC
8
0
10
39.3306762
20
-77.3836717
40
0.5
50
168
51
258
0
ARC
8
0
10
52.046595
20
-80.0865237
40
0.5
50
258
51
348
0
LINE
8
0
10
99.0379167
20
-83.6877163
11
110.2962469
21
-90.1877163
0
LINE
8
0
10
92.0379167
20
-95.8120719
11
103.2962469
21
-102.3120719
0
LINE
8
0
10
98.354904
20
-83.870729
11
91.854904
21
-95.1290592
0
LINE
8
0
10
110.4792596
20
-90.870729
11
103.9792596
21
-102.1290592
0
ARC
8
0
10
98.7879167
20
-84.120729
40
0.5
50
60
51
150
0
ARC
8
0
10
110.0462469
20
-90.620729
40
0.5
50
330
51
60
0
ARC
8
0
10
92.2879167
20
-95.3790592
40
0.5
50
150
51
240
0
ARC
8
0
10
103.5462469
20
-101.8790592
40
0.5
50
240
51
330
0
LINE
8
0
10
115.5357006
20
-93.2127163
11
126.7940308
21
-99.7127163
0
LINE
8
0
10
108.5357006
20
-105.3370719
11
119.7940308
21
-111.8370719
0
LINE
8
0
10
114.8526879
20
-93.395729
11
108.3526879
21
-104.6540592
0
LINE
8
0
10
126.9770435
20
-100.395729
11
120.4770435
21
-111.6540592
0
ARC
8
0
10
115.2857006
20
-93.645729
40
0.5
50
60
51
150
0
ARC
8
0
10
126.5440308
20
-100.145729
40
0.5
50
330
51
60
0
ARC
8
0
10
108.7857006
20
-104.9040592
40
0.5
50
150
51
240
0
ARC
8
0
10
120.0440308
20
-111.4040592
40
0.5
50
240
51
330
0
LINE
8
0
10
82.4448827
20
-74.3276941
11
93.7032129
21
-80.8276941
0
LINE
8
0
10
75.4448827
20
-86.4520497
11
86.7032129
21
-92.9520497
0
LINE
8
0
10
81.76187
20
-74.5107068
11
75.26187
21
-85.769037
0
LINE
8
0
10
93.8862256
20
-81.5107068
11
87.3862256
21
-92.769037
0
ARC
8
0
10
82.1948827
20
-74.7607068
40
0.5
50
60
51
150
0
ARC
8
0
10
93.4532129
20
-81.2607068
40
0.5
50
330
51
60
0
ARC
8
0
10
75.6948827
20
-86.019037
40
0.5
50
150
51
240
0
ARC
8
0
10
86.9532129
20
-92.519037
40
0.5
50
240
51
330
0
LINE
8
0
10
19.8715293
20
-112.0498941
11
127.1898657
21
-112.0498941
0
LINE
8
0
10
19.8715293
20
-6.2532927
11
127.1898657
21
-6.2532927
0
LINE
8
0
10
19.8715293
20
-112.0498941
11
19.8715293
21
-6.2532927
0
LINE
8
0
10
127.1898657
20
-112.0498941
11
127.1898657
21
-6.2532927
0
ENDSEC
0
EOF