0
SECTION
2
HEADER
9
$INSUNITS
70
4
0
ENDSEC
0
SECTION
2
TABLES
0
TABLE
2
LTYPE
0
LTYPE
72
65
70
64
2
CONTINUOUS
3
______
73
0
40
0
0
ENDTAB
0
TABLE
2
LAYER
0
ENDTAB
0
ENDSEC
0
SECTION
2
ENTITIES
0
LINE
8
0
10
47.450918
20
-2.0605692
11
60.1668368
21
-4.7634212
0
LINE
8
0
10
44.5401544
20
-15.7546356
11
57.2560732
21
-18.4574876
0
LINE
8
0
10
46.8578884
20
-2.4456872
11
44.1550364
21
-15.161606
0
LINE
8
0
10
60.5519548
20
-5.3564508
11
57.8491028
21
-18.0723696
0
ARC
8
0
10
47.3469622
20
-2.549643
40
0.5
50
78
51
168
0
ARC
8
0
10
60.062881
20
-5.252495
40
0.5
50
348
51
78
0
ARC
8
0
10
44.6441102
20
-15.2655618
40
0.5
50
168
51
258
0
ARC
8
0
10
57.360029
20
-17.9684138
40
0.5
50
258
51
348
0
LINE
8
0
10
65.1064822
20
-5.8133752
11
77.822401
21
-8.5162272
0
LINE
8
0
10
62.1957186
20
-19.5074416
11
74.9116374
21
-22.2102936
0
LINE
8
0
10
64.5134526
20
-6.1984932
11
61.8106006
21
-18.914412
0
LINE
8
0
10
78.207519
20
-9.1092568
11
75.504667
21
-21.8251756
0
ARC
8
0
10
65.0025264
20
-6.302449
40
0.5
50
78
51
168
0
ARC
8
0
10
77.7184452
20
-9.005301
40
0.5
50
348
51
78
0
ARC
8
0
10
62.2996744
20
-19.0183678
40
0.5
50
168
51
258
0
ARC
8
0
10
75.0155932
20
-21.7212198
40
0.5
50
258
51
348
0
LINE
8
0
10
82.7620463
20
-9.5661812
11
95.4779651
21
-12.2690332
0
LINE
8
0
10
79.8512827
20
-23.2602476
11
92.5672015
21
-25.9630996
0
LINE
8
0
10
82.1690167
20
-9.9512992
11
79.4661647
21
-22.667218
0
LINE
8
0
10
95.8630831
20
-12.8620628
11
93.1602311
21
-25.5779816
0
ARC
8
0
10
82.6580905
20
-10.055255
40
0.5
50
78
51
168
0
ARC
8
0
10
95.3740093
20
-12.758107
40
0.5
50
348
51
78
0
ARC
8
0
10
79.9552385
20
-22.7711738
40
0.5
50
168
51
258
0
ARC
8
0
10
92.6711573
20
-25.4740258
40
0.5
50
258
51
348
0
LINE
8
0
10
100.4176105
20
-13.3189872
11
113.1335293
21
-16.0218392
0
LINE
8
0
10
97.5068469
20
-27.0130536
11
110.2227657
21
-29.7159056
0
LINE
8
0
10
99.8245809
20
-13.7041052
11
97.1217289
21
-26.420024
0
LINE
8
0
10
113.5186473
20
-16.6148688
11
110.8157953
21
-29.3307876
0
ARC
8
0
10
100.3136547
20
-13.808061
40
0.5
50
78
51
168
0
ARC
8
0
10
113.0295735
20
-16.510913
40
0.5
50
348
51
78
0
ARC
8
0
10
97.6108027
20
-26.5239798
40
0.5
50
168
51
258
0
ARC
8
0
10
110.3267215
20
-29.2268318
40
0.5
50
258
51
348
0
LINE
8
0
10
26.9807493
20
-11.5494363
11
39.6966681
21
-14.2522883
0
LINE
8
0
10
24.0699857
20
-25.2435027
11
36.7859045
21
-27.9463547
0
LINE
8
0
10
26.3877197
20
-11.9345543
11
23.6848677
21
-24.6504731
0
LINE
8
0
10
40.0817861
20
-14.8453179
11
37.3789341
21
-27.5612367
0
ARC
8
0
10
26.8767935
20
-12.0385101
40
0.5
50
78
51
168
0
ARC
8
0
10
39.5927123
20
-14.7413621
40
0.5
50
348
51
78
0
ARC
8
0
10
24.1739415
20
-24.7544289
40
0.5
50
168
51
258
0
ARC
8
0
10
36.8898603
20
-27.4572809
40
0.5
50
258
51
348
0
LINE
8
0
10
43.6981119
20
-19.7161334
11
56.4140307
21
-22.4189854
0
LINE
8
0
10
40.7873483
20
-33.4101998
11
53.5032671
21
-36.1130518
0
LINE
8
0
10
43.1050823
20
-20.1012514
11
40.4022303
21
-32.8171702
0
LINE
8
0
10
56.7991487
20
-23.012015
11
54.0962967
21
-35.7279338
0
ARC
8
0
10
43.5941561
20
-20.2052072
40
0.5
50
78
51
168
0
ARC
8
0
10
56.3100749
20
-22.9080592
40
0.5
50
348
51
78
0
ARC
8
0
10
40.8913041
20
-32.921126
40
0.5
50
168
51
258
0
ARC
8
0
10
53.6072229
20
-35.623978
40
0.5
50
258
51
348
0
LINE
8
0
10
61.3536761
20
-23.4689394
11
74.0695949
21
-26.1717914
0
LINE
8
0
10
58.4429125
20
-37.1630058
11
71.1588313
21
-39.8658578
0
LINE
8
0
10
60.7606465
20
-23.8540574
11
58.0577945
21
-36.5699762
0
LINE
8
0
10
74.4547129
20
-26.764821
11
71.7518609
21
-39.4807398
0
ARC
8
0
10
61.2497203
20
-23.9580132
40
0.5
50
78
51
168
0
ARC
8
0
10
73.9656391
20
-26.6608652
40
0.5
50
348
51
78
0
ARC
8
0
10
58.5468683
20
-36.673932
40
0.5
50
168
51
258
0
ARC
8
0
10
71.2627871
20
-39.376784
40
0.5
50
258
51
348
0
LINE
8
0
10
79.0092403
20
-27.2217454
11
91.7251591
21
-29.9245974
0
LINE
8
0
10
76.0984767
20
-40.9158118
11
88.8143955
21
-43.6186638
0
LINE
8
0
10
78.4162107
20
-27.6068634
11
75.7133587
21
-40.3227822
0
LINE
8
0
10
92.1102771
20
-30.517627
11
89.4074251
21
-43.2335458
0
ARC
8
0
10
78.9052845
20
-27.7108192
40
0.5
50
78
51
168
0
ARC
8
0
10
91.6212033
20
-30.4136712
40
0.5
50
348
51
78
0
ARC
8
0
10
76.2024325
20
-40.426738
40
0.5
50
168
51
258
0
ARC
8
0
10
88.9183513
20
-43.12959
40
0.5
50
258
51
348
0
LINE
8
0
10
96.6648045
20
-30.9745514
11
109.3807233
21
-33.6774034
0
LINE
8
0
10
93.7540409
20
-44.6686178
11
106.4699597
21
-47.3714698
0
LINE
8
0
10
96.0717749
20
-31.3596694
11
93.3689229
21
-44.0755882
0
LINE
8
0
10
109.7658413
20
-34.270433
11
107.0629893
21
-46.9863518
0
ARC
8
0
10
96.5608487
20
-31.4636252
40
0.5
50
78
51
168
0
ARC
8
0
10
109.2767675
20
-34.1664772
40
0.5
50
348
51
78
0
ARC
8
0
10
93.8579967
20
-44.179544
40
0.5
50
168
51
258
0
ARC
8
0
10
106.5739155
20
-46.882396
40
0.5
50
258
51
348
0
LINE
8
0
10
35.8598793
20
-34.7078276
11
33.1570273
21
-47.4237464
0
LINE
8
0
10
22.1658129
20
-31.797064
11
19.4629609
21
-44.5129828
0
LINE
8
0
10
35.4747613
20
-34.114798
11
22.7588425
21
-31.411946
0
LINE
8
0
10
32.5639977
20
-47.8088644
11
19.8480789
21
-45.1060124
0
ARC
8
0
10
35.3708055
20
-34.6038718
40
0.5
50
348
51
78
0
ARC
8
0
10
32.6679535
20
-47.3197906
40
0.5
50
258
51
348
0
ARC
8
0
10
22.6548867
20
-31.9010198
40
0.5
50
78
51
168
0
ARC
8
0
10
19.9520347
20
-44.6169386
40
0.5
50
168
51
258
0
LINE
8
0
10
39.9453059
20
-37.3716975
11
52.6612247
21
-40.0745495
0
LINE
8
0
10
37.0345423
20
-51.0657639
11
49.7504611
21
-53.7686159
0
LINE
8
0
10
39.3522763
20
-37.7568155
11
36.6494243
21
-50.4727343
0
LINE
8
0
10
53.0463427
20
-40.6675791
11
50.3434907
21
-53.3834979
0
ARC
8
0
10
39.8413501
20
-37.8607713
40
0.5
50
78
51
168
0
ARC
8
0
10
52.5572689
20
-40.5636233
40
0.5
50
348
51
78
0
ARC
8
0
10
37.1384981
20
-50.5766901
40
0.5
50
168
51
258
0
ARC
8
0
10
49.8544169
20
-53.2795421
40
0.5
50
258
51
348
0
LINE
8
0
10
57.6008701
20
-41.1245036
11
70.3167889
21
-43.8273556
0
LINE
8
0
10
54.6901065
20
-54.81857
11
67.4060253
21
-57.521422
0
LINE
8
0
10
57.0078405
20
-41.5096216
11
54.3049885
21
-54.2255404
0
LINE
8
0
10
70.7019069
20
-44.4203852
11
67.9990549
21
-57.136304
0
ARC
8
0
10
57.4969143
20
-41.6135774
40
0.5
50
78
51
168
0
ARC
8
0
10
70.2128331
20
-44.3164294
40
0.5
50
348
51
78
0
ARC
8
0
10
54.7940623
20
-54.3294962
40
0.5
50
168
51
258
0
ARC
8
0
10
67.5099811
20
-57.0323482
40
0.5
50
258
51
348
0
LINE
8
0
10
75.2564343
20
-44.8773096
11
87.9723531
21
-47.5801616
0
LINE
8
0
10
72.3456707
20
-58.571376
11
85.0615895
21
-61.274228
0
LINE
8
0
10
74.6634047
20
-45.2624276
11
71.9605527
21
-57.9783464
0
LINE
8
0
10
88.3574711
20
-48.1731912
11
85.6546191
21
-60.88911
0
ARC
8
0
10
75.1524785
20
-45.3663834
40
0.5
50
78
51
168
0
ARC
8
0
10
87.8683973
20
-48.0692354
40
0.5
50
348
51
78
0
ARC
8
0
10
72.4496265
20
-58.0823022
40
0.5
50
168
51
258
0
ARC
8
0
10
85.1655453
20
-60.7851542
40
0.5
50
258
51
348
0
LINE
8
0
10
92.9119985
20
-48.6301156
11
105.6279173
21
-51.3329676
0
LINE
8
0
10
90.0012349
20
-62.324182
11
102.7171537
21
-65.027034
0
LINE
8
0
10
92.3189689
20
-49.0152336
11
89.6161169
21
-61.7311524
0
LINE
8
0
10
106.0130353
20
-51.9259972
11
103.3101833
21
-64.641916
0
ARC
8
0
10
92.8080427
20
-49.1191894
40
0.5
50
78
51
168
0
ARC
8
0
10
105.5239615
20
-51.8220414
40
0.5
50
348
51
78
0
ARC
8
0
10
90.1051907
20
-61.8351082
40
0.5
50
168
51
258
0
ARC
8
0
10
102.8211095
20
-64.5379602
40
0.5
50
258
51
348
0
LINE
8
0
10
120.3848942
20
-71.1274219
11
117.6820422
21
-83.8433407
0
LINE
8
0
10
106.6908278
20
-68.2166583
11
103.9879758
21
-80.9325771
0
LINE
8
0
10
119.9997762
20
-70.5343923
11
107.2838574
21
-67.8315403
0
LINE
8
0
10
117.0890126
20
-84.2284587
11
104.3730938
21
-81.5256067
0
ARC
8
0
10
119.8958204
20
-71.0234661
40
0.5
50
348
51
78
0
ARC
8
0
10
117.1929684
20
-83.7393849
40
0.5
50
258
51
348
0
ARC
8
0
10
107.1799016
20
-68.3206141
40
0.5
50
78
51
168
0
ARC
8
0
10
104.4770496
20
-81.0365329
40
0.5
50
168
51
258
0
LINE
8
0
10
18.5369357
20
-51.2744557
11
31.2528545
21
-53.9773077
0
LINE
8
0
10
15.6261721
20
-64.9685221
11
28.3420909
21
-67.6713741
0
LINE
8
0
10
17.9439061
20
-51.6595737
11
15.2410541
21
-64.3754925
0
LINE
8
0
10
31.6379725
20
-54.5703373
11
28.9351205
21
-67.2862561
0
ARC
8
0
10
18.4329799
20
-51.7635295
40
0.5
50
78
51
168
0
ARC
8
0
10
31.1488987
20
-54.4663815
40
0.5
50
348
51
78
0
ARC
8
0
10
15.7301279
20
-64.4794483
40
0.5
50
168
51
258
0
ARC
8
0
10
28.4460467
20
-67.1823003
40
0.5
50
258
51
348
0
LINE
8
0
10
36.1924999
20
-55.0272617
11
48.9084187
21
-57.7301137
0
LINE
8
0
10
33.2817363
20
-68.7213281
11
45.9976551
21
-71.4241801
0
LINE
8
0
10
35.5994703
20
-55.4123797
11
32.8966183
21
-68.1282985
0
LINE
8
0
10
49.2935367
20
-58.3231433
11
46.5906847
21
-71.0390621
0
ARC
8
0
10
36.0885441
20
-55.5163355
40
0.5
50
78
51
168
0
ARC
8
0
10
48.8044629
20
-58.2191875
40
0.5
50
348
51
78
0
ARC
8
0
10
33.3856921
20
-68.2322543
40
0.5
50
168
51
258
0
ARC
8
0
10
46.1016109
20
-70.9351063
40
0.5
50
258
51
348
0
LINE
8
0
10
53.8480641
20
-58.7800678
11
66.5639829
21
-61.4829198
0
LINE
8
0
10
50.9373005
20
-72.4741342
11
63.6532193
21
-75.1769862
0
LINE
8
0
10
53.2550345
20
-59.1651858
11
50.5521825
21
-71.8811046
0
LINE
8
0
10
66.9491009
20
-62.0759494
11
64.2462489
21
-74.7918682
0
ARC
8
0
10
53.7441083
20
-59.2691416
40
0.5
50
78
51
168
0
ARC
8
0
10
66.4600271
20
-61.9719936
40
0.5
50
348
51
78
0
ARC
8
0
10
51.0412563
20
-71.9850604
40
0.5
50
168
51
258
0
ARC
8
0
10
63.7571751
20
-74.6879124
40
0.5
50
258
51
348
0
LINE
8
0
10
71.5036283
20
-62.5328738
11
84.2195471
21
-65.2357258
0
LINE
8
0
10
68.5928647
20
-76.2269402
11
81.3087835
21
-78.9297922
0
LINE
8
0
10
70.9105987
20
-62.9179918
11
68.2077467
21
-75.6339106
0
LINE
8
0
10
84.6046651
20
-65.8287554
11
81.9018131
21
-78.5446742
0
ARC
8
0
10
71.3996725
20
-63.0219476
40
0.5
50
78
51
168
0
ARC
8
0
10
84.1155913
20
-65.7247996
40
0.5
50
348
51
78
0
ARC
8
0
10
68.6968205
20
-75.7378664
40
0.5
50
168
51
258
0
ARC
8
0
10
81.4127393
20
-78.4407184
40
0.5
50
258
51
348
0
LINE
8
0
10
89.1591925
20
-66.2856798
11
101.8751113
21
-68.9885318
0
LINE
8
0
10
86.2484289
20
-79.9797462
11
98.9643477
21
-82.6825982
0
LINE
8
0
10
88.5661629
20
-66.6707978
11
85.8633109
21
-79.3867166
0
LINE
8
0
10
102.2602293
20
-69.5815614
11
99.5573773
21
-82.2974802
0
ARC
8
0
10
89.0552367
20
-66.7747536
40
0.5
50
78
51
168
0
ARC
8
0
10
101.7711555
20
-69.4776056
40
0.5
50
348
51
78
0
ARC
8
0
10
86.3523847
20
-79.4906724
40
0.5
50
168
51
258
0
ARC
8
0
10
99.0683035
20
-82.1935244
40
0.5
50
258
51
348
0
LINE
8
0
10
135.0539707
20
-16.0218392
11
147.7698895
21
-13.3189872
0
LINE
8
0
10
137.9647343
20
-29.7159056
11
150.6806531
21
-27.0130536
0
LINE
8
0
10
134.6688527
20
-16.6148688
11
137.3717047
21
-29.3307876
0
LINE
8
0
10
148.3629191
20
-13.7041052
11
151.0657711
21
-26.420024
0
ARC
8
0
10
135.1579265
20
-16.510913
40
0.5
50
102
51
192
0
ARC
8
0
10
147.8738453
20
-13.808061
40
0.5
50
12
51
102
0
ARC
8
0
10
137.8607785
20
-29.2268318
40
0.5
50
192
51
282
0
ARC
8
0
10
150.5766973
20
-26.5239798
40
0.5
50
282
51
12
0
LINE
8
0
10
152.7095349
20
-12.2690332
11
165.4254537
21
-9.5661812
0
LINE
8
0
10
155.6202985
20
-25.9630996
11
168.3362173
21
-23.2602476
0
LINE
8
0
10
152.3244169
20
-12.8620628
11
155.0272689
21
-25.5779816
0
LINE
8
0
10
166.0184833
20
-9.9512992
11
168.7213353
21
-22.667218
0
ARC
8
0
10
152.8134907
20
-12.758107
40
0.5
50
102
51
192
0
ARC
8
0
10
165.5294095
20
-10.055255
40
0.5
50
12
51
102
0
ARC
8
0
10
155.5163427
20
-25.4740258
40
0.5
50
192
51
282
0
ARC
8
0
10
168.2322615
20
-22.7711738
40
0.5
50
282
51
12
0
LINE
8
0
10
170.365099
20
-8.5162272
11
183.0810178
21
-5.8133752
0
LINE
8
0
10
173.2758626
20
-22.2102936
11
185.9917814
21
-19.5074416
0
LINE
8
0
10
169.979981
20
-9.1092568
11
172.682833
21
-21.8251756
0
LINE
8
0
10
183.6740474
20
-6.1984932
11
186.3768994
21
-18.914412
0
ARC
8
0
10
170.4690548
20
-9.005301
40
0.5
50
102
51
192
0
ARC
8
0
10
183.1849736
20
-6.302449
40
0.5
50
12
51
102
0
ARC
8
0
10
173.1719068
20
-21.7212198
40
0.5
50
192
51
282
0
ARC
8
0
10
185.8878256
20
-19.0183678
40
0.5
50
282
51
12
0
LINE
8
0
10
188.0206632
20
-4.7634212
11
200.736582
21
-2.0605692
0
LINE
8
0
10
190.9314268
20
-18.4574876
11
203.6473456
21
-15.7546356
0
LINE
8
0
10
187.6355452
20
-5.3564508
11
190.3383972
21
-18.0723696
0
LINE
8
0
10
201.3296116
20
-2.4456872
11
204.0324636
21
-15.161606
0
ARC
8
0
10
188.124619
20
-5.252495
40
0.5
50
102
51
192
0
ARC
8
0
10
200.8405378
20
-2.549643
40
0.5
50
12
51
102
0
ARC
8
0
10
190.827471
20
-17.9684138
40
0.5
50
192
51
282
0
ARC
8
0
10
203.5433898
20
-15.2655618
40
0.5
50
282
51
12
0
LINE
8
0
10
208.4908319
20
-14.2522883
11
221.2067507
21
-11.5494363
0
LINE
8
0
10
211.4015955
20
-27.9463547
11
224.1175143
21
-25.2435027
0
LINE
8
0
10
208.1057139
20
-14.8453179
11
210.8085659
21
-27.5612367
0
LINE
8
0
10
221.7997803
20
-11.9345543
11
224.5026323
21
-24.6504731
0
ARC
8
0
10
208.5947877
20
-14.7413621
40
0.5
50
102
51
192
0
ARC
8
0
10
221.3107065
20
-12.0385101
40
0.5
50
12
51
102
0
ARC
8
0
10
211.2976397
20
-27.4572809
40
0.5
50
192
51
282
0
ARC
8
0
10
224.0135585
20
-24.7544289
40
0.5
50
282
51
12
0
LINE
8
0
10
138.8067767
20
-33.6774034
11
151.5226955
21
-30.9745514
0
LINE
8
0
10
141.7175403
20
-47.3714698
11
154.4334591
21
-44.6686178
0
LINE
8
0
10
138.4216587
20
-34.270433
11
141.1245107
21
-46.9863518
0
LINE
8
0
10
152.1157251
20
-31.3596694
11
154.8185771
21
-44.0755882
0
ARC
8
0
10
138.9107325
20
-34.1664772
40
0.5
50
102
51
192
0
ARC
8
0
10
151.6266513
20
-31.4636252
40
0.5
50
12
51
102
0
ARC
8
0
10
141.6135845
20
-46.882396
40
0.5
50
192
51
282
0
ARC
8
0
10
154.3295033
20
-44.179544
40
0.5
50
282
51
12
0
LINE
8
0
10
156.4623409
20
-29.9245974
11
169.1782597
21
-27.2217454
0
LINE
8
0
10
159.3731045
20
-43.6186638
11
172.0890233
21
-40.9158118
0
LINE
8
0
10
156.0772229
20
-30.517627
11
158.7800749
21
-43.2335458
0
LINE
8
0
10
169.7712893
20
-27.6068634
11
172.4741413
21
-40.3227822
0
ARC
8
0
10
156.5662967
20
-30.4136712
40
0.5
50
102
51
192
0
ARC
8
0
10
169.2822155
20
-27.7108192
40
0.5
50
12
51
102
0
ARC
8
0
10
159.2691487
20
-43.12959
40
0.5
50
192
51
282
0
ARC
8
0
10
171.9850675
20
-40.426738
40
0.5
50
282
51
12
0
LINE
8
0
10
174.1179051
20
-26.1717914
11
186.8338239
21
-23.4689394
0
LINE
8
0
10
177.0286687
20
-39.8658578
11
189.7445875
21
-37.1630058
0
LINE
8
0
10
173.7327871
20
-26.764821
11
176.4356391
21
-39.4807398
0
LINE
8
0
10
187.4268535
20
-23.8540574
11
190.1297055
21
-36.5699762
0
ARC
8
0
10
174.2218609
20
-26.6608652
40
0.5
50
102
51
192
0
ARC
8
0
10
186.9377797
20
-23.9580132
40
0.5
50
12
51
102
0
ARC
8
0
10
176.9247129
20
-39.376784
40
0.5
50
192
51
282
0
ARC
8
0
10
189.6406317
20
-36.673932
40
0.5
50
282
51
12
0
LINE
8
0
10
191.7734693
20
-22.4189854
11
204.4893881
21
-19.7161334
0
LINE
8
0
10
194.6842329
20
-36.1130518
11
207.4001517
21
-33.4101998
0
LINE
8
0
10
191.3883513
20
-23.012015
11
194.0912033
21
-35.7279338
0
LINE
8
0
10
205.0824177
20
-20.1012514
11
207.7852697
21
-32.8171702
0
ARC
8
0
10
191.8774251
20
-22.9080592
40
0.5
50
102
51
192
0
ARC
8
0
10
204.5933439
20
-20.2052072
40
0.5
50
12
51
102
0
ARC
8
0
10
194.5802771
20
-35.623978
40
0.5
50
192
51
282
0
ARC
8
0
10
207.2961959
20
-32.921126
40
0.5
50
282
51
12
0
LINE
8
0
10
226.0216871
20
-31.797064
11
228.7245391
21
-44.5129828
0
LINE
8
0
10
212.3276207
20
-34.7078276
11
215.0304727
21
-47.4237464
0
LINE
8
0
10
225.4286575
20
-31.411946
11
212.7127387
21
-34.114798
0
LINE
8
0
10
228.3394211
20
-45.1060124
11
215.6235023
21
-47.8088644
0
ARC
8
0
10
225.5326133
20
-31.9010198
40
0.5
50
12
51
102
0
ARC
8
0
10
228.2354653
20
-44.6169386
40
0.5
50
282
51
12
0
ARC
8
0
10
212.8166945
20
-34.6038718
40
0.5
50
102
51
192
0
ARC
8
0
10
215.5195465
20
-47.3197906
40
0.5
50
192
51
282
0
LINE
8
0
10
142.5595827
20
-51.3329676
11
155.2755015
21
-48.6301156
0
LINE
8
0
10
145.4703463
20
-65.027034
11
158.1862651
21
-62.324182
0
LINE
8
0
10
142.1744647
20
-51.9259972
11
144.8773167
21
-64.641916
0
LINE
8
0
10
155.8685311
20
-49.0152336
11
158.5713831
21
-61.7311524
0
ARC
8
0
10
142.6635385
20
-51.8220414
40
0.5
50
102
51
192
0
ARC
8
0
10
155.3794573
20
-49.1191894
40
0.5
50
12
51
102
0
ARC
8
0
10
145.3663905
20
-64.5379602
40
0.5
50
192
51
282
0
ARC
8
0
10
158.0823093
20
-61.8351082
40
0.5
50
282
51
12
0
LINE
8
0
10
160.2151469
20
-47.5801616
11
172.9310657
21
-44.8773096
0
LINE
8
0
10
163.1259105
20
-61.274228
11
175.8418293
21
-58.571376
0
LINE
8
0
10
159.8300289
20
-48.1731912
11
162.5328809
21
-60.88911
0
LINE
8
0
10
173.5240953
20
-45.2624276
11
176.2269473
21
-57.9783464
0
ARC
8
0
10
160.3191027
20
-48.0692354
40
0.5
50
102
51
192
0
ARC
8
0
10
173.0350215
20
-45.3663834
40
0.5
50
12
51
102
0
ARC
8
0
10
163.0219547
20
-60.7851542
40
0.5
50
192
51
282
0
ARC
8
0
10
175.7378735
20
-58.0823022
40
0.5
50
282
51
12
0
LINE
8
0
10
177.8707111
20
-43.8273556
11
190.5866299
21
-41.1245036
0
LINE
8
0
10
180.7814747
20
-57.521422
11
193.4973935
21
-54.81857
0
LINE
8
0
10
177.4855931
20
-44.4203852
11
180.1884451
21
-57.136304
0
LINE
8
0
10
191.1796595
20
-41.5096216
11
193.8825115
21
-54.2255404
0
ARC
8
0
10
177.9746669
20
-44.3164294
40
0.5
50
102
51
192
0
ARC
8
0
10
190.6905857
20
-41.6135774
40
0.5
50
12
51
102
0
ARC
8
0
10
180.6775189
20
-57.0323482
40
0.5
50
192
51
282
0
ARC
8
0
10
193.3934377
20
-54.3294962
40
0.5
50
282
51
12
0
LINE
8
0
10
195.5262753
20
-40.0745495
11
208.2421941
21
-37.3716975
0
LINE
8
0
10
198.4370389
20
-53.7686159
11
211.1529577
21
-51.0657639
0
LINE
8
0
10
195.1411573
20
-40.6675791
11
197.8440093
21
-53.3834979
0
LINE
8
0
10
208.8352237
20
-37.7568155
11
211.5380757
21
-50.4727343
0
ARC
8
0
10
195.6302311
20
-40.5636233
40
0.5
50
102
51
192
0
ARC
8
0
10
208.3461499
20
-37.8607713
40
0.5
50
12
51
102
0
ARC
8
0
10
198.3330831
20
-53.2795421
40
0.5
50
192
51
282
0
ARC
8
0
10
211.0490019
20
-50.5766901
40
0.5
50
282
51
12
0
LINE
8
0
10
141.4966722
20
-68.2166583
11
144.1995242
21
-80.9325771
0
LINE
8
0
10
127.8026058
20
-71.1274219
11
130.5054578
21
-83.8433407
0
LINE
8
0
10
140.9036426
20
-67.8315403
11
128.1877238
21
-70.5343923
0
LINE
8
0
10
143.8144062
20
-81.5256067
11
131.0984874
21
-84.2284587
0
ARC
8
0
10
141.0075984
20
-68.3206141
40
0.5
50
12
51
102
0
ARC
8
0
10
143.7104504
20
-81.0365329
40
0.5
50
282
51
12
0
ARC
8
0
10
128.2916796
20
-71.0234661
40
0.5
50
102
51
192
0
ARC
8
0
10
130.9945316
20
-83.7393849
40
0.5
50
192
51
282
0
LINE
8
0
10
146.3123887
20
-68.9885318
11
159.0283075
21
-66.2856798
0
LINE
8
0
10
149.2231523
20
-82.6825982
11
161.9390711
21
-79.9797462
0
LINE
8
0
10
145.9272707
20
-69.5815614
11
148.6301227
21
-82.2974802
0
LINE
8
0
10
159.6213371
20
-66.6707978
11
162.3241891
21
-79.3867166
0
ARC
8
0
10
146.4163445
20
-69.4776056
40
0.5
50
102
51
192
0
ARC
8
0
10
159.1322633
20
-66.7747536
40
0.5
50
12
51
102
0
ARC
8
0
10
149.1191965
20
-82.1935244
40
0.5
50
192
51
282
0
ARC
8
0
10
161.8351153
20
-79.4906724
40
0.5
50
282
51
12
0
LINE
8
0
10
163.9679529
20
-65.2357258
11
176.6838717
21
-62.5328738
0
LINE
8
0
10
166.8787165
20
-78.9297922
11
179.5946353
21
-76.2269402
0
LINE
8
0
10
163.5828349
20
-65.8287554
11
166.2856869
21
-78.5446742
0
LINE
8
0
10
177.2769013
20
-62.9179918
11
179.9797533
21
-75.6339106
0
ARC
8
0
10
164.0719087
20
-65.7247996
40
0.5
50
102
51
192
0
ARC
8
0
10
176.7878275
20
-63.0219476
40
0.5
50
12
51
102
0
ARC
8
0
10
166.7747607
20
-78.4407184
40
0.5
50
192
51
282
0
ARC
8
0
10
179.4906795
20
-75.7378664
40
0.5
50
282
51
12
0
LINE
8
0
10
181.6235171
20
-61.4829198
11
194.3394359
21
-58.7800678
0
LINE
8
0
10
184.5342807
20
-75.1769862
11
197.2501995
21
-72.4741342
0
LINE
8
0
10
181.2383991
20
-62.0759494
11
183.9412511
21
-74.7918682
0
LINE
8
0
10
194.9324655
20
-59.1651858
11
197.6353175
21
-71.8811046
0
ARC
8
0
10
181.7274729
20
-61.9719936
40
0.5
50
102
51
192
0
ARC
8
0
10
194.4433917
20
-59.2691416
40
0.5
50
12
51
102
0
ARC
8
0
10
184.4303249
20
-74.6879124
40
0.5
50
192
51
282
0
ARC
8
0
10
197.1462437
20
-71.9850604
40
0.5
50
282
51
12
0
LINE
8
0
10
199.2790813
20
-57.7301137
11
211.9950001
21
-55.0272617
0
LINE
8
0
10
202.1898449
20
-71.4241801
11
214.9057637
21
-68.7213281
0
LINE
8
0
10
198.8939633
20
-58.3231433
11
201.5968153
21
-71.0390621
0
LINE
8
0
10
212.5880297
20
-55.4123797
11
215.2908817
21
-68.1282985
0
ARC
8
0
10
199.3830371
20
-58.2191875
40
0.5
50
102
51
192
0
ARC
8
0
10
212.0989559
20
-55.5163355
40
0.5
50
12
51
102
0
ARC
8
0
10
202.0858891
20
-70.9351063
40
0.5
50
192
51
282
0
ARC
8
0
10
214.8018079
20
-68.2322543
40
0.5
50
282
51
12
0
LINE
8
0
10
216.9346455
20
-53.9773077
11
229.6505643
21
-51.2744557
0
LINE
8
0
10
219.8454091
20
-67.6713741
11
232.5613279
21
-64.9685221
0
LINE
8
0
10
216.5495275
20
-54.5703373
11
219.2523795
21
-67.2862561
0
LINE
8
0
10
230.2435939
20
-51.6595737
11
232.9464459
21
-64.3754925
0
ARC
8
0
10
217.0386013
20
-54.4663815
40
0.5
50
102
51
192
0
ARC
8
0
10
229.7545201
20
-51.7635295
40
0.5
50
12
51
102
0
ARC
8
0
10
219.7414533
20
-67.1823003
40
0.5
50
192
51
282
0
ARC
8
0
10
232.4573721
20
-64.4794483
40
0.5
50
282
51
12
0
LINE
8
0
10
14.4145133
20
-87.3112495
11
233.7729867
21
-87.3112495
0
LINE
8
0
10
14.4145133
20
-1.2340284
11
233.7729867
21
-1.2340284
0
LINE
8
0
10
14.4145133
20
-87.3112495
11
14.4145133
21
-1.2340284
0
LINE
8
0
10
233.7729867
20
-87.3112495
11
233.7729867
21
-1.2340284
0
ENDSEC
0
EOF