0
SECTION
2
HEADER
9
$INSUNITS
70
4
0
ENDSEC
0
SECTION
2
TABLES
0
TABLE
2
LTYPE
0
LTYPE
72
65
70
64
2
CONTINUOUS
3
______
73
0
40
0
0
ENDTAB
0
TABLE
2
LAYER
0
ENDTAB
0
ENDSEC
0
SECTION
2
ENTITIES
0
LINE
8
0
10
50.3513886
20
-2.6289364
11
63.0673074
21
-5.3317884
0
LINE
8
0
10
47.440625
20
-16.3230028
11
60.1565438
21
-19.0258548
0
LINE
8
0
10
49.758359
20
-3.0140544
11
47.055507
21
-15.7299732
0
LINE
8
0
10
63.4524254
20
-5.924818
11
60.7495734
21
-18.6407368
0
ARC
8
0
10
50.2474328
20
-3.1180102
40
0.5
50
78
51
168
0
ARC
8
0
10
62.9633516
20
-5.8208622
40
0.5
50
348
51
78
0
ARC
8
0
10
47.5445808
20
-15.833929
40
0.5
50
168
51
258
0
ARC
8
0
10
60.2604996
20
-18.536781
40
0.5
50
258
51
348
0
LINE
8
0
10
68.9851004
20
-6.5896541
11
81.7010192
21
-9.2925061
0
LINE
8
0
10
66.0743368
20
-20.2837205
11
78.7902556
21
-22.9865725
0
LINE
8
0
10
68.3920708
20
-6.9747721
11
65.6892188
21
-19.6906909
0
LINE
8
0
10
82.0861372
20
-9.8855357
11
79.3832852
21
-22.6014545
0
ARC
8
0
10
68.8811446
20
-7.0787279
40
0.5
50
78
51
168
0
ARC
8
0
10
81.5970634
20
-9.7815799
40
0.5
50
348
51
78
0
ARC
8
0
10
66.1782926
20
-19.7946467
40
0.5
50
168
51
258
0
ARC
8
0
10
78.8942114
20
-22.4974987
40
0.5
50
258
51
348
0
LINE
8
0
10
87.6188122
20
-10.5503718
11
100.334731
21
-13.2532238
0
LINE
8
0
10
84.7080486
20
-24.2444382
11
97.4239674
21
-26.9472902
0
LINE
8
0
10
87.0257826
20
-10.9354898
11
84.3229306
21
-23.6514086
0
LINE
8
0
10
100.719849
20
-13.8462534
11
98.016997
21
-26.5621722
0
ARC
8
0
10
87.5148564
20
-11.0394456
40
0.5
50
78
51
168
0
ARC
8
0
10
100.2307752
20
-13.7422976
40
0.5
50
348
51
78
0
ARC
8
0
10
84.8120044
20
-23.7553644
40
0.5
50
168
51
258
0
ARC
8
0
10
97.5279232
20
-26.4582164
40
0.5
50
258
51
348
0
LINE
8
0
10
106.252524
20
-14.5110895
11
118.9684428
21
-17.2139415
0
LINE
8
0
10
103.3417604
20
-28.2051559
11
116.0576792
21
-30.9080079
0
LINE
8
0
10
105.6594944
20
-14.8962075
11
102.9566424
21
-27.6121263
0
LINE
8
0
10
119.3535608
20
-17.8069711
11
116.6507088
21
-30.5228899
0
ARC
8
0
10
106.1485682
20
-15.0001633
40
0.5
50
78
51
168
0
ARC
8
0
10
118.864487
20
-17.7030153
40
0.5
50
348
51
78
0
ARC
8
0
10
103.4457162
20
-27.7160821
40
0.5
50
168
51
258
0
ARC
8
0
10
116.161635
20
-30.4189341
40
0.5
50
258
51
348
0
LINE
8
0
10
28.7471386
20
-12.6435025
11
41.4630574
21
-15.3463545
0
LINE
8
0
10
25.836375
20
-26.3375689
11
38.5522938
21
-29.0404209
0
LINE
8
0
10
28.154109
20
-13.0286205
11
25.451257
21
-25.7445393
0
LINE
8
0
10
41.8481754
20
-15.9393841
11
39.1453234
21
-28.6553029
0
ARC
8
0
10
28.6431828
20
-13.1325763
40
0.5
50
78
51
168
0
ARC
8
0
10
41.3591016
20
-15.8354283
40
0.5
50
348
51
78
0
ARC
8
0
10
25.9403308
20
-25.8484951
40
0.5
50
168
51
258
0
ARC
8
0
10
38.6562496
20
-28.5513471
40
0.5
50
258
51
348
0
LINE
8
0
10
46.3906709
20
-21.2626482
11
59.1065897
21
-23.9655002
0
LINE
8
0
10
43.4799073
20
-34.9567146
11
56.1958261
21
-37.6595666
0
LINE
8
0
10
45.7976413
20
-21.6477662
11
43.0947893
21
-34.363685
0
LINE
8
0
10
59.4917077
20
-24.5585298
11
56.7888557
21
-37.2744486
0
ARC
8
0
10
46.2867151
20
-21.751722
40
0.5
50
78
51
168
0
ARC
8
0
10
59.0026339
20
-24.454574
40
0.5
50
348
51
78
0
ARC
8
0
10
43.5838631
20
-34.4676408
40
0.5
50
168
51
258
0
ARC
8
0
10
56.2997819
20
-37.1704928
40
0.5
50
258
51
348
0
LINE
8
0
10
65.0243827
20
-25.2233659
11
77.7403015
21
-27.9262179
0
LINE
8
0
10
62.1136191
20
-38.9174323
11
74.8295379
21
-41.6202843
0
LINE
8
0
10
64.4313531
20
-25.6084839
11
61.7285011
21
-38.3244027
0
LINE
8
0
10
78.1254195
20
-28.5192475
11
75.4225675
21
-41.2351663
0
ARC
8
0
10
64.9204269
20
-25.7124397
40
0.5
50
78
51
168
0
ARC
8
0
10
77.6363457
20
-28.4152917
40
0.5
50
348
51
78
0
ARC
8
0
10
62.2175749
20
-38.4283585
40
0.5
50
168
51
258
0
ARC
8
0
10
74.9334937
20
-41.1312105
40
0.5
50
258
51
348
0
LINE
8
0
10
83.6580945
20
-29.1840836
11
96.3740133
21
-31.8869356
0
LINE
8
0
10
80.7473309
20
-42.87815
11
93.4632497
21
-45.581002
0
LINE
8
0
10
83.0650649
20
-29.5692016
11
80.3622129
21
-42.2851204
0
LINE
8
0
10
96.7591313
20
-32.4799652
11
94.0562793
21
-45.195884
0
ARC
8
0
10
83.5541387
20
-29.6731574
40
0.5
50
78
51
168
0
ARC
8
0
10
96.2700575
20
-32.3760094
40
0.5
50
348
51
78
0
ARC
8
0
10
80.8512867
20
-42.3890762
40
0.5
50
168
51
258
0
ARC
8
0
10
93.5672055
20
-45.0919282
40
0.5
50
258
51
348
0
LINE
8
0
10
102.2918063
20
-33.1448013
11
115.0077251
21
-35.8476533
0
LINE
8
0
10
99.3810427
20
-46.8388677
11
112.0969615
21
-49.5417197
0
LINE
8
0
10
101.6987767
20
-33.5299193
11
98.9959247
21
-46.2458381
0
LINE
8
0
10
115.3928431
20
-36.4406829
11
112.6899911
21
-49.1566017
0
ARC
8
0
10
102.1878505
20
-33.6338751
40
0.5
50
78
51
168
0
ARC
8
0
10
114.9037693
20
-36.3367271
40
0.5
50
348
51
78
0
ARC
8
0
10
99.4849985
20
-46.3497939
40
0.5
50
168
51
258
0
ARC
8
0
10
112.2009173
20
-49.0526459
40
0.5
50
258
51
348
0
LINE
8
0
10
37.3923679
20
-36.9023099
11
34.6895159
21
-49.6182287
0
LINE
8
0
10
23.6983015
20
-33.9915463
11
20.9954495
21
-46.7074651
0
LINE
8
0
10
37.0072499
20
-36.3092803
11
24.2913311
21
-33.6064283
0
LINE
8
0
10
34.0964863
20
-50.0033467
11
21.3805675
21
-47.3004947
0
ARC
8
0
10
36.9032941
20
-36.7983541
40
0.5
50
348
51
78
0
ARC
8
0
10
34.2004421
20
-49.5142729
40
0.5
50
258
51
348
0
ARC
8
0
10
24.1873753
20
-34.0955021
40
0.5
50
78
51
168
0
ARC
8
0
10
21.4845233
20
-46.8114209
40
0.5
50
168
51
258
0
LINE
8
0
10
42.4299532
20
-39.89636
11
55.145872
21
-42.599212
0
LINE
8
0
10
39.5191896
20
-53.5904264
11
52.2351084
21
-56.2932784
0
LINE
8
0
10
41.8369236
20
-40.281478
11
39.1340716
21
-52.9973968
0
LINE
8
0
10
55.53099
20
-43.1922416
11
52.828138
21
-55.9081604
0
ARC
8
0
10
42.3259974
20
-40.3854338
40
0.5
50
78
51
168
0
ARC
8
0
10
55.0419162
20
-43.0882858
40
0.5
50
348
51
78
0
ARC
8
0
10
39.6231454
20
-53.1013526
40
0.5
50
168
51
258
0
ARC
8
0
10
52.3390642
20
-55.8042046
40
0.5
50
258
51
348
0
LINE
8
0
10
61.063665
20
-43.8570777
11
73.7795838
21
-46.5599297
0
LINE
8
0
10
58.1529014
20
-57.5511441
11
70.8688202
21
-60.2539961
0
LINE
8
0
10
60.4706354
20
-44.2421957
11
57.7677834
21
-56.9581145
0
LINE
8
0
10
74.1647018
20
-47.1529593
11
71.4618498
21
-59.8688781
0
ARC
8
0
10
60.9597092
20
-44.3461515
40
0.5
50
78
51
168
0
ARC
8
0
10
73.675628
20
-47.0490035
40
0.5
50
348
51
78
0
ARC
8
0
10
58.2568572
20
-57.0620703
40
0.5
50
168
51
258
0
ARC
8
0
10
70.972776
20
-59.7649223
40
0.5
50
258
51
348
0
LINE
8
0
10
79.6973768
20
-47.8177954
11
92.4132956
21
-50.5206474
0
LINE
8
0
10
76.7866132
20
-61.5118618
11
89.502532
21
-64.2147138
0
LINE
8
0
10
79.1043472
20
-48.2029134
11
76.4014952
21
-60.9188322
0
LINE
8
0
10
92.7984136
20
-51.113677
11
90.0955616
21
-63.8295958
0
ARC
8
0
10
79.593421
20
-48.3068692
40
0.5
50
78
51
168
0
ARC
8
0
10
92.3093398
20
-51.0097212
40
0.5
50
348
51
78
0
ARC
8
0
10
76.890569
20
-61.022788
40
0.5
50
168
51
258
0
ARC
8
0
10
89.6064878
20
-63.72564
40
0.5
50
258
51
348
0
LINE
8
0
10
98.3310886
20
-51.7785131
11
111.0470074
21
-54.4813651
0
LINE
8
0
10
95.420325
20
-65.4725795
11
108.1362438
21
-68.1754315
0
LINE
8
0
10
97.738059
20
-52.1636311
11
95.035207
21
-64.8795499
0
LINE
8
0
10
111.4321254
20
-55.0743947
11
108.7292734
21
-67.7903135
0
ARC
8
0
10
98.2271328
20
-52.2675869
40
0.5
50
78
51
168
0
ARC
8
0
10
110.9430516
20
-54.9704389
40
0.5
50
348
51
78
0
ARC
8
0
10
95.5242808
20
-64.9835057
40
0.5
50
168
51
258
0
ARC
8
0
10
108.2401996
20
-67.6863577
40
0.5
50
258
51
348
0
LINE
8
0
10
126.6002092
20
-75.3396102
11
123.8973572
21
-88.055529
0
LINE
8
0
10
112.9061428
20
-72.4288466
11
110.2032908
21
-85.1447654
0
LINE
8
0
10
126.2150912
20
-74.7465806
11
113.4991724
21
-72.0437286
0
LINE
8
0
10
123.3043276
20
-88.440647
11
110.5884088
21
-85.737795
0
ARC
8
0
10
126.1111354
20
-75.2356544
40
0.5
50
348
51
78
0
ARC
8
0
10
123.4082834
20
-87.9515732
40
0.5
50
258
51
348
0
ARC
8
0
10
113.3952166
20
-72.5328024
40
0.5
50
78
51
168
0
ARC
8
0
10
110.6923646
20
-85.2487212
40
0.5
50
168
51
258
0
LINE
8
0
10
19.8355237
20
-54.5693541
11
32.5514425
21
-57.2722061
0
LINE
8
0
10
16.9247601
20
-68.2634205
11
29.6406789
21
-70.9662725
0
LINE
8
0
10
19.2424941
20
-54.9544721
11
16.5396421
21
-67.6703909
0
LINE
8
0
10
32.9365605
20
-57.8652357
11
30.2337085
21
-70.5811545
0
ARC
8
0
10
19.7315679
20
-55.0584279
40
0.5
50
78
51
168
0
ARC
8
0
10
32.4474867
20
-57.7612799
40
0.5
50
348
51
78
0
ARC
8
0
10
17.0287159
20
-67.7743467
40
0.5
50
168
51
258
0
ARC
8
0
10
29.7446347
20
-70.4771987
40
0.5
50
258
51
348
0
LINE
8
0
10
38.4692355
20
-58.5300718
11
51.1851543
21
-61.2329238
0
LINE
8
0
10
35.5584719
20
-72.2241382
11
48.2743907
21
-74.9269902
0
LINE
8
0
10
37.8762059
20
-58.9151898
11
35.1733539
21
-71.6311086
0
LINE
8
0
10
51.5702723
20
-61.8259534
11
48.8674203
21
-74.5418722
0
ARC
8
0
10
38.3652797
20
-59.0191456
40
0.5
50
78
51
168
0
ARC
8
0
10
51.0811985
20
-61.7219976
40
0.5
50
348
51
78
0
ARC
8
0
10
35.6624277
20
-71.7350644
40
0.5
50
168
51
258
0
ARC
8
0
10
48.3783465
20
-74.4379164
40
0.5
50
258
51
348
0
LINE
8
0
10
57.1029473
20
-62.4907895
11
69.8188661
21
-65.1936415
0
LINE
8
0
10
54.1921837
20
-76.1848559
11
66.9081025
21
-78.8877079
0
LINE
8
0
10
56.5099177
20
-62.8759075
11
53.8070657
21
-75.5918263
0
LINE
8
0
10
70.2039841
20
-65.7866711
11
67.5011321
21
-78.5025899
0
ARC
8
0
10
56.9989915
20
-62.9798633
40
0.5
50
78
51
168
0
ARC
8
0
10
69.7149103
20
-65.6827153
40
0.5
50
348
51
78
0
ARC
8
0
10
54.2961395
20
-75.6957821
40
0.5
50
168
51
258
0
ARC
8
0
10
67.0120583
20
-78.3986341
40
0.5
50
258
51
348
0
LINE
8
0
10
75.7366591
20
-66.4515072
11
88.4525779
21
-69.1543592
0
LINE
8
0
10
72.8258955
20
-80.1455736
11
85.5418143
21
-82.8484256
0
LINE
8
0
10
75.1436295
20
-66.8366252
11
72.4407775
21
-79.552544
0
LINE
8
0
10
88.8376959
20
-69.7473888
11
86.1348439
21
-82.4633076
0
ARC
8
0
10
75.6327033
20
-66.940581
40
0.5
50
78
51
168
0
ARC
8
0
10
88.3486221
20
-69.643433
40
0.5
50
348
51
78
0
ARC
8
0
10
72.9298513
20
-79.6564998
40
0.5
50
168
51
258
0
ARC
8
0
10
85.6457701
20
-82.3593518
40
0.5
50
258
51
348
0
LINE
8
0
10
94.3703709
20
-70.4122249
11
107.0862897
21
-73.1150769
0
LINE
8
0
10
91.4596073
20
-84.1062913
11
104.1755261
21
-86.8091433
0
LINE
8
0
10
93.7773413
20
-70.7973429
11
91.0744893
21
-83.5132617
0
LINE
8
0
10
107.4714077
20
-73.7081065
11
104.7685557
21
-86.4240253
0
ARC
8
0
10
94.2664151
20
-70.9012987
40
0.5
50
78
51
168
0
ARC
8
0
10
106.9823339
20
-73.6041507
40
0.5
50
348
51
78
0
ARC
8
0
10
91.5635631
20
-83.6172175
40
0.5
50
168
51
258
0
ARC
8
0
10
104.2794819
20
-86.3200695
40
0.5
50
258
51
348
0
LINE
8
0
10
142.9690572
20
-17.2139415
11
155.684976
21
-14.5110895
0
LINE
8
0
10
145.8798208
20
-30.9080079
11
158.5957396
21
-28.2051559
0
LINE
8
0
10
142.5839392
20
-17.8069711
11
145.2867912
21
-30.5228899
0
LINE
8
0
10
156.2780056
20
-14.8962075
11
158.9808576
21
-27.6121263
0
ARC
8
0
10
143.073013
20
-17.7030153
40
0.5
50
102
51
192
0
ARC
8
0
10
155.7889318
20
-15.0001633
40
0.5
50
12
51
102
0
ARC
8
0
10
145.775865
20
-30.4189341
40
0.5
50
192
51
282
0
ARC
8
0
10
158.4917838
20
-27.7160821
40
0.5
50
282
51
12
0
LINE
8
0
10
161.602769
20
-13.2532238
11
174.3186878
21
-10.5503718
0
LINE
8
0
10
164.5135326
20
-26.9472902
11
177.2294514
21
-24.2444382
0
LINE
8
0
10
161.217651
20
-13.8462534
11
163.920503
21
-26.5621722
0
LINE
8
0
10
174.9117174
20
-10.9354898
11
177.6145694
21
-23.6514086
0
ARC
8
0
10
161.7067248
20
-13.7422976
40
0.5
50
102
51
192
0
ARC
8
0
10
174.4226436
20
-11.0394456
40
0.5
50
12
51
102
0
ARC
8
0
10
164.4095768
20
-26.4582164
40
0.5
50
192
51
282
0
ARC
8
0
10
177.1254956
20
-23.7553644
40
0.5
50
282
51
12
0
LINE
8
0
10
180.2364808
20
-9.2925061
11
192.9523996
21
-6.5896541
0
LINE
8
0
10
183.1472444
20
-22.9865725
11
195.8631632
21
-20.2837205
0
LINE
8
0
10
179.8513628
20
-9.8855357
11
182.5542148
21
-22.6014545
0
LINE
8
0
10
193.5454292
20
-6.9747721
11
196.2482812
21
-19.6906909
0
ARC
8
0
10
180.3404366
20
-9.7815799
40
0.5
50
102
51
192
0
ARC
8
0
10
193.0563554
20
-7.0787279
40
0.5
50
12
51
102
0
ARC
8
0
10
183.0432886
20
-22.4974987
40
0.5
50
192
51
282
0
ARC
8
0
10
195.7592074
20
-19.7946467
40
0.5
50
282
51
12
0
LINE
8
0
10
198.8701926
20
-5.3317884
11
211.5861114
21
-2.6289364
0
LINE
8
0
10
201.7809562
20
-19.0258548
11
214.496875
21
-16.3230028
0
LINE
8
0
10
198.4850746
20
-5.924818
11
201.1879266
21
-18.6407368
0
LINE
8
0
10
212.179141
20
-3.0140544
11
214.881993
21
-15.7299732
0
ARC
8
0
10
198.9741484
20
-5.8208622
40
0.5
50
102
51
192
0
ARC
8
0
10
211.6900672
20
-3.1180102
40
0.5
50
12
51
102
0
ARC
8
0
10
201.6770004
20
-18.536781
40
0.5
50
192
51
282
0
ARC
8
0
10
214.3929192
20
-15.833929
40
0.5
50
282
51
12
0
LINE
8
0
10
220.4744426
20
-15.3463545
11
233.1903614
21
-12.6435025
0
LINE
8
0
10
223.3852062
20
-29.0404209
11
236.101125
21
-26.3375689
0
LINE
8
0
10
220.0893246
20
-15.9393841
11
222.7921766
21
-28.6553029
0
LINE
8
0
10
233.783391
20
-13.0286205
11
236.486243
21
-25.7445393
0
ARC
8
0
10
220.5783984
20
-15.8354283
40
0.5
50
102
51
192
0
ARC
8
0
10
233.2943172
20
-13.1325763
40
0.5
50
12
51
102
0
ARC
8
0
10
223.2812504
20
-28.5513471
40
0.5
50
192
51
282
0
ARC
8
0
10
235.9971692
20
-25.8484951
40
0.5
50
282
51
12
0
LINE
8
0
10
146.9297749
20
-35.8476533
11
159.6456937
21
-33.1448013
0
LINE
8
0
10
149.8405385
20
-49.5417197
11
162.5564573
21
-46.8388677
0
LINE
8
0
10
146.5446569
20
-36.4406829
11
149.2475089
21
-49.1566017
0
LINE
8
0
10
160.2387233
20
-33.5299193
11
162.9415753
21
-46.2458381
0
ARC
8
0
10
147.0337307
20
-36.3367271
40
0.5
50
102
51
192
0
ARC
8
0
10
159.7496495
20
-33.6338751
40
0.5
50
12
51
102
0
ARC
8
0
10
149.7365827
20
-49.0526459
40
0.5
50
192
51
282
0
ARC
8
0
10
162.4525015
20
-46.3497939
40
0.5
50
282
51
12
0
LINE
8
0
10
165.5634867
20
-31.8869356
11
178.2794055
21
-29.1840836
0
LINE
8
0
10
168.4742503
20
-45.581002
11
181.1901691
21
-42.87815
0
LINE
8
0
10
165.1783687
20
-32.4799652
11
167.8812207
21
-45.195884
0
LINE
8
0
10
178.8724351
20
-29.5692016
11
181.5752871
21
-42.2851204
0
ARC
8
0
10
165.6674425
20
-32.3760094
40
0.5
50
102
51
192
0
ARC
8
0
10
178.3833613
20
-29.6731574
40
0.5
50
12
51
102
0
ARC
8
0
10
168.3702945
20
-45.0919282
40
0.5
50
192
51
282
0
ARC
8
0
10
181.0862133
20
-42.3890762
40
0.5
50
282
51
12
0
LINE
8
0
10
184.1971985
20
-27.9262179
11
196.9131173
21
-25.2233659
0
LINE
8
0
10
187.1079621
20
-41.6202843
11
199.8238809
21
-38.9174323
0
LINE
8
0
10
183.8120805
20
-28.5192475
11
186.5149325
21
-41.2351663
0
LINE
8
0
10
197.5061469
20
-25.6084839
11
200.2089989
21
-38.3244027
0
ARC
8
0
10
184.3011543
20
-28.4152917
40
0.5
50
102
51
192
0
ARC
8
0
10
197.0170731
20
-25.7124397
40
0.5
50
12
51
102
0
ARC
8
0
10
187.0040063
20
-41.1312105
40
0.5
50
192
51
282
0
ARC
8
0
10
199.7199251
20
-38.4283585
40
0.5
50
282
51
12
0
LINE
8
0
10
202.8309103
20
-23.9655002
11
215.5468291
21
-21.2626482
0
LINE
8
0
10
205.7416739
20
-37.6595666
11
218.4575927
21
-34.9567146
0
LINE
8
0
10
202.4457923
20
-24.5585298
11
205.1486443
21
-37.2744486
0
LINE
8
0
10
216.1398587
20
-21.6477662
11
218.8427107
21
-34.363685
0
ARC
8
0
10
202.9348661
20
-24.454574
40
0.5
50
102
51
192
0
ARC
8
0
10
215.6507849
20
-21.751722
40
0.5
50
12
51
102
0
ARC
8
0
10
205.6377181
20
-37.1704928
40
0.5
50
192
51
282
0
ARC
8
0
10
218.3536369
20
-34.4676408
40
0.5
50
282
51
12
0
LINE
8
0
10
238.2391985
20
-33.9915463
11
240.9420505
21
-46.7074651
0
LINE
8
0
10
224.5451321
20
-36.9023099
11
227.2479841
21
-49.6182287
0
LINE
8
0
10
237.6461689
20
-33.6064283
11
224.9302501
21
-36.3092803
0
LINE
8
0
10
240.5569325
20
-47.3004947
11
227.8410137
21
-50.0033467
0
ARC
8
0
10
237.7501247
20
-34.0955021
40
0.5
50
12
51
102
0
ARC
8
0
10
240.4529767
20
-46.8114209
40
0.5
50
282
51
12
0
ARC
8
0
10
225.0342059
20
-36.7983541
40
0.5
50
102
51
192
0
ARC
8
0
10
227.7370579
20
-49.5142729
40
0.5
50
192
51
282
0
LINE
8
0
10
150.8904926
20
-54.4813651
11
163.6064114
21
-51.7785131
0
LINE
8
0
10
153.8012562
20
-68.1754315
11
166.517175
21
-65.4725795
0
LINE
8
0
10
150.5053746
20
-55.0743947
11
153.2082266
21
-67.7903135
0
LINE
8
0
10
164.199441
20
-52.1636311
11
166.902293
21
-64.8795499
0
ARC
8
0
10
150.9944484
20
-54.9704389
40
0.5
50
102
51
192
0
ARC
8
0
10
163.7103672
20
-52.2675869
40
0.5
50
12
51
102
0
ARC
8
0
10
153.6973004
20
-67.6863577
40
0.5
50
192
51
282
0
ARC
8
0
10
166.4132192
20
-64.9835057
40
0.5
50
282
51
12
0
LINE
8
0
10
169.5242044
20
-50.5206474
11
182.2401232
21
-47.8177954
0
LINE
8
0
10
172.434968
20
-64.2147138
11
185.1508868
21
-61.5118618
0
LINE
8
0
10
169.1390864
20
-51.113677
11
171.8419384
21
-63.8295958
0
LINE
8
0
10
182.8331528
20
-48.2029134
11
185.5360048
21
-60.9188322
0
ARC
8
0
10
169.6281602
20
-51.0097212
40
0.5
50
102
51
192
0
ARC
8
0
10
182.344079
20
-48.3068692
40
0.5
50
12
51
102
0
ARC
8
0
10
172.3310122
20
-63.72564
40
0.5
50
192
51
282
0
ARC
8
0
10
185.046931
20
-61.022788
40
0.5
50
282
51
12
0
LINE
8
0
10
188.1579162
20
-46.5599297
11
200.873835
21
-43.8570777
0
LINE
8
0
10
191.0686798
20
-60.2539961
11
203.7845986
21
-57.5511441
0
LINE
8
0
10
187.7727982
20
-47.1529593
11
190.4756502
21
-59.8688781
0
LINE
8
0
10
201.4668646
20
-44.2421957
11
204.1697166
21
-56.9581145
0
ARC
8
0
10
188.261872
20
-47.0490035
40
0.5
50
102
51
192
0
ARC
8
0
10
200.9777908
20
-44.3461515
40
0.5
50
12
51
102
0
ARC
8
0
10
190.964724
20
-59.7649223
40
0.5
50
192
51
282
0
ARC
8
0
10
203.6806428
20
-57.0620703
40
0.5
50
282
51
12
0
LINE
8
0
10
206.791628
20
-42.599212
11
219.5075468
21
-39.89636
0
LINE
8
0
10
209.7023916
20
-56.2932784
11
222.4183104
21
-53.5904264
0
LINE
8
0
10
206.40651
20
-43.1922416
11
209.109362
21
-55.9081604
0
LINE
8
0
10
220.1005764
20
-40.281478
11
222.8034284
21
-52.9973968
0
ARC
8
0
10
206.8955838
20
-43.0882858
40
0.5
50
102
51
192
0
ARC
8
0
10
219.6115026
20
-40.3854338
40
0.5
50
12
51
102
0
ARC
8
0
10
209.5984358
20
-55.8042046
40
0.5
50
192
51
282
0
ARC
8
0
10
222.3143546
20
-53.1013526
40
0.5
50
282
51
12
0
LINE
8
0
10
149.0313572
20
-72.4288466
11
151.7342092
21
-85.1447654
0
LINE
8
0
10
135.3372908
20
-75.3396102
11
138.0401428
21
-88.055529
0
LINE
8
0
10
148.4383276
20
-72.0437286
11
135.7224088
21
-74.7465806
0
LINE
8
0
10
151.3490912
20
-85.737795
11
138.6331724
21
-88.440647
0
ARC
8
0
10
148.5422834
20
-72.5328024
40
0.5
50
12
51
102
0
ARC
8
0
10
151.2451354
20
-85.2487212
40
0.5
50
282
51
12
0
ARC
8
0
10
135.8263646
20
-75.2356544
40
0.5
50
102
51
192
0
ARC
8
0
10
138.5292166
20
-87.9515732
40
0.5
50
192
51
282
0
LINE
8
0
10
154.8512103
20
-73.1150769
11
167.5671291
21
-70.4122249
0
LINE
8
0
10
157.7619739
20
-86.8091433
11
170.4778927
21
-84.1062913
0
LINE
8
0
10
154.4660923
20
-73.7081065
11
157.1689443
21
-86.4240253
0
LINE
8
0
10
168.1601587
20
-70.7973429
11
170.8630107
21
-83.5132617
0
ARC
8
0
10
154.9551661
20
-73.6041507
40
0.5
50
102
51
192
0
ARC
8
0
10
167.6710849
20
-70.9012987
40
0.5
50
12
51
102
0
ARC
8
0
10
157.6580181
20
-86.3200695
40
0.5
50
192
51
282
0
ARC
8
0
10
170.3739369
20
-83.6172175
40
0.5
50
282
51
12
0
LINE
8
0
10
173.4849221
20
-69.1543592
11
186.2008409
21
-66.4515072
0
LINE
8
0
10
176.3956857
20
-82.8484256
11
189.1116045
21
-80.1455736
0
LINE
8
0
10
173.0998041
20
-69.7473888
11
175.8026561
21
-82.4633076
0
LINE
8
0
10
186.7938705
20
-66.8366252
11
189.4967225
21
-79.552544
0
ARC
8
0
10
173.5888779
20
-69.643433
40
0.5
50
102
51
192
0
ARC
8
0
10
186.3047967
20
-66.940581
40
0.5
50
12
51
102
0
ARC
8
0
10
176.2917299
20
-82.3593518
40
0.5
50
192
51
282
0
ARC
8
0
10
189.0076487
20
-79.6564998
40
0.5
50
282
51
12
0
LINE
8
0
10
192.1186339
20
-65.1936415
11
204.8345527
21
-62.4907895
0
LINE
8
0
10
195.0293975
20
-78.8877079
11
207.7453163
21
-76.1848559
0
LINE
8
0
10
191.7335159
20
-65.7866711
11
194.4363679
21
-78.5025899
0
LINE
8
0
10
205.4275823
20
-62.8759075
11
208.1304343
21
-75.5918263
0
ARC
8
0
10
192.2225897
20
-65.6827153
40
0.5
50
102
51
192
0
ARC
8
0
10
204.9385085
20
-62.9798633
40
0.5
50
12
51
102
0
ARC
8
0
10
194.9254417
20
-78.3986341
40
0.5
50
192
51
282
0
ARC
8
0
10
207.6413605
20
-75.6957821
40
0.5
50
282
51
12
0
LINE
8
0
10
210.7523457
20
-61.2329238
11
223.4682645
21
-58.5300718
0
LINE
8
0
10
213.6631093
20
-74.9269902
11
226.3790281
21
-72.2241382
0
LINE
8
0
10
210.3672277
20
-61.8259534
11
213.0700797
21
-74.5418722
0
LINE
8
0
10
224.0612941
20
-58.9151898
11
226.7641461
21
-71.6311086
0
ARC
8
0
10
210.8563015
20
-61.7219976
40
0.5
50
102
51
192
0
ARC
8
0
10
223.5722203
20
-59.0191456
40
0.5
50
12
51
102
0
ARC
8
0
10
213.5591535
20
-74.4379164
40
0.5
50
192
51
282
0
ARC
8
0
10
226.2750723
20
-71.7350644
40
0.5
50
282
51
12
0
LINE
8
0
10
229.3860575
20
-57.2722061
11
242.1019763
21
-54.5693541
0
LINE
8
0
10
232.2968211
20
-70.9662725
11
245.0127399
21
-68.2634205
0
LINE
8
0
10
229.0009395
20
-57.8652357
11
231.7037915
21
-70.5811545
0
LINE
8
0
10
242.6950059
20
-54.9544721
11
245.3978579
21
-67.6703909
0
ARC
8
0
10
229.4900133
20
-57.7612799
40
0.5
50
102
51
192
0
ARC
8
0
10
242.2059321
20
-55.0584279
40
0.5
50
12
51
102
0
ARC
8
0
10
232.1928653
20
-70.4771987
40
0.5
50
192
51
282
0
ARC
8
0
10
244.9087841
20
-67.7743467
40
0.5
50
282
51
12
0
LINE
8
0
10
15.2131013
20
-92.1484378
11
246.7243987
21
-92.1484378
0
LINE
8
0
10
15.2131013
20
-1.3023956
11
246.7243987
21
-1.3023956
0
LINE
8
0
10
15.2131013
20
-92.1484378
11
15.2131013
21
-1.3023956
0
LINE
8
0
10
246.7243987
20
-92.1484378
11
246.7243987
21
-1.3023956
0
ENDSEC
0
EOF