0
SECTION
2
HEADER
9
$INSUNITS
70
4
0
ENDSEC
0
SECTION
2
TABLES
0
TABLE
2
LTYPE
0
LTYPE
72
65
70
64
2
CONTINUOUS
3
______
73
0
40
0
0
ENDTAB
0
TABLE
2
LAYER
0
ENDTAB
0
ENDSEC
0
SECTION
2
ENTITIES
0
LINE
8
0
10
38.5897945
20
-14.4384558
11
51.0217563
21
-18.239288
0
LINE
8
0
10
34.4965907
20
-27.8267224
11
46.9285525
21
-31.6275546
0
LINE
8
0
10
37.9654563
20
-14.7704224
11
34.1646241
21
-27.2023842
0
LINE
8
0
10
51.3537229
20
-18.8636262
11
47.5528907
21
-31.295588
0
ARC
8
0
10
38.4436087
20
-14.9166082
40
0.5
50
73
51
163
0
ARC
8
0
10
50.8755705
20
-18.7174404
40
0.5
50
343
51
73
0
ARC
8
0
10
34.6427765
20
-27.34857
40
0.5
50
163
51
253
0
ARC
8
0
10
47.0747383
20
-31.1494022
40
0.5
50
253
51
343
0
LINE
8
0
10
56.8074001
20
-20.0081368
11
69.2393619
21
-23.808969
0
LINE
8
0
10
52.7141963
20
-33.3964034
11
65.1461581
21
-37.1972356
0
LINE
8
0
10
56.1830619
20
-20.3401034
11
52.3822297
21
-32.7720652
0
LINE
8
0
10
69.5713285
20
-24.4333072
11
65.7704963
21
-36.865269
0
ARC
8
0
10
56.6612143
20
-20.4862892
40
0.5
50
73
51
163
0
ARC
8
0
10
69.0931761
20
-24.2871214
40
0.5
50
343
51
73
0
ARC
8
0
10
52.8603821
20
-32.918251
40
0.5
50
163
51
253
0
ARC
8
0
10
65.2923439
20
-36.7190832
40
0.5
50
253
51
343
0
LINE
8
0
10
75.0250057
20
-25.5778178
11
87.4569675
21
-29.37865
0
LINE
8
0
10
70.9318019
20
-38.9660844
11
83.3637637
21
-42.7669166
0
LINE
8
0
10
74.4006675
20
-25.9097844
11
70.5998353
21
-38.3417462
0
LINE
8
0
10
87.7889341
20
-30.0029882
11
83.9881019
21
-42.43495
0
ARC
8
0
10
74.8788199
20
-26.0559702
40
0.5
50
73
51
163
0
ARC
8
0
10
87.3107817
20
-29.8568024
40
0.5
50
343
51
73
0
ARC
8
0
10
71.0779877
20
-38.487932
40
0.5
50
163
51
253
0
ARC
8
0
10
83.5099495
20
-42.2887642
40
0.5
50
253
51
343
0
LINE
8
0
10
93.2426113
20
-31.1474988
11
105.6745731
21
-34.948331
0
LINE
8
0
10
89.1494075
20
-44.5357654
11
101.5813693
21
-48.3365976
0
LINE
8
0
10
92.6182731
20
-31.4794654
11
88.8174409
21
-43.9114272
0
LINE
8
0
10
106.0065397
20
-35.5726692
11
102.2057075
21
-48.004631
0
ARC
8
0
10
93.0964255
20
-31.6256512
40
0.5
50
73
51
163
0
ARC
8
0
10
105.5283873
20
-35.4264834
40
0.5
50
343
51
73
0
ARC
8
0
10
89.2955933
20
-44.057613
40
0.5
50
163
51
253
0
ARC
8
0
10
101.7275551
20
-47.8584452
40
0.5
50
253
51
343
0
LINE
8
0
10
14.8025079
20
-27.0863805
11
27.2344697
21
-30.8872127
0
LINE
8
0
10
10.7093041
20
-40.4746471
11
23.1412659
21
-44.2754793
0
LINE
8
0
10
14.1781697
20
-27.4183471
11
10.3773375
21
-39.8503089
0
LINE
8
0
10
27.5664363
20
-31.5115509
11
23.7656041
21
-43.9435127
0
ARC
8
0
10
14.6563221
20
-27.5645329
40
0.5
50
73
51
163
0
ARC
8
0
10
27.0882839
20
-31.3653651
40
0.5
50
343
51
73
0
ARC
8
0
10
10.8554899
20
-39.9964947
40
0.5
50
163
51
253
0
ARC
8
0
10
23.2874517
20
-43.7973269
40
0.5
50
253
51
343
0
LINE
8
0
10
33.0201135
20
-32.6560614
11
45.4520753
21
-36.4568936
0
LINE
8
0
10
28.9269097
20
-46.044328
11
41.3588715
21
-49.8451602
0
LINE
8
0
10
32.3957753
20
-32.988028
11
28.5949431
21
-45.4199898
0
LINE
8
0
10
45.7840419
20
-37.0812318
11
41.9832097
21
-49.5131936
0
ARC
8
0
10
32.8739277
20
-33.1342138
40
0.5
50
73
51
163
0
ARC
8
0
10
45.3058895
20
-36.935046
40
0.5
50
343
51
73
0
ARC
8
0
10
29.0730955
20
-45.5661756
40
0.5
50
163
51
253
0
ARC
8
0
10
41.5050573
20
-49.3670078
40
0.5
50
253
51
343
0
LINE
8
0
10
51.2377191
20
-38.2257424
11
63.6696809
21
-42.0265746
0
LINE
8
0
10
47.1445153
20
-51.614009
11
59.5764771
21
-55.4148412
0
LINE
8
0
10
50.6133809
20
-38.557709
11
46.8125487
21
-50.9896708
0
LINE
8
0
10
64.0016475
20
-42.6509128
11
60.2008153
21
-55.0828746
0
ARC
8
0
10
51.0915333
20
-38.7038948
40
0.5
50
73
51
163
0
ARC
8
0
10
63.5234951
20
-42.504727
40
0.5
50
343
51
73
0
ARC
8
0
10
47.2907011
20
-51.1358566
40
0.5
50
163
51
253
0
ARC
8
0
10
59.7226629
20
-54.9366888
40
0.5
50
253
51
343
0
LINE
8
0
10
69.4553247
20
-43.7954234
11
81.8872865
21
-47.5962556
0
LINE
8
0
10
65.3621209
20
-57.18369
11
77.7940827
21
-60.9845222
0
LINE
8
0
10
68.8309865
20
-44.12739
11
65.0301543
21
-56.5593518
0
LINE
8
0
10
82.2192531
20
-48.2205938
11
78.4184209
21
-60.6525556
0
ARC
8
0
10
69.3091389
20
-44.2735758
40
0.5
50
73
51
163
0
ARC
8
0
10
81.7411007
20
-48.074408
40
0.5
50
343
51
73
0
ARC
8
0
10
65.5083067
20
-56.7055376
40
0.5
50
163
51
253
0
ARC
8
0
10
77.9402685
20
-60.5063698
40
0.5
50
253
51
343
0
LINE
8
0
10
87.6729303
20
-49.3651044
11
100.1048921
21
-53.1659366
0
LINE
8
0
10
83.5797265
20
-62.753371
11
96.0116883
21
-66.5542032
0
LINE
8
0
10
87.0485921
20
-49.697071
11
83.2477599
21
-62.1290328
0
LINE
8
0
10
100.4368587
20
-53.7902748
11
96.6360265
21
-66.2222366
0
ARC
8
0
10
87.5267445
20
-49.8432568
40
0.5
50
73
51
163
0
ARC
8
0
10
99.9587063
20
-53.644089
40
0.5
50
343
51
73
0
ARC
8
0
10
83.7259123
20
-62.2752186
40
0.5
50
163
51
253
0
ARC
8
0
10
96.1578741
20
-66.0760508
40
0.5
50
253
51
343
0
LINE
8
0
10
9.232827
20
-45.3039861
11
21.6647888
21
-49.1048183
0
LINE
8
0
10
5.1396232
20
-58.6922527
11
17.571585
21
-62.4930849
0
LINE
8
0
10
8.6084888
20
-45.6359527
11
4.8076566
21
-58.0679145
0
LINE
8
0
10
21.9967554
20
-49.7291565
11
18.1959232
21
-62.1611183
0
ARC
8
0
10
9.0866412
20
-45.7821385
40
0.5
50
73
51
163
0
ARC
8
0
10
21.518603
20
-49.5829707
40
0.5
50
343
51
73
0
ARC
8
0
10
5.285809
20
-58.2141003
40
0.5
50
163
51
253
0
ARC
8
0
10
17.7177708
20
-62.0149325
40
0.5
50
253
51
343
0
LINE
8
0
10
27.4504326
20
-50.873667
11
39.8823944
21
-54.6744992
0
LINE
8
0
10
23.3572288
20
-64.2619336
11
35.7891906
21
-68.0627658
0
LINE
8
0
10
26.8260944
20
-51.2056336
11
23.0252622
21
-63.6375954
0
LINE
8
0
10
40.214361
20
-55.2988374
11
36.4135288
21
-67.7307992
0
ARC
8
0
10
27.3042468
20
-51.3518194
40
0.5
50
73
51
163
0
ARC
8
0
10
39.7362086
20
-55.1526516
40
0.5
50
343
51
73
0
ARC
8
0
10
23.5034146
20
-63.7837812
40
0.5
50
163
51
253
0
ARC
8
0
10
35.9353764
20
-67.5846134
40
0.5
50
253
51
343
0
LINE
8
0
10
45.6680382
20
-56.443348
11
58.1
21
-60.2441802
0
LINE
8
0
10
41.5748344
20
-69.8316146
11
54.0067962
21
-73.6324468
0
LINE
8
0
10
45.0437
20
-56.7753146
11
41.2428678
21
-69.2072764
0
LINE
8
0
10
58.4319666
20
-60.8685184
11
54.6311344
21
-73.3004802
0
ARC
8
0
10
45.5218524
20
-56.9215004
40
0.5
50
73
51
163
0
ARC
8
0
10
57.9538142
20
-60.7223326
40
0.5
50
343
51
73
0
ARC
8
0
10
41.7210202
20
-69.3534622
40
0.5
50
163
51
253
0
ARC
8
0
10
54.152982
20
-73.1542944
40
0.5
50
253
51
343
0
LINE
8
0
10
63.8856438
20
-62.013029
11
76.3176056
21
-65.8138612
0
LINE
8
0
10
59.79244
20
-75.4012956
11
72.2244018
21
-79.2021278
0
LINE
8
0
10
63.2613056
20
-62.3449956
11
59.4604734
21
-74.7769574
0
LINE
8
0
10
76.6495722
20
-66.4381994
11
72.84874
21
-78.8701612
0
ARC
8
0
10
63.739458
20
-62.4911814
40
0.5
50
73
51
163
0
ARC
8
0
10
76.1714198
20
-66.2920136
40
0.5
50
343
51
73
0
ARC
8
0
10
59.9386258
20
-74.9231432
40
0.5
50
163
51
253
0
ARC
8
0
10
72.3705876
20
-78.7239754
40
0.5
50
253
51
343
0
LINE
8
0
10
82.1032494
20
-67.58271
11
94.5352112
21
-71.3835422
0
LINE
8
0
10
78.0100456
20
-80.9709766
11
90.4420074
21
-84.7718088
0
LINE
8
0
10
81.4789112
20
-67.9146766
11
77.678079
21
-80.3466384
0
LINE
8
0
10
94.8671778
20
-72.0078804
11
91.0663456
21
-84.4398422
0
ARC
8
0
10
81.9570636
20
-68.0608624
40
0.5
50
73
51
163
0
ARC
8
0
10
94.3890254
20
-71.8616946
40
0.5
50
343
51
73
0
ARC
8
0
10
78.1562314
20
-80.4928242
40
0.5
50
163
51
253
0
ARC
8
0
10
90.5881932
20
-84.2936564
40
0.5
50
253
51
343
0
LINE
8
0
10
3.663146
20
-63.5215917
11
16.0951078
21
-67.3224239
0
LINE
8
0
10
-0.4300578
20
-76.9098583
11
12.001904
21
-80.7106905
0
LINE
8
0
10
3.0388078
20
-63.8535583
11
-0.7620244
21
-76.2855201
0
LINE
8
0
10
16.4270744
20
-67.9467621
11
12.6262422
21
-80.3787239
0
ARC
8
0
10
3.5169602
20
-63.9997441
40
0.5
50
73
51
163
0
ARC
8
0
10
15.948922
20
-67.8005763
40
0.5
50
343
51
73
0
ARC
8
0
10
-0.283872
20
-76.4317059
40
0.5
50
163
51
253
0
ARC
8
0
10
12.1480898
20
-80.2325381
40
0.5
50
253
51
343
0
LINE
8
0
10
21.8807516
20
-69.0912726
11
34.3127134
21
-72.8921048
0
LINE
8
0
10
17.7875478
20
-82.4795392
11
30.2195096
21
-86.2803714
0
LINE
8
0
10
21.2564134
20
-69.4232392
11
17.4555812
21
-81.855201
0
LINE
8
0
10
34.64468
20
-73.516443
11
30.8438478
21
-85.9484048
0
ARC
8
0
10
21.7345658
20
-69.569425
40
0.5
50
73
51
163
0
ARC
8
0
10
34.1665276
20
-73.3702572
40
0.5
50
343
51
73
0
ARC
8
0
10
17.9337336
20
-82.0013868
40
0.5
50
163
51
253
0
ARC
8
0
10
30.3656954
20
-85.802219
40
0.5
50
253
51
343
0
LINE
8
0
10
40.0983572
20
-74.6609536
11
52.530319
21
-78.4617858
0
LINE
8
0
10
36.0051534
20
-88.0492202
11
48.4371152
21
-91.8500524
0
LINE
8
0
10
39.474019
20
-74.9929202
11
35.6731868
21
-87.424882
0
LINE
8
0
10
52.8622856
20
-79.086124
11
49.0614534
21
-91.5180858
0
ARC
8
0
10
39.9521714
20
-75.139106
40
0.5
50
73
51
163
0
ARC
8
0
10
52.3841332
20
-78.9399382
40
0.5
50
343
51
73
0
ARC
8
0
10
36.1513392
20
-87.5710678
40
0.5
50
163
51
253
0
ARC
8
0
10
48.583301
20
-91.3719
40
0.5
50
253
51
343
0
LINE
8
0
10
61.4965898
20
-82.4147821
11
72.75492
21
-88.9147821
0
LINE
8
0
10
54.4965898
20
-94.5391377
11
65.75492
21
-101.0391377
0
LINE
8
0
10
60.8135771
20
-82.5977948
11
54.3135771
21
-93.856125
0
LINE
8
0
10
72.9379327
20
-89.5977948
11
66.4379327
21
-100.856125
0
ARC
8
0
10
61.2465898
20
-82.8477948
40
0.5
50
60
51
150
0
ARC
8
0
10
72.50492
20
-89.3477948
40
0.5
50
330
51
60
0
ARC
8
0
10
54.7465898
20
-94.106125
40
0.5
50
150
51
240
0
ARC
8
0
10
66.00492
20
-100.606125
40
0.5
50
240
51
330
0
LINE
8
0
10
77.9943737
20
-91.9397821
11
89.2527039
21
-98.4397821
0
LINE
8
0
10
70.9943737
20
-104.0641377
11
82.2527039
21
-110.5641377
0
LINE
8
0
10
77.311361
20
-92.1227948
11
70.811361
21
-103.381125
0
LINE
8
0
10
89.4357166
20
-99.1227948
11
82.9357166
21
-110.381125
0
ARC
8
0
10
77.7443737
20
-92.3727948
40
0.5
50
60
51
150
0
ARC
8
0
10
89.0027039
20
-98.8727948
40
0.5
50
330
51
60
0
ARC
8
0
10
71.2443737
20
-103.631125
40
0.5
50
150
51
240
0
ARC
8
0
10
82.5027039
20
-110.131125
40
0.5
50
240
51
330
0
LINE
8
0
10
94.4921577
20
-101.4647821
11
105.7504879
21
-107.9647821
0
LINE
8
0
10
87.4921577
20
-113.5891377
11
98.7504879
21
-120.0891377
0
LINE
8
0
10
93.809145
20
-101.6477948
11
87.309145
21
-112.906125
0
LINE
8
0
10
105.9335006
20
-108.6477948
11
99.4335006
21
-119.906125
0
ARC
8
0
10
94.2421577
20
-101.8977948
40
0.5
50
60
51
150
0
ARC
8
0
10
105.5004879
20
-108.3977948
40
0.5
50
330
51
60
0
ARC
8
0
10
87.7421577
20
-113.156125
40
0.5
50
150
51
240
0
ARC
8
0
10
99.0004879
20
-119.656125
40
0.5
50
240
51
330
0
LINE
8
0
10
-1.692475
20
-120.3019599
11
106.9369903
21
-120.3019599
0
LINE
8
0
10
-1.692475
20
-13.5080052
11
106.9369903
21
-13.5080052
0
LINE
8
0
10
-1.692475
20
-120.3019599
11
-1.692475
21
-13.5080052
0
LINE
8
0
10
106.9369903
20
-120.3019599
11
106.9369903
21
-13.5080052
0
ENDSEC
0
EOF