  0
SECTION
  2
HEADER
  9
$ACADVER
  1
AC1014
  9
$HANDSEED
  5
FFFF
  9
$INSUNITS
 70
     4
  9
$MEASUREMENT
 70
     1
  0
ENDSEC
  0
SECTION
  2
TABLES
  0
TABLE
  2
VPORT
  5
8
330
0
100
AcDbSymbolTable
 70
     4
  0
VPORT
  5
2E
330
8
100
AcDbSymbolTableRecord
100
AcDbViewportTableRecord
  2
*ACTIVE
 70
     0
 10
0.0
 20
0.0
 11
1.0
 21
1.0
 12
210.0
 22
148.5
 13
0.0
 23
0.0
 14
10.0
 24
10.0
 15
10.0
 25
10.0
 16
0.0
 26
0.0
 36
1.0
 17
0.0
 27
0.0
 37
0.0
 40
341.0
 41
1.24
 42
50.0
 43
0.0
 44
0.0
 50
0.0
 51
0.0
 71
     0
 72
   100
 73
     1
 74
     3
 75
     0
 76
     0
 77
     0
 78
     0
  0
ENDTAB
  0
TABLE
  2
LTYPE
  5
5
330
0
100
AcDbSymbolTable
 70
     1
  0
LTYPE
  5
14
330
5
100
AcDbSymbolTableRecord
100
AcDbLinetypeTableRecord
  2
BYBLOCK
 70
     0
  3

 72
    65
 73
     0
 40
0.0
  0
LTYPE
  5
15
330
5
100
AcDbSymbolTableRecord
100
AcDbLinetypeTableRecord
  2
BYLAYER
 70
     0
  3

 72
    65
 73
     0
 40
0.0
  0
LTYPE
  5
16
330
5
100
AcDbSymbolTableRecord
100
AcDbLinetypeTableRecord
  2
CONTINUOUS
 70
     0
  3
Solid line
 72
    65
 73
     0
 40
0.0
  0
ENDTAB
  0
TABLE
  2
LAYER
  5
2
100
AcDbSymbolTable
 70
1
  0
LAYER
  5
50
100
AcDbSymbolTableRecord
100
AcDbLayerTableRecord
  2
0
 70
0
  6
CONTINUOUS
  0
ENDTAB
  0
TABLE
  2
STYLE
  5
3
330
0
100
AcDbSymbolTable
 70
     1
  0
STYLE
  5
11
330
3
100
AcDbSymbolTableRecord
100
AcDbTextStyleTableRecord
  2
STANDARD
 70
     0
 40
0.0
 41
1.0
 50
0.0
 71
     0
 42
2.5
  3
txt
  4

  0
ENDTAB
  0
TABLE
  2
VIEW
  5
6
330
0
100
AcDbSymbolTable
 70
     0
  0
ENDTAB
  0
TABLE
  2
UCS
  5
7
330
0
100
AcDbSymbolTable
 70
     0
  0
ENDTAB
  0
TABLE
  2
APPID
  5
9
330
0
100
AcDbSymbolTable
 70
     2
  0
APPID
  5
12
330
9
100
AcDbSymbolTableRecord
100
AcDbRegAppTableRecord
  2
ACAD
 70
     0
  0
ENDTAB
  0
TABLE
  2
DIMSTYLE
  5
A
330
0
100
AcDbSymbolTable
 70
     1
  0
DIMSTYLE
105
27
330
A
100
AcDbSymbolTableRecord
100
AcDbDimStyleTableRecord
  2
ISO-25
 70
     0
  3

  4

  5

  6

  7

 40
1.0
 41
2.5
 42
0.625
 43
3.75
 44
1.25
 45
0.0
 46
0.0
 47
0.0
 48
0.0
140
2.5
141
2.5
142
0.0
143
0.03937007874016
144
1.0
145
0.0
146
1.0
147
0.625
 71
     0
 72
     0
 73
     0
 74
     0
 75
     0
 76
     0
 77
     1
 78
     8
170
     0
171
     3
172
     1
173
     0
174
     0
175
     0
176
     0
177
     0
178
     0
270
     2
271
     2
272
     2
273
     2
274
     3
340
11
275
     0
280
     0
281
     0
282
     0
283
     0
284
     8
285
     0
286
     0
287
     3
288
     0
  0
ENDTAB
  0
TABLE
  2
BLOCK_RECORD
  5
1
330
0
100
AcDbSymbolTable
 70
     1
  0
BLOCK_RECORD
  5
1F
330
1
100
AcDbSymbolTableRecord
100
AcDbBlockTableRecord
  2
*MODEL_SPACE
  0
BLOCK_RECORD
  5
1B
330
1
100
AcDbSymbolTableRecord
100
AcDbBlockTableRecord
  2
*PAPER_SPACE
  0
ENDTAB
  0
ENDSEC
  0
SECTION
  2
BLOCKS
  0
BLOCK
  5
20
330
1F
100
AcDbEntity
  8
0
100
AcDbBlockBegin
  2
*MODEL_SPACE
 70
     0
 10
0.0
 20
0.0
 30
0.0
  3
*MODEL_SPACE
  1

  0
ENDBLK
  5
21
330
1F
100
AcDbEntity
  8
0
100
AcDbBlockEnd
  0
BLOCK
  5
1C
330
1B
100
AcDbEntity
 67
     1
  8
0
100
AcDbBlockBegin
  2
*PAPER_SPACE
  1

  0
ENDBLK
  5
1D
330
1B
100
AcDbEntity
 67
     1
  8
0
100
AcDbBlockEnd
  0
ENDSEC
  0
SECTION
  2
ENTITIES
  0
LWPOLYLINE
  5
100
100
AcDbEntity
  8
0
 62
7
100
AcDbPolyline
 90
145
 70
1
 10
98.537260
 20
152.728653
 30
0.0
 10
99.593813
 20
149.246155
 30
0.0
 10
100.882940
 20
144.997040
 30
0.0
 10
101.071760
 20
144.374653
 30
0.0
 10
102.137940
 20
140.860874
 30
0.0
 10
102.514060
 20
139.621332
 30
0.0
 10
103.031760
 20
137.915153
 30
0.0
 10
103.142040
 20
137.551712
 30
0.0
 10
104.564970
 20
132.862154
 30
0.0
 10
105.777760
 20
128.865153
 30
0.0
 10
106.028350
 20
128.039287
 30
0.0
 10
107.494490
 20
123.207196
 30
0.0
 10
107.662400
 20
122.653796
 30
0.0
 10
108.042920
 20
121.399695
 30
0.0
 10
108.655900
 20
119.379437
 30
0.0
 10
108.808760
 20
118.875653
 30
0.0
 10
109.536120
 20
116.478153
 30
0.0
 10
111.558990
 20
109.810482
 30
0.0
 10
111.628290
 20
109.582153
 30
0.0
 10
111.365290
 20
108.303152
 30
0.0
 10
110.618290
 20
107.232152
 30
0.0
 10
109.509290
 20
106.543152
 30
0.0
 10
102.129290
 20
103.318653
 30
0.0
 10
97.432294
 20
101.266526
 30
0.0
 10
95.700826
 20
100.510046
 30
0.0
 10
94.748914
 20
100.094152
 30
0.0
 10
89.387296
 20
97.751653
 30
0.0
 10
73.419301
 20
90.774996
 30
0.0
 10
70.001912
 20
89.281887
 30
0.0
 10
66.255795
 20
87.645153
 30
0.0
 10
64.664296
 20
86.949827
 30
0.0
 10
61.910714
 20
85.746788
 30
0.0
 10
58.504048
 20
84.258415
 30
0.0
 10
57.249162
 20
83.710151
 30
0.0
 10
39.691262
 20
76.039104
 30
0.0
 10
37.138234
 20
74.923687
 30
0.0
 10
33.140813
 20
73.177223
 30
0.0
 10
32.337263
 20
72.826153
 30
0.0
 10
31.896265
 20
72.633484
 30
0.0
 10
15.512264
 20
65.475387
 30
0.0
 10
7.320264
 20
61.896339
 30
0.0
 10
1.428263
 20
59.322155
 30
0.0
 10
-0.871737
 20
58.829704
 30
0.0
 10
-0.995737
 20
58.803154
 30
0.0
 10
-3.171737
 20
59.322155
 30
0.0
 10
-6.271134
 20
60.676285
 30
0.0
 10
-9.063737
 20
61.896377
 30
0.0
 10
-12.205631
 20
63.269077
 30
0.0
 10
-12.789999
 20
63.524387
 30
0.0
 10
-14.193449
 20
64.137558
 30
0.0
 10
-16.925314
 20
65.331115
 30
0.0
 10
-17.255738
 20
65.475475
 30
0.0
 10
-25.115622
 20
68.909473
 30
0.0
 10
-29.771912
 20
70.943813
 30
0.0
 10
-30.757767
 20
71.374538
 30
0.0
 10
-33.187323
 20
72.436012
 30
0.0
 10
-33.639739
 20
72.633674
 30
0.0
 10
-33.988738
 20
72.786152
 30
0.0
 10
-58.992098
 20
83.710151
 30
0.0
 10
-66.407740
 20
86.950056
 30
0.0
 10
-66.453740
 20
86.970156
 30
0.0
 10
-83.638735
 20
94.478153
 30
0.0
 10
-86.939250
 20
95.920299
 30
0.0
 10
-89.677233
 20
97.116653
 30
0.0
 10
-96.492411
 20
100.094152
 30
0.0
 10
-97.444285
 20
100.510019
 30
0.0
 10
-98.799983
 20
101.102314
 30
0.0
 10
-99.175738
 20
101.266477
 30
0.0
 10
-105.214240
 20
103.904653
 30
0.0
 10
-111.252740
 20
106.543152
 30
0.0
 10
-111.696960
 20
106.801336
 30
0.0
 10
-112.391740
 20
107.205153
 30
0.0
 10
-113.144740
 20
108.285153
 30
0.0
 10
-113.371740
 20
109.582153
 30
0.0
 10
-111.279640
 20
116.478153
 30
0.0
 10
-110.974740
 20
117.483153
 30
0.0
 10
-109.237940
 20
123.207188
 30
0.0
 10
-107.862240
 20
127.741153
 30
0.0
 10
-107.771740
 20
128.039274
 30
0.0
 10
-106.308310
 20
132.862154
 30
0.0
 10
-105.463700
 20
135.645653
 30
0.0
 10
-103.651040
 20
141.620512
 30
0.0
 10
-103.010700
 20
143.731153
 30
0.0
 10
-101.337290
 20
149.246155
 30
0.0
 10
-101.050700
 20
150.190655
 30
0.0
 10
-99.175698
 20
156.370254
 30
0.0
 10
-98.851677
 20
157.438152
 30
0.0
 10
-98.320694
 20
159.188152
 30
0.0
 10
-97.130700
 20
161.506153
 30
0.0
 10
-95.207696
 20
163.266151
 30
0.0
 10
-92.533318
 20
164.688087
 30
0.0
 10
-90.983697
 20
165.512005
 30
0.0
 10
-90.761483
 20
165.630153
 30
0.0
 10
-82.791695
 20
169.867592
 30
0.0
 10
-76.802498
 20
173.051979
 30
0.0
 10
-75.878701
 20
173.543152
 30
0.0
 10
-73.344697
 20
174.153152
 30
0.0
 10
-70.756699
 20
173.844154
 30
0.0
 10
-66.407700
 20
172.514671
 30
0.0
 10
-64.062195
 20
171.797653
 30
0.0
 10
-55.810696
 20
169.274654
 30
0.0
 10
-50.023697
 20
167.505249
 30
0.0
 10
-49.783925
 20
167.431939
 30
0.0
 10
-46.401196
 20
166.397652
 30
0.0
 10
-43.638077
 20
165.552991
 30
0.0
 10
-36.808198
 20
163.465154
 30
0.0
 10
-33.639699
 20
162.496434
 30
0.0
 10
-26.161698
 20
160.210152
 30
0.0
 10
-19.177197
 20
158.074654
 30
0.0
 10
-17.255698
 20
157.487202
 30
0.0
 10
-15.777981
 20
157.035424
 30
0.0
 10
-12.349197
 20
155.987153
 30
0.0
 10
-3.286697
 20
153.216153
 30
0.0
 10
-3.284377
 20
153.215798
 30
0.0
 10
-0.871737
 20
152.847152
 30
0.0
 10
1.543263
 20
153.216152
 30
0.0
 10
10.536763
 20
155.965652
 30
0.0
 10
12.985631
 20
156.714390
 30
0.0
 10
15.512264
 20
157.486904
 30
0.0
 10
17.521263
 20
158.101154
 30
0.0
 10
31.896265
 20
162.496067
 30
0.0
 10
35.111764
 20
163.479152
 30
0.0
 10
44.289762
 20
166.285152
 30
0.0
 10
48.280263
 20
167.505218
 30
0.0
 10
51.707761
 20
168.553154
 30
0.0
 10
56.686479
 20
170.075302
 30
0.0
 10
57.945104
 20
170.460106
 30
0.0
 10
60.054296
 20
171.104950
 30
0.0
 10
60.867761
 20
171.353653
 30
0.0
 10
64.664266
 20
172.514438
 30
0.0
 10
69.013265
 20
173.844154
 30
0.0
 10
69.014143
 20
173.844257
 30
0.0
 10
71.601263
 20
174.153152
 30
0.0
 10
72.856260
 20
173.851043
 30
0.0
 10
74.135267
 20
173.543152
 30
0.0
 10
81.048261
 20
169.867592
 30
0.0
 10
89.018049
 20
165.630153
 30
0.0
 10
89.240263
 20
165.512005
 30
0.0
 10
92.540296
 20
163.757416
 30
0.0
 10
93.464262
 20
163.266151
 30
0.0
 10
95.387266
 20
161.506153
 30
0.0
 10
96.576414
 20
159.189804
 30
0.0
 10
96.577260
 20
159.188104
 30
0.0
 10
97.108266
 20
157.438104
 30
0.0
 10
97.432264
 20
156.370313
 30
0.0
  0
LWPOLYLINE
  5
101
100
AcDbEntity
  8
0
 62
7
100
AcDbPolyline
 90
30
 70
1
 10
81.106260
 20
154.980104
 30
0.0
 10
81.048260
 20
154.948904
 30
0.0
 10
80.935261
 20
154.888104
 30
0.0
 10
80.811261
 20
154.737103
 30
0.0
 10
80.755261
 20
154.550103
 30
0.0
 10
80.775261
 20
154.356102
 30
0.0
 10
80.956246
 20
153.763985
 30
0.0
 10
81.048256
 20
153.462963
 30
0.0
 10
82.337197
 20
149.246106
 30
0.0
 10
84.575257
 20
141.924103
 30
0.0
 10
84.668257
 20
141.752104
 30
0.0
 10
84.819258
 20
141.629103
 30
0.0
 10
85.006254
 20
141.573103
 30
0.0
 10
85.200255
 20
141.592103
 30
0.0
 10
97.432257
 20
145.331954
 30
0.0
 10
97.632254
 20
145.393104
 30
0.0
 10
97.804259
 20
145.485104
 30
0.0
 10
97.927260
 20
145.636105
 30
0.0
 10
97.983260
 20
145.823103
 30
0.0
 10
97.964260
 20
146.017104
 30
0.0
 10
97.432262
 20
147.757126
 30
0.0
 10
96.977016
 20
149.246106
 30
0.0
 10
94.472370
 20
157.438103
 30
0.0
 10
94.163265
 20
158.449105
 30
0.0
 10
94.070265
 20
158.621106
 30
0.0
 10
93.919264
 20
158.745102
 30
0.0
 10
93.733267
 20
158.801102
 30
0.0
 10
93.538268
 20
158.781102
 30
0.0
 10
89.240264
 20
157.467015
 30
0.0
 10
89.145694
 20
157.438105
 30
0.0
  0
LWPOLYLINE
  5
102
100
AcDbEntity
  8
0
 62
7
100
AcDbPolyline
 90
30
 70
1
 10
72.047323
 20
165.630153
 30
0.0
 10
70.376264
 20
171.097152
 30
0.0
 10
70.283264
 20
171.269153
 30
0.0
 10
70.132263
 20
171.393154
 30
0.0
 10
69.945266
 20
171.449154
 30
0.0
 10
69.751266
 20
171.429154
 30
0.0
 10
64.664268
 20
169.873837
 30
0.0
 10
57.319267
 20
167.628156
 30
0.0
 10
57.147266
 20
167.536156
 30
0.0
 10
57.024265
 20
167.385158
 30
0.0
 10
56.968265
 20
167.198158
 30
0.0
 10
56.987265
 20
167.004158
 30
0.0
 10
57.407355
 20
165.630157
 30
0.0
 10
59.912005
 20
157.438156
 30
0.0
 10
60.788264
 20
154.572159
 30
0.0
 10
60.880264
 20
154.400158
 30
0.0
 10
61.032264
 20
154.277157
 30
0.0
 10
61.218265
 20
154.221157
 30
0.0
 10
61.412265
 20
154.240157
 30
0.0
 10
64.664268
 20
155.234431
 30
0.0
 10
71.872024
 20
157.438155
 30
0.0
 10
72.856262
 20
157.739081
 30
0.0
 10
73.844268
 20
158.041156
 30
0.0
 10
74.016265
 20
158.133156
 30
0.0
 10
74.140266
 20
158.284157
 30
0.0
 10
74.196266
 20
158.471157
 30
0.0
 10
74.176266
 20
158.665157
 30
0.0
 10
73.565731
 20
160.662586
 30
0.0
 10
73.299314
 20
161.534153
 30
0.0
 10
72.856260
 20
162.983639
 30
0.0
  0
LWPOLYLINE
  5
103
100
AcDbEntity
  8
0
 62
7
100
AcDbPolyline
 90
24
 70
1
 10
75.321264
 20
153.212154
 30
0.0
 10
64.664266
 20
149.953846
 30
0.0
 10
62.889265
 20
149.411152
 30
0.0
 10
62.717264
 20
149.318152
 30
0.0
 10
62.658614
 20
149.246152
 30
0.0
 10
62.594264
 20
149.167152
 30
0.0
 10
62.537264
 20
148.981151
 30
0.0
 10
62.557264
 20
148.786152
 30
0.0
 10
64.664266
 20
141.894750
 30
0.0
 10
66.358266
 20
136.354152
 30
0.0
 10
66.450266
 20
136.183153
 30
0.0
 10
66.601267
 20
136.059152
 30
0.0
 10
66.788271
 20
136.003152
 30
0.0
 10
66.982263
 20
136.022152
 30
0.0
 10
79.414270
 20
139.823150
 30
0.0
 10
79.586267
 20
139.916150
 30
0.0
 10
79.709268
 20
140.067151
 30
0.0
 10
79.766268
 20
140.254149
 30
0.0
 10
79.746268
 20
140.448149
 30
0.0
 10
77.056342
 20
149.246152
 30
0.0
 10
75.945273
 20
152.880150
 30
0.0
 10
75.853273
 20
153.051152
 30
0.0
 10
75.702272
 20
153.175149
 30
0.0
 10
75.515276
 20
153.231149
 30
0.0
  0
LWPOLYLINE
  5
104
100
AcDbEntity
  8
0
 62
7
100
AcDbPolyline
 90
27
 70
1
 10
87.267481
 20
133.119601
 30
0.0
 10
87.346191
 20
132.862149
 30
0.0
 10
89.850845
 20
124.670148
 30
0.0
 10
90.145271
 20
123.707148
 30
0.0
 10
90.237271
 20
123.535148
 30
0.0
 10
90.388272
 20
123.411148
 30
0.0
 10
90.575269
 20
123.355148
 30
0.0
 10
90.769269
 20
123.375148
 30
0.0
 10
95.005963
 20
124.670148
 30
0.0
 10
97.432271
 20
125.411779
 30
0.0
 10
103.201270
 20
127.175148
 30
0.0
 10
103.373270
 20
127.268148
 30
0.0
 10
103.497270
 20
127.419148
 30
0.0
 10
103.553270
 20
127.606148
 30
0.0
 10
103.533270
 20
127.800148
 30
0.0
 10
101.985600
 20
132.862149
 30
0.0
 10
99.732270
 20
140.232148
 30
0.0
 10
99.640270
 20
140.404149
 30
0.0
 10
99.489270
 20
140.527148
 30
0.0
 10
99.302270
 20
140.583148
 30
0.0
 10
99.108273
 20
140.564148
 30
0.0
 10
97.432271
 20
140.051722
 30
0.0
 10
86.676267
 20
136.763148
 30
0.0
 10
86.504269
 20
136.671148
 30
0.0
 10
86.381268
 20
136.519147
 30
0.0
 10
86.325268
 20
136.333147
 30
0.0
 10
86.344268
 20
136.139146
 30
0.0
  0
LWPOLYLINE
  5
105
100
AcDbEntity
  8
0
 62
7
100
AcDbPolyline
 90
24
 70
1
 10
91.914266
 20
117.921153
 30
0.0
 10
92.355451
 20
116.478153
 30
0.0
 10
95.715261
 20
105.489153
 30
0.0
 10
95.807261
 20
105.317153
 30
0.0
 10
95.958262
 20
105.194153
 30
0.0
 10
96.145258
 20
105.137153
 30
0.0
 10
96.339259
 20
105.157153
 30
0.0
 10
97.432261
 20
105.491330
 30
0.0
 10
108.771260
 20
108.958153
 30
0.0
 10
108.943260
 20
109.050153
 30
0.0
 10
109.066260
 20
109.201153
 30
0.0
 10
109.123260
 20
109.388152
 30
0.0
 10
109.103260
 20
109.582153
 30
0.0
 10
106.994850
 20
116.478153
 30
0.0
 10
105.302260
 20
122.014152
 30
0.0
 10
105.210260
 20
122.186153
 30
0.0
 10
105.059260
 20
122.309153
 30
0.0
 10
104.872260
 20
122.366153
 30
0.0
 10
104.678260
 20
122.346153
 30
0.0
 10
97.432264
 20
120.130737
 30
0.0
 10
92.246259
 20
118.545152
 30
0.0
 10
92.074262
 20
118.453152
 30
0.0
 10
91.951261
 20
118.302152
 30
0.0
 10
91.894261
 20
118.115152
 30
0.0
  0
LWPOLYLINE
  5
106
100
AcDbEntity
  8
0
 62
7
100
AcDbPolyline
 90
28
 70
1
 10
85.868146
 20
116.595164
 30
0.0
 10
85.485334
 20
116.478153
 30
0.0
 10
81.048261
 20
115.121906
 30
0.0
 10
74.028265
 20
112.976153
 30
0.0
 10
73.856260
 20
112.883153
 30
0.0
 10
73.733266
 20
112.732152
 30
0.0
 10
73.677266
 20
112.545152
 30
0.0
 10
73.696266
 20
112.351153
 30
0.0
 10
74.939109
 20
108.286152
 30
0.0
 10
77.443763
 20
100.094152
 30
0.0
 10
77.497273
 20
99.919153
 30
0.0
 10
77.589273
 20
99.747152
 30
0.0
 10
77.741273
 20
99.624153
 30
0.0
 10
77.927278
 20
99.568153
 30
0.0
 10
78.121270
 20
99.587153
 30
0.0
 10
79.779527
 20
100.094153
 30
0.0
 10
81.048272
 20
100.482064
 30
0.0
 10
90.553277
 20
103.388154
 30
0.0
 10
90.725274
 20
103.480154
 30
0.0
 10
90.849275
 20
103.632154
 30
0.0
 10
90.905275
 20
103.818154
 30
0.0
 10
90.885275
 20
104.012154
 30
0.0
 10
87.085264
 20
116.444153
 30
0.0
 10
87.066874
 20
116.478153
 30
0.0
 10
86.992254
 20
116.616153
 30
0.0
 10
86.841253
 20
116.740153
 30
0.0
 10
86.654257
 20
116.796153
 30
0.0
 10
86.460257
 20
116.776153
 30
0.0
  0
LWPOLYLINE
  5
107
100
AcDbEntity
  8
0
 62
7
100
AcDbPolyline
 90
25
 70
1
 10
68.287260
 20
131.101153
 30
0.0
 10
68.163267
 20
130.950153
 30
0.0
 10
68.107257
 20
130.763153
 30
0.0
 10
68.127267
 20
130.569153
 30
0.0
 10
71.927270
 20
118.137153
 30
0.0
 10
72.020260
 20
117.965153
 30
0.0
 10
72.171261
 20
117.842153
 30
0.0
 10
72.358265
 20
117.785153
 30
0.0
 10
72.552266
 20
117.805153
 30
0.0
 10
81.048260
 20
120.402747
 30
0.0
 10
84.984265
 20
121.606152
 30
0.0
 10
85.156262
 20
121.698152
 30
0.0
 10
85.279263
 20
121.849153
 30
0.0
 10
85.335263
 20
122.036153
 30
0.0
 10
85.316263
 20
122.230153
 30
0.0
 10
84.570245
 20
124.670153
 30
0.0
 10
82.065599
 20
132.862154
 30
0.0
 10
81.515260
 20
134.662153
 30
0.0
 10
81.423260
 20
134.834154
 30
0.0
 10
81.271260
 20
134.957153
 30
0.0
 10
81.085263
 20
135.014153
 30
0.0
 10
81.048263
 20
135.010353
 30
0.0
 10
80.891265
 20
134.994163
 30
0.0
 10
73.918090
 20
132.862163
 30
0.0
 10
68.459266
 20
131.193162
 30
0.0
  0
LWPOLYLINE
  5
108
100
AcDbEntity
  8
0
 62
7
100
AcDbPolyline
 90
29
 70
1
 10
50.782001
 20
165.630162
 30
0.0
 10
48.280265
 20
164.865274
 30
0.0
 10
39.102264
 20
162.059163
 30
0.0
 10
38.930263
 20
161.966163
 30
0.0
 10
38.806266
 20
161.815166
 30
0.0
 10
38.750266
 20
161.628166
 30
0.0
 10
38.770266
 20
161.434165
 30
0.0
 10
42.495684
 20
149.246166
 30
0.0
 10
42.570264
 20
149.002162
 30
0.0
 10
42.663264
 20
148.831165
 30
0.0
 10
42.814265
 20
148.707164
 30
0.0
 10
43.001265
 20
148.651164
 30
0.0
 10
43.195265
 20
148.670164
 30
0.0
 10
45.079199
 20
149.246165
 30
0.0
 10
48.280264
 20
150.224867
 30
0.0
 10
55.627265
 20
152.471163
 30
0.0
 10
55.799265
 20
152.564163
 30
0.0
 10
55.922263
 20
152.715164
 30
0.0
 10
55.978263
 20
152.901164
 30
0.0
 10
55.959263
 20
153.096164
 30
0.0
 10
55.778199
 20
153.688373
 30
0.0
 10
55.047249
 20
156.079105
 30
0.0
 10
54.631726
 20
157.438163
 30
0.0
 10
52.158261
 20
165.528163
 30
0.0
 10
52.103391
 20
165.630164
 30
0.0
 10
52.066271
 20
165.699164
 30
0.0
 10
51.915270
 20
165.823164
 30
0.0
 10
51.728269
 20
165.879164
 30
0.0
 10
51.534269
 20
165.860164
 30
0.0
  0
LWPOLYLINE
  5
109
100
AcDbEntity
  8
0
 62
7
100
AcDbPolyline
 90
25
 70
1
 10
33.848272
 20
160.130164
 30
0.0
 10
33.697271
 20
160.253166
 30
0.0
 10
33.510271
 20
160.309166
 30
0.0
 10
33.316416
 20
160.290176
 30
0.0
 10
33.316271
 20
160.290160
 30
0.0
 10
31.896273
 20
159.856006
 30
0.0
 10
20.884272
 20
156.489162
 30
0.0
 10
20.712271
 20
156.397162
 30
0.0
 10
20.589271
 20
156.246165
 30
0.0
 10
20.532271
 20
156.059164
 30
0.0
 10
20.552271
 20
155.865164
 30
0.0
 10
22.575985
 20
149.246165
 30
0.0
 10
24.353271
 20
143.433163
 30
0.0
 10
24.445271
 20
143.261164
 30
0.0
 10
24.596272
 20
143.137163
 30
0.0
 10
24.783273
 20
143.081163
 30
0.0
 10
24.977273
 20
143.101163
 30
0.0
 10
31.896274
 20
145.216602
 30
0.0
 10
37.409270
 20
146.902164
 30
0.0
 10
37.581271
 20
146.994164
 30
0.0
 10
37.704272
 20
147.145163
 30
0.0
 10
37.761272
 20
147.332163
 30
0.0
 10
37.741272
 20
147.526163
 30
0.0
 10
37.215383
 20
149.246155
 30
0.0
 10
33.940263
 20
159.958153
 30
0.0
  0
LWPOLYLINE
  5
10a
100
AcDbEntity
  8
0
 62
7
100
AcDbPolyline
 90
25
 70
1
 10
61.196263
 20
134.254152
 30
0.0
 10
61.368264
 20
134.346152
 30
0.0
 10
61.492260
 20
134.497151
 30
0.0
 10
61.548260
 20
134.684151
 30
0.0
 10
61.528260
 20
134.878152
 30
0.0
 10
57.728256
 20
147.310153
 30
0.0
 10
57.635256
 20
147.482152
 30
0.0
 10
57.484255
 20
147.605153
 30
0.0
 10
57.297255
 20
147.661153
 30
0.0
 10
57.103254
 20
147.642153
 30
0.0
 10
48.280256
 20
144.944580
 30
0.0
 10
44.671255
 20
143.841154
 30
0.0
 10
44.499254
 20
143.749154
 30
0.0
 10
44.376257
 20
143.598155
 30
0.0
 10
44.320257
 20
143.411155
 30
0.0
 10
44.339257
 20
143.217154
 30
0.0
 10
45.000580
 20
141.054154
 30
0.0
 10
47.505230
 20
132.862155
 30
0.0
 10
48.140259
 20
130.785154
 30
0.0
 10
48.233259
 20
130.613154
 30
0.0
 10
48.280259
 20
130.574554
 30
0.0
 10
48.384260
 20
130.489154
 30
0.0
 10
48.570260
 20
130.433154
 30
0.0
 10
48.764261
 20
130.453154
 30
0.0
 10
56.643419
 20
132.862155
 30
0.0
  0
LWPOLYLINE
  5
10b
100
AcDbEntity
  8
0
 62
7
100
AcDbPolyline
 90
26
 70
1
 10
35.556673
 20
141.054153
 30
0.0
 10
31.896265
 20
139.935007
 30
0.0
 10
26.454263
 20
138.271152
 30
0.0
 10
26.282262
 20
138.179152
 30
0.0
 10
26.158264
 20
138.028151
 30
0.0
 10
26.102264
 20
137.841153
 30
0.0
 10
26.122264
 20
137.647153
 30
0.0
 10
27.585247
 20
132.862153
 30
0.0
 10
29.923265
 20
125.215152
 30
0.0
 10
30.015265
 20
125.043151
 30
0.0
 10
30.166266
 20
124.920152
 30
0.0
 10
30.353266
 20
124.864151
 30
0.0
 10
30.547267
 20
124.883151
 30
0.0
 10
31.896268
 20
125.295599
 30
0.0
 10
42.979268
 20
128.684151
 30
0.0
 10
43.151265
 20
128.776151
 30
0.0
 10
43.274266
 20
128.927151
 30
0.0
 10
43.330266
 20
129.114151
 30
0.0
 10
43.311266
 20
129.308151
 30
0.0
 10
42.224657
 20
132.862152
 30
0.0
 10
39.720007
 20
141.054151
 30
0.0
 10
39.510267
 20
141.740150
 30
0.0
 10
39.418267
 20
141.912151
 30
0.0
 10
39.267266
 20
142.036152
 30
0.0
 10
39.080266
 20
142.092152
 30
0.0
 10
38.886265
 20
142.072152
 30
0.0
  0
LWPOLYLINE
  5
10c
100
AcDbEntity
  8
0
 62
7
100
AcDbPolyline
 90
24
 70
1
 10
50.069268
 20
125.531153
 30
0.0
 10
49.946267
 20
125.380153
 30
0.0
 10
49.889267
 20
125.193153
 30
0.0
 10
49.909267
 20
124.999152
 30
0.0
 10
52.514501
 20
116.478153
 30
0.0
 10
53.710264
 20
112.567153
 30
0.0
 10
53.802264
 20
112.395153
 30
0.0
 10
53.953265
 20
112.272153
 30
0.0
 10
54.140265
 20
112.216153
 30
0.0
 10
54.334265
 20
112.235153
 30
0.0
 10
64.664266
 20
115.393480
 30
0.0
 10
66.766263
 20
116.036153
 30
0.0
 10
66.938261
 20
116.128153
 30
0.0
 10
67.061262
 20
116.279153
 30
0.0
 10
67.118262
 20
116.466153
 30
0.0
 10
67.117062
 20
116.478153
 30
0.0
 10
67.098302
 20
116.660153
 30
0.0
 10
64.664304
 20
124.621081
 30
0.0
 10
63.297300
 20
129.092153
 30
0.0
 10
63.205300
 20
129.264153
 30
0.0
 10
63.054296
 20
129.388153
 30
0.0
 10
62.867295
 20
129.444153
 30
0.0
 10
62.673295
 20
129.424153
 30
0.0
 10
50.241296
 20
125.623153
 30
0.0
  0
LWPOLYLINE
  5
10d
100
AcDbEntity
  8
0
 62
7
100
AcDbPolyline
 90
28
 70
1
 10
31.896299
 20
118.758655
 30
0.0
 10
32.593549
 20
116.478152
 30
0.0
 10
35.492299
 20
106.997153
 30
0.0
 10
35.585299
 20
106.826152
 30
0.0
 10
35.736300
 20
106.702153
 30
0.0
 10
35.922297
 20
106.646153
 30
0.0
 10
36.117296
 20
106.666153
 30
0.0
 10
44.149107
 20
109.121178
 30
0.0
 10
48.280298
 20
110.383929
 30
0.0
 10
48.549299
 20
110.466152
 30
0.0
 10
48.720297
 20
110.559152
 30
0.0
 10
48.844298
 20
110.710152
 30
0.0
 10
48.900298
 20
110.897153
 30
0.0
 10
48.881298
 20
111.091152
 30
0.0
 10
48.700239
 20
111.683363
 30
0.0
 10
48.280301
 20
113.056854
 30
0.0
 10
47.234262
 20
116.478152
 30
0.0
 10
45.080301
 20
123.523153
 30
0.0
 10
44.987301
 20
123.695153
 30
0.0
 10
44.836300
 20
123.818153
 30
0.0
 10
44.649300
 20
123.874153
 30
0.0
 10
44.455300
 20
123.855153
 30
0.0
 10
32.023300
 20
120.054153
 30
0.0
 10
31.896302
 20
119.985083
 30
0.0
 10
31.852302
 20
119.961153
 30
0.0
 10
31.728301
 20
119.810153
 30
0.0
 10
31.672301
 20
119.624153
 30
0.0
 10
31.691301
 20
119.429153
 30
0.0
  0
LWPOLYLINE
  5
10e
100
AcDbEntity
  8
0
 62
7
100
AcDbPolyline
 90
26
 70
1
 10
15.292300
 20
154.740154
 30
0.0
 10
15.098300
 20
154.720154
 30
0.0
 10
2.666300
 20
150.919155
 30
0.0
 10
2.495300
 20
150.827155
 30
0.0
 10
2.371300
 20
150.676158
 30
0.0
 10
2.315300
 20
150.489158
 30
0.0
 10
2.334300
 20
150.295157
 30
0.0
 10
2.655025
 20
149.246158
 30
0.0
 10
6.135300
 20
137.863153
 30
0.0
 10
6.228300
 20
137.691152
 30
0.0
 10
6.379300
 20
137.568153
 30
0.0
 10
6.566300
 20
137.512153
 30
0.0
 10
6.760300
 20
137.531153
 30
0.0
 10
15.512301
 20
140.207019
 30
0.0
 10
18.283039
 20
141.054154
 30
0.0
 10
19.192299
 20
141.332154
 30
0.0
 10
19.193499
 20
141.332791
 30
0.0
 10
19.363314
 20
141.424151
 30
0.0
 10
19.487312
 20
141.575152
 30
0.0
 10
19.543312
 20
141.762152
 30
0.0
 10
19.524312
 20
141.956153
 30
0.0
 10
17.295443
 20
149.246154
 30
0.0
 10
15.723311
 20
154.388152
 30
0.0
 10
15.630311
 20
154.560153
 30
0.0
 10
15.512311
 20
154.656273
 30
0.0
 10
15.479311
 20
154.683153
 30
0.0
  0
LWPOLYLINE
  5
10f
100
AcDbEntity
  8
0
 62
7
100
AcDbPolyline
 90
24
 70
1
 10
23.704300
 20
117.510399
 30
0.0
 10
20.328112
 20
116.478152
 30
0.0
 10
13.806300
 20
114.484153
 30
0.0
 10
13.634300
 20
114.392152
 30
0.0
 10
13.510300
 20
114.241152
 30
0.0
 10
13.454300
 20
114.054153
 30
0.0
 10
13.474300
 20
113.860152
 30
0.0
 10
17.275299
 20
101.428153
 30
0.0
 10
17.367299
 20
101.256153
 30
0.0
 10
17.518298
 20
101.133153
 30
0.0
 10
17.705299
 20
101.076153
 30
0.0
 10
17.899299
 20
101.096153
 30
0.0
 10
30.331298
 20
104.897153
 30
0.0
 10
30.503299
 20
104.989153
 30
0.0
 10
30.626298
 20
105.140153
 30
0.0
 10
30.682298
 20
105.327153
 30
0.0
 10
30.663298
 20
105.521153
 30
0.0
 10
27.313269
 20
116.478152
 30
0.0
 10
27.047341
 20
117.347930
 30
0.0
 10
26.862297
 20
117.953153
 30
0.0
 10
26.770297
 20
118.125152
 30
0.0
 10
26.619296
 20
118.248153
 30
0.0
 10
26.432298
 20
118.304153
 30
0.0
 10
26.238298
 20
118.285152
 30
0.0
  0
LWPOLYLINE
  5
110
100
AcDbEntity
  8
0
 62
7
100
AcDbPolyline
 90
27
 70
1
 10
11.797297
 20
119.474153
 30
0.0
 10
11.948297
 20
119.350152
 30
0.0
 10
12.135297
 20
119.294152
 30
0.0
 10
12.329297
 20
119.313153
 30
0.0
 10
15.512298
 20
120.286333
 30
0.0
 10
23.704297
 20
122.790982
 30
0.0
 10
24.761296
 20
123.114153
 30
0.0
 10
24.933297
 20
123.207153
 30
0.0
 10
25.057298
 20
123.358153
 30
0.0
 10
25.113298
 20
123.545153
 30
0.0
 10
25.093298
 20
123.739153
 30
0.0
 10
24.808651
 20
124.670153
 30
0.0
 10
22.304003
 20
132.862154
 30
0.0
 10
21.292298
 20
136.171154
 30
0.0
 10
21.200298
 20
136.342153
 30
0.0
 10
21.049297
 20
136.466154
 30
0.0
 10
20.862296
 20
136.522154
 30
0.0
 10
20.673255
 20
136.503634
 30
0.0
 10
20.668255
 20
136.503148
 30
0.0
 10
15.512255
 20
134.926735
 30
0.0
 10
8.759569
 20
132.862149
 30
0.0
 10
8.236254
 20
132.702149
 30
0.0
 10
8.064254
 20
132.609149
 30
0.0
 10
7.941254
 20
132.458148
 30
0.0
 10
7.885254
 20
132.271148
 30
0.0
 10
7.904254
 20
132.077148
 30
0.0
 10
11.705254
 20
119.645148
 30
0.0
  0
LWPOLYLINE
  5
111
100
AcDbEntity
  8
0
 62
7
100
AcDbPolyline
 90
27
 70
1
 10
68.867252
 20
110.875147
 30
0.0
 10
68.775262
 20
111.047147
 30
0.0
 10
68.624261
 20
111.170148
 30
0.0
 10
68.437257
 20
111.226148
 30
0.0
 10
68.243257
 20
111.207148
 30
0.0
 10
67.678232
 20
111.034395
 30
0.0
 10
64.664262
 20
110.112893
 30
0.0
 10
58.689493
 20
108.286147
 30
0.0
 10
55.811258
 20
107.406148
 30
0.0
 10
55.639261
 20
107.314148
 30
0.0
 10
55.515260
 20
107.162148
 30
0.0
 10
55.459260
 20
106.976148
 30
0.0
 10
55.479260
 20
106.782147
 30
0.0
 10
57.524067
 20
100.094147
 30
0.0
 10
59.280258
 20
94.350148
 30
0.0
 10
59.372258
 20
94.178149
 30
0.0
 10
59.523259
 20
94.054148
 30
0.0
 10
59.710260
 20
93.998148
 30
0.0
 10
59.904260
 20
94.018148
 30
0.0
 10
64.664262
 20
95.473102
 30
0.0
 10
72.336297
 20
97.818153
 30
0.0
 10
72.508294
 20
97.911153
 30
0.0
 10
72.631295
 20
98.062152
 30
0.0
 10
72.687295
 20
98.249152
 30
0.0
 10
72.668295
 20
98.443152
 30
0.0
 10
72.163514
 20
100.094152
 30
0.0
 10
69.658868
 20
108.286152
 30
0.0
  0
LWPOLYLINE
  5
112
100
AcDbEntity
  8
0
 62
7
100
AcDbPolyline
 90
24
 70
1
 10
48.280297
 20
88.116682
 30
0.0
 10
53.844297
 20
91.329153
 30
0.0
 10
53.991296
 20
91.457153
 30
0.0
 10
54.077296
 20
91.632152
 30
0.0
 10
54.090296
 20
91.827154
 30
0.0
 10
54.027296
 20
92.012153
 30
0.0
 10
49.361017
 20
100.094152
 30
0.0
 10
48.280298
 20
101.965957
 30
0.0
 10
47.527296
 20
103.270153
 30
0.0
 10
47.399298
 20
103.417153
 30
0.0
 10
47.224299
 20
103.503153
 30
0.0
 10
47.029299
 20
103.516153
 30
0.0
 10
46.844298
 20
103.453153
 30
0.0
 10
41.026510
 20
100.094152
 30
0.0
 10
35.586298
 20
96.953153
 30
0.0
 10
35.439299
 20
96.824154
 30
0.0
 10
35.353299
 20
96.649153
 30
0.0
 10
35.340299
 20
96.455152
 30
0.0
 10
35.403299
 20
96.270153
 30
0.0
 10
41.903299
 20
85.012153
 30
0.0
 10
42.032296
 20
84.865152
 30
0.0
 10
42.207296
 20
84.779152
 30
0.0
 10
42.401296
 20
84.766152
 30
0.0
 10
42.586297
 20
84.829152
 30
0.0
  0
LWPOLYLINE
  5
113
100
AcDbEntity
  8
0
 62
7
100
AcDbPolyline
 90
27
 70
1
 10
36.824179
 20
83.710151
 30
0.0
 10
35.965479
 20
85.197420
 30
0.0
 10
33.830057
 20
88.895967
 30
0.0
 10
31.896300
 20
92.245241
 30
0.0
 10
31.030298
 20
93.745153
 30
0.0
 10
30.901299
 20
93.892153
 30
0.0
 10
30.726298
 20
93.978153
 30
0.0
 10
30.531298
 20
93.991153
 30
0.0
 10
30.347298
 20
93.928153
 30
0.0
 10
19.088297
 20
87.428153
 30
0.0
 10
18.942297
 20
87.299151
 30
0.0
 10
18.855297
 20
87.124152
 30
0.0
 10
18.843297
 20
86.930152
 30
0.0
 10
18.905297
 20
86.745152
 30
0.0
 10
20.657607
 20
83.710150
 30
0.0
 10
25.405297
 20
75.487151
 30
0.0
 10
25.534297
 20
75.340152
 30
0.0
 10
25.709296
 20
75.254152
 30
0.0
 10
25.904296
 20
75.241152
 30
0.0
 10
26.088296
 20
75.304152
 30
0.0
 10
29.465997
 20
77.254153
 30
0.0
 10
31.896299
 20
78.657202
 30
0.0
 10
37.347299
 20
81.804152
 30
0.0
 10
37.493299
 20
81.932151
 30
0.0
 10
37.580299
 20
82.107154
 30
0.0
 10
37.592299
 20
82.302153
 30
0.0
 10
37.530299
 20
82.487151
 30
0.0
  0
LWPOLYLINE
  5
114
100
AcDbEntity
  8
0
 62
7
100
AcDbPolyline
 90
28
 70
1
 10
21.032297
 20
72.962154
 30
0.0
 10
15.512299
 20
82.522793
 30
0.0
 10
14.826756
 20
83.710151
 30
0.0
 10
14.532298
 20
84.220154
 30
0.0
 10
14.403298
 20
84.367153
 30
0.0
 10
14.228298
 20
84.453153
 30
0.0
 10
14.034298
 20
84.466153
 30
0.0
 10
13.849298
 20
84.403153
 30
0.0
 10
12.649022
 20
83.710152
 30
0.0
 10
2.591298
 20
77.903152
 30
0.0
 10
2.444298
 20
77.774154
 30
0.0
 10
2.358298
 20
77.599151
 30
0.0
 10
2.345298
 20
77.405151
 30
0.0
 10
2.407298
 20
77.220154
 30
0.0
 10
7.257287
 20
68.819973
 30
0.0
 10
8.119769
 20
67.326153
 30
0.0
 10
8.907298
 20
65.962154
 30
0.0
 10
9.036298
 20
65.815155
 30
0.0
 10
9.211298
 20
65.729155
 30
0.0
 10
9.406298
 20
65.716155
 30
0.0
 10
9.591298
 20
65.779155
 30
0.0
 10
12.270702
 20
67.326156
 30
0.0
 10
13.534761
 20
68.055983
 30
0.0
 10
15.512299
 20
69.197749
 30
0.0
 10
20.849299
 20
72.279155
 30
0.0
 10
20.996298
 20
72.407157
 30
0.0
 10
21.082298
 20
72.582156
 30
0.0
 10
21.095298
 20
72.777156
 30
0.0
  0
LWPOLYLINE
  5
115
100
AcDbEntity
  8
0
 62
7
100
AcDbPolyline
 90
27
 70
1
 10
-17.222702
 20
154.683155
 30
0.0
 10
-17.255702
 20
154.656275
 30
0.0
 10
-17.373702
 20
154.560155
 30
0.0
 10
-17.466702
 20
154.388154
 30
0.0
 10
-17.640010
 20
153.821317
 30
0.0
 10
-18.381638
 20
151.395661
 30
0.0
 10
-19.038834
 20
149.246156
 30
0.0
 10
-21.267703
 20
141.956155
 30
0.0
 10
-21.286703
 20
141.762154
 30
0.0
 10
-21.230703
 20
141.575154
 30
0.0
 10
-21.106705
 20
141.424153
 30
0.0
 10
-20.935703
 20
141.332153
 30
0.0
 10
-20.026443
 20
141.054153
 30
0.0
 10
-17.255705
 20
140.207018
 30
0.0
 10
-8.503704
 20
137.531152
 30
0.0
 10
-8.309704
 20
137.512152
 30
0.0
 10
-8.122704
 20
137.568152
 30
0.0
 10
-7.971704
 20
137.691151
 30
0.0
 10
-7.878704
 20
137.863152
 30
0.0
 10
-4.398428
 20
149.246154
 30
0.0
 10
-4.077704
 20
150.295153
 30
0.0
 10
-4.058704
 20
150.489154
 30
0.0
 10
-4.114704
 20
150.676154
 30
0.0
 10
-4.238704
 20
150.827151
 30
0.0
 10
-4.409704
 20
150.919151
 30
0.0
 10
-16.841704
 20
154.720150
 30
0.0
 10
-17.036705
 20
154.740150
 30
0.0
  0
LWPOLYLINE
  5
116
100
AcDbEntity
  8
0
 62
7
100
AcDbPolyline
 90
27
 70
1
 10
-26.096704
 20
143.433148
 30
0.0
 10
-24.319418
 20
149.246150
 30
0.0
 10
-22.295704
 20
155.865149
 30
0.0
 10
-22.276704
 20
156.059149
 30
0.0
 10
-22.332704
 20
156.246150
 30
0.0
 10
-22.455704
 20
156.397147
 30
0.0
 10
-22.627705
 20
156.489147
 30
0.0
 10
-33.639706
 20
159.855991
 30
0.0
 10
-35.059704
 20
160.290145
 30
0.0
 10
-35.253704
 20
160.309145
 30
0.0
 10
-35.440704
 20
160.253145
 30
0.0
 10
-35.591705
 20
160.130143
 30
0.0
 10
-35.683705
 20
159.958143
 30
0.0
 10
-35.864762
 20
159.365957
 30
0.0
 10
-36.590146
 20
156.993425
 30
0.0
 10
-37.861005
 20
152.836808
 30
0.0
 10
-38.958825
 20
149.246145
 30
0.0
 10
-39.484704
 20
147.526143
 30
0.0
 10
-39.504704
 20
147.332143
 30
0.0
 10
-39.447704
 20
147.145143
 30
0.0
 10
-39.324703
 20
146.994144
 30
0.0
 10
-39.152702
 20
146.902144
 30
0.0
 10
-33.639706
 20
145.216582
 30
0.0
 10
-26.720705
 20
143.101143
 30
0.0
 10
-26.526705
 20
143.081143
 30
0.0
 10
-26.339704
 20
143.137143
 30
0.0
 10
-26.188703
 20
143.261144
 30
0.0
  0
LWPOLYLINE
  5
117
100
AcDbEntity
  8
0
 62
7
100
AcDbPolyline
 90
31
 70
1
 10
-23.209412
 20
135.602989
 30
0.0
 10
-23.942145
 20
133.206424
 30
0.0
 10
-24.047408
 20
132.862144
 30
0.0
 10
-26.552056
 20
124.670143
 30
0.0
 10
-26.836703
 20
123.739143
 30
0.0
 10
-26.856703
 20
123.545142
 30
0.0
 10
-26.800703
 20
123.358143
 30
0.0
 10
-26.676702
 20
123.207143
 30
0.0
 10
-26.504701
 20
123.114143
 30
0.0
 10
-25.447702
 20
122.790972
 30
0.0
 10
-17.255703
 20
120.286323
 30
0.0
 10
-14.072702
 20
119.313142
 30
0.0
 10
-13.878702
 20
119.294142
 30
0.0
 10
-13.691702
 20
119.350142
 30
0.0
 10
-13.540702
 20
119.474143
 30
0.0
 10
-13.448702
 20
119.645143
 30
0.0
 10
-9.647702
 20
132.077143
 30
0.0
 10
-9.628702
 20
132.271143
 30
0.0
 10
-9.684702
 20
132.458143
 30
0.0
 10
-9.807702
 20
132.609144
 30
0.0
 10
-9.979702
 20
132.702144
 30
0.0
 10
-10.503017
 20
132.862144
 30
0.0
 10
-10.571427
 20
132.883054
 30
0.0
 10
-12.972929
 20
133.617295
 30
0.0
 10
-17.101043
 20
134.879439
 30
0.0
 10
-17.255708
 20
134.926729
 30
0.0
 10
-22.411708
 20
136.503142
 30
0.0
 10
-22.605706
 20
136.522142
 30
0.0
 10
-22.792707
 20
136.466142
 30
0.0
 10
-22.943708
 20
136.342141
 30
0.0
 10
-23.035708
 20
136.171142
 30
0.0
  0
LWPOLYLINE
  5
118
100
AcDbEntity
  8
0
 62
7
100
AcDbPolyline
 90
26
 70
1
 10
-31.666708
 20
125.215141
 30
0.0
 10
-29.328690
 20
132.862142
 30
0.0
 10
-27.865707
 20
137.647142
 30
0.0
 10
-27.845707
 20
137.841142
 30
0.0
 10
-27.901707
 20
138.028140
 30
0.0
 10
-28.025705
 20
138.179141
 30
0.0
 10
-28.197706
 20
138.271141
 30
0.0
 10
-33.639708
 20
139.934996
 30
0.0
 10
-37.300116
 20
141.054142
 30
0.0
 10
-40.629705
 20
142.072142
 30
0.0
 10
-40.823706
 20
142.092142
 30
0.0
 10
-41.010706
 20
142.036142
 30
0.0
 10
-41.161707
 20
141.912141
 30
0.0
 10
-41.253707
 20
141.740140
 30
0.0
 10
-41.463447
 20
141.054141
 30
0.0
 10
-43.968097
 20
132.862142
 30
0.0
 10
-45.054706
 20
129.308141
 30
0.0
 10
-45.073706
 20
129.114141
 30
0.0
 10
-45.017706
 20
128.927141
 30
0.0
 10
-44.894705
 20
128.776141
 30
0.0
 10
-44.722708
 20
128.684141
 30
0.0
 10
-33.639708
 20
125.295588
 30
0.0
 10
-32.290707
 20
124.883140
 30
0.0
 10
-32.096706
 20
124.864140
 30
0.0
 10
-31.909706
 20
124.920141
 30
0.0
 10
-31.758705
 20
125.043140
 30
0.0
  0
LWPOLYLINE
  5
119
100
AcDbEntity
  8
0
 62
7
100
AcDbPolyline
 90
24
 70
1
 10
-28.175706
 20
118.304141
 30
0.0
 10
-28.362704
 20
118.248141
 30
0.0
 10
-28.513705
 20
118.125141
 30
0.0
 10
-28.605705
 20
117.953141
 30
0.0
 10
-28.790749
 20
117.347918
 30
0.0
 10
-29.056678
 20
116.478152
 30
0.0
 10
-32.406707
 20
105.521153
 30
0.0
 10
-32.425707
 20
105.327153
 30
0.0
 10
-32.369707
 20
105.140153
 30
0.0
 10
-32.246708
 20
104.989153
 30
0.0
 10
-32.074707
 20
104.897153
 30
0.0
 10
-19.642708
 20
101.096153
 30
0.0
 10
-19.448708
 20
101.076153
 30
0.0
 10
-19.261707
 20
101.133153
 30
0.0
 10
-19.110708
 20
101.256153
 30
0.0
 10
-19.018708
 20
101.428153
 30
0.0
 10
-15.217707
 20
113.860153
 30
0.0
 10
-15.197707
 20
114.054153
 30
0.0
 10
-15.253707
 20
114.241153
 30
0.0
 10
-15.377707
 20
114.392153
 30
0.0
 10
-15.549707
 20
114.484153
 30
0.0
 10
-22.071519
 20
116.478152
 30
0.0
 10
-25.447707
 20
117.510399
 30
0.0
 10
-27.981708
 20
118.285153
 30
0.0
  0
LWPOLYLINE
  5
11a
100
AcDbEntity
  8
0
 62
7
100
AcDbPolyline
 90
27
 70
1
 10
-53.809707
 20
165.699154
 30
0.0
 10
-53.846827
 20
165.630154
 30
0.0
 10
-53.901697
 20
165.528153
 30
0.0
 10
-56.375162
 20
157.438153
 30
0.0
 10
-57.702699
 20
153.096154
 30
0.0
 10
-57.721699
 20
152.901154
 30
0.0
 10
-57.665699
 20
152.715154
 30
0.0
 10
-57.542701
 20
152.564153
 30
0.0
 10
-57.370701
 20
152.471153
 30
0.0
 10
-50.023700
 20
150.224857
 30
0.0
 10
-46.822635
 20
149.246155
 30
0.0
 10
-44.938701
 20
148.670154
 30
0.0
 10
-44.744701
 20
148.651154
 30
0.0
 10
-44.557701
 20
148.707154
 30
0.0
 10
-44.406700
 20
148.831155
 30
0.0
 10
-44.313700
 20
149.002152
 30
0.0
 10
-44.239120
 20
149.246156
 30
0.0
 10
-40.513702
 20
161.434155
 30
0.0
 10
-40.493702
 20
161.628156
 30
0.0
 10
-40.549702
 20
161.815156
 30
0.0
 10
-40.673699
 20
161.966153
 30
0.0
 10
-40.845700
 20
162.059153
 30
0.0
 10
-50.023701
 20
164.865264
 30
0.0
 10
-52.525437
 20
165.630152
 30
0.0
 10
-53.277699
 20
165.860152
 30
0.0
 10
-53.471699
 20
165.879152
 30
0.0
 10
-53.658700
 20
165.823152
 30
0.0
  0
LWPOLYLINE
  5
11b
100
AcDbEntity
  8
0
 62
7
100
AcDbPolyline
 90
31
 70
1
 10
-59.062703
 20
167.628153
 30
0.0
 10
-66.407704
 20
169.873834
 30
0.0
 10
-71.494702
 20
171.429151
 30
0.0
 10
-71.688702
 20
171.449151
 30
0.0
 10
-71.875699
 20
171.393151
 30
0.0
 10
-72.026700
 20
171.269150
 30
0.0
 10
-72.119700
 20
171.097149
 30
0.0
 10
-73.790759
 20
165.630150
 30
0.0
 10
-74.599696
 20
162.983636
 30
0.0
 10
-75.042750
 20
161.534150
 30
0.0
 10
-75.919696
 20
158.665150
 30
0.0
 10
-75.939696
 20
158.471150
 30
0.0
 10
-75.883696
 20
158.284150
 30
0.0
 10
-75.759695
 20
158.133149
 30
0.0
 10
-75.587698
 20
158.041149
 30
0.0
 10
-74.599692
 20
157.739074
 30
0.0
 10
-73.615454
 20
157.438148
 30
0.0
 10
-72.623702
 20
157.134929
 30
0.0
 10
-68.466856
 20
155.863998
 30
0.0
 10
-66.407698
 20
155.234424
 30
0.0
 10
-63.155695
 20
154.240150
 30
0.0
 10
-62.961695
 20
154.221150
 30
0.0
 10
-62.775694
 20
154.277150
 30
0.0
 10
-62.623694
 20
154.400151
 30
0.0
 10
-62.531694
 20
154.572152
 30
0.0
 10
-61.655435
 20
157.438149
 30
0.0
 10
-59.150785
 20
165.630150
 30
0.0
 10
-58.730695
 20
167.004151
 30
0.0
 10
-58.711695
 20
167.198151
 30
0.0
 10
-58.767695
 20
167.385151
 30
0.0
 10
-58.890696
 20
167.536149
 30
0.0
  0
LWPOLYLINE
  5
11c
100
AcDbEntity
  8
0
 62
7
100
AcDbPolyline
 90
27
 70
1
 10
-46.414694
 20
143.841148
 30
0.0
 10
-50.023695
 20
144.944574
 30
0.0
 10
-58.846693
 20
147.642147
 30
0.0
 10
-59.040694
 20
147.661147
 30
0.0
 10
-59.227694
 20
147.605147
 30
0.0
 10
-59.378695
 20
147.482146
 30
0.0
 10
-59.471695
 20
147.310147
 30
0.0
 10
-60.386677
 20
144.316710
 30
0.0
 10
-61.617386
 20
140.290348
 30
0.0
 10
-63.271699
 20
134.878146
 30
0.0
 10
-63.291699
 20
134.684145
 30
0.0
 10
-63.235699
 20
134.497145
 30
0.0
 10
-63.111703
 20
134.346146
 30
0.0
 10
-62.939702
 20
134.254146
 30
0.0
 10
-58.387227
 20
132.862148
 30
0.0
 10
-50.508702
 20
130.453147
 30
0.0
 10
-50.313702
 20
130.433147
 30
0.0
 10
-50.127702
 20
130.489147
 30
0.0
 10
-50.023701
 20
130.574547
 30
0.0
 10
-49.976701
 20
130.613147
 30
0.0
 10
-49.883701
 20
130.785147
 30
0.0
 10
-49.248672
 20
132.862148
 30
0.0
 10
-46.744022
 20
141.054147
 30
0.0
 10
-46.082699
 20
143.217147
 30
0.0
 10
-46.063699
 20
143.411148
 30
0.0
 10
-46.119699
 20
143.598148
 30
0.0
 10
-46.242696
 20
143.749147
 30
0.0
  0
LWPOLYLINE
  5
11d
100
AcDbEntity
  8
0
 62
7
100
AcDbPolyline
 90
29
 70
1
 10
-46.198698
 20
123.855145
 30
0.0
 10
-46.392698
 20
123.874145
 30
0.0
 10
-46.579698
 20
123.818145
 30
0.0
 10
-46.730708
 20
123.695153
 30
0.0
 10
-46.823708
 20
123.523153
 30
0.0
 10
-48.977669
 20
116.478152
 30
0.0
 10
-50.023708
 20
113.056854
 30
0.0
 10
-50.624706
 20
111.091152
 30
0.0
 10
-50.643706
 20
110.897153
 30
0.0
 10
-50.587706
 20
110.710152
 30
0.0
 10
-50.463705
 20
110.559152
 30
0.0
 10
-50.292707
 20
110.466152
 30
0.0
 10
-50.023706
 20
110.383929
 30
0.0
 10
-44.536772
 20
108.706779
 30
0.0
 10
-40.740297
 20
107.546337
 30
0.0
 10
-37.860704
 20
106.666153
 30
0.0
 10
-37.665705
 20
106.646153
 30
0.0
 10
-37.479708
 20
106.702153
 30
0.0
 10
-37.328707
 20
106.826152
 30
0.0
 10
-37.235707
 20
106.997153
 30
0.0
 10
-36.418435
 20
109.670224
 30
0.0
 10
-34.336956
 20
116.478152
 30
0.0
 10
-33.639710
 20
118.758655
 30
0.0
 10
-33.434708
 20
119.429153
 30
0.0
 10
-33.415708
 20
119.624152
 30
0.0
 10
-33.471708
 20
119.810153
 30
0.0
 10
-33.595709
 20
119.961153
 30
0.0
 10
-33.639709
 20
119.985083
 30
0.0
 10
-33.766708
 20
120.054153
 30
0.0
  0
LWPOLYLINE
  5
11e
100
AcDbEntity
  8
0
 62
7
100
AcDbPolyline
 90
24
 70
1
 10
-65.040707
 20
129.092153
 30
0.0
 10
-66.407711
 20
124.621081
 30
0.0
 10
-68.841709
 20
116.660153
 30
0.0
 10
-68.860469
 20
116.478152
 30
0.0
 10
-68.861669
 20
116.466152
 30
0.0
 10
-68.804669
 20
116.279152
 30
0.0
 10
-68.681668
 20
116.128152
 30
0.0
 10
-68.509670
 20
116.036152
 30
0.0
 10
-66.407673
 20
115.393480
 30
0.0
 10
-56.077671
 20
112.235153
 30
0.0
 10
-55.883671
 20
112.216153
 30
0.0
 10
-55.696671
 20
112.272153
 30
0.0
 10
-55.545707
 20
112.395152
 30
0.0
 10
-55.453707
 20
112.567153
 30
0.0
 10
-54.257944
 20
116.478152
 30
0.0
 10
-51.652704
 20
124.999152
 30
0.0
 10
-51.632704
 20
125.193153
 30
0.0
 10
-51.689704
 20
125.380153
 30
0.0
 10
-51.812705
 20
125.531153
 30
0.0
 10
-51.984702
 20
125.623153
 30
0.0
 10
-64.416701
 20
129.424153
 30
0.0
 10
-64.610701
 20
129.444153
 30
0.0
 10
-64.797702
 20
129.388153
 30
0.0
 10
-64.948706
 20
129.264153
 30
0.0
  0
LWPOLYLINE
  5
11f
100
AcDbEntity
  8
0
 62
7
100
AcDbPolyline
 90
26
 70
1
 10
-77.862414
 20
152.311996
 30
0.0
 10
-78.595149
 20
149.915436
 30
0.0
 10
-78.799777
 20
149.246155
 30
0.0
 10
-81.489703
 20
140.448152
 30
0.0
 10
-81.509703
 20
140.254152
 30
0.0
 10
-81.452703
 20
140.067154
 30
0.0
 10
-81.329702
 20
139.916153
 30
0.0
 10
-81.157705
 20
139.823153
 30
0.0
 10
-68.725698
 20
136.022155
 30
0.0
 10
-68.531706
 20
136.003155
 30
0.0
 10
-68.344702
 20
136.059155
 30
0.0
 10
-68.193701
 20
136.183156
 30
0.0
 10
-68.101701
 20
136.354155
 30
0.0
 10
-66.407701
 20
141.894753
 30
0.0
 10
-64.300699
 20
148.786155
 30
0.0
 10
-64.280699
 20
148.981154
 30
0.0
 10
-64.337699
 20
149.167155
 30
0.0
 10
-64.402049
 20
149.246155
 30
0.0
 10
-64.460699
 20
149.318155
 30
0.0
 10
-64.632700
 20
149.411155
 30
0.0
 10
-66.407701
 20
149.953849
 30
0.0
 10
-77.064699
 20
153.212157
 30
0.0
 10
-77.258699
 20
153.231157
 30
0.0
 10
-77.445695
 20
153.175157
 30
0.0
 10
-77.596696
 20
153.051160
 30
0.0
 10
-77.688696
 20
152.880158
 30
0.0
  0
LWPOLYLINE
  5
120
100
AcDbEntity
  8
0
 62
7
100
AcDbPolyline
 90
29
 70
1
 10
-96.215804
 20
157.438157
 30
0.0
 10
-98.720450
 20
149.246160
 30
0.0
 10
-99.175696
 20
147.757180
 30
0.0
 10
-99.707694
 20
146.017158
 30
0.0
 10
-99.726694
 20
145.823157
 30
0.0
 10
-99.670694
 20
145.636159
 30
0.0
 10
-99.547693
 20
145.485158
 30
0.0
 10
-99.375688
 20
145.393158
 30
0.0
 10
-99.175691
 20
145.332008
 30
0.0
 10
-86.943689
 20
141.592157
 30
0.0
 10
-86.749688
 20
141.573157
 30
0.0
 10
-86.562692
 20
141.629157
 30
0.0
 10
-86.411691
 20
141.752158
 30
0.0
 10
-86.318691
 20
141.924157
 30
0.0
 10
-84.080631
 20
149.246160
 30
0.0
 10
-82.791690
 20
153.463017
 30
0.0
 10
-82.518695
 20
154.356156
 30
0.0
 10
-82.498695
 20
154.550157
 30
0.0
 10
-82.554695
 20
154.737157
 30
0.0
 10
-82.678695
 20
154.888158
 30
0.0
 10
-82.791694
 20
154.948598
 30
0.0
 10
-82.850694
 20
154.980148
 30
0.0
 10
-90.889474
 20
157.438148
 30
0.0
 10
-90.983694
 20
157.466958
 30
0.0
 10
-95.281698
 20
158.781148
 30
0.0
 10
-95.476697
 20
158.801148
 30
0.0
 10
-95.662694
 20
158.745148
 30
0.0
 10
-95.813695
 20
158.621152
 30
0.0
 10
-95.906695
 20
158.449151
 30
0.0
  0
LWPOLYLINE
  5
121
100
AcDbEntity
  8
0
 62
7
100
AcDbPolyline
 90
25
 70
1
 10
-83.258692
 20
134.662150
 30
0.0
 10
-83.809031
 20
132.862151
 30
0.0
 10
-86.313677
 20
124.670150
 30
0.0
 10
-87.059695
 20
122.230150
 30
0.0
 10
-87.078695
 20
122.036150
 30
0.0
 10
-87.022695
 20
121.849150
 30
0.0
 10
-86.899694
 20
121.698150
 30
0.0
 10
-86.727697
 20
121.606150
 30
0.0
 10
-82.791692
 20
120.402744
 30
0.0
 10
-74.295698
 20
117.805150
 30
0.0
 10
-74.101697
 20
117.785150
 30
0.0
 10
-73.914693
 20
117.842150
 30
0.0
 10
-73.763692
 20
117.965150
 30
0.0
 10
-73.670702
 20
118.137150
 30
0.0
 10
-69.870699
 20
130.569150
 30
0.0
 10
-69.850689
 20
130.763150
 30
0.0
 10
-69.906699
 20
130.950150
 30
0.0
 10
-70.030692
 20
131.101150
 30
0.0
 10
-70.202696
 20
131.193150
 30
0.0
 10
-75.661520
 20
132.862151
 30
0.0
 10
-82.634695
 20
134.994151
 30
0.0
 10
-82.791693
 20
135.010341
 30
0.0
 10
-82.828693
 20
135.014141
 30
0.0
 10
-83.014690
 20
134.957141
 30
0.0
 10
-83.166690
 20
134.834142
 30
0.0
  0
LWPOLYLINE
  5
122
100
AcDbEntity
  8
0
 62
7
100
AcDbPolyline
 90
27
 70
1
 10
-88.419686
 20
136.763141
 30
0.0
 10
-99.175690
 20
140.051715
 30
0.0
 10
-100.851689
 20
140.564141
 30
0.0
 10
-101.045689
 20
140.583141
 30
0.0
 10
-101.232689
 20
140.527141
 30
0.0
 10
-101.383689
 20
140.404142
 30
0.0
 10
-101.475689
 20
140.232141
 30
0.0
 10
-103.729019
 20
132.862142
 30
0.0
 10
-105.276689
 20
127.800141
 30
0.0
 10
-105.296689
 20
127.606141
 30
0.0
 10
-105.240689
 20
127.419141
 30
0.0
 10
-105.116689
 20
127.268141
 30
0.0
 10
-104.944689
 20
127.175141
 30
0.0
 10
-99.175690
 20
125.411772
 30
0.0
 10
-96.749382
 20
124.670141
 30
0.0
 10
-92.512688
 20
123.375141
 30
0.0
 10
-92.318688
 20
123.355141
 30
0.0
 10
-92.131691
 20
123.411141
 30
0.0
 10
-91.980690
 20
123.535141
 30
0.0
 10
-91.888690
 20
123.707141
 30
0.0
 10
-91.594264
 20
124.670141
 30
0.0
 10
-89.089610
 20
132.862141
 30
0.0
 10
-88.260448
 20
135.574114
 30
0.0
 10
-88.087695
 20
136.139139
 30
0.0
 10
-88.068695
 20
136.333140
 30
0.0
 10
-88.124695
 20
136.519140
 30
0.0
 10
-88.247696
 20
136.671141
 30
0.0
  0
LWPOLYLINE
  5
123
100
AcDbEntity
  8
0
 62
7
100
AcDbPolyline
 90
27
 70
1
 10
-88.735695
 20
116.616141
 30
0.0
 10
-88.810315
 20
116.478141
 30
0.0
 10
-88.828705
 20
116.444141
 30
0.0
 10
-92.628708
 20
104.012141
 30
0.0
 10
-92.648708
 20
103.818141
 30
0.0
 10
-92.592708
 20
103.632141
 30
0.0
 10
-92.468707
 20
103.480141
 30
0.0
 10
-92.296710
 20
103.388141
 30
0.0
 10
-82.791705
 20
100.482051
 30
0.0
 10
-81.522960
 20
100.094140
 30
0.0
 10
-79.864703
 20
99.587140
 30
0.0
 10
-79.670711
 20
99.568140
 30
0.0
 10
-79.484706
 20
99.624140
 30
0.0
 10
-79.332706
 20
99.747139
 30
0.0
 10
-79.240706
 20
99.919140
 30
0.0
 10
-79.187196
 20
100.094139
 30
0.0
 10
-76.682542
 20
108.286140
 30
0.0
 10
-75.439699
 20
112.351141
 30
0.0
 10
-75.420699
 20
112.545140
 30
0.0
 10
-75.476699
 20
112.732140
 30
0.0
 10
-75.599693
 20
112.883140
 30
0.0
 10
-75.771698
 20
112.976140
 30
0.0
 10
-82.791694
 20
115.121893
 30
0.0
 10
-87.228777
 20
116.478153
 30
0.0
 10
-88.203707
 20
116.776153
 30
0.0
 10
-88.397707
 20
116.796153
 30
0.0
 10
-88.584703
 20
116.740153
 30
0.0
  0
LWPOLYLINE
  5
124
100
AcDbEntity
  8
0
 62
7
100
AcDbPolyline
 90
25
 70
1
 10
-93.989702
 20
118.545153
 30
0.0
 10
-99.175707
 20
120.130737
 30
0.0
 10
-106.421709
 20
122.346153
 30
0.0
 10
-106.615709
 20
122.366153
 30
0.0
 10
-106.802709
 20
122.309153
 30
0.0
 10
-106.953709
 20
122.186153
 30
0.0
 10
-107.045709
 20
122.014153
 30
0.0
 10
-108.738299
 20
116.478153
 30
0.0
 10
-110.846709
 20
109.582153
 30
0.0
 10
-110.866709
 20
109.388153
 30
0.0
 10
-110.809709
 20
109.201153
 30
0.0
 10
-110.686709
 20
109.050153
 30
0.0
 10
-110.514709
 20
108.958153
 30
0.0
 10
-99.175707
 20
105.491330
 30
0.0
 10
-98.082705
 20
105.157153
 30
0.0
 10
-97.888704
 20
105.137153
 30
0.0
 10
-97.701708
 20
105.194153
 30
0.0
 10
-97.550707
 20
105.317153
 30
0.0
 10
-97.458707
 20
105.489153
 30
0.0
 10
-94.098897
 20
116.478153
 30
0.0
 10
-93.657712
 20
117.921153
 30
0.0
 10
-93.657697
 20
117.921303
 30
0.0
 10
-93.637707
 20
118.115153
 30
0.0
 10
-93.694707
 20
118.302153
 30
0.0
 10
-93.817708
 20
118.453153
 30
0.0
  0
LWPOLYLINE
  5
125
100
AcDbEntity
  8
0
 62
7
100
AcDbPolyline
 90
27
 70
1
 10
-16.570167
 20
83.710151
 30
0.0
 10
-17.255710
 20
82.522793
 30
0.0
 10
-22.775708
 20
72.962154
 30
0.0
 10
-22.838708
 20
72.777153
 30
0.0
 10
-22.825708
 20
72.582153
 30
0.0
 10
-22.739708
 20
72.407154
 30
0.0
 10
-22.592709
 20
72.279152
 30
0.0
 10
-17.255709
 20
69.197746
 30
0.0
 10
-14.014112
 20
67.326153
 30
0.0
 10
-11.334708
 20
65.779152
 30
0.0
 10
-11.149708
 20
65.716152
 30
0.0
 10
-10.954708
 20
65.729152
 30
0.0
 10
-10.779708
 20
65.815152
 30
0.0
 10
-10.650708
 20
65.962151
 30
0.0
 10
-9.863179
 20
67.326150
 30
0.0
 10
-5.133387
 20
75.518151
 30
0.0
 10
-4.150708
 20
77.220151
 30
0.0
 10
-4.088708
 20
77.405148
 30
0.0
 10
-4.101708
 20
77.599148
 30
0.0
 10
-4.187708
 20
77.774151
 30
0.0
 10
-4.334708
 20
77.903149
 30
0.0
 10
-14.392432
 20
83.710148
 30
0.0
 10
-15.592708
 20
84.403149
 30
0.0
 10
-15.777708
 20
84.466149
 30
0.0
 10
-15.971708
 20
84.453149
 30
0.0
 10
-16.146708
 20
84.367149
 30
0.0
 10
-16.275708
 20
84.220150
 30
0.0
  0
LWPOLYLINE
  5
126
100
AcDbEntity
  8
0
 62
7
100
AcDbPolyline
 90
24
 70
1
 10
-32.773706
 20
93.745153
 30
0.0
 10
-33.639708
 20
92.245241
 30
0.0
 10
-38.567587
 20
83.710151
 30
0.0
 10
-39.273706
 20
82.487152
 30
0.0
 10
-39.335706
 20
82.302154
 30
0.0
 10
-39.323706
 20
82.107155
 30
0.0
 10
-39.236706
 20
81.932152
 30
0.0
 10
-39.090706
 20
81.804153
 30
0.0
 10
-33.639706
 20
78.657203
 30
0.0
 10
-27.831703
 20
75.304153
 30
0.0
 10
-27.647703
 20
75.241153
 30
0.0
 10
-27.452703
 20
75.254153
 30
0.0
 10
-27.277704
 20
75.340153
 30
0.0
 10
-27.148704
 20
75.487152
 30
0.0
 10
-22.401014
 20
83.710151
 30
0.0
 10
-20.648704
 20
86.745153
 30
0.0
 10
-20.586704
 20
86.930153
 30
0.0
 10
-20.598704
 20
87.124153
 30
0.0
 10
-20.685704
 20
87.299152
 30
0.0
 10
-20.831704
 20
87.428154
 30
0.0
 10
-32.090705
 20
93.928154
 30
0.0
 10
-32.274705
 20
93.991154
 30
0.0
 10
-32.469705
 20
93.978154
 30
0.0
 10
-32.644706
 20
93.892154
 30
0.0
  0
LWPOLYLINE
  5
127
100
AcDbEntity
  8
0
 62
7
100
AcDbPolyline
 90
27
 70
1
 10
-57.202707
 20
106.976153
 30
0.0
 10
-57.258707
 20
107.162153
 30
0.0
 10
-57.382708
 20
107.314153
 30
0.0
 10
-57.554705
 20
107.406153
 30
0.0
 10
-60.432940
 20
108.286152
 30
0.0
 10
-66.407709
 20
110.112898
 30
0.0
 10
-69.421679
 20
111.034400
 30
0.0
 10
-69.986704
 20
111.207153
 30
0.0
 10
-70.180704
 20
111.226153
 30
0.0
 10
-70.367708
 20
111.170153
 30
0.0
 10
-70.518709
 20
111.047153
 30
0.0
 10
-70.610699
 20
110.875153
 30
0.0
 10
-71.402272
 20
108.286152
 30
0.0
 10
-73.906918
 20
100.094152
 30
0.0
 10
-74.411702
 20
98.443153
 30
0.0
 10
-74.430702
 20
98.249153
 30
0.0
 10
-74.374702
 20
98.062153
 30
0.0
 10
-74.251701
 20
97.911154
 30
0.0
 10
-74.079704
 20
97.818154
 30
0.0
 10
-66.407707
 20
95.473109
 30
0.0
 10
-61.647705
 20
94.018155
 30
0.0
 10
-61.453705
 20
93.998155
 30
0.0
 10
-61.266704
 20
94.054155
 30
0.0
 10
-61.115703
 20
94.178156
 30
0.0
 10
-61.023703
 20
94.350155
 30
0.0
 10
-59.267512
 20
100.094154
 30
0.0
 10
-57.222705
 20
106.782155
 30
0.0
  0
LWPOLYLINE
  5
128
100
AcDbEntity
  8
0
 62
7
100
AcDbPolyline
 90
24
 70
1
 10
-44.329706
 20
84.829153
 30
0.0
 10
-44.144705
 20
84.766153
 30
0.0
 10
-43.950705
 20
84.779153
 30
0.0
 10
-43.775705
 20
84.865153
 30
0.0
 10
-43.646708
 20
85.012154
 30
0.0
 10
-37.146708
 20
96.270154
 30
0.0
 10
-37.083708
 20
96.455153
 30
0.0
 10
-37.096708
 20
96.649154
 30
0.0
 10
-37.182708
 20
96.824155
 30
0.0
 10
-37.329706
 20
96.953153
 30
0.0
 10
-42.769918
 20
100.094152
 30
0.0
 10
-48.587706
 20
103.453153
 30
0.0
 10
-48.772707
 20
103.516153
 30
0.0
 10
-48.967707
 20
103.503153
 30
0.0
 10
-49.142706
 20
103.417153
 30
0.0
 10
-49.270704
 20
103.270153
 30
0.0
 10
-50.023706
 20
101.965957
 30
0.0
 10
-51.104425
 20
100.094152
 30
0.0
 10
-55.770704
 20
92.012153
 30
0.0
 10
-55.833704
 20
91.827154
 30
0.0
 10
-55.820704
 20
91.632152
 30
0.0
 10
-55.734704
 20
91.457153
 30
0.0
 10
-55.587705
 20
91.329153
 30
0.0
 10
-50.023705
 20
88.116682
 30
0.0
  0
ENDSEC
  0
SECTION
  2
OBJECTS
  0
DICTIONARY
  5
C
330
0
100
AcDbDictionary
  3
ACAD_GROUP
350
D
  3
ACAD_MLINESTYLE
350
17
  0
DICTIONARY
  5
D
330
C
100
AcDbDictionary
  0
DICTIONARY
  5
1A
330
C
100
AcDbDictionary
  0
DICTIONARY
  5
17
330
C
100
AcDbDictionary
  3
STANDARD
350
18
  0
DICTIONARY
  5
19
330
C
100
AcDbDictionary
  0
ENDSEC
  0
EOF
