999
"DXF R12 Output" (www.mydxf.blogspot.com)
 0 
SECTION
 2 
HEADER
 9 
$ACADVER
 1 
AC1009
 9 
$EXTMIN
 10 
 0 
 20 
 0 
 9 
$EXTMAX
 10 
 8.5 
 20 
 11 
 0 
ENDSEC
 0 
SECTION
 2 
ENTITIES
0
LINE
8
Layer 1
10
98.537260
20
152.728723
11
99.593813
21
149.246225
0
LINE
8
Layer 1
10
99.593813
20
149.246225
11
100.882940
21
144.997110
0
LINE
8
Layer 1
10
100.882940
20
144.997110
11
101.071760
21
144.374723
0
LINE
8
Layer 1
10
101.071760
20
144.374723
11
102.137940
21
140.860944
0
LINE
8
Layer 1
10
102.137940
20
140.860944
11
102.514060
21
139.621402
0
LINE
8
Layer 1
10
102.514060
20
139.621402
11
103.031760
21
137.915223
0
LINE
8
Layer 1
10
103.031760
20
137.915223
11
103.142040
21
137.551782
0
LINE
8
Layer 1
10
103.142040
20
137.551782
11
104.564970
21
132.862224
0
LINE
8
Layer 1
10
104.564970
20
132.862224
11
105.777760
21
128.865223
0
LINE
8
Layer 1
10
105.777760
20
128.865223
11
106.028350
21
128.039357
0
LINE
8
Layer 1
10
106.028350
20
128.039357
11
107.494490
21
123.207266
0
LINE
8
Layer 1
10
107.494490
20
123.207266
11
107.662400
21
122.653866
0
LINE
8
Layer 1
10
107.662400
20
122.653866
11
108.042920
21
121.399765
0
LINE
8
Layer 1
10
108.042920
20
121.399765
11
108.655900
21
119.379507
0
LINE
8
Layer 1
10
108.655900
20
119.379507
11
108.808760
21
118.875723
0
LINE
8
Layer 1
10
108.808760
20
118.875723
11
109.536120
21
116.478223
0
LINE
8
Layer 1
10
109.536120
20
116.478223
11
111.558990
21
109.810552
0
LINE
8
Layer 1
10
111.558990
20
109.810552
11
111.628290
21
109.582223
0
LINE
8
Layer 1
10
111.628290
20
109.582223
11
111.365290
21
108.303223
0
LINE
8
Layer 1
10
111.365290
20
108.303223
11
110.618290
21
107.232222
0
LINE
8
Layer 1
10
110.618290
20
107.232222
11
109.509290
21
106.543222
0
LINE
8
Layer 1
10
109.509290
20
106.543222
11
102.129290
21
103.318723
0
LINE
8
Layer 1
10
102.129290
20
103.318723
11
97.432294
21
101.266596
0
LINE
8
Layer 1
10
97.432294
20
101.266596
11
95.700826
21
100.510116
0
LINE
8
Layer 1
10
95.700826
20
100.510116
11
94.748914
21
100.094222
0
LINE
8
Layer 1
10
94.748914
20
100.094222
11
89.387296
21
97.751723
0
LINE
8
Layer 1
10
89.387296
20
97.751723
11
73.419301
21
90.775066
0
LINE
8
Layer 1
10
73.419301
20
90.775066
11
70.001912
21
89.281957
0
LINE
8
Layer 1
10
70.001912
20
89.281957
11
66.255795
21
87.645223
0
LINE
8
Layer 1
10
66.255795
20
87.645223
11
64.664296
21
86.949897
0
LINE
8
Layer 1
10
64.664296
20
86.949897
11
61.910714
21
85.746858
0
LINE
8
Layer 1
10
61.910714
20
85.746858
11
58.504048
21
84.258485
0
LINE
8
Layer 1
10
58.504048
20
84.258485
11
57.249162
21
83.710221
0
LINE
8
Layer 1
10
57.249162
20
83.710221
11
39.691262
21
76.039174
0
LINE
8
Layer 1
10
39.691262
20
76.039174
11
37.138234
21
74.923757
0
LINE
8
Layer 1
10
37.138234
20
74.923757
11
33.140813
21
73.177293
0
LINE
8
Layer 1
10
33.140813
20
73.177293
11
32.337263
21
72.826223
0
LINE
8
Layer 1
10
32.337263
20
72.826223
11
31.896265
21
72.633554
0
LINE
8
Layer 1
10
31.896265
20
72.633554
11
15.512264
21
65.475457
0
LINE
8
Layer 1
10
15.512264
20
65.475457
11
7.320264
21
61.896409
0
LINE
8
Layer 1
10
7.320264
20
61.896409
11
1.428263
21
59.322225
0
LINE
8
Layer 1
10
1.428263
20
59.322225
11
-0.871737
21
58.829774
0
LINE
8
Layer 1
10
-0.871737
20
58.829774
11
-0.995737
21
58.803224
0
LINE
8
Layer 1
10
-0.995737
20
58.803224
11
-3.171737
21
59.322225
0
LINE
8
Layer 1
10
-3.171737
20
59.322225
11
-6.271134
21
60.676355
0
LINE
8
Layer 1
10
-6.271134
20
60.676355
11
-9.063737
21
61.896447
0
LINE
8
Layer 1
10
-9.063737
20
61.896447
11
-12.205631
21
63.269147
0
LINE
8
Layer 1
10
-12.205631
20
63.269147
11
-12.789999
21
63.524457
0
LINE
8
Layer 1
10
-12.789999
20
63.524457
11
-14.193449
21
64.137628
0
LINE
8
Layer 1
10
-14.193449
20
64.137628
11
-16.925314
21
65.331185
0
LINE
8
Layer 1
10
-16.925314
20
65.331185
11
-17.255738
21
65.475545
0
LINE
8
Layer 1
10
-17.255738
20
65.475545
11
-25.115622
21
68.909543
0
LINE
8
Layer 1
10
-25.115622
20
68.909543
11
-29.771912
21
70.943883
0
LINE
8
Layer 1
10
-29.771912
20
70.943883
11
-30.757767
21
71.374608
0
LINE
8
Layer 1
10
-30.757767
20
71.374608
11
-33.187323
21
72.436082
0
LINE
8
Layer 1
10
-33.187323
20
72.436082
11
-33.639739
21
72.633744
0
LINE
8
Layer 1
10
-33.639739
20
72.633744
11
-33.988738
21
72.786222
0
LINE
8
Layer 1
10
-33.988738
20
72.786222
11
-58.992098
21
83.710221
0
LINE
8
Layer 1
10
-58.992098
20
83.710221
11
-66.407740
21
86.950126
0
LINE
8
Layer 1
10
-66.407740
20
86.950126
11
-66.453740
21
86.970226
0
LINE
8
Layer 1
10
-66.453740
20
86.970226
11
-83.638735
21
94.478223
0
LINE
8
Layer 1
10
-83.638735
20
94.478223
11
-86.939250
21
95.920369
0
LINE
8
Layer 1
10
-86.939250
20
95.920369
11
-89.677233
21
97.116723
0
LINE
8
Layer 1
10
-89.677233
20
97.116723
11
-96.492411
21
100.094222
0
LINE
8
Layer 1
10
-96.492411
20
100.094222
11
-97.444285
21
100.510089
0
LINE
8
Layer 1
10
-97.444285
20
100.510089
11
-98.799983
21
101.102384
0
LINE
8
Layer 1
10
-98.799983
20
101.102384
11
-99.175738
21
101.266547
0
LINE
8
Layer 1
10
-99.175738
20
101.266547
11
-105.214240
21
103.904723
0
LINE
8
Layer 1
10
-105.214240
20
103.904723
11
-111.252740
21
106.543222
0
LINE
8
Layer 1
10
-111.252740
20
106.543222
11
-111.696960
21
106.801406
0
LINE
8
Layer 1
10
-111.696960
20
106.801406
11
-112.391740
21
107.205223
0
LINE
8
Layer 1
10
-112.391740
20
107.205223
11
-113.144740
21
108.285223
0
LINE
8
Layer 1
10
-113.144740
20
108.285223
11
-113.371740
21
109.582223
0
LINE
8
Layer 1
10
-113.371740
20
109.582223
11
-111.279640
21
116.478223
0
LINE
8
Layer 1
10
-111.279640
20
116.478223
11
-110.974740
21
117.483223
0
LINE
8
Layer 1
10
-110.974740
20
117.483223
11
-109.237940
21
123.207258
0
LINE
8
Layer 1
10
-109.237940
20
123.207258
11
-107.862240
21
127.741223
0
LINE
8
Layer 1
10
-107.862240
20
127.741223
11
-107.771740
21
128.039344
0
LINE
8
Layer 1
10
-107.771740
20
128.039344
11
-106.308310
21
132.862224
0
LINE
8
Layer 1
10
-106.308310
20
132.862224
11
-105.463700
21
135.645723
0
LINE
8
Layer 1
10
-105.463700
20
135.645723
11
-103.651040
21
141.620582
0
LINE
8
Layer 1
10
-103.651040
20
141.620582
11
-103.010700
21
143.731223
0
LINE
8
Layer 1
10
-103.010700
20
143.731223
11
-101.337290
21
149.246225
0
LINE
8
Layer 1
10
-101.337290
20
149.246225
11
-101.050700
21
150.190725
0
LINE
8
Layer 1
10
-101.050700
20
150.190725
11
-99.175698
21
156.370324
0
LINE
8
Layer 1
10
-99.175698
20
156.370324
11
-98.851677
21
157.438222
0
LINE
8
Layer 1
10
-98.851677
20
157.438222
11
-98.320694
21
159.188222
0
LINE
8
Layer 1
10
-98.320694
20
159.188222
11
-97.130700
21
161.506223
0
LINE
8
Layer 1
10
-97.130700
20
161.506223
11
-95.207696
21
163.266221
0
LINE
8
Layer 1
10
-95.207696
20
163.266221
11
-92.533318
21
164.688157
0
LINE
8
Layer 1
10
-92.533318
20
164.688157
11
-90.983697
21
165.512075
0
LINE
8
Layer 1
10
-90.983697
20
165.512075
11
-90.761483
21
165.630223
0
LINE
8
Layer 1
10
-90.761483
20
165.630223
11
-82.791695
21
169.867662
0
LINE
8
Layer 1
10
-82.791695
20
169.867662
11
-76.802498
21
173.052049
0
LINE
8
Layer 1
10
-76.802498
20
173.052049
11
-75.878701
21
173.543222
0
LINE
8
Layer 1
10
-75.878701
20
173.543222
11
-73.344697
21
174.153222
0
LINE
8
Layer 1
10
-73.344697
20
174.153222
11
-70.756699
21
173.844224
0
LINE
8
Layer 1
10
-70.756699
20
173.844224
11
-66.407700
21
172.514741
0
LINE
8
Layer 1
10
-66.407700
20
172.514741
11
-64.062195
21
171.797723
0
LINE
8
Layer 1
10
-64.062195
20
171.797723
11
-55.810696
21
169.274724
0
LINE
8
Layer 1
10
-55.810696
20
169.274724
11
-50.023697
21
167.505319
0
LINE
8
Layer 1
10
-50.023697
20
167.505319
11
-49.783925
21
167.432009
0
LINE
8
Layer 1
10
-49.783925
20
167.432009
11
-46.401196
21
166.397722
0
LINE
8
Layer 1
10
-46.401196
20
166.397722
11
-43.638077
21
165.553061
0
LINE
8
Layer 1
10
-43.638077
20
165.553061
11
-36.808198
21
163.465224
0
LINE
8
Layer 1
10
-36.808198
20
163.465224
11
-33.639699
21
162.496504
0
LINE
8
Layer 1
10
-33.639699
20
162.496504
11
-26.161698
21
160.210222
0
LINE
8
Layer 1
10
-26.161698
20
160.210222
11
-19.177197
21
158.074724
0
LINE
8
Layer 1
10
-19.177197
20
158.074724
11
-17.255698
21
157.487272
0
LINE
8
Layer 1
10
-17.255698
20
157.487272
11
-15.777981
21
157.035494
0
LINE
8
Layer 1
10
-15.777981
20
157.035494
11
-12.349197
21
155.987223
0
LINE
8
Layer 1
10
-12.349197
20
155.987223
11
-3.286697
21
153.216223
0
LINE
8
Layer 1
10
-3.286697
20
153.216223
11
-3.284377
21
153.215868
0
LINE
8
Layer 1
10
-3.284377
20
153.215868
11
-0.871737
21
152.847222
0
LINE
8
Layer 1
10
-0.871737
20
152.847222
11
1.543263
21
153.216222
0
LINE
8
Layer 1
10
1.543263
20
153.216222
11
10.536763
21
155.965722
0
LINE
8
Layer 1
10
10.536763
20
155.965722
11
12.985631
21
156.714460
0
LINE
8
Layer 1
10
12.985631
20
156.714460
11
15.512264
21
157.486974
0
LINE
8
Layer 1
10
15.512264
20
157.486974
11
17.521263
21
158.101224
0
LINE
8
Layer 1
10
17.521263
20
158.101224
11
31.896265
21
162.496137
0
LINE
8
Layer 1
10
31.896265
20
162.496137
11
35.111764
21
163.479222
0
LINE
8
Layer 1
10
35.111764
20
163.479222
11
44.289762
21
166.285222
0
LINE
8
Layer 1
10
44.289762
20
166.285222
11
48.280263
21
167.505288
0
LINE
8
Layer 1
10
48.280263
20
167.505288
11
51.707761
21
168.553224
0
LINE
8
Layer 1
10
51.707761
20
168.553224
11
56.686479
21
170.075372
0
LINE
8
Layer 1
10
56.686479
20
170.075372
11
57.945104
21
170.460176
0
LINE
8
Layer 1
10
57.945104
20
170.460176
11
60.054296
21
171.105020
0
LINE
8
Layer 1
10
60.054296
20
171.105020
11
60.867761
21
171.353723
0
LINE
8
Layer 1
10
60.867761
20
171.353723
11
64.664266
21
172.514508
0
LINE
8
Layer 1
10
64.664266
20
172.514508
11
69.013265
21
173.844224
0
LINE
8
Layer 1
10
69.013265
20
173.844224
11
69.014143
21
173.844327
0
LINE
8
Layer 1
10
69.014143
20
173.844327
11
71.601263
21
174.153222
0
LINE
8
Layer 1
10
71.601263
20
174.153222
11
72.856260
21
173.851113
0
LINE
8
Layer 1
10
72.856260
20
173.851113
11
74.135267
21
173.543222
0
LINE
8
Layer 1
10
74.135267
20
173.543222
11
81.048261
21
169.867662
0
LINE
8
Layer 1
10
81.048261
20
169.867662
11
89.018049
21
165.630223
0
LINE
8
Layer 1
10
89.018049
20
165.630223
11
89.240263
21
165.512075
0
LINE
8
Layer 1
10
89.240263
20
165.512075
11
92.540296
21
163.757486
0
LINE
8
Layer 1
10
92.540296
20
163.757486
11
93.464262
21
163.266221
0
LINE
8
Layer 1
10
93.464262
20
163.266221
11
95.387266
21
161.506223
0
LINE
8
Layer 1
10
95.387266
20
161.506223
11
96.576414
21
159.189874
0
LINE
8
Layer 1
10
96.576414
20
159.189874
11
96.577260
21
159.188174
0
LINE
8
Layer 1
10
96.577260
20
159.188174
11
97.108266
21
157.438174
0
LINE
8
Layer 1
10
97.108266
20
157.438174
11
97.432264
21
156.370383
0
LINE
8
Layer 1
10
97.432264
20
156.370383
11
98.537260
21
152.728675
0
LINE
8
Layer 1
10
81.106260
20
154.980174
11
81.048260
21
154.948974
0
LINE
8
Layer 1
10
81.048260
20
154.948974
11
80.935261
21
154.888174
0
LINE
8
Layer 1
10
80.935261
20
154.888174
11
80.811261
21
154.737173
0
LINE
8
Layer 1
10
80.811261
20
154.737173
11
80.755261
21
154.550173
0
LINE
8
Layer 1
10
80.755261
20
154.550173
11
80.775261
21
154.356172
0
LINE
8
Layer 1
10
80.775261
20
154.356172
11
80.956246
21
153.764055
0
LINE
8
Layer 1
10
80.956246
20
153.764055
11
81.048256
21
153.463033
0
LINE
8
Layer 1
10
81.048256
20
153.463033
11
82.337197
21
149.246176
0
LINE
8
Layer 1
10
82.337197
20
149.246176
11
84.575257
21
141.924173
0
LINE
8
Layer 1
10
84.575257
20
141.924173
11
84.668257
21
141.752174
0
LINE
8
Layer 1
10
84.668257
20
141.752174
11
84.819258
21
141.629173
0
LINE
8
Layer 1
10
84.819258
20
141.629173
11
85.006254
21
141.573173
0
LINE
8
Layer 1
10
85.006254
20
141.573173
11
85.200255
21
141.592173
0
LINE
8
Layer 1
10
85.200255
20
141.592173
11
97.432257
21
145.332024
0
LINE
8
Layer 1
10
97.432257
20
145.332024
11
97.632254
21
145.393174
0
LINE
8
Layer 1
10
97.632254
20
145.393174
11
97.804259
21
145.485174
0
LINE
8
Layer 1
10
97.804259
20
145.485174
11
97.927260
21
145.636175
0
LINE
8
Layer 1
10
97.927260
20
145.636175
11
97.983260
21
145.823173
0
LINE
8
Layer 1
10
97.983260
20
145.823173
11
97.964260
21
146.017174
0
LINE
8
Layer 1
10
97.964260
20
146.017174
11
97.432262
21
147.757196
0
LINE
8
Layer 1
10
97.432262
20
147.757196
11
96.977016
21
149.246176
0
LINE
8
Layer 1
10
96.977016
20
149.246176
11
94.472370
21
157.438173
0
LINE
8
Layer 1
10
94.472370
20
157.438173
11
94.163265
21
158.449175
0
LINE
8
Layer 1
10
94.163265
20
158.449175
11
94.070265
21
158.621176
0
LINE
8
Layer 1
10
94.070265
20
158.621176
11
93.919264
21
158.745172
0
LINE
8
Layer 1
10
93.919264
20
158.745172
11
93.733267
21
158.801172
0
LINE
8
Layer 1
10
93.733267
20
158.801172
11
93.538268
21
158.781172
0
LINE
8
Layer 1
10
93.538268
20
158.781172
11
89.240264
21
157.467085
0
LINE
8
Layer 1
10
89.240264
20
157.467085
11
89.145694
21
157.438175
0
LINE
8
Layer 1
10
89.145694
20
157.438175
11
81.106265
21
154.980175
0
LINE
8
Layer 1
10
72.047323
20
165.630223
11
70.376264
21
171.097222
0
LINE
8
Layer 1
10
70.376264
20
171.097222
11
70.283264
21
171.269223
0
LINE
8
Layer 1
10
70.283264
20
171.269223
11
70.132263
21
171.393224
0
LINE
8
Layer 1
10
70.132263
20
171.393224
11
69.945266
21
171.449224
0
LINE
8
Layer 1
10
69.945266
20
171.449224
11
69.751266
21
171.429224
0
LINE
8
Layer 1
10
69.751266
20
171.429224
11
64.664268
21
169.873907
0
LINE
8
Layer 1
10
64.664268
20
169.873907
11
57.319267
21
167.628226
0
LINE
8
Layer 1
10
57.319267
20
167.628226
11
57.147266
21
167.536226
0
LINE
8
Layer 1
10
57.147266
20
167.536226
11
57.024265
21
167.385228
0
LINE
8
Layer 1
10
57.024265
20
167.385228
11
56.968265
21
167.198228
0
LINE
8
Layer 1
10
56.968265
20
167.198228
11
56.987265
21
167.004228
0
LINE
8
Layer 1
10
56.987265
20
167.004228
11
57.407355
21
165.630227
0
LINE
8
Layer 1
10
57.407355
20
165.630227
11
59.912005
21
157.438226
0
LINE
8
Layer 1
10
59.912005
20
157.438226
11
60.788264
21
154.572229
0
LINE
8
Layer 1
10
60.788264
20
154.572229
11
60.880264
21
154.400228
0
LINE
8
Layer 1
10
60.880264
20
154.400228
11
61.032264
21
154.277227
0
LINE
8
Layer 1
10
61.032264
20
154.277227
11
61.218265
21
154.221227
0
LINE
8
Layer 1
10
61.218265
20
154.221227
11
61.412265
21
154.240227
0
LINE
8
Layer 1
10
61.412265
20
154.240227
11
64.664268
21
155.234501
0
LINE
8
Layer 1
10
64.664268
20
155.234501
11
71.872024
21
157.438225
0
LINE
8
Layer 1
10
71.872024
20
157.438225
11
72.856262
21
157.739151
0
LINE
8
Layer 1
10
72.856262
20
157.739151
11
73.844268
21
158.041226
0
LINE
8
Layer 1
10
73.844268
20
158.041226
11
74.016265
21
158.133226
0
LINE
8
Layer 1
10
74.016265
20
158.133226
11
74.140266
21
158.284227
0
LINE
8
Layer 1
10
74.140266
20
158.284227
11
74.196266
21
158.471227
0
LINE
8
Layer 1
10
74.196266
20
158.471227
11
74.176266
21
158.665227
0
LINE
8
Layer 1
10
74.176266
20
158.665227
11
73.565731
21
160.662656
0
LINE
8
Layer 1
10
73.565731
20
160.662656
11
73.299314
21
161.534223
0
LINE
8
Layer 1
10
73.299314
20
161.534223
11
72.856260
21
162.983709
0
LINE
8
Layer 1
10
72.856260
20
162.983709
11
72.047323
21
165.630223
0
LINE
8
Layer 1
10
75.321264
20
153.212224
11
64.664266
21
149.953916
0
LINE
8
Layer 1
10
64.664266
20
149.953916
11
62.889265
21
149.411222
0
LINE
8
Layer 1
10
62.889265
20
149.411222
11
62.717264
21
149.318222
0
LINE
8
Layer 1
10
62.717264
20
149.318222
11
62.658614
21
149.246222
0
LINE
8
Layer 1
10
62.658614
20
149.246222
11
62.594264
21
149.167222
0
LINE
8
Layer 1
10
62.594264
20
149.167222
11
62.537264
21
148.981221
0
LINE
8
Layer 1
10
62.537264
20
148.981221
11
62.557264
21
148.786222
0
LINE
8
Layer 1
10
62.557264
20
148.786222
11
64.664266
21
141.894820
0
LINE
8
Layer 1
10
64.664266
20
141.894820
11
66.358266
21
136.354222
0
LINE
8
Layer 1
10
66.358266
20
136.354222
11
66.450266
21
136.183223
0
LINE
8
Layer 1
10
66.450266
20
136.183223
11
66.601267
21
136.059222
0
LINE
8
Layer 1
10
66.601267
20
136.059222
11
66.788271
21
136.003222
0
LINE
8
Layer 1
10
66.788271
20
136.003222
11
66.982263
21
136.022222
0
LINE
8
Layer 1
10
66.982263
20
136.022222
11
79.414270
21
139.823220
0
LINE
8
Layer 1
10
79.414270
20
139.823220
11
79.586267
21
139.916220
0
LINE
8
Layer 1
10
79.586267
20
139.916220
11
79.709268
21
140.067221
0
LINE
8
Layer 1
10
79.709268
20
140.067221
11
79.766268
21
140.254219
0
LINE
8
Layer 1
10
79.766268
20
140.254219
11
79.746268
21
140.448219
0
LINE
8
Layer 1
10
79.746268
20
140.448219
11
77.056342
21
149.246222
0
LINE
8
Layer 1
10
77.056342
20
149.246222
11
75.945273
21
152.880220
0
LINE
8
Layer 1
10
75.945273
20
152.880220
11
75.853273
21
153.051222
0
LINE
8
Layer 1
10
75.853273
20
153.051222
11
75.702272
21
153.175219
0
LINE
8
Layer 1
10
75.702272
20
153.175219
11
75.515276
21
153.231219
0
LINE
8
Layer 1
10
75.515276
20
153.231219
11
75.321276
21
153.212219
0
LINE
8
Layer 1
10
87.267481
20
133.119671
11
87.346191
21
132.862219
0
LINE
8
Layer 1
10
87.346191
20
132.862219
11
89.850845
21
124.670218
0
LINE
8
Layer 1
10
89.850845
20
124.670218
11
90.145271
21
123.707218
0
LINE
8
Layer 1
10
90.145271
20
123.707218
11
90.237271
21
123.535218
0
LINE
8
Layer 1
10
90.237271
20
123.535218
11
90.388272
21
123.411218
0
LINE
8
Layer 1
10
90.388272
20
123.411218
11
90.575269
21
123.355218
0
LINE
8
Layer 1
10
90.575269
20
123.355218
11
90.769269
21
123.375218
0
LINE
8
Layer 1
10
90.769269
20
123.375218
11
95.005963
21
124.670218
0
LINE
8
Layer 1
10
95.005963
20
124.670218
11
97.432271
21
125.411849
0
LINE
8
Layer 1
10
97.432271
20
125.411849
11
103.201270
21
127.175218
0
LINE
8
Layer 1
10
103.201270
20
127.175218
11
103.373270
21
127.268218
0
LINE
8
Layer 1
10
103.373270
20
127.268218
11
103.497270
21
127.419218
0
LINE
8
Layer 1
10
103.497270
20
127.419218
11
103.553270
21
127.606218
0
LINE
8
Layer 1
10
103.553270
20
127.606218
11
103.533270
21
127.800218
0
LINE
8
Layer 1
10
103.533270
20
127.800218
11
101.985600
21
132.862219
0
LINE
8
Layer 1
10
101.985600
20
132.862219
11
99.732270
21
140.232218
0
LINE
8
Layer 1
10
99.732270
20
140.232218
11
99.640270
21
140.404219
0
LINE
8
Layer 1
10
99.640270
20
140.404219
11
99.489270
21
140.527218
0
LINE
8
Layer 1
10
99.489270
20
140.527218
11
99.302270
21
140.583218
0
LINE
8
Layer 1
10
99.302270
20
140.583218
11
99.108273
21
140.564218
0
LINE
8
Layer 1
10
99.108273
20
140.564218
11
97.432271
21
140.051792
0
LINE
8
Layer 1
10
97.432271
20
140.051792
11
86.676267
21
136.763218
0
LINE
8
Layer 1
10
86.676267
20
136.763218
11
86.504269
21
136.671218
0
LINE
8
Layer 1
10
86.504269
20
136.671218
11
86.381268
21
136.519217
0
LINE
8
Layer 1
10
86.381268
20
136.519217
11
86.325268
21
136.333217
0
LINE
8
Layer 1
10
86.325268
20
136.333217
11
86.344268
21
136.139216
0
LINE
8
Layer 1
10
86.344268
20
136.139216
11
87.267471
21
133.119670
0
LINE
8
Layer 1
10
91.914266
20
117.921223
11
92.355451
21
116.478223
0
LINE
8
Layer 1
10
92.355451
20
116.478223
11
95.715261
21
105.489223
0
LINE
8
Layer 1
10
95.715261
20
105.489223
11
95.807261
21
105.317223
0
LINE
8
Layer 1
10
95.807261
20
105.317223
11
95.958262
21
105.194223
0
LINE
8
Layer 1
10
95.958262
20
105.194223
11
96.145258
21
105.137223
0
LINE
8
Layer 1
10
96.145258
20
105.137223
11
96.339259
21
105.157223
0
LINE
8
Layer 1
10
96.339259
20
105.157223
11
97.432261
21
105.491400
0
LINE
8
Layer 1
10
97.432261
20
105.491400
11
108.771260
21
108.958223
0
LINE
8
Layer 1
10
108.771260
20
108.958223
11
108.943260
21
109.050223
0
LINE
8
Layer 1
10
108.943260
20
109.050223
11
109.066260
21
109.201223
0
LINE
8
Layer 1
10
109.066260
20
109.201223
11
109.123260
21
109.388222
0
LINE
8
Layer 1
10
109.123260
20
109.388222
11
109.103260
21
109.582223
0
LINE
8
Layer 1
10
109.103260
20
109.582223
11
106.994850
21
116.478223
0
LINE
8
Layer 1
10
106.994850
20
116.478223
11
105.302260
21
122.014222
0
LINE
8
Layer 1
10
105.302260
20
122.014222
11
105.210260
21
122.186223
0
LINE
8
Layer 1
10
105.210260
20
122.186223
11
105.059260
21
122.309223
0
LINE
8
Layer 1
10
105.059260
20
122.309223
11
104.872260
21
122.366223
0
LINE
8
Layer 1
10
104.872260
20
122.366223
11
104.678260
21
122.346223
0
LINE
8
Layer 1
10
104.678260
20
122.346223
11
97.432264
21
120.130807
0
LINE
8
Layer 1
10
97.432264
20
120.130807
11
92.246259
21
118.545222
0
LINE
8
Layer 1
10
92.246259
20
118.545222
11
92.074262
21
118.453222
0
LINE
8
Layer 1
10
92.074262
20
118.453222
11
91.951261
21
118.302222
0
LINE
8
Layer 1
10
91.951261
20
118.302222
11
91.894261
21
118.115222
0
LINE
8
Layer 1
10
91.894261
20
118.115222
11
91.914261
21
117.921222
0
LINE
8
Layer 1
10
85.868146
20
116.595234
11
85.485334
21
116.478223
0
LINE
8
Layer 1
10
85.485334
20
116.478223
11
81.048261
21
115.121976
0
LINE
8
Layer 1
10
81.048261
20
115.121976
11
74.028265
21
112.976223
0
LINE
8
Layer 1
10
74.028265
20
112.976223
11
73.856260
21
112.883223
0
LINE
8
Layer 1
10
73.856260
20
112.883223
11
73.733266
21
112.732222
0
LINE
8
Layer 1
10
73.733266
20
112.732222
11
73.677266
21
112.545222
0
LINE
8
Layer 1
10
73.677266
20
112.545222
11
73.696266
21
112.351223
0
LINE
8
Layer 1
10
73.696266
20
112.351223
11
74.939109
21
108.286222
0
LINE
8
Layer 1
10
74.939109
20
108.286222
11
77.443763
21
100.094222
0
LINE
8
Layer 1
10
77.443763
20
100.094222
11
77.497273
21
99.919223
0
LINE
8
Layer 1
10
77.497273
20
99.919223
11
77.589273
21
99.747222
0
LINE
8
Layer 1
10
77.589273
20
99.747222
11
77.741273
21
99.624223
0
LINE
8
Layer 1
10
77.741273
20
99.624223
11
77.927278
21
99.568223
0
LINE
8
Layer 1
10
77.927278
20
99.568223
11
78.121270
21
99.587223
0
LINE
8
Layer 1
10
78.121270
20
99.587223
11
79.779527
21
100.094223
0
LINE
8
Layer 1
10
79.779527
20
100.094223
11
81.048272
21
100.482134
0
LINE
8
Layer 1
10
81.048272
20
100.482134
11
90.553277
21
103.388224
0
LINE
8
Layer 1
10
90.553277
20
103.388224
11
90.725274
21
103.480224
0
LINE
8
Layer 1
10
90.725274
20
103.480224
11
90.849275
21
103.632224
0
LINE
8
Layer 1
10
90.849275
20
103.632224
11
90.905275
21
103.818224
0
LINE
8
Layer 1
10
90.905275
20
103.818224
11
90.885275
21
104.012224
0
LINE
8
Layer 1
10
90.885275
20
104.012224
11
87.085264
21
116.444223
0
LINE
8
Layer 1
10
87.085264
20
116.444223
11
87.066874
21
116.478223
0
LINE
8
Layer 1
10
87.066874
20
116.478223
11
86.992254
21
116.616223
0
LINE
8
Layer 1
10
86.992254
20
116.616223
11
86.841253
21
116.740223
0
LINE
8
Layer 1
10
86.841253
20
116.740223
11
86.654257
21
116.796223
0
LINE
8
Layer 1
10
86.654257
20
116.796223
11
86.460257
21
116.776223
0
LINE
8
Layer 1
10
86.460257
20
116.776223
11
85.868139
21
116.595234
0
LINE
8
Layer 1
10
68.287260
20
131.101223
11
68.163267
21
130.950223
0
LINE
8
Layer 1
10
68.163267
20
130.950223
11
68.107257
21
130.763223
0
LINE
8
Layer 1
10
68.107257
20
130.763223
11
68.127267
21
130.569223
0
LINE
8
Layer 1
10
68.127267
20
130.569223
11
71.927270
21
118.137223
0
LINE
8
Layer 1
10
71.927270
20
118.137223
11
72.020260
21
117.965223
0
LINE
8
Layer 1
10
72.020260
20
117.965223
11
72.171261
21
117.842223
0
LINE
8
Layer 1
10
72.171261
20
117.842223
11
72.358265
21
117.785223
0
LINE
8
Layer 1
10
72.358265
20
117.785223
11
72.552266
21
117.805223
0
LINE
8
Layer 1
10
72.552266
20
117.805223
11
81.048260
21
120.402817
0
LINE
8
Layer 1
10
81.048260
20
120.402817
11
84.984265
21
121.606223
0
LINE
8
Layer 1
10
84.984265
20
121.606223
11
85.156262
21
121.698222
0
LINE
8
Layer 1
10
85.156262
20
121.698222
11
85.279263
21
121.849222
0
LINE
8
Layer 1
10
85.279263
20
121.849222
11
85.335263
21
122.036223
0
LINE
8
Layer 1
10
85.335263
20
122.036223
11
85.316263
21
122.230223
0
LINE
8
Layer 1
10
85.316263
20
122.230223
11
84.570245
21
124.670223
0
LINE
8
Layer 1
10
84.570245
20
124.670223
11
82.065599
21
132.862224
0
LINE
8
Layer 1
10
82.065599
20
132.862224
11
81.515260
21
134.662223
0
LINE
8
Layer 1
10
81.515260
20
134.662223
11
81.423260
21
134.834224
0
LINE
8
Layer 1
10
81.423260
20
134.834224
11
81.271260
21
134.957223
0
LINE
8
Layer 1
10
81.271260
20
134.957223
11
81.085263
21
135.014223
0
LINE
8
Layer 1
10
81.085263
20
135.014223
11
81.048263
21
135.010423
0
LINE
8
Layer 1
10
81.048263
20
135.010423
11
80.891265
21
134.994233
0
LINE
8
Layer 1
10
80.891265
20
134.994233
11
73.918090
21
132.862233
0
LINE
8
Layer 1
10
73.918090
20
132.862233
11
68.459266
21
131.193232
0
LINE
8
Layer 1
10
68.459266
20
131.193232
11
68.287262
21
131.101232
0
LINE
8
Layer 1
10
50.782001
20
165.630232
11
48.280265
21
164.865344
0
LINE
8
Layer 1
10
48.280265
20
164.865344
11
39.102264
21
162.059233
0
LINE
8
Layer 1
10
39.102264
20
162.059233
11
38.930263
21
161.966233
0
LINE
8
Layer 1
10
38.930263
20
161.966233
11
38.806266
21
161.815236
0
LINE
8
Layer 1
10
38.806266
20
161.815236
11
38.750266
21
161.628236
0
LINE
8
Layer 1
10
38.750266
20
161.628236
11
38.770266
21
161.434235
0
LINE
8
Layer 1
10
38.770266
20
161.434235
11
42.495684
21
149.246236
0
LINE
8
Layer 1
10
42.495684
20
149.246236
11
42.570264
21
149.002232
0
LINE
8
Layer 1
10
42.570264
20
149.002232
11
42.663264
21
148.831235
0
LINE
8
Layer 1
10
42.663264
20
148.831235
11
42.814265
21
148.707234
0
LINE
8
Layer 1
10
42.814265
20
148.707234
11
43.001265
21
148.651234
0
LINE
8
Layer 1
10
43.001265
20
148.651234
11
43.195265
21
148.670234
0
LINE
8
Layer 1
10
43.195265
20
148.670234
11
45.079199
21
149.246235
0
LINE
8
Layer 1
10
45.079199
20
149.246235
11
48.280264
21
150.224937
0
LINE
8
Layer 1
10
48.280264
20
150.224937
11
55.627265
21
152.471233
0
LINE
8
Layer 1
10
55.627265
20
152.471233
11
55.799265
21
152.564233
0
LINE
8
Layer 1
10
55.799265
20
152.564233
11
55.922263
21
152.715234
0
LINE
8
Layer 1
10
55.922263
20
152.715234
11
55.978263
21
152.901234
0
LINE
8
Layer 1
10
55.978263
20
152.901234
11
55.959263
21
153.096234
0
LINE
8
Layer 1
10
55.959263
20
153.096234
11
55.778199
21
153.688443
0
LINE
8
Layer 1
10
55.778199
20
153.688443
11
55.047249
21
156.079175
0
LINE
8
Layer 1
10
55.047249
20
156.079175
11
54.631726
21
157.438233
0
LINE
8
Layer 1
10
54.631726
20
157.438233
11
52.158261
21
165.528233
0
LINE
8
Layer 1
10
52.158261
20
165.528233
11
52.103391
21
165.630234
0
LINE
8
Layer 1
10
52.103391
20
165.630234
11
52.066271
21
165.699234
0
LINE
8
Layer 1
10
52.066271
20
165.699234
11
51.915270
21
165.823234
0
LINE
8
Layer 1
10
51.915270
20
165.823234
11
51.728269
21
165.879234
0
LINE
8
Layer 1
10
51.728269
20
165.879234
11
51.534269
21
165.860234
0
LINE
8
Layer 1
10
51.534269
20
165.860234
11
50.782007
21
165.630234
0
LINE
8
Layer 1
10
33.848272
20
160.130234
11
33.697271
21
160.253236
0
LINE
8
Layer 1
10
33.697271
20
160.253236
11
33.510271
21
160.309236
0
LINE
8
Layer 1
10
33.510271
20
160.309236
11
33.316416
21
160.290246
0
LINE
8
Layer 1
10
33.316416
20
160.290246
11
33.316271
21
160.290230
0
LINE
8
Layer 1
10
33.316271
20
160.290230
11
31.896273
21
159.856076
0
LINE
8
Layer 1
10
31.896273
20
159.856076
11
20.884272
21
156.489232
0
LINE
8
Layer 1
10
20.884272
20
156.489232
11
20.712271
21
156.397232
0
LINE
8
Layer 1
10
20.712271
20
156.397232
11
20.589271
21
156.246235
0
LINE
8
Layer 1
10
20.589271
20
156.246235
11
20.532271
21
156.059234
0
LINE
8
Layer 1
10
20.532271
20
156.059234
11
20.552271
21
155.865234
0
LINE
8
Layer 1
10
20.552271
20
155.865234
11
22.575985
21
149.246235
0
LINE
8
Layer 1
10
22.575985
20
149.246235
11
24.353271
21
143.433233
0
LINE
8
Layer 1
10
24.353271
20
143.433233
11
24.445271
21
143.261234
0
LINE
8
Layer 1
10
24.445271
20
143.261234
11
24.596272
21
143.137233
0
LINE
8
Layer 1
10
24.596272
20
143.137233
11
24.783273
21
143.081233
0
LINE
8
Layer 1
10
24.783273
20
143.081233
11
24.977273
21
143.101233
0
LINE
8
Layer 1
10
24.977273
20
143.101233
11
31.896274
21
145.216672
0
LINE
8
Layer 1
10
31.896274
20
145.216672
11
37.409270
21
146.902234
0
LINE
8
Layer 1
10
37.409270
20
146.902234
11
37.581271
21
146.994234
0
LINE
8
Layer 1
10
37.581271
20
146.994234
11
37.704272
21
147.145233
0
LINE
8
Layer 1
10
37.704272
20
147.145233
11
37.761272
21
147.332233
0
LINE
8
Layer 1
10
37.761272
20
147.332233
11
37.741272
21
147.526233
0
LINE
8
Layer 1
10
37.741272
20
147.526233
11
37.215383
21
149.246225
0
LINE
8
Layer 1
10
37.215383
20
149.246225
11
33.940263
21
159.958223
0
LINE
8
Layer 1
10
33.940263
20
159.958223
11
33.848263
21
160.130223
0
LINE
8
Layer 1
10
61.196263
20
134.254222
11
61.368264
21
134.346222
0
LINE
8
Layer 1
10
61.368264
20
134.346222
11
61.492260
21
134.497221
0
LINE
8
Layer 1
10
61.492260
20
134.497221
11
61.548260
21
134.684221
0
LINE
8
Layer 1
10
61.548260
20
134.684221
11
61.528260
21
134.878222
0
LINE
8
Layer 1
10
61.528260
20
134.878222
11
57.728256
21
147.310223
0
LINE
8
Layer 1
10
57.728256
20
147.310223
11
57.635256
21
147.482222
0
LINE
8
Layer 1
10
57.635256
20
147.482222
11
57.484255
21
147.605223
0
LINE
8
Layer 1
10
57.484255
20
147.605223
11
57.297255
21
147.661223
0
LINE
8
Layer 1
10
57.297255
20
147.661223
11
57.103254
21
147.642223
0
LINE
8
Layer 1
10
57.103254
20
147.642223
11
48.280256
21
144.944650
0
LINE
8
Layer 1
10
48.280256
20
144.944650
11
44.671255
21
143.841224
0
LINE
8
Layer 1
10
44.671255
20
143.841224
11
44.499254
21
143.749224
0
LINE
8
Layer 1
10
44.499254
20
143.749224
11
44.376257
21
143.598225
0
LINE
8
Layer 1
10
44.376257
20
143.598225
11
44.320257
21
143.411225
0
LINE
8
Layer 1
10
44.320257
20
143.411225
11
44.339257
21
143.217224
0
LINE
8
Layer 1
10
44.339257
20
143.217224
11
45.000580
21
141.054224
0
LINE
8
Layer 1
10
45.000580
20
141.054224
11
47.505230
21
132.862225
0
LINE
8
Layer 1
10
47.505230
20
132.862225
11
48.140259
21
130.785224
0
LINE
8
Layer 1
10
48.140259
20
130.785224
11
48.233259
21
130.613224
0
LINE
8
Layer 1
10
48.233259
20
130.613224
11
48.280259
21
130.574624
0
LINE
8
Layer 1
10
48.280259
20
130.574624
11
48.384260
21
130.489224
0
LINE
8
Layer 1
10
48.384260
20
130.489224
11
48.570260
21
130.433224
0
LINE
8
Layer 1
10
48.570260
20
130.433224
11
48.764261
21
130.453224
0
LINE
8
Layer 1
10
48.764261
20
130.453224
11
56.643419
21
132.862225
0
LINE
8
Layer 1
10
56.643419
20
132.862225
11
61.196260
21
134.254223
0
LINE
8
Layer 1
10
35.556673
20
141.054223
11
31.896265
21
139.935077
0
LINE
8
Layer 1
10
31.896265
20
139.935077
11
26.454263
21
138.271222
0
LINE
8
Layer 1
10
26.454263
20
138.271222
11
26.282262
21
138.179222
0
LINE
8
Layer 1
10
26.282262
20
138.179222
11
26.158264
21
138.028221
0
LINE
8
Layer 1
10
26.158264
20
138.028221
11
26.102264
21
137.841223
0
LINE
8
Layer 1
10
26.102264
20
137.841223
11
26.122264
21
137.647223
0
LINE
8
Layer 1
10
26.122264
20
137.647223
11
27.585247
21
132.862223
0
LINE
8
Layer 1
10
27.585247
20
132.862223
11
29.923265
21
125.215222
0
LINE
8
Layer 1
10
29.923265
20
125.215222
11
30.015265
21
125.043221
0
LINE
8
Layer 1
10
30.015265
20
125.043221
11
30.166266
21
124.920222
0
LINE
8
Layer 1
10
30.166266
20
124.920222
11
30.353266
21
124.864221
0
LINE
8
Layer 1
10
30.353266
20
124.864221
11
30.547267
21
124.883221
0
LINE
8
Layer 1
10
30.547267
20
124.883221
11
31.896268
21
125.295669
0
LINE
8
Layer 1
10
31.896268
20
125.295669
11
42.979268
21
128.684221
0
LINE
8
Layer 1
10
42.979268
20
128.684221
11
43.151265
21
128.776221
0
LINE
8
Layer 1
10
43.151265
20
128.776221
11
43.274266
21
128.927221
0
LINE
8
Layer 1
10
43.274266
20
128.927221
11
43.330266
21
129.114221
0
LINE
8
Layer 1
10
43.330266
20
129.114221
11
43.311266
21
129.308221
0
LINE
8
Layer 1
10
43.311266
20
129.308221
11
42.224657
21
132.862222
0
LINE
8
Layer 1
10
42.224657
20
132.862222
11
39.720007
21
141.054221
0
LINE
8
Layer 1
10
39.720007
20
141.054221
11
39.510267
21
141.740220
0
LINE
8
Layer 1
10
39.510267
20
141.740220
11
39.418267
21
141.912221
0
LINE
8
Layer 1
10
39.418267
20
141.912221
11
39.267266
21
142.036222
0
LINE
8
Layer 1
10
39.267266
20
142.036222
11
39.080266
21
142.092222
0
LINE
8
Layer 1
10
39.080266
20
142.092222
11
38.886265
21
142.072222
0
LINE
8
Layer 1
10
38.886265
20
142.072222
11
35.556676
21
141.054222
0
LINE
8
Layer 1
10
50.069268
20
125.531223
11
49.946267
21
125.380223
0
LINE
8
Layer 1
10
49.946267
20
125.380223
11
49.889267
21
125.193223
0
LINE
8
Layer 1
10
49.889267
20
125.193223
11
49.909267
21
124.999222
0
LINE
8
Layer 1
10
49.909267
20
124.999222
11
52.514501
21
116.478223
0
LINE
8
Layer 1
10
52.514501
20
116.478223
11
53.710264
21
112.567223
0
LINE
8
Layer 1
10
53.710264
20
112.567223
11
53.802264
21
112.395223
0
LINE
8
Layer 1
10
53.802264
20
112.395223
11
53.953265
21
112.272223
0
LINE
8
Layer 1
10
53.953265
20
112.272223
11
54.140265
21
112.216223
0
LINE
8
Layer 1
10
54.140265
20
112.216223
11
54.334265
21
112.235223
0
LINE
8
Layer 1
10
54.334265
20
112.235223
11
64.664266
21
115.393550
0
LINE
8
Layer 1
10
64.664266
20
115.393550
11
66.766263
21
116.036223
0
LINE
8
Layer 1
10
66.766263
20
116.036223
11
66.938261
21
116.128223
0
LINE
8
Layer 1
10
66.938261
20
116.128223
11
67.061262
21
116.279223
0
LINE
8
Layer 1
10
67.061262
20
116.279223
11
67.118262
21
116.466223
0
LINE
8
Layer 1
10
67.118262
20
116.466223
11
67.117062
21
116.478223
0
LINE
8
Layer 1
10
67.117062
20
116.478223
11
67.098302
21
116.660223
0
LINE
8
Layer 1
10
67.098302
20
116.660223
11
64.664304
21
124.621151
0
LINE
8
Layer 1
10
64.664304
20
124.621151
11
63.297300
21
129.092223
0
LINE
8
Layer 1
10
63.297300
20
129.092223
11
63.205300
21
129.264223
0
LINE
8
Layer 1
10
63.205300
20
129.264223
11
63.054296
21
129.388223
0
LINE
8
Layer 1
10
63.054296
20
129.388223
11
62.867295
21
129.444223
0
LINE
8
Layer 1
10
62.867295
20
129.444223
11
62.673295
21
129.424223
0
LINE
8
Layer 1
10
62.673295
20
129.424223
11
50.241296
21
125.623223
0
LINE
8
Layer 1
10
50.241296
20
125.623223
11
50.069299
21
125.531223
0
LINE
8
Layer 1
10
31.896299
20
118.758725
11
32.593549
21
116.478222
0
LINE
8
Layer 1
10
32.593549
20
116.478222
11
35.492299
21
106.997223
0
LINE
8
Layer 1
10
35.492299
20
106.997223
11
35.585299
21
106.826222
0
LINE
8
Layer 1
10
35.585299
20
106.826222
11
35.736300
21
106.702223
0
LINE
8
Layer 1
10
35.736300
20
106.702223
11
35.922297
21
106.646223
0
LINE
8
Layer 1
10
35.922297
20
106.646223
11
36.117296
21
106.666223
0
LINE
8
Layer 1
10
36.117296
20
106.666223
11
44.149107
21
109.121248
0
LINE
8
Layer 1
10
44.149107
20
109.121248
11
48.280298
21
110.383999
0
LINE
8
Layer 1
10
48.280298
20
110.383999
11
48.549299
21
110.466222
0
LINE
8
Layer 1
10
48.549299
20
110.466222
11
48.720297
21
110.559222
0
LINE
8
Layer 1
10
48.720297
20
110.559222
11
48.844298
21
110.710222
0
LINE
8
Layer 1
10
48.844298
20
110.710222
11
48.900298
21
110.897223
0
LINE
8
Layer 1
10
48.900298
20
110.897223
11
48.881298
21
111.091222
0
LINE
8
Layer 1
10
48.881298
20
111.091222
11
48.700239
21
111.683433
0
LINE
8
Layer 1
10
48.700239
20
111.683433
11
48.280301
21
113.056924
0
LINE
8
Layer 1
10
48.280301
20
113.056924
11
47.234262
21
116.478222
0
LINE
8
Layer 1
10
47.234262
20
116.478222
11
45.080301
21
123.523223
0
LINE
8
Layer 1
10
45.080301
20
123.523223
11
44.987301
21
123.695223
0
LINE
8
Layer 1
10
44.987301
20
123.695223
11
44.836300
21
123.818223
0
LINE
8
Layer 1
10
44.836300
20
123.818223
11
44.649300
21
123.874223
0
LINE
8
Layer 1
10
44.649300
20
123.874223
11
44.455300
21
123.855223
0
LINE
8
Layer 1
10
44.455300
20
123.855223
11
32.023300
21
120.054223
0
LINE
8
Layer 1
10
32.023300
20
120.054223
11
31.896302
21
119.985153
0
LINE
8
Layer 1
10
31.896302
20
119.985153
11
31.852302
21
119.961223
0
LINE
8
Layer 1
10
31.852302
20
119.961223
11
31.728301
21
119.810223
0
LINE
8
Layer 1
10
31.728301
20
119.810223
11
31.672301
21
119.624223
0
LINE
8
Layer 1
10
31.672301
20
119.624223
11
31.691301
21
119.429223
0
LINE
8
Layer 1
10
31.691301
20
119.429223
11
31.896303
21
118.758726
0
LINE
8
Layer 1
10
15.292300
20
154.740224
11
15.098300
21
154.720224
0
LINE
8
Layer 1
10
15.098300
20
154.720224
11
2.666300
21
150.919225
0
LINE
8
Layer 1
10
2.666300
20
150.919225
11
2.495300
21
150.827225
0
LINE
8
Layer 1
10
2.495300
20
150.827225
11
2.371300
21
150.676228
0
LINE
8
Layer 1
10
2.371300
20
150.676228
11
2.315300
21
150.489228
0
LINE
8
Layer 1
10
2.315300
20
150.489228
11
2.334300
21
150.295227
0
LINE
8
Layer 1
10
2.334300
20
150.295227
11
2.655025
21
149.246228
0
LINE
8
Layer 1
10
2.655025
20
149.246228
11
6.135300
21
137.863223
0
LINE
8
Layer 1
10
6.135300
20
137.863223
11
6.228300
21
137.691222
0
LINE
8
Layer 1
10
6.228300
20
137.691222
11
6.379300
21
137.568223
0
LINE
8
Layer 1
10
6.379300
20
137.568223
11
6.566300
21
137.512223
0
LINE
8
Layer 1
10
6.566300
20
137.512223
11
6.760300
21
137.531223
0
LINE
8
Layer 1
10
6.760300
20
137.531223
11
15.512301
21
140.207089
0
LINE
8
Layer 1
10
15.512301
20
140.207089
11
18.283039
21
141.054224
0
LINE
8
Layer 1
10
18.283039
20
141.054224
11
19.192299
21
141.332224
0
LINE
8
Layer 1
10
19.192299
20
141.332224
11
19.193499
21
141.332861
0
LINE
8
Layer 1
10
19.193499
20
141.332861
11
19.363314
21
141.424221
0
LINE
8
Layer 1
10
19.363314
20
141.424221
11
19.487312
21
141.575222
0
LINE
8
Layer 1
10
19.487312
20
141.575222
11
19.543312
21
141.762222
0
LINE
8
Layer 1
10
19.543312
20
141.762222
11
19.524312
21
141.956223
0
LINE
8
Layer 1
10
19.524312
20
141.956223
11
17.295443
21
149.246224
0
LINE
8
Layer 1
10
17.295443
20
149.246224
11
15.723311
21
154.388222
0
LINE
8
Layer 1
10
15.723311
20
154.388222
11
15.630311
21
154.560223
0
LINE
8
Layer 1
10
15.630311
20
154.560223
11
15.512311
21
154.656343
0
LINE
8
Layer 1
10
15.512311
20
154.656343
11
15.479311
21
154.683223
0
LINE
8
Layer 1
10
15.479311
20
154.683223
11
15.292311
21
154.740223
0
LINE
8
Layer 1
10
23.704300
20
117.510469
11
20.328112
21
116.478222
0
LINE
8
Layer 1
10
20.328112
20
116.478222
11
13.806300
21
114.484223
0
LINE
8
Layer 1
10
13.806300
20
114.484223
11
13.634300
21
114.392223
0
LINE
8
Layer 1
10
13.634300
20
114.392223
11
13.510300
21
114.241223
0
LINE
8
Layer 1
10
13.510300
20
114.241223
11
13.454300
21
114.054223
0
LINE
8
Layer 1
10
13.454300
20
114.054223
11
13.474300
21
113.860223
0
LINE
8
Layer 1
10
13.474300
20
113.860223
11
17.275299
21
101.428223
0
LINE
8
Layer 1
10
17.275299
20
101.428223
11
17.367299
21
101.256223
0
LINE
8
Layer 1
10
17.367299
20
101.256223
11
17.518298
21
101.133223
0
LINE
8
Layer 1
10
17.518298
20
101.133223
11
17.705299
21
101.076223
0
LINE
8
Layer 1
10
17.705299
20
101.076223
11
17.899299
21
101.096223
0
LINE
8
Layer 1
10
17.899299
20
101.096223
11
30.331298
21
104.897223
0
LINE
8
Layer 1
10
30.331298
20
104.897223
11
30.503299
21
104.989223
0
LINE
8
Layer 1
10
30.503299
20
104.989223
11
30.626298
21
105.140223
0
LINE
8
Layer 1
10
30.626298
20
105.140223
11
30.682298
21
105.327223
0
LINE
8
Layer 1
10
30.682298
20
105.327223
11
30.663298
21
105.521223
0
LINE
8
Layer 1
10
30.663298
20
105.521223
11
27.313269
21
116.478222
0
LINE
8
Layer 1
10
27.313269
20
116.478222
11
27.047341
21
117.348000
0
LINE
8
Layer 1
10
27.047341
20
117.348000
11
26.862297
21
117.953223
0
LINE
8
Layer 1
10
26.862297
20
117.953223
11
26.770297
21
118.125223
0
LINE
8
Layer 1
10
26.770297
20
118.125223
11
26.619296
21
118.248223
0
LINE
8
Layer 1
10
26.619296
20
118.248223
11
26.432298
21
118.304223
0
LINE
8
Layer 1
10
26.432298
20
118.304223
11
26.238298
21
118.285223
0
LINE
8
Layer 1
10
26.238298
20
118.285223
11
23.704297
21
117.510469
0
LINE
8
Layer 1
10
11.797297
20
119.474223
11
11.948297
21
119.350223
0
LINE
8
Layer 1
10
11.948297
20
119.350223
11
12.135297
21
119.294223
0
LINE
8
Layer 1
10
12.135297
20
119.294223
11
12.329297
21
119.313223
0
LINE
8
Layer 1
10
12.329297
20
119.313223
11
15.512298
21
120.286403
0
LINE
8
Layer 1
10
15.512298
20
120.286403
11
23.704297
21
122.791052
0
LINE
8
Layer 1
10
23.704297
20
122.791052
11
24.761296
21
123.114223
0
LINE
8
Layer 1
10
24.761296
20
123.114223
11
24.933297
21
123.207223
0
LINE
8
Layer 1
10
24.933297
20
123.207223
11
25.057298
21
123.358223
0
LINE
8
Layer 1
10
25.057298
20
123.358223
11
25.113298
21
123.545223
0
LINE
8
Layer 1
10
25.113298
20
123.545223
11
25.093298
21
123.739223
0
LINE
8
Layer 1
10
25.093298
20
123.739223
11
24.808651
21
124.670223
0
LINE
8
Layer 1
10
24.808651
20
124.670223
11
22.304003
21
132.862224
0
LINE
8
Layer 1
10
22.304003
20
132.862224
11
21.292298
21
136.171224
0
LINE
8
Layer 1
10
21.292298
20
136.171224
11
21.200298
21
136.342223
0
LINE
8
Layer 1
10
21.200298
20
136.342223
11
21.049297
21
136.466224
0
LINE
8
Layer 1
10
21.049297
20
136.466224
11
20.862296
21
136.522224
0
LINE
8
Layer 1
10
20.862296
20
136.522224
11
20.673255
21
136.503704
0
LINE
8
Layer 1
10
20.673255
20
136.503704
11
20.668255
21
136.503218
0
LINE
8
Layer 1
10
20.668255
20
136.503218
11
15.512255
21
134.926805
0
LINE
8
Layer 1
10
15.512255
20
134.926805
11
8.759569
21
132.862219
0
LINE
8
Layer 1
10
8.759569
20
132.862219
11
8.236254
21
132.702219
0
LINE
8
Layer 1
10
8.236254
20
132.702219
11
8.064254
21
132.609219
0
LINE
8
Layer 1
10
8.064254
20
132.609219
11
7.941254
21
132.458218
0
LINE
8
Layer 1
10
7.941254
20
132.458218
11
7.885254
21
132.271218
0
LINE
8
Layer 1
10
7.885254
20
132.271218
11
7.904254
21
132.077218
0
LINE
8
Layer 1
10
7.904254
20
132.077218
11
11.705254
21
119.645218
0
LINE
8
Layer 1
10
11.705254
20
119.645218
11
11.797254
21
119.474218
0
LINE
8
Layer 1
10
68.867252
20
110.875217
11
68.775262
21
111.047217
0
LINE
8
Layer 1
10
68.775262
20
111.047217
11
68.624261
21
111.170218
0
LINE
8
Layer 1
10
68.624261
20
111.170218
11
68.437257
21
111.226218
0
LINE
8
Layer 1
10
68.437257
20
111.226218
11
68.243257
21
111.207218
0
LINE
8
Layer 1
10
68.243257
20
111.207218
11
67.678232
21
111.034465
0
LINE
8
Layer 1
10
67.678232
20
111.034465
11
64.664262
21
110.112963
0
LINE
8
Layer 1
10
64.664262
20
110.112963
11
58.689493
21
108.286217
0
LINE
8
Layer 1
10
58.689493
20
108.286217
11
55.811258
21
107.406218
0
LINE
8
Layer 1
10
55.811258
20
107.406218
11
55.639261
21
107.314218
0
LINE
8
Layer 1
10
55.639261
20
107.314218
11
55.515260
21
107.162218
0
LINE
8
Layer 1
10
55.515260
20
107.162218
11
55.459260
21
106.976218
0
LINE
8
Layer 1
10
55.459260
20
106.976218
11
55.479260
21
106.782217
0
LINE
8
Layer 1
10
55.479260
20
106.782217
11
57.524067
21
100.094217
0
LINE
8
Layer 1
10
57.524067
20
100.094217
11
59.280258
21
94.350218
0
LINE
8
Layer 1
10
59.280258
20
94.350218
11
59.372258
21
94.178219
0
LINE
8
Layer 1
10
59.372258
20
94.178219
11
59.523259
21
94.054218
0
LINE
8
Layer 1
10
59.523259
20
94.054218
11
59.710260
21
93.998218
0
LINE
8
Layer 1
10
59.710260
20
93.998218
11
59.904260
21
94.018218
0
LINE
8
Layer 1
10
59.904260
20
94.018218
11
64.664262
21
95.473172
0
LINE
8
Layer 1
10
64.664262
20
95.473172
11
72.336297
21
97.818223
0
LINE
8
Layer 1
10
72.336297
20
97.818223
11
72.508294
21
97.911223
0
LINE
8
Layer 1
10
72.508294
20
97.911223
11
72.631295
21
98.062222
0
LINE
8
Layer 1
10
72.631295
20
98.062222
11
72.687295
21
98.249222
0
LINE
8
Layer 1
10
72.687295
20
98.249222
11
72.668295
21
98.443222
0
LINE
8
Layer 1
10
72.668295
20
98.443222
11
72.163514
21
100.094222
0
LINE
8
Layer 1
10
72.163514
20
100.094222
11
69.658868
21
108.286222
0
LINE
8
Layer 1
10
69.658868
20
108.286222
11
68.867295
21
110.875222
0
LINE
8
Layer 1
10
48.280297
20
88.116752
11
53.844297
21
91.329223
0
LINE
8
Layer 1
10
53.844297
20
91.329223
11
53.991296
21
91.457223
0
LINE
8
Layer 1
10
53.991296
20
91.457223
11
54.077296
21
91.632222
0
LINE
8
Layer 1
10
54.077296
20
91.632222
11
54.090296
21
91.827224
0
LINE
8
Layer 1
10
54.090296
20
91.827224
11
54.027296
21
92.012223
0
LINE
8
Layer 1
10
54.027296
20
92.012223
11
49.361017
21
100.094222
0
LINE
8
Layer 1
10
49.361017
20
100.094222
11
48.280298
21
101.966027
0
LINE
8
Layer 1
10
48.280298
20
101.966027
11
47.527296
21
103.270223
0
LINE
8
Layer 1
10
47.527296
20
103.270223
11
47.399298
21
103.417223
0
LINE
8
Layer 1
10
47.399298
20
103.417223
11
47.224299
21
103.503223
0
LINE
8
Layer 1
10
47.224299
20
103.503223
11
47.029299
21
103.516223
0
LINE
8
Layer 1
10
47.029299
20
103.516223
11
46.844298
21
103.453223
0
LINE
8
Layer 1
10
46.844298
20
103.453223
11
41.026510
21
100.094222
0
LINE
8
Layer 1
10
41.026510
20
100.094222
11
35.586298
21
96.953223
0
LINE
8
Layer 1
10
35.586298
20
96.953223
11
35.439299
21
96.824224
0
LINE
8
Layer 1
10
35.439299
20
96.824224
11
35.353299
21
96.649223
0
LINE
8
Layer 1
10
35.353299
20
96.649223
11
35.340299
21
96.455222
0
LINE
8
Layer 1
10
35.340299
20
96.455222
11
35.403299
21
96.270223
0
LINE
8
Layer 1
10
35.403299
20
96.270223
11
41.903299
21
85.012223
0
LINE
8
Layer 1
10
41.903299
20
85.012223
11
42.032296
21
84.865222
0
LINE
8
Layer 1
10
42.032296
20
84.865222
11
42.207296
21
84.779222
0
LINE
8
Layer 1
10
42.207296
20
84.779222
11
42.401296
21
84.766222
0
LINE
8
Layer 1
10
42.401296
20
84.766222
11
42.586297
21
84.829222
0
LINE
8
Layer 1
10
42.586297
20
84.829222
11
48.280297
21
88.116751
0
LINE
8
Layer 1
10
36.824179
20
83.710221
11
35.965479
21
85.197490
0
LINE
8
Layer 1
10
35.965479
20
85.197490
11
33.830057
21
88.896037
0
LINE
8
Layer 1
10
33.830057
20
88.896037
11
31.896300
21
92.245311
0
LINE
8
Layer 1
10
31.896300
20
92.245311
11
31.030298
21
93.745223
0
LINE
8
Layer 1
10
31.030298
20
93.745223
11
30.901299
21
93.892223
0
LINE
8
Layer 1
10
30.901299
20
93.892223
11
30.726298
21
93.978223
0
LINE
8
Layer 1
10
30.726298
20
93.978223
11
30.531298
21
93.991223
0
LINE
8
Layer 1
10
30.531298
20
93.991223
11
30.347298
21
93.928223
0
LINE
8
Layer 1
10
30.347298
20
93.928223
11
19.088297
21
87.428223
0
LINE
8
Layer 1
10
19.088297
20
87.428223
11
18.942297
21
87.299221
0
LINE
8
Layer 1
10
18.942297
20
87.299221
11
18.855297
21
87.124222
0
LINE
8
Layer 1
10
18.855297
20
87.124222
11
18.843297
21
86.930222
0
LINE
8
Layer 1
10
18.843297
20
86.930222
11
18.905297
21
86.745222
0
LINE
8
Layer 1
10
18.905297
20
86.745222
11
20.657607
21
83.710220
0
LINE
8
Layer 1
10
20.657607
20
83.710220
11
25.405297
21
75.487221
0
LINE
8
Layer 1
10
25.405297
20
75.487221
11
25.534297
21
75.340222
0
LINE
8
Layer 1
10
25.534297
20
75.340222
11
25.709296
21
75.254222
0
LINE
8
Layer 1
10
25.709296
20
75.254222
11
25.904296
21
75.241222
0
LINE
8
Layer 1
10
25.904296
20
75.241222
11
26.088296
21
75.304222
0
LINE
8
Layer 1
10
26.088296
20
75.304222
11
29.465997
21
77.254223
0
LINE
8
Layer 1
10
29.465997
20
77.254223
11
31.896299
21
78.657272
0
LINE
8
Layer 1
10
31.896299
20
78.657272
11
37.347299
21
81.804222
0
LINE
8
Layer 1
10
37.347299
20
81.804222
11
37.493299
21
81.932221
0
LINE
8
Layer 1
10
37.493299
20
81.932221
11
37.580299
21
82.107224
0
LINE
8
Layer 1
10
37.580299
20
82.107224
11
37.592299
21
82.302223
0
LINE
8
Layer 1
10
37.592299
20
82.302223
11
37.530299
21
82.487221
0
LINE
8
Layer 1
10
37.530299
20
82.487221
11
36.824180
21
83.710220
0
LINE
8
Layer 1
10
21.032297
20
72.962224
11
15.512299
21
82.522863
0
LINE
8
Layer 1
10
15.512299
20
82.522863
11
14.826756
21
83.710221
0
LINE
8
Layer 1
10
14.826756
20
83.710221
11
14.532298
21
84.220224
0
LINE
8
Layer 1
10
14.532298
20
84.220224
11
14.403298
21
84.367223
0
LINE
8
Layer 1
10
14.403298
20
84.367223
11
14.228298
21
84.453223
0
LINE
8
Layer 1
10
14.228298
20
84.453223
11
14.034298
21
84.466223
0
LINE
8
Layer 1
10
14.034298
20
84.466223
11
13.849298
21
84.403223
0
LINE
8
Layer 1
10
13.849298
20
84.403223
11
12.649022
21
83.710222
0
LINE
8
Layer 1
10
12.649022
20
83.710222
11
2.591298
21
77.903222
0
LINE
8
Layer 1
10
2.591298
20
77.903222
11
2.444298
21
77.774224
0
LINE
8
Layer 1
10
2.444298
20
77.774224
11
2.358298
21
77.599221
0
LINE
8
Layer 1
10
2.358298
20
77.599221
11
2.345298
21
77.405221
0
LINE
8
Layer 1
10
2.345298
20
77.405221
11
2.407298
21
77.220224
0
LINE
8
Layer 1
10
2.407298
20
77.220224
11
7.257287
21
68.820043
0
LINE
8
Layer 1
10
7.257287
20
68.820043
11
8.119769
21
67.326223
0
LINE
8
Layer 1
10
8.119769
20
67.326223
11
8.907298
21
65.962224
0
LINE
8
Layer 1
10
8.907298
20
65.962224
11
9.036298
21
65.815225
0
LINE
8
Layer 1
10
9.036298
20
65.815225
11
9.211298
21
65.729225
0
LINE
8
Layer 1
10
9.211298
20
65.729225
11
9.406298
21
65.716225
0
LINE
8
Layer 1
10
9.406298
20
65.716225
11
9.591298
21
65.779225
0
LINE
8
Layer 1
10
9.591298
20
65.779225
11
12.270702
21
67.326226
0
LINE
8
Layer 1
10
12.270702
20
67.326226
11
13.534761
21
68.056053
0
LINE
8
Layer 1
10
13.534761
20
68.056053
11
15.512299
21
69.197819
0
LINE
8
Layer 1
10
15.512299
20
69.197819
11
20.849299
21
72.279225
0
LINE
8
Layer 1
10
20.849299
20
72.279225
11
20.996298
21
72.407227
0
LINE
8
Layer 1
10
20.996298
20
72.407227
11
21.082298
21
72.582226
0
LINE
8
Layer 1
10
21.082298
20
72.582226
11
21.095298
21
72.777226
0
LINE
8
Layer 1
10
21.095298
20
72.777226
11
21.032298
21
72.962227
0
LINE
8
Layer 1
10
-17.222702
20
154.683225
11
-17.255702
21
154.656345
0
LINE
8
Layer 1
10
-17.255702
20
154.656345
11
-17.373702
21
154.560225
0
LINE
8
Layer 1
10
-17.373702
20
154.560225
11
-17.466702
21
154.388224
0
LINE
8
Layer 1
10
-17.466702
20
154.388224
11
-17.640010
21
153.821387
0
LINE
8
Layer 1
10
-17.640010
20
153.821387
11
-18.381638
21
151.395731
0
LINE
8
Layer 1
10
-18.381638
20
151.395731
11
-19.038834
21
149.246226
0
LINE
8
Layer 1
10
-19.038834
20
149.246226
11
-21.267703
21
141.956225
0
LINE
8
Layer 1
10
-21.267703
20
141.956225
11
-21.286703
21
141.762224
0
LINE
8
Layer 1
10
-21.286703
20
141.762224
11
-21.230703
21
141.575224
0
LINE
8
Layer 1
10
-21.230703
20
141.575224
11
-21.106705
21
141.424223
0
LINE
8
Layer 1
10
-21.106705
20
141.424223
11
-20.935703
21
141.332223
0
LINE
8
Layer 1
10
-20.935703
20
141.332223
11
-20.026443
21
141.054223
0
LINE
8
Layer 1
10
-20.026443
20
141.054223
11
-17.255705
21
140.207088
0
LINE
8
Layer 1
10
-17.255705
20
140.207088
11
-8.503704
21
137.531222
0
LINE
8
Layer 1
10
-8.503704
20
137.531222
11
-8.309704
21
137.512222
0
LINE
8
Layer 1
10
-8.309704
20
137.512222
11
-8.122704
21
137.568222
0
LINE
8
Layer 1
10
-8.122704
20
137.568222
11
-7.971704
21
137.691221
0
LINE
8
Layer 1
10
-7.971704
20
137.691221
11
-7.878704
21
137.863222
0
LINE
8
Layer 1
10
-7.878704
20
137.863222
11
-4.398428
21
149.246224
0
LINE
8
Layer 1
10
-4.398428
20
149.246224
11
-4.077704
21
150.295223
0
LINE
8
Layer 1
10
-4.077704
20
150.295223
11
-4.058704
21
150.489224
0
LINE
8
Layer 1
10
-4.058704
20
150.489224
11
-4.114704
21
150.676224
0
LINE
8
Layer 1
10
-4.114704
20
150.676224
11
-4.238704
21
150.827221
0
LINE
8
Layer 1
10
-4.238704
20
150.827221
11
-4.409704
21
150.919221
0
LINE
8
Layer 1
10
-4.409704
20
150.919221
11
-16.841704
21
154.720220
0
LINE
8
Layer 1
10
-16.841704
20
154.720220
11
-17.036705
21
154.740220
0
LINE
8
Layer 1
10
-17.036705
20
154.740220
11
-17.222704
21
154.683220
0
LINE
8
Layer 1
10
-26.096704
20
143.433218
11
-24.319418
21
149.246220
0
LINE
8
Layer 1
10
-24.319418
20
149.246220
11
-22.295704
21
155.865219
0
LINE
8
Layer 1
10
-22.295704
20
155.865219
11
-22.276704
21
156.059219
0
LINE
8
Layer 1
10
-22.276704
20
156.059219
11
-22.332704
21
156.246220
0
LINE
8
Layer 1
10
-22.332704
20
156.246220
11
-22.455704
21
156.397217
0
LINE
8
Layer 1
10
-22.455704
20
156.397217
11
-22.627705
21
156.489217
0
LINE
8
Layer 1
10
-22.627705
20
156.489217
11
-33.639706
21
159.856061
0
LINE
8
Layer 1
10
-33.639706
20
159.856061
11
-35.059704
21
160.290215
0
LINE
8
Layer 1
10
-35.059704
20
160.290215
11
-35.253704
21
160.309215
0
LINE
8
Layer 1
10
-35.253704
20
160.309215
11
-35.440704
21
160.253215
0
LINE
8
Layer 1
10
-35.440704
20
160.253215
11
-35.591705
21
160.130213
0
LINE
8
Layer 1
10
-35.591705
20
160.130213
11
-35.683705
21
159.958213
0
LINE
8
Layer 1
10
-35.683705
20
159.958213
11
-35.864762
21
159.366027
0
LINE
8
Layer 1
10
-35.864762
20
159.366027
11
-36.590146
21
156.993495
0
LINE
8
Layer 1
10
-36.590146
20
156.993495
11
-37.861005
21
152.836878
0
LINE
8
Layer 1
10
-37.861005
20
152.836878
11
-38.958825
21
149.246215
0
LINE
8
Layer 1
10
-38.958825
20
149.246215
11
-39.484704
21
147.526213
0
LINE
8
Layer 1
10
-39.484704
20
147.526213
11
-39.504704
21
147.332213
0
LINE
8
Layer 1
10
-39.504704
20
147.332213
11
-39.447704
21
147.145213
0
LINE
8
Layer 1
10
-39.447704
20
147.145213
11
-39.324703
21
146.994214
0
LINE
8
Layer 1
10
-39.324703
20
146.994214
11
-39.152702
21
146.902214
0
LINE
8
Layer 1
10
-39.152702
20
146.902214
11
-33.639706
21
145.216652
0
LINE
8
Layer 1
10
-33.639706
20
145.216652
11
-26.720705
21
143.101213
0
LINE
8
Layer 1
10
-26.720705
20
143.101213
11
-26.526705
21
143.081213
0
LINE
8
Layer 1
10
-26.526705
20
143.081213
11
-26.339704
21
143.137213
0
LINE
8
Layer 1
10
-26.339704
20
143.137213
11
-26.188703
21
143.261214
0
LINE
8
Layer 1
10
-26.188703
20
143.261214
11
-26.096703
21
143.433213
0
LINE
8
Layer 1
10
-23.209412
20
135.603059
11
-23.942145
21
133.206494
0
LINE
8
Layer 1
10
-23.942145
20
133.206494
11
-24.047408
21
132.862214
0
LINE
8
Layer 1
10
-24.047408
20
132.862214
11
-26.552056
21
124.670213
0
LINE
8
Layer 1
10
-26.552056
20
124.670213
11
-26.836703
21
123.739213
0
LINE
8
Layer 1
10
-26.836703
20
123.739213
11
-26.856703
21
123.545212
0
LINE
8
Layer 1
10
-26.856703
20
123.545212
11
-26.800703
21
123.358213
0
LINE
8
Layer 1
10
-26.800703
20
123.358213
11
-26.676702
21
123.207213
0
LINE
8
Layer 1
10
-26.676702
20
123.207213
11
-26.504701
21
123.114213
0
LINE
8
Layer 1
10
-26.504701
20
123.114213
11
-25.447702
21
122.791042
0
LINE
8
Layer 1
10
-25.447702
20
122.791042
11
-17.255703
21
120.286393
0
LINE
8
Layer 1
10
-17.255703
20
120.286393
11
-14.072702
21
119.313212
0
LINE
8
Layer 1
10
-14.072702
20
119.313212
11
-13.878702
21
119.294212
0
LINE
8
Layer 1
10
-13.878702
20
119.294212
11
-13.691702
21
119.350212
0
LINE
8
Layer 1
10
-13.691702
20
119.350212
11
-13.540702
21
119.474213
0
LINE
8
Layer 1
10
-13.540702
20
119.474213
11
-13.448702
21
119.645213
0
LINE
8
Layer 1
10
-13.448702
20
119.645213
11
-9.647702
21
132.077213
0
LINE
8
Layer 1
10
-9.647702
20
132.077213
11
-9.628702
21
132.271213
0
LINE
8
Layer 1
10
-9.628702
20
132.271213
11
-9.684702
21
132.458213
0
LINE
8
Layer 1
10
-9.684702
20
132.458213
11
-9.807702
21
132.609214
0
LINE
8
Layer 1
10
-9.807702
20
132.609214
11
-9.979702
21
132.702214
0
LINE
8
Layer 1
10
-9.979702
20
132.702214
11
-10.503017
21
132.862214
0
LINE
8
Layer 1
10
-10.503017
20
132.862214
11
-10.571427
21
132.883124
0
LINE
8
Layer 1
10
-10.571427
20
132.883124
11
-12.972929
21
133.617365
0
LINE
8
Layer 1
10
-12.972929
20
133.617365
11
-17.101043
21
134.879509
0
LINE
8
Layer 1
10
-17.101043
20
134.879509
11
-17.255708
21
134.926799
0
LINE
8
Layer 1
10
-17.255708
20
134.926799
11
-22.411708
21
136.503212
0
LINE
8
Layer 1
10
-22.411708
20
136.503212
11
-22.605706
21
136.522212
0
LINE
8
Layer 1
10
-22.605706
20
136.522212
11
-22.792707
21
136.466212
0
LINE
8
Layer 1
10
-22.792707
20
136.466212
11
-22.943708
21
136.342211
0
LINE
8
Layer 1
10
-22.943708
20
136.342211
11
-23.035708
21
136.171212
0
LINE
8
Layer 1
10
-23.035708
20
136.171212
11
-23.209417
21
135.603057
0
LINE
8
Layer 1
10
-31.666708
20
125.215211
11
-29.328690
21
132.862212
0
LINE
8
Layer 1
10
-29.328690
20
132.862212
11
-27.865707
21
137.647212
0
LINE
8
Layer 1
10
-27.865707
20
137.647212
11
-27.845707
21
137.841212
0
LINE
8
Layer 1
10
-27.845707
20
137.841212
11
-27.901707
21
138.028210
0
LINE
8
Layer 1
10
-27.901707
20
138.028210
11
-28.025705
21
138.179211
0
LINE
8
Layer 1
10
-28.025705
20
138.179211
11
-28.197706
21
138.271211
0
LINE
8
Layer 1
10
-28.197706
20
138.271211
11
-33.639708
21
139.935066
0
LINE
8
Layer 1
10
-33.639708
20
139.935066
11
-37.300116
21
141.054212
0
LINE
8
Layer 1
10
-37.300116
20
141.054212
11
-40.629705
21
142.072212
0
LINE
8
Layer 1
10
-40.629705
20
142.072212
11
-40.823706
21
142.092212
0
LINE
8
Layer 1
10
-40.823706
20
142.092212
11
-41.010706
21
142.036212
0
LINE
8
Layer 1
10
-41.010706
20
142.036212
11
-41.161707
21
141.912211
0
LINE
8
Layer 1
10
-41.161707
20
141.912211
11
-41.253707
21
141.740210
0
LINE
8
Layer 1
10
-41.253707
20
141.740210
11
-41.463447
21
141.054211
0
LINE
8
Layer 1
10
-41.463447
20
141.054211
11
-43.968097
21
132.862212
0
LINE
8
Layer 1
10
-43.968097
20
132.862212
11
-45.054706
21
129.308211
0
LINE
8
Layer 1
10
-45.054706
20
129.308211
11
-45.073706
21
129.114211
0
LINE
8
Layer 1
10
-45.073706
20
129.114211
11
-45.017706
21
128.927211
0
LINE
8
Layer 1
10
-45.017706
20
128.927211
11
-44.894705
21
128.776211
0
LINE
8
Layer 1
10
-44.894705
20
128.776211
11
-44.722708
21
128.684211
0
LINE
8
Layer 1
10
-44.722708
20
128.684211
11
-33.639708
21
125.295658
0
LINE
8
Layer 1
10
-33.639708
20
125.295658
11
-32.290707
21
124.883210
0
LINE
8
Layer 1
10
-32.290707
20
124.883210
11
-32.096706
21
124.864210
0
LINE
8
Layer 1
10
-32.096706
20
124.864210
11
-31.909706
21
124.920211
0
LINE
8
Layer 1
10
-31.909706
20
124.920211
11
-31.758705
21
125.043210
0
LINE
8
Layer 1
10
-31.758705
20
125.043210
11
-31.666705
21
125.215211
0
LINE
8
Layer 1
10
-28.175706
20
118.304211
11
-28.362704
21
118.248211
0
LINE
8
Layer 1
10
-28.362704
20
118.248211
11
-28.513705
21
118.125211
0
LINE
8
Layer 1
10
-28.513705
20
118.125211
11
-28.605705
21
117.953211
0
LINE
8
Layer 1
10
-28.605705
20
117.953211
11
-28.790749
21
117.347988
0
LINE
8
Layer 1
10
-28.790749
20
117.347988
11
-29.056678
21
116.478222
0
LINE
8
Layer 1
10
-29.056678
20
116.478222
11
-32.406707
21
105.521223
0
LINE
8
Layer 1
10
-32.406707
20
105.521223
11
-32.425707
21
105.327223
0
LINE
8
Layer 1
10
-32.425707
20
105.327223
11
-32.369707
21
105.140223
0
LINE
8
Layer 1
10
-32.369707
20
105.140223
11
-32.246708
21
104.989223
0
LINE
8
Layer 1
10
-32.246708
20
104.989223
11
-32.074707
21
104.897223
0
LINE
8
Layer 1
10
-32.074707
20
104.897223
11
-19.642708
21
101.096223
0
LINE
8
Layer 1
10
-19.642708
20
101.096223
11
-19.448708
21
101.076223
0
LINE
8
Layer 1
10
-19.448708
20
101.076223
11
-19.261707
21
101.133223
0
LINE
8
Layer 1
10
-19.261707
20
101.133223
11
-19.110708
21
101.256223
0
LINE
8
Layer 1
10
-19.110708
20
101.256223
11
-19.018708
21
101.428223
0
LINE
8
Layer 1
10
-19.018708
20
101.428223
11
-15.217707
21
113.860223
0
LINE
8
Layer 1
10
-15.217707
20
113.860223
11
-15.197707
21
114.054223
0
LINE
8
Layer 1
10
-15.197707
20
114.054223
11
-15.253707
21
114.241223
0
LINE
8
Layer 1
10
-15.253707
20
114.241223
11
-15.377707
21
114.392223
0
LINE
8
Layer 1
10
-15.377707
20
114.392223
11
-15.549707
21
114.484223
0
LINE
8
Layer 1
10
-15.549707
20
114.484223
11
-22.071519
21
116.478222
0
LINE
8
Layer 1
10
-22.071519
20
116.478222
11
-25.447707
21
117.510469
0
LINE
8
Layer 1
10
-25.447707
20
117.510469
11
-27.981708
21
118.285223
0
LINE
8
Layer 1
10
-27.981708
20
118.285223
11
-28.175708
21
118.304223
0
LINE
8
Layer 1
10
-53.809707
20
165.699224
11
-53.846827
21
165.630224
0
LINE
8
Layer 1
10
-53.846827
20
165.630224
11
-53.901697
21
165.528223
0
LINE
8
Layer 1
10
-53.901697
20
165.528223
11
-56.375162
21
157.438223
0
LINE
8
Layer 1
10
-56.375162
20
157.438223
11
-57.702699
21
153.096224
0
LINE
8
Layer 1
10
-57.702699
20
153.096224
11
-57.721699
21
152.901224
0
LINE
8
Layer 1
10
-57.721699
20
152.901224
11
-57.665699
21
152.715224
0
LINE
8
Layer 1
10
-57.665699
20
152.715224
11
-57.542701
21
152.564223
0
LINE
8
Layer 1
10
-57.542701
20
152.564223
11
-57.370701
21
152.471223
0
LINE
8
Layer 1
10
-57.370701
20
152.471223
11
-50.023700
21
150.224927
0
LINE
8
Layer 1
10
-50.023700
20
150.224927
11
-46.822635
21
149.246225
0
LINE
8
Layer 1
10
-46.822635
20
149.246225
11
-44.938701
21
148.670224
0
LINE
8
Layer 1
10
-44.938701
20
148.670224
11
-44.744701
21
148.651224
0
LINE
8
Layer 1
10
-44.744701
20
148.651224
11
-44.557701
21
148.707224
0
LINE
8
Layer 1
10
-44.557701
20
148.707224
11
-44.406700
21
148.831225
0
LINE
8
Layer 1
10
-44.406700
20
148.831225
11
-44.313700
21
149.002222
0
LINE
8
Layer 1
10
-44.313700
20
149.002222
11
-44.239120
21
149.246226
0
LINE
8
Layer 1
10
-44.239120
20
149.246226
11
-40.513702
21
161.434225
0
LINE
8
Layer 1
10
-40.513702
20
161.434225
11
-40.493702
21
161.628226
0
LINE
8
Layer 1
10
-40.493702
20
161.628226
11
-40.549702
21
161.815226
0
LINE
8
Layer 1
10
-40.549702
20
161.815226
11
-40.673699
21
161.966223
0
LINE
8
Layer 1
10
-40.673699
20
161.966223
11
-40.845700
21
162.059223
0
LINE
8
Layer 1
10
-40.845700
20
162.059223
11
-50.023701
21
164.865334
0
LINE
8
Layer 1
10
-50.023701
20
164.865334
11
-52.525437
21
165.630222
0
LINE
8
Layer 1
10
-52.525437
20
165.630222
11
-53.277699
21
165.860222
0
LINE
8
Layer 1
10
-53.277699
20
165.860222
11
-53.471699
21
165.879222
0
LINE
8
Layer 1
10
-53.471699
20
165.879222
11
-53.658700
21
165.823222
0
LINE
8
Layer 1
10
-53.658700
20
165.823222
11
-53.809701
21
165.699222
0
LINE
8
Layer 1
10
-59.062703
20
167.628223
11
-66.407704
21
169.873904
0
LINE
8
Layer 1
10
-66.407704
20
169.873904
11
-71.494702
21
171.429221
0
LINE
8
Layer 1
10
-71.494702
20
171.429221
11
-71.688702
21
171.449221
0
LINE
8
Layer 1
10
-71.688702
20
171.449221
11
-71.875699
21
171.393221
0
LINE
8
Layer 1
10
-71.875699
20
171.393221
11
-72.026700
21
171.269220
0
LINE
8
Layer 1
10
-72.026700
20
171.269220
11
-72.119700
21
171.097219
0
LINE
8
Layer 1
10
-72.119700
20
171.097219
11
-73.790759
21
165.630220
0
LINE
8
Layer 1
10
-73.790759
20
165.630220
11
-74.599696
21
162.983706
0
LINE
8
Layer 1
10
-74.599696
20
162.983706
11
-75.042750
21
161.534220
0
LINE
8
Layer 1
10
-75.042750
20
161.534220
11
-75.919696
21
158.665220
0
LINE
8
Layer 1
10
-75.919696
20
158.665220
11
-75.939696
21
158.471220
0
LINE
8
Layer 1
10
-75.939696
20
158.471220
11
-75.883696
21
158.284220
0
LINE
8
Layer 1
10
-75.883696
20
158.284220
11
-75.759695
21
158.133219
0
LINE
8
Layer 1
10
-75.759695
20
158.133219
11
-75.587698
21
158.041219
0
LINE
8
Layer 1
10
-75.587698
20
158.041219
11
-74.599692
21
157.739144
0
LINE
8
Layer 1
10
-74.599692
20
157.739144
11
-73.615454
21
157.438218
0
LINE
8
Layer 1
10
-73.615454
20
157.438218
11
-72.623702
21
157.134999
0
LINE
8
Layer 1
10
-72.623702
20
157.134999
11
-68.466856
21
155.864068
0
LINE
8
Layer 1
10
-68.466856
20
155.864068
11
-66.407698
21
155.234494
0
LINE
8
Layer 1
10
-66.407698
20
155.234494
11
-63.155695
21
154.240220
0
LINE
8
Layer 1
10
-63.155695
20
154.240220
11
-62.961695
21
154.221220
0
LINE
8
Layer 1
10
-62.961695
20
154.221220
11
-62.775694
21
154.277220
0
LINE
8
Layer 1
10
-62.775694
20
154.277220
11
-62.623694
21
154.400221
0
LINE
8
Layer 1
10
-62.623694
20
154.400221
11
-62.531694
21
154.572222
0
LINE
8
Layer 1
10
-62.531694
20
154.572222
11
-61.655435
21
157.438219
0
LINE
8
Layer 1
10
-61.655435
20
157.438219
11
-59.150785
21
165.630220
0
LINE
8
Layer 1
10
-59.150785
20
165.630220
11
-58.730695
21
167.004221
0
LINE
8
Layer 1
10
-58.730695
20
167.004221
11
-58.711695
21
167.198221
0
LINE
8
Layer 1
10
-58.711695
20
167.198221
11
-58.767695
21
167.385221
0
LINE
8
Layer 1
10
-58.767695
20
167.385221
11
-58.890696
21
167.536219
0
LINE
8
Layer 1
10
-58.890696
20
167.536219
11
-59.062697
21
167.628219
0
LINE
8
Layer 1
10
-46.414694
20
143.841218
11
-50.023695
21
144.944644
0
LINE
8
Layer 1
10
-50.023695
20
144.944644
11
-58.846693
21
147.642217
0
LINE
8
Layer 1
10
-58.846693
20
147.642217
11
-59.040694
21
147.661217
0
LINE
8
Layer 1
10
-59.040694
20
147.661217
11
-59.227694
21
147.605217
0
LINE
8
Layer 1
10
-59.227694
20
147.605217
11
-59.378695
21
147.482216
0
LINE
8
Layer 1
10
-59.378695
20
147.482216
11
-59.471695
21
147.310217
0
LINE
8
Layer 1
10
-59.471695
20
147.310217
11
-60.386677
21
144.316780
0
LINE
8
Layer 1
10
-60.386677
20
144.316780
11
-61.617386
21
140.290418
0
LINE
8
Layer 1
10
-61.617386
20
140.290418
11
-63.271699
21
134.878216
0
LINE
8
Layer 1
10
-63.271699
20
134.878216
11
-63.291699
21
134.684215
0
LINE
8
Layer 1
10
-63.291699
20
134.684215
11
-63.235699
21
134.497215
0
LINE
8
Layer 1
10
-63.235699
20
134.497215
11
-63.111703
21
134.346216
0
LINE
8
Layer 1
10
-63.111703
20
134.346216
11
-62.939702
21
134.254216
0
LINE
8
Layer 1
10
-62.939702
20
134.254216
11
-58.387227
21
132.862218
0
LINE
8
Layer 1
10
-58.387227
20
132.862218
11
-50.508702
21
130.453217
0
LINE
8
Layer 1
10
-50.508702
20
130.453217
11
-50.313702
21
130.433217
0
LINE
8
Layer 1
10
-50.313702
20
130.433217
11
-50.127702
21
130.489217
0
LINE
8
Layer 1
10
-50.127702
20
130.489217
11
-50.023701
21
130.574617
0
LINE
8
Layer 1
10
-50.023701
20
130.574617
11
-49.976701
21
130.613217
0
LINE
8
Layer 1
10
-49.976701
20
130.613217
11
-49.883701
21
130.785217
0
LINE
8
Layer 1
10
-49.883701
20
130.785217
11
-49.248672
21
132.862218
0
LINE
8
Layer 1
10
-49.248672
20
132.862218
11
-46.744022
21
141.054217
0
LINE
8
Layer 1
10
-46.744022
20
141.054217
11
-46.082699
21
143.217217
0
LINE
8
Layer 1
10
-46.082699
20
143.217217
11
-46.063699
21
143.411218
0
LINE
8
Layer 1
10
-46.063699
20
143.411218
11
-46.119699
21
143.598218
0
LINE
8
Layer 1
10
-46.119699
20
143.598218
11
-46.242696
21
143.749217
0
LINE
8
Layer 1
10
-46.242696
20
143.749217
11
-46.414697
21
143.841217
0
LINE
8
Layer 1
10
-46.198698
20
123.855215
11
-46.392698
21
123.874215
0
LINE
8
Layer 1
10
-46.392698
20
123.874215
11
-46.579698
21
123.818215
0
LINE
8
Layer 1
10
-46.579698
20
123.818215
11
-46.730708
21
123.695223
0
LINE
8
Layer 1
10
-46.730708
20
123.695223
11
-46.823708
21
123.523223
0
LINE
8
Layer 1
10
-46.823708
20
123.523223
11
-48.977669
21
116.478222
0
LINE
8
Layer 1
10
-48.977669
20
116.478222
11
-50.023708
21
113.056924
0
LINE
8
Layer 1
10
-50.023708
20
113.056924
11
-50.624706
21
111.091222
0
LINE
8
Layer 1
10
-50.624706
20
111.091222
11
-50.643706
21
110.897223
0
LINE
8
Layer 1
10
-50.643706
20
110.897223
11
-50.587706
21
110.710222
0
LINE
8
Layer 1
10
-50.587706
20
110.710222
11
-50.463705
21
110.559222
0
LINE
8
Layer 1
10
-50.463705
20
110.559222
11
-50.292707
21
110.466222
0
LINE
8
Layer 1
10
-50.292707
20
110.466222
11
-50.023706
21
110.383999
0
LINE
8
Layer 1
10
-50.023706
20
110.383999
11
-44.536772
21
108.706849
0
LINE
8
Layer 1
10
-44.536772
20
108.706849
11
-40.740297
21
107.546407
0
LINE
8
Layer 1
10
-40.740297
20
107.546407
11
-37.860704
21
106.666223
0
LINE
8
Layer 1
10
-37.860704
20
106.666223
11
-37.665705
21
106.646223
0
LINE
8
Layer 1
10
-37.665705
20
106.646223
11
-37.479708
21
106.702223
0
LINE
8
Layer 1
10
-37.479708
20
106.702223
11
-37.328707
21
106.826222
0
LINE
8
Layer 1
10
-37.328707
20
106.826222
11
-37.235707
21
106.997223
0
LINE
8
Layer 1
10
-37.235707
20
106.997223
11
-36.418435
21
109.670294
0
LINE
8
Layer 1
10
-36.418435
20
109.670294
11
-34.336956
21
116.478222
0
LINE
8
Layer 1
10
-34.336956
20
116.478222
11
-33.639710
21
118.758725
0
LINE
8
Layer 1
10
-33.639710
20
118.758725
11
-33.434708
21
119.429223
0
LINE
8
Layer 1
10
-33.434708
20
119.429223
11
-33.415708
21
119.624222
0
LINE
8
Layer 1
10
-33.415708
20
119.624222
11
-33.471708
21
119.810223
0
LINE
8
Layer 1
10
-33.471708
20
119.810223
11
-33.595709
21
119.961223
0
LINE
8
Layer 1
10
-33.595709
20
119.961223
11
-33.639709
21
119.985153
0
LINE
8
Layer 1
10
-33.639709
20
119.985153
11
-33.766708
21
120.054223
0
LINE
8
Layer 1
10
-33.766708
20
120.054223
11
-46.198708
21
123.855222
0
LINE
8
Layer 1
10
-65.040707
20
129.092223
11
-66.407711
21
124.621151
0
LINE
8
Layer 1
10
-66.407711
20
124.621151
11
-68.841709
21
116.660223
0
LINE
8
Layer 1
10
-68.841709
20
116.660223
11
-68.860469
21
116.478222
0
LINE
8
Layer 1
10
-68.860469
20
116.478222
11
-68.861669
21
116.466222
0
LINE
8
Layer 1
10
-68.861669
20
116.466222
11
-68.804669
21
116.279222
0
LINE
8
Layer 1
10
-68.804669
20
116.279222
11
-68.681668
21
116.128222
0
LINE
8
Layer 1
10
-68.681668
20
116.128222
11
-68.509670
21
116.036222
0
LINE
8
Layer 1
10
-68.509670
20
116.036222
11
-66.407673
21
115.393550
0
LINE
8
Layer 1
10
-66.407673
20
115.393550
11
-56.077671
21
112.235223
0
LINE
8
Layer 1
10
-56.077671
20
112.235223
11
-55.883671
21
112.216223
0
LINE
8
Layer 1
10
-55.883671
20
112.216223
11
-55.696671
21
112.272223
0
LINE
8
Layer 1
10
-55.696671
20
112.272223
11
-55.545707
21
112.395222
0
LINE
8
Layer 1
10
-55.545707
20
112.395222
11
-55.453707
21
112.567223
0
LINE
8
Layer 1
10
-55.453707
20
112.567223
11
-54.257944
21
116.478222
0
LINE
8
Layer 1
10
-54.257944
20
116.478222
11
-51.652704
21
124.999222
0
LINE
8
Layer 1
10
-51.652704
20
124.999222
11
-51.632704
21
125.193223
0
LINE
8
Layer 1
10
-51.632704
20
125.193223
11
-51.689704
21
125.380223
0
LINE
8
Layer 1
10
-51.689704
20
125.380223
11
-51.812705
21
125.531223
0
LINE
8
Layer 1
10
-51.812705
20
125.531223
11
-51.984702
21
125.623223
0
LINE
8
Layer 1
10
-51.984702
20
125.623223
11
-64.416701
21
129.424223
0
LINE
8
Layer 1
10
-64.416701
20
129.424223
11
-64.610701
21
129.444223
0
LINE
8
Layer 1
10
-64.610701
20
129.444223
11
-64.797702
21
129.388223
0
LINE
8
Layer 1
10
-64.797702
20
129.388223
11
-64.948706
21
129.264223
0
LINE
8
Layer 1
10
-64.948706
20
129.264223
11
-65.040706
21
129.092223
0
LINE
8
Layer 1
10
-77.862414
20
152.312066
11
-78.595149
21
149.915506
0
LINE
8
Layer 1
10
-78.595149
20
149.915506
11
-78.799777
21
149.246225
0
LINE
8
Layer 1
10
-78.799777
20
149.246225
11
-81.489703
21
140.448222
0
LINE
8
Layer 1
10
-81.489703
20
140.448222
11
-81.509703
21
140.254222
0
LINE
8
Layer 1
10
-81.509703
20
140.254222
11
-81.452703
21
140.067224
0
LINE
8
Layer 1
10
-81.452703
20
140.067224
11
-81.329702
21
139.916223
0
LINE
8
Layer 1
10
-81.329702
20
139.916223
11
-81.157705
21
139.823223
0
LINE
8
Layer 1
10
-81.157705
20
139.823223
11
-68.725698
21
136.022225
0
LINE
8
Layer 1
10
-68.725698
20
136.022225
11
-68.531706
21
136.003225
0
LINE
8
Layer 1
10
-68.531706
20
136.003225
11
-68.344702
21
136.059225
0
LINE
8
Layer 1
10
-68.344702
20
136.059225
11
-68.193701
21
136.183226
0
LINE
8
Layer 1
10
-68.193701
20
136.183226
11
-68.101701
21
136.354225
0
LINE
8
Layer 1
10
-68.101701
20
136.354225
11
-66.407701
21
141.894823
0
LINE
8
Layer 1
10
-66.407701
20
141.894823
11
-64.300699
21
148.786225
0
LINE
8
Layer 1
10
-64.300699
20
148.786225
11
-64.280699
21
148.981224
0
LINE
8
Layer 1
10
-64.280699
20
148.981224
11
-64.337699
21
149.167225
0
LINE
8
Layer 1
10
-64.337699
20
149.167225
11
-64.402049
21
149.246225
0
LINE
8
Layer 1
10
-64.402049
20
149.246225
11
-64.460699
21
149.318225
0
LINE
8
Layer 1
10
-64.460699
20
149.318225
11
-64.632700
21
149.411225
0
LINE
8
Layer 1
10
-64.632700
20
149.411225
11
-66.407701
21
149.953919
0
LINE
8
Layer 1
10
-66.407701
20
149.953919
11
-77.064699
21
153.212227
0
LINE
8
Layer 1
10
-77.064699
20
153.212227
11
-77.258699
21
153.231227
0
LINE
8
Layer 1
10
-77.258699
20
153.231227
11
-77.445695
21
153.175227
0
LINE
8
Layer 1
10
-77.445695
20
153.175227
11
-77.596696
21
153.051230
0
LINE
8
Layer 1
10
-77.596696
20
153.051230
11
-77.688696
21
152.880228
0
LINE
8
Layer 1
10
-77.688696
20
152.880228
11
-77.862402
21
152.312071
0
LINE
8
Layer 1
10
-96.215804
20
157.438227
11
-98.720450
21
149.246230
0
LINE
8
Layer 1
10
-98.720450
20
149.246230
11
-99.175696
21
147.757250
0
LINE
8
Layer 1
10
-99.175696
20
147.757250
11
-99.707694
21
146.017228
0
LINE
8
Layer 1
10
-99.707694
20
146.017228
11
-99.726694
21
145.823227
0
LINE
8
Layer 1
10
-99.726694
20
145.823227
11
-99.670694
21
145.636229
0
LINE
8
Layer 1
10
-99.670694
20
145.636229
11
-99.547693
21
145.485228
0
LINE
8
Layer 1
10
-99.547693
20
145.485228
11
-99.375688
21
145.393228
0
LINE
8
Layer 1
10
-99.375688
20
145.393228
11
-99.175691
21
145.332078
0
LINE
8
Layer 1
10
-99.175691
20
145.332078
11
-86.943689
21
141.592227
0
LINE
8
Layer 1
10
-86.943689
20
141.592227
11
-86.749688
21
141.573227
0
LINE
8
Layer 1
10
-86.749688
20
141.573227
11
-86.562692
21
141.629227
0
LINE
8
Layer 1
10
-86.562692
20
141.629227
11
-86.411691
21
141.752228
0
LINE
8
Layer 1
10
-86.411691
20
141.752228
11
-86.318691
21
141.924227
0
LINE
8
Layer 1
10
-86.318691
20
141.924227
11
-84.080631
21
149.246230
0
LINE
8
Layer 1
10
-84.080631
20
149.246230
11
-82.791690
21
153.463087
0
LINE
8
Layer 1
10
-82.791690
20
153.463087
11
-82.518695
21
154.356226
0
LINE
8
Layer 1
10
-82.518695
20
154.356226
11
-82.498695
21
154.550227
0
LINE
8
Layer 1
10
-82.498695
20
154.550227
11
-82.554695
21
154.737227
0
LINE
8
Layer 1
10
-82.554695
20
154.737227
11
-82.678695
21
154.888228
0
LINE
8
Layer 1
10
-82.678695
20
154.888228
11
-82.791694
21
154.948668
0
LINE
8
Layer 1
10
-82.791694
20
154.948668
11
-82.850694
21
154.980218
0
LINE
8
Layer 1
10
-82.850694
20
154.980218
11
-90.889474
21
157.438218
0
LINE
8
Layer 1
10
-90.889474
20
157.438218
11
-90.983694
21
157.467028
0
LINE
8
Layer 1
10
-90.983694
20
157.467028
11
-95.281698
21
158.781218
0
LINE
8
Layer 1
10
-95.281698
20
158.781218
11
-95.476697
21
158.801218
0
LINE
8
Layer 1
10
-95.476697
20
158.801218
11
-95.662694
21
158.745218
0
LINE
8
Layer 1
10
-95.662694
20
158.745218
11
-95.813695
21
158.621222
0
LINE
8
Layer 1
10
-95.813695
20
158.621222
11
-95.906695
21
158.449221
0
LINE
8
Layer 1
10
-95.906695
20
158.449221
11
-96.215800
21
157.438219
0
LINE
8
Layer 1
10
-83.258692
20
134.662220
11
-83.809031
21
132.862221
0
LINE
8
Layer 1
10
-83.809031
20
132.862221
11
-86.313677
21
124.670220
0
LINE
8
Layer 1
10
-86.313677
20
124.670220
11
-87.059695
21
122.230220
0
LINE
8
Layer 1
10
-87.059695
20
122.230220
11
-87.078695
21
122.036220
0
LINE
8
Layer 1
10
-87.078695
20
122.036220
11
-87.022695
21
121.849220
0
LINE
8
Layer 1
10
-87.022695
20
121.849220
11
-86.899694
21
121.698220
0
LINE
8
Layer 1
10
-86.899694
20
121.698220
11
-86.727697
21
121.606220
0
LINE
8
Layer 1
10
-86.727697
20
121.606220
11
-82.791692
21
120.402814
0
LINE
8
Layer 1
10
-82.791692
20
120.402814
11
-74.295698
21
117.805220
0
LINE
8
Layer 1
10
-74.295698
20
117.805220
11
-74.101697
21
117.785220
0
LINE
8
Layer 1
10
-74.101697
20
117.785220
11
-73.914693
21
117.842220
0
LINE
8
Layer 1
10
-73.914693
20
117.842220
11
-73.763692
21
117.965220
0
LINE
8
Layer 1
10
-73.763692
20
117.965220
11
-73.670702
21
118.137220
0
LINE
8
Layer 1
10
-73.670702
20
118.137220
11
-69.870699
21
130.569220
0
LINE
8
Layer 1
10
-69.870699
20
130.569220
11
-69.850689
21
130.763220
0
LINE
8
Layer 1
10
-69.850689
20
130.763220
11
-69.906699
21
130.950220
0
LINE
8
Layer 1
10
-69.906699
20
130.950220
11
-70.030692
21
131.101220
0
LINE
8
Layer 1
10
-70.030692
20
131.101220
11
-70.202696
21
131.193220
0
LINE
8
Layer 1
10
-70.202696
20
131.193220
11
-75.661520
21
132.862221
0
LINE
8
Layer 1
10
-75.661520
20
132.862221
11
-82.634695
21
134.994221
0
LINE
8
Layer 1
10
-82.634695
20
134.994221
11
-82.791693
21
135.010411
0
LINE
8
Layer 1
10
-82.791693
20
135.010411
11
-82.828693
21
135.014211
0
LINE
8
Layer 1
10
-82.828693
20
135.014211
11
-83.014690
21
134.957211
0
LINE
8
Layer 1
10
-83.014690
20
134.957211
11
-83.166690
21
134.834212
0
LINE
8
Layer 1
10
-83.166690
20
134.834212
11
-83.258690
21
134.662211
0
LINE
8
Layer 1
10
-88.419686
20
136.763211
11
-99.175690
21
140.051785
0
LINE
8
Layer 1
10
-99.175690
20
140.051785
11
-100.851689
21
140.564211
0
LINE
8
Layer 1
10
-100.851689
20
140.564211
11
-101.045689
21
140.583211
0
LINE
8
Layer 1
10
-101.045689
20
140.583211
11
-101.232689
21
140.527211
0
LINE
8
Layer 1
10
-101.232689
20
140.527211
11
-101.383689
21
140.404212
0
LINE
8
Layer 1
10
-101.383689
20
140.404212
11
-101.475689
21
140.232211
0
LINE
8
Layer 1
10
-101.475689
20
140.232211
11
-103.729019
21
132.862212
0
LINE
8
Layer 1
10
-103.729019
20
132.862212
11
-105.276689
21
127.800211
0
LINE
8
Layer 1
10
-105.276689
20
127.800211
11
-105.296689
21
127.606211
0
LINE
8
Layer 1
10
-105.296689
20
127.606211
11
-105.240689
21
127.419211
0
LINE
8
Layer 1
10
-105.240689
20
127.419211
11
-105.116689
21
127.268211
0
LINE
8
Layer 1
10
-105.116689
20
127.268211
11
-104.944689
21
127.175211
0
LINE
8
Layer 1
10
-104.944689
20
127.175211
11
-99.175690
21
125.411842
0
LINE
8
Layer 1
10
-99.175690
20
125.411842
11
-96.749382
21
124.670211
0
LINE
8
Layer 1
10
-96.749382
20
124.670211
11
-92.512688
21
123.375211
0
LINE
8
Layer 1
10
-92.512688
20
123.375211
11
-92.318688
21
123.355211
0
LINE
8
Layer 1
10
-92.318688
20
123.355211
11
-92.131691
21
123.411211
0
LINE
8
Layer 1
10
-92.131691
20
123.411211
11
-91.980690
21
123.535211
0
LINE
8
Layer 1
10
-91.980690
20
123.535211
11
-91.888690
21
123.707211
0
LINE
8
Layer 1
10
-91.888690
20
123.707211
11
-91.594264
21
124.670211
0
LINE
8
Layer 1
10
-91.594264
20
124.670211
11
-89.089610
21
132.862211
0
LINE
8
Layer 1
10
-89.089610
20
132.862211
11
-88.260448
21
135.574184
0
LINE
8
Layer 1
10
-88.260448
20
135.574184
11
-88.087695
21
136.139209
0
LINE
8
Layer 1
10
-88.087695
20
136.139209
11
-88.068695
21
136.333210
0
LINE
8
Layer 1
10
-88.068695
20
136.333210
11
-88.124695
21
136.519210
0
LINE
8
Layer 1
10
-88.124695
20
136.519210
11
-88.247696
21
136.671211
0
LINE
8
Layer 1
10
-88.247696
20
136.671211
11
-88.419694
21
136.763211
0
LINE
8
Layer 1
10
-88.735695
20
116.616211
11
-88.810315
21
116.478211
0
LINE
8
Layer 1
10
-88.810315
20
116.478211
11
-88.828705
21
116.444211
0
LINE
8
Layer 1
10
-88.828705
20
116.444211
11
-92.628708
21
104.012211
0
LINE
8
Layer 1
10
-92.628708
20
104.012211
11
-92.648708
21
103.818211
0
LINE
8
Layer 1
10
-92.648708
20
103.818211
11
-92.592708
21
103.632211
0
LINE
8
Layer 1
10
-92.592708
20
103.632211
11
-92.468707
21
103.480211
0
LINE
8
Layer 1
10
-92.468707
20
103.480211
11
-92.296710
21
103.388211
0
LINE
8
Layer 1
10
-92.296710
20
103.388211
11
-82.791705
21
100.482121
0
LINE
8
Layer 1
10
-82.791705
20
100.482121
11
-81.522960
21
100.094210
0
LINE
8
Layer 1
10
-81.522960
20
100.094210
11
-79.864703
21
99.587210
0
LINE
8
Layer 1
10
-79.864703
20
99.587210
11
-79.670711
21
99.568210
0
LINE
8
Layer 1
10
-79.670711
20
99.568210
11
-79.484706
21
99.624210
0
LINE
8
Layer 1
10
-79.484706
20
99.624210
11
-79.332706
21
99.747209
0
LINE
8
Layer 1
10
-79.332706
20
99.747209
11
-79.240706
21
99.919210
0
LINE
8
Layer 1
10
-79.240706
20
99.919210
11
-79.187196
21
100.094209
0
LINE
8
Layer 1
10
-79.187196
20
100.094209
11
-76.682542
21
108.286210
0
LINE
8
Layer 1
10
-76.682542
20
108.286210
11
-75.439699
21
112.351211
0
LINE
8
Layer 1
10
-75.439699
20
112.351211
11
-75.420699
21
112.545210
0
LINE
8
Layer 1
10
-75.420699
20
112.545210
11
-75.476699
21
112.732210
0
LINE
8
Layer 1
10
-75.476699
20
112.732210
11
-75.599693
21
112.883210
0
LINE
8
Layer 1
10
-75.599693
20
112.883210
11
-75.771698
21
112.976210
0
LINE
8
Layer 1
10
-75.771698
20
112.976210
11
-82.791694
21
115.121963
0
LINE
8
Layer 1
10
-82.791694
20
115.121963
11
-87.228777
21
116.478223
0
LINE
8
Layer 1
10
-87.228777
20
116.478223
11
-88.203707
21
116.776223
0
LINE
8
Layer 1
10
-88.203707
20
116.776223
11
-88.397707
21
116.796223
0
LINE
8
Layer 1
10
-88.397707
20
116.796223
11
-88.584703
21
116.740223
0
LINE
8
Layer 1
10
-88.584703
20
116.740223
11
-88.735704
21
116.616223
0
LINE
8
Layer 1
10
-93.989702
20
118.545223
11
-99.175707
21
120.130807
0
LINE
8
Layer 1
10
-99.175707
20
120.130807
11
-106.421709
21
122.346223
0
LINE
8
Layer 1
10
-106.421709
20
122.346223
11
-106.615709
21
122.366223
0
LINE
8
Layer 1
10
-106.615709
20
122.366223
11
-106.802709
21
122.309223
0
LINE
8
Layer 1
10
-106.802709
20
122.309223
11
-106.953709
21
122.186223
0
LINE
8
Layer 1
10
-106.953709
20
122.186223
11
-107.045709
21
122.014223
0
LINE
8
Layer 1
10
-107.045709
20
122.014223
11
-108.738299
21
116.478223
0
LINE
8
Layer 1
10
-108.738299
20
116.478223
11
-110.846709
21
109.582223
0
LINE
8
Layer 1
10
-110.846709
20
109.582223
11
-110.866709
21
109.388223
0
LINE
8
Layer 1
10
-110.866709
20
109.388223
11
-110.809709
21
109.201223
0
LINE
8
Layer 1
10
-110.809709
20
109.201223
11
-110.686709
21
109.050223
0
LINE
8
Layer 1
10
-110.686709
20
109.050223
11
-110.514709
21
108.958223
0
LINE
8
Layer 1
10
-110.514709
20
108.958223
11
-99.175707
21
105.491400
0
LINE
8
Layer 1
10
-99.175707
20
105.491400
11
-98.082705
21
105.157223
0
LINE
8
Layer 1
10
-98.082705
20
105.157223
11
-97.888704
21
105.137223
0
LINE
8
Layer 1
10
-97.888704
20
105.137223
11
-97.701708
21
105.194223
0
LINE
8
Layer 1
10
-97.701708
20
105.194223
11
-97.550707
21
105.317223
0
LINE
8
Layer 1
10
-97.550707
20
105.317223
11
-97.458707
21
105.489223
0
LINE
8
Layer 1
10
-97.458707
20
105.489223
11
-94.098897
21
116.478223
0
LINE
8
Layer 1
10
-94.098897
20
116.478223
11
-93.657712
21
117.921223
0
LINE
8
Layer 1
10
-93.657712
20
117.921223
11
-93.657697
21
117.921373
0
LINE
8
Layer 1
10
-93.657697
20
117.921373
11
-93.637707
21
118.115223
0
LINE
8
Layer 1
10
-93.637707
20
118.115223
11
-93.694707
21
118.302223
0
LINE
8
Layer 1
10
-93.694707
20
118.302223
11
-93.817708
21
118.453223
0
LINE
8
Layer 1
10
-93.817708
20
118.453223
11
-93.989705
21
118.545223
0
LINE
8
Layer 1
10
-16.570167
20
83.710221
11
-17.255710
21
82.522863
0
LINE
8
Layer 1
10
-17.255710
20
82.522863
11
-22.775708
21
72.962224
0
LINE
8
Layer 1
10
-22.775708
20
72.962224
11
-22.838708
21
72.777223
0
LINE
8
Layer 1
10
-22.838708
20
72.777223
11
-22.825708
21
72.582223
0
LINE
8
Layer 1
10
-22.825708
20
72.582223
11
-22.739708
21
72.407224
0
LINE
8
Layer 1
10
-22.739708
20
72.407224
11
-22.592709
21
72.279222
0
LINE
8
Layer 1
10
-22.592709
20
72.279222
11
-17.255709
21
69.197816
0
LINE
8
Layer 1
10
-17.255709
20
69.197816
11
-14.014112
21
67.326223
0
LINE
8
Layer 1
10
-14.014112
20
67.326223
11
-11.334708
21
65.779222
0
LINE
8
Layer 1
10
-11.334708
20
65.779222
11
-11.149708
21
65.716222
0
LINE
8
Layer 1
10
-11.149708
20
65.716222
11
-10.954708
21
65.729222
0
LINE
8
Layer 1
10
-10.954708
20
65.729222
11
-10.779708
21
65.815222
0
LINE
8
Layer 1
10
-10.779708
20
65.815222
11
-10.650708
21
65.962221
0
LINE
8
Layer 1
10
-10.650708
20
65.962221
11
-9.863179
21
67.326220
0
LINE
8
Layer 1
10
-9.863179
20
67.326220
11
-5.133387
21
75.518221
0
LINE
8
Layer 1
10
-5.133387
20
75.518221
11
-4.150708
21
77.220221
0
LINE
8
Layer 1
10
-4.150708
20
77.220221
11
-4.088708
21
77.405218
0
LINE
8
Layer 1
10
-4.088708
20
77.405218
11
-4.101708
21
77.599218
0
LINE
8
Layer 1
10
-4.101708
20
77.599218
11
-4.187708
21
77.774221
0
LINE
8
Layer 1
10
-4.187708
20
77.774221
11
-4.334708
21
77.903219
0
LINE
8
Layer 1
10
-4.334708
20
77.903219
11
-14.392432
21
83.710218
0
LINE
8
Layer 1
10
-14.392432
20
83.710218
11
-15.592708
21
84.403219
0
LINE
8
Layer 1
10
-15.592708
20
84.403219
11
-15.777708
21
84.466219
0
LINE
8
Layer 1
10
-15.777708
20
84.466219
11
-15.971708
21
84.453219
0
LINE
8
Layer 1
10
-15.971708
20
84.453219
11
-16.146708
21
84.367219
0
LINE
8
Layer 1
10
-16.146708
20
84.367219
11
-16.275708
21
84.220220
0
LINE
8
Layer 1
10
-16.275708
20
84.220220
11
-16.570166
21
83.710217
0
LINE
8
Layer 1
10
-32.773706
20
93.745223
11
-33.639708
21
92.245311
0
LINE
8
Layer 1
10
-33.639708
20
92.245311
11
-38.567587
21
83.710221
0
LINE
8
Layer 1
10
-38.567587
20
83.710221
11
-39.273706
21
82.487222
0
LINE
8
Layer 1
10
-39.273706
20
82.487222
11
-39.335706
21
82.302224
0
LINE
8
Layer 1
10
-39.335706
20
82.302224
11
-39.323706
21
82.107225
0
LINE
8
Layer 1
10
-39.323706
20
82.107225
11
-39.236706
21
81.932222
0
LINE
8
Layer 1
10
-39.236706
20
81.932222
11
-39.090706
21
81.804223
0
LINE
8
Layer 1
10
-39.090706
20
81.804223
11
-33.639706
21
78.657273
0
LINE
8
Layer 1
10
-33.639706
20
78.657273
11
-27.831703
21
75.304223
0
LINE
8
Layer 1
10
-27.831703
20
75.304223
11
-27.647703
21
75.241223
0
LINE
8
Layer 1
10
-27.647703
20
75.241223
11
-27.452703
21
75.254223
0
LINE
8
Layer 1
10
-27.452703
20
75.254223
11
-27.277704
21
75.340223
0
LINE
8
Layer 1
10
-27.277704
20
75.340223
11
-27.148704
21
75.487222
0
LINE
8
Layer 1
10
-27.148704
20
75.487222
11
-22.401014
21
83.710221
0
LINE
8
Layer 1
10
-22.401014
20
83.710221
11
-20.648704
21
86.745223
0
LINE
8
Layer 1
10
-20.648704
20
86.745223
11
-20.586704
21
86.930223
0
LINE
8
Layer 1
10
-20.586704
20
86.930223
11
-20.598704
21
87.124223
0
LINE
8
Layer 1
10
-20.598704
20
87.124223
11
-20.685704
21
87.299222
0
LINE
8
Layer 1
10
-20.685704
20
87.299222
11
-20.831704
21
87.428224
0
LINE
8
Layer 1
10
-20.831704
20
87.428224
11
-32.090705
21
93.928224
0
LINE
8
Layer 1
10
-32.090705
20
93.928224
11
-32.274705
21
93.991224
0
LINE
8
Layer 1
10
-32.274705
20
93.991224
11
-32.469705
21
93.978224
0
LINE
8
Layer 1
10
-32.469705
20
93.978224
11
-32.644706
21
93.892224
0
LINE
8
Layer 1
10
-32.644706
20
93.892224
11
-32.773705
21
93.745224
0
LINE
8
Layer 1
10
-57.202707
20
106.976223
11
-57.258707
21
107.162223
0
LINE
8
Layer 1
10
-57.258707
20
107.162223
11
-57.382708
21
107.314223
0
LINE
8
Layer 1
10
-57.382708
20
107.314223
11
-57.554705
21
107.406223
0
LINE
8
Layer 1
10
-57.554705
20
107.406223
11
-60.432940
21
108.286222
0
LINE
8
Layer 1
10
-60.432940
20
108.286222
11
-66.407709
21
110.112968
0
LINE
8
Layer 1
10
-66.407709
20
110.112968
11
-69.421679
21
111.034470
0
LINE
8
Layer 1
10
-69.421679
20
111.034470
11
-69.986704
21
111.207223
0
LINE
8
Layer 1
10
-69.986704
20
111.207223
11
-70.180704
21
111.226223
0
LINE
8
Layer 1
10
-70.180704
20
111.226223
11
-70.367708
21
111.170223
0
LINE
8
Layer 1
10
-70.367708
20
111.170223
11
-70.518709
21
111.047223
0
LINE
8
Layer 1
10
-70.518709
20
111.047223
11
-70.610699
21
110.875223
0
LINE
8
Layer 1
10
-70.610699
20
110.875223
11
-71.402272
21
108.286222
0
LINE
8
Layer 1
10
-71.402272
20
108.286222
11
-73.906918
21
100.094222
0
LINE
8
Layer 1
10
-73.906918
20
100.094222
11
-74.411702
21
98.443223
0
LINE
8
Layer 1
10
-74.411702
20
98.443223
11
-74.430702
21
98.249223
0
LINE
8
Layer 1
10
-74.430702
20
98.249223
11
-74.374702
21
98.062223
0
LINE
8
Layer 1
10
-74.374702
20
98.062223
11
-74.251701
21
97.911224
0
LINE
8
Layer 1
10
-74.251701
20
97.911224
11
-74.079704
21
97.818224
0
LINE
8
Layer 1
10
-74.079704
20
97.818224
11
-66.407707
21
95.473179
0
LINE
8
Layer 1
10
-66.407707
20
95.473179
11
-61.647705
21
94.018225
0
LINE
8
Layer 1
10
-61.647705
20
94.018225
11
-61.453705
21
93.998225
0
LINE
8
Layer 1
10
-61.453705
20
93.998225
11
-61.266704
21
94.054225
0
LINE
8
Layer 1
10
-61.266704
20
94.054225
11
-61.115703
21
94.178226
0
LINE
8
Layer 1
10
-61.115703
20
94.178226
11
-61.023703
21
94.350225
0
LINE
8
Layer 1
10
-61.023703
20
94.350225
11
-59.267512
21
100.094224
0
LINE
8
Layer 1
10
-59.267512
20
100.094224
11
-57.222705
21
106.782225
0
LINE
8
Layer 1
10
-57.222705
20
106.782225
11
-57.202705
21
106.976225
0
LINE
8
Layer 1
10
-44.329706
20
84.829223
11
-44.144705
21
84.766223
0
LINE
8
Layer 1
10
-44.144705
20
84.766223
11
-43.950705
21
84.779223
0
LINE
8
Layer 1
10
-43.950705
20
84.779223
11
-43.775705
21
84.865223
0
LINE
8
Layer 1
10
-43.775705
20
84.865223
11
-43.646708
21
85.012224
0
LINE
8
Layer 1
10
-43.646708
20
85.012224
11
-37.146708
21
96.270224
0
LINE
8
Layer 1
10
-37.146708
20
96.270224
11
-37.083708
21
96.455223
0
LINE
8
Layer 1
10
-37.083708
20
96.455223
11
-37.096708
21
96.649224
0
LINE
8
Layer 1
10
-37.096708
20
96.649224
11
-37.182708
21
96.824225
0
LINE
8
Layer 1
10
-37.182708
20
96.824225
11
-37.329706
21
96.953223
0
LINE
8
Layer 1
10
-37.329706
20
96.953223
11
-42.769918
21
100.094222
0
LINE
8
Layer 1
10
-42.769918
20
100.094222
11
-48.587706
21
103.453223
0
LINE
8
Layer 1
10
-48.587706
20
103.453223
11
-48.772707
21
103.516223
0
LINE
8
Layer 1
10
-48.772707
20
103.516223
11
-48.967707
21
103.503223
0
LINE
8
Layer 1
10
-48.967707
20
103.503223
11
-49.142706
21
103.417223
0
LINE
8
Layer 1
10
-49.142706
20
103.417223
11
-49.270704
21
103.270223
0
LINE
8
Layer 1
10
-49.270704
20
103.270223
11
-50.023706
21
101.966027
0
LINE
8
Layer 1
10
-50.023706
20
101.966027
11
-51.104425
21
100.094222
0
LINE
8
Layer 1
10
-51.104425
20
100.094222
11
-55.770704
21
92.012223
0
LINE
8
Layer 1
10
-55.770704
20
92.012223
11
-55.833704
21
91.827224
0
LINE
8
Layer 1
10
-55.833704
20
91.827224
11
-55.820704
21
91.632222
0
LINE
8
Layer 1
10
-55.820704
20
91.632222
11
-55.734704
21
91.457223
0
LINE
8
Layer 1
10
-55.734704
20
91.457223
11
-55.587705
21
91.329223
0
LINE
8
Layer 1
10
-55.587705
20
91.329223
11
-50.023705
21
88.116752
0
LINE
8
Layer 1
10
-50.023705
20
88.116752
11
-44.329706
21
84.829223
 0 
ENDSEC
 0 
EOF