<?xml version="1.0" encoding="UTF-8" standalone="no"?>
<svg
   width="225.2571mm"
   height="115.60493mm"
   viewBox="-113.5 -58.674999 225.2571 115.60493"
   version="1.1"
   id="svg1"
   sodipodi:docname="Powerful Blad-Kup (9).svg"
   inkscape:export-filename="..\..\..\KBDs\vesuveus\vesuveus\vesuveusplatecutout.svg"
   inkscape:export-xdpi="96"
   inkscape:export-ydpi="96"
   xmlns:inkscape="http://www.inkscape.org/namespaces/inkscape"
   xmlns:sodipodi="http://sodipodi.sourceforge.net/DTD/sodipodi-0.dtd"
   xmlns="http://www.w3.org/2000/svg"
   xmlns:svg="http://www.w3.org/2000/svg">
  <defs
     id="defs1" />
  <sodipodi:namedview
     id="namedview1"
     pagecolor="#ffffff"
     bordercolor="#000000"
     borderopacity="0.25"
     inkscape:showpageshadow="2"
     inkscape:pageopacity="0.0"
     inkscape:pagecheckerboard="0"
     inkscape:deskcolor="#d1d1d1"
     inkscape:document-units="mm"
     showgrid="false" />
  <title
     id="title1">svgOutput</title>
  <desc
     id="desc1">made with tinkercad</desc>
  <path
     d="m 98.53726,-37.123723 1.056553,3.482498 1.289127,4.249115 0.18882,0.622387 1.06618,3.513779 0.37612,1.239542 0.5177,1.706179 0.11028,0.363441 1.42293,4.689558 1.21279,3.997001 0.25059,0.825866 1.46614,4.8320913 0.16791,0.5533996 0.38052,1.2541008 0.61298,2.0202579 0.15286,0.5037847 0.72736,2.39750004 2.02287,6.66767066 0.0693,0.2283292 -0.263,1.2790003 -0.747,1.0710001 -1.109,0.6890001 -7.38,3.2244993 -4.696996,2.052127 -1.731468,0.75648 -0.951912,0.415894 -5.361618,2.342499 -15.967995,6.976657 -3.417389,1.493109 -3.746117,1.636734 -1.591499,0.695326 -2.753582,1.203039 -3.406666,1.488373 -1.254886,0.548264 -17.5579,7.671047 -2.553028,1.115417 -3.997421,1.746464 -0.80355,0.35107 -0.440998,0.192669 -16.384001,7.158097 -8.1920005,3.579048 -5.8920004,2.574184 -2.30000005,0.492451 -0.124,0.02655 -2.17599995,-0.519001 -3.0993974,-1.35413 -2.792603,-1.220092 -3.1418937,-1.3727 -0.584368,-0.25531 -1.40345,-0.613171 -2.731865,-1.193557 -0.330424,-0.14436 -7.859884,-3.433998 -4.65629,-2.03434 -0.985855,-0.430725 -2.429556,-1.061474 -0.452416,-0.197662 -0.348999,-0.152478 -25.00336,-10.923999 -7.415642,-3.239905 -0.046,-0.0201 -17.184995,-7.507997 -3.300515,-1.442146 -2.737983,-1.196354 -6.815178,-2.977499 -0.951874,-0.415867 -1.355698,-0.592295 -0.375755,-0.164163 -6.038502,-2.638176 -6.0385,-2.6384993 -0.44422,-0.2581835 -0.69478,-0.4038171 -0.753,-1.08 -0.227,-1.2969999 2.0921,-6.89599986 0.3049,-1.00500004 1.7368,-5.7240354 1.3757,-4.5339649 0.0905,-0.298121 1.46343,-4.82288 0.84461,-2.783499 1.81266,-5.974859 0.64034,-2.110641 1.67341,-5.515002 0.28659,-0.9445 1.875002,-6.179599 0.324021,-1.067898 0.530983,-1.75 1.189994,-2.318001 1.923004,-1.759998 2.674378,-1.421936 1.549621,-0.823918 0.222214,-0.118148 7.969788,-4.237439 5.989197,-3.184387 0.923797,-0.491173 2.534004,-0.61 2.587998,0.308998 4.348999,1.329483 2.345505,0.717018 8.251499,2.522999 5.786999,1.769405 0.239772,0.07331 3.382729,1.034287 2.763119,0.844661 6.829879,2.087837 3.168499,0.96872 7.478001,2.286282 6.984501,2.135498 1.921499,0.587452 1.477717,0.451778 3.428784,1.048271 9.0625001,2.771 0.00232,3.55e-4 2.41263995,0.368646 2.41500005,-0.369 8.9934999,-2.7495 2.448868,-0.748738 2.526633,-0.772514 2.008999,-0.61425 14.375002,-4.394913 3.215499,-0.983085 9.177998,-2.806 3.990501,-1.220066 3.427498,-1.047936 4.978718,-1.522148 1.258625,-0.384804 2.109192,-0.644844 0.813465,-0.248703 3.796505,-1.160785 4.348999,-1.329716 8.78e-4,-1.03e-4 2.58712,-0.308895 1.254997,0.302109 1.279007,0.307891 6.912994,3.67556 7.969788,4.237439 0.222214,0.118148 3.300033,1.754589 0.923966,0.491265 1.923004,1.759998 1.189148,2.316349 8.46e-4,0.0017 0.531006,1.75 0.323998,1.067791 1.104996,3.641708 m -17.431,-2.251499 -0.058,0.0312 -0.112999,0.0608 -0.124,0.151001 -0.056,0.187 0.02,0.194001 0.180985,0.592117 0.09201,0.301022 1.288941,4.216857 2.23806,7.322003 0.093,0.171999 0.151001,0.123001 0.186996,0.056 0.194001,-0.019 12.232002,-3.739851 0.199997,-0.06115 0.172005,-0.092 0.123001,-0.151001 0.056,-0.186998 -0.019,-0.194001 -0.531998,-1.740022 -0.455246,-1.48898 -2.504646,-8.191997 -0.309105,-1.011002 -0.093,-0.172001 -0.151001,-0.123996 -0.185997,-0.056 -0.194999,0.02 -4.298004,1.314087 -0.09457,0.02891 -8.039429,2.458 m -9.058942,-10.650048 -1.671059,-5.466999 -0.093,-0.172001 -0.151001,-0.124001 -0.186997,-0.056 -0.194,0.02 -5.086998,1.555317 -7.345001,2.245681 -0.172001,0.092 -0.123001,0.150998 -0.056,0.187 0.019,0.194 0.42009,1.374001 2.50465,8.192001 0.876259,2.865997 0.092,0.172001 0.152,0.123001 0.186001,0.056 0.194,-0.019 3.252003,-0.994274 7.207756,-2.203724 0.984238,-0.300926 0.988006,-0.302075 0.171997,-0.092 0.124001,-0.151001 0.056,-0.187 -0.02,-0.194 -0.610535,-1.997429 -0.266417,-0.871567 -0.443054,-1.449486 -0.808937,-2.646514 m 3.273941,12.417999 -10.656998,3.258308 -1.775001,0.542694 -0.172001,0.093 -0.05865,0.072 -0.06435,0.079 -0.057,0.186001 0.02,0.194999 2.107002,6.891402 1.694,5.540598 0.092,0.170999 0.151001,0.124001 0.187004,0.056 0.193992,-0.019 12.432007,-3.800998 0.171997,-0.093 0.123001,-0.151001 0.057,-0.186998 -0.02,-0.194 -2.689926,-8.798003 -1.111069,-3.633998 -0.092,-0.171002 -0.151001,-0.123997 -0.186996,-0.056 -0.194,0.019 m 11.946205,20.092548 0.07871,0.257452 2.504654,8.1920009 0.294426,0.9630003 0.092,0.1719999 0.151001,0.1240001 0.186997,0.056 0.194,-0.02 4.236694,-1.2950006 2.426308,-0.7416305 5.768999,-1.7633691 0.172,-0.093 0.124,-0.151 0.056,-0.187 -0.02,-0.194 -1.54767,-5.062001 -2.25333,-7.369999 -0.092,-0.172001 -0.151,-0.122999 -0.187,-0.056 -0.193997,0.019 -1.676002,0.512426 -10.756004,3.288574 -0.171998,0.092 -0.123001,0.152001 -0.056,0.186 0.019,0.194001 0.923203,3.019546 m 4.646795,15.1984473 0.441185,1.44300004 3.35981,10.98899966 0.092,0.172 0.151001,0.123 0.186996,0.057 0.194001,-0.02 1.093002,-0.334177 11.338999,-3.4668227 0.172,-0.092 0.123,-0.151 0.057,-0.1869998 -0.02,-0.1940003 -2.10841,-6.89599986 -1.69259,-5.53599984 -0.092,-0.1720004 -0.151,-0.1229997 -0.187,-0.057 -0.194,0.02 -7.245996,2.2154154 -5.186005,1.5855847 -0.171997,0.092 -0.123001,0.151 -0.057,0.187 0.02,0.194 m -6.046115,1.32598879 -0.382812,0.11701105 -4.437073,1.3562471 -7.019996,2.14575296 -0.172005,0.093 -0.122994,0.1510001 -0.056,0.187 0.019,0.1939998 1.242843,4.0650005 2.504654,8.1920002 0.05351,0.174999 0.092,0.172001 0.152,0.122999 0.186005,0.056 0.193992,-0.019 1.658257,-0.507 1.268745,-0.387911 9.505005,-2.90609 0.171997,-0.092 0.124001,-0.152 0.056,-0.186 -0.02,-0.194 -3.800011,-12.43199866 -0.01839,-0.034 -0.07462,-0.13800004 -0.151001,-0.1239999 -0.186996,-0.056 -0.194,0.02 -0.592118,0.18098891 M 68.28726,-15.496223 l -0.123993,0.151 -0.05601,0.187 0.02001,0.194 3.800003,12.4320003 0.09299,0.172 0.151001,0.123 0.187004,0.057 0.194001,-0.02 8.495994,-2.5975946 3.936005,-1.2034052 0.171997,-0.092 0.123001,-0.151 0.056,-0.1870003 -0.019,-0.1939998 -0.746018,-2.4400005 -2.504646,-8.1920009 -0.550339,-1.799999 -0.092,-0.172001 -0.152,-0.122999 -0.185997,-0.057 -0.037,0.0038 -0.156998,0.01619 -6.973175,2.132 -5.458824,1.669001 -0.172004,0.092 m -17.505261,-34.529 -2.501736,0.764888 -9.178001,2.806111 -0.172001,0.093 -0.123997,0.150997 -0.056,0.187 0.02,0.194001 3.725418,12.187999 0.07458,0.244004 0.093,0.170997 0.151001,0.124001 0.187,0.056 0.194,-0.019 1.883934,-0.576001 3.201065,-0.978702 7.347001,-2.246296 0.172,-0.093 0.122998,-0.151001 0.056,-0.186 -0.019,-0.195 -0.181064,-0.592209 -0.73095,-2.390732 -0.415523,-1.359058 -2.473465,-8.09 -0.05487,-0.102001 -0.03712,-0.069 -0.151001,-0.124 -0.187001,-0.056 -0.194,0.019 -0.752262,0.23 m -16.933735,5.5 -0.151001,-0.123002 -0.187,-0.056 -0.193855,0.01899 -1.45e-4,1.6e-5 -1.419998,0.434154 -11.012001,3.366844 -0.172001,0.092 -0.123,0.150997 -0.057,0.187001 0.02,0.194 2.023714,6.618999 1.777286,5.813002 0.092,0.171999 0.151001,0.124001 0.187001,0.056 0.194,-0.02 6.919001,-2.115439 5.512996,-1.685562 0.172001,-0.092 0.123001,-0.150999 0.057,-0.187 -0.02,-0.194 -0.525889,-1.719992 -3.27512,-10.711998 -0.092,-0.172 m 27.348,25.876001 0.172001,-0.092 0.123996,-0.150999 0.056,-0.187 -0.02,-0.194001 -3.800004,-12.432001 -0.093,-0.171999 -0.151001,-0.123001 -0.187,-0.056 -0.194001,0.019 -8.822998,2.697573 -3.609001,1.103426 -0.172001,0.092 -0.122997,0.150999 -0.056,0.187 0.019,0.194001 0.661323,2.163 2.50465,8.191999 0.635029,2.077001 0.093,0.172 0.047,0.0386 0.104001,0.0854 0.186,0.056 0.194001,-0.02 7.879158,-2.409001 4.552841,-1.391998 m -25.639587,-6.8 -3.660408,1.119146 -5.442002,1.663855 -0.172001,0.092 -0.123998,0.151001 -0.056,0.186998 0.02,0.194 1.462983,4.785 2.338018,7.6470008 0.092,0.1720009 0.151001,0.1229992 0.187,0.056001 0.194001,-0.019 1.349001,-0.412448 11.083,-3.3885519 0.171997,-0.092 0.123001,-0.151 0.056,-0.187 -0.019,-0.194 -1.086609,-3.554001 -2.50465,-8.191999 -0.20974,-0.685999 -0.092,-0.172001 -0.151001,-0.124001 -0.187,-0.056 -0.194001,0.02 -3.329589,1.018 m 14.512592,15.5229991 -0.123001,0.1510001 -0.057,0.1870002 0.02,0.1940003 2.605234,8.52099964 1.195763,3.91099996 0.092,0.1720002 0.151001,0.1229997 0.187,0.056 0.194,-0.019 10.330001,-3.15832756 2.101997,-0.6426723 0.171998,-0.092 0.123001,-0.151 0.057,-0.187 -0.0012,-0.012 -0.01876,-0.18200004 -2.433998,-7.9609281 -1.367004,-4.4710722 -0.092,-0.172 -0.151004,-0.124 -0.187001,-0.056 -0.194,0.02 -12.431999,3.801 -0.171997,0.092 m -18.173,6.7724977 0.69725,2.28050284 2.89875,9.48099986 0.093,0.1710005 0.151001,0.1239996 0.185997,0.056 0.194999,-0.02 8.031811,-2.4550257 4.131191,-1.2627511 0.269001,-0.082223 0.170998,-0.093 0.124001,-0.151 0.056,-0.1870002 -0.019,-0.1939998 -0.181059,-0.5922104 -0.419938,-1.3734915 -1.046039,-3.42129826 -2.153961,-7.04500014 -0.093,-0.1719999 -0.151001,-0.1230002 -0.187,-0.056 -0.194,0.019 -12.432,3.8009999 -0.126998,0.06907 -0.044,0.02393 -0.124001,0.151 -0.056,0.1860001 0.019,0.1949999 0.205002,0.6704972 m -16.604003,-35.9814982 -0.194,0.02 -12.4319998,3.800999 -0.171,0.092 -0.1240001,0.150997 -0.056,0.187 0.019,0.194001 0.3207245,1.048999 3.4802755,11.383005 0.093,0.172001 0.151,0.122999 0.1870003,0.056 0.1939998,-0.019 8.7520008,-2.675866 2.770738,-0.847135 0.90926,-0.278 0.0012,-6.37e-4 0.169815,-0.09136 0.123998,-0.151001 0.056,-0.187 -0.019,-0.194001 -2.228869,-7.290001 -1.572132,-5.141998 -0.093,-0.172001 -0.118,-0.09612 -0.033,-0.02688 -0.187,-0.057 m 8.411989,37.2297537 -3.376188,1.03224664 -6.521812,1.99399996 -0.172,0.092 -0.124,0.151 -0.056,0.187 0.02,0.194 3.800999,12.4319997 0.092,0.172 0.150999,0.123 0.187001,0.057 0.194,-0.02 12.431999,-3.801 0.172001,-0.092 0.122999,-0.151 0.056,-0.187 -0.019,-0.194 -3.350029,-10.95699966 -0.265928,-0.86977754 -0.185044,-0.6052225 -0.092,-0.172 -0.151001,-0.123 -0.186998,-0.056 -0.194,0.019 -2.534001,0.7747534 m -11.907,-1.9637535 0.151,0.1240001 0.187,0.056 0.194,-0.019 3.183001,-0.9731808 8.191999,-2.5046487 1.056999,-0.3231707 0.172001,-0.093 0.124001,-0.151 0.056,-0.1869998 -0.02,-0.1940003 -0.284647,-0.9310002 -2.504648,-8.1920008 -1.011705,-3.309 -0.092,-0.170999 -0.151001,-0.124001 -0.187001,-0.056 -0.189041,0.01852 -0.005,4.86e-4 -5.156,1.576413 -6.7526857,2.064586 -0.5233154,0.16 -0.1719999,0.093 -0.1230002,0.151001 -0.056,0.187 0.019,0.194 3.8010002,12.4320001 0.092,0.171 m 57.069998,8.5990003 -0.09199,-0.172 -0.151001,-0.1230001 -0.187004,-0.056 -0.194,0.019 -0.565025,0.1727529 -3.01397,0.9215021 -5.974769,1.8267455 -2.878235,0.8799991 -0.171997,0.092 -0.124001,0.1520004 -0.056,0.1859999 0.02,0.1940002 2.044807,6.6880006 1.756191,5.743999 0.092,0.171999 0.151001,0.124001 0.187001,0.056 0.194,-0.02 4.760002,-1.454954 7.672035,-2.345051 0.171997,-0.093 0.123001,-0.150999 0.056,-0.187 -0.019,-0.194 -0.504781,-1.651 -2.504646,-8.1920003 -0.791573,-2.5890002 m -20.586998,22.7584705 5.564,-3.212471 0.146999,-0.128 0.086,-0.174999 0.013,-0.195002 -0.063,-0.184999 -4.666279,-8.081999 -1.080719,-1.871805 -0.753002,-1.304196 -0.127998,-0.147 -0.174999,-0.086 -0.195,-0.013 -0.185001,0.063 -5.817788,3.359001 -5.440212,3.140999 -0.146999,0.128999 -0.086,0.175001 -0.013,0.194001 0.063,0.184999 6.5,11.258 0.128997,0.147001 0.175,0.086 0.194,0.013 0.185001,-0.063 5.694,-3.287529 m -11.456118,4.40653 -0.8587,-1.487269 -2.135422,-3.698547 -1.933757,-3.349274 -0.866002,-1.499912 -0.128999,-0.147 -0.175001,-0.086 -0.195,-0.013 -0.184,0.063 -11.259001,6.5 -0.146,0.129002 -0.087,0.174999 -0.012,0.194 0.062,0.185 1.75231,3.035002 4.74769,8.222999 0.129,0.146999 0.174999,0.086 0.195,0.013 0.184,-0.063 3.377701,-1.950001 2.430302,-1.403049 5.451,-3.14695 0.146,-0.127999 0.087,-0.175003 0.012,-0.194999 -0.062,-0.184998 -0.706119,-1.222999 m -15.791883,10.747996 -5.519998,-9.560639 -0.685543,-1.187358 -0.294458,-0.510003 -0.129,-0.146999 -0.175,-0.086 -0.194,-0.013 -0.185,0.063 -1.200276,0.693001 -10.0577238,5.807 -0.1470001,0.128998 -0.086,0.175003 -0.013,0.194 0.062,0.184997 4.8499892,8.400181 0.8624821,1.49382 0.787529,1.363999 0.1289997,0.146999 0.175,0.086 0.195,0.013 0.185,-0.063 2.6794039,-1.547001 1.264059,-0.729827 1.977538,-1.141766 5.337,-3.081406 0.146999,-0.128002 0.086,-0.174999 0.013,-0.195 -0.063,-0.185001 m -38.255,-81.720998 -0.033,0.02688 -0.118,0.09612 -0.093,0.172001 -0.173308,0.566837 -0.741628,2.425656 -0.657196,2.149505 -2.228869,7.290001 -0.019,0.194001 0.056,0.187 0.123998,0.151001 0.171002,0.092 0.90926,0.278 2.770738,0.847135 8.7520011,2.675866 0.1939998,0.019 0.1870003,-0.056 0.151,-0.122999 0.093,-0.172001 3.4802754,-11.383002 0.3207245,-1.048999 0.019,-0.194001 -0.056,-0.187 -0.1240001,-0.150997 -0.171,-0.092 -12.432,-3.800999 -0.195001,-0.02 -0.185999,0.057 m -8.874,11.250002 1.777286,-5.813002 2.023714,-6.618999 0.019,-0.194 -0.056,-0.187001 -0.123,-0.150997 -0.172001,-0.092 -11.012001,-3.366844 -1.419998,-0.434154 -0.194,-0.019 -0.187,0.056 -0.151001,0.123002 -0.092,0.172 -0.181057,0.592186 -0.725384,2.372532 -1.270859,4.156617 -1.09782,3.590663 -0.525879,1.720002 -0.02,0.194 0.057,0.187 0.123001,0.150999 0.172001,0.092 5.512996,1.685562 6.919001,2.115439 0.194,0.02 0.187001,-0.056 0.151001,-0.124001 0.092,-0.171999 m 2.887291,7.830154 -0.732733,2.396565 -0.105263,0.34428 -2.504648,8.1920009 -0.284647,0.9310002 -0.02,0.1940003 0.056,0.1869998 0.124001,0.151 0.172001,0.093 1.056999,0.3231707 8.191999,2.5046487 3.183001,0.9731808 0.194,0.019 0.187,-0.056 0.151,-0.1240001 0.092,-0.171 3.8010001,-12.4320003 0.019,-0.194 -0.056,-0.187 -0.1230002,-0.151001 -0.1719999,-0.093 -0.523315,-0.16 -0.06841,-0.02091 -2.401502,-0.734241 -4.128114,-1.262144 -0.154665,-0.04729 -5.156,-1.576413 -0.193998,-0.019 -0.187001,0.056 -0.151001,0.124001 -0.092,0.170999 -0.173709,0.568155 m -8.457291,10.3878459 2.338018,-7.6470009 1.462983,-4.785 0.02,-0.194 -0.056,-0.186998 -0.123998,-0.151001 -0.172001,-0.092 -5.442002,-1.663855 -3.660408,-1.119146 -3.329589,-1.018 -0.194001,-0.02 -0.187,0.056 -0.151001,0.124001 -0.092,0.172001 -0.20974,0.685999 -2.50465,8.191999 -1.086609,3.554001 -0.019,0.194 0.056,0.187 0.123001,0.151 0.171997,0.092 11.083,3.3885527 1.349001,0.412448 0.194001,0.019 0.187,-0.056001 0.151001,-0.1229992 0.092,-0.1720009 m 3.490999,6.9110005 -0.186998,0.056 -0.151001,0.123 -0.092,0.172 -0.185044,0.6052225 -0.265929,0.86976574 -3.350029,10.95699966 -0.019,0.194 0.056,0.187 0.122999,0.151 0.172001,0.092 12.431999,3.801 0.194,0.02 0.187001,-0.057 0.150999,-0.123 0.092,-0.172 3.801001,-12.4319997 0.02,-0.194 -0.056,-0.187 -0.124,-0.151 -0.172,-0.092 -6.521812,-1.99399996 -3.376188,-1.03224664 -2.534001,-0.7747534 -0.194,-0.019 m -25.633999,-47.3950013 -0.03712,0.069 -0.05487,0.102001 -2.473465,8.09 -1.327537,4.341999 -0.019,0.195 0.056,0.186 0.122998,0.151001 0.172,0.093 7.347001,2.246296 3.201065,0.978702 1.883934,0.576001 0.194,0.019 0.187,-0.056 0.151001,-0.124001 0.093,-0.170997 0.07458,-0.244004 3.725418,-12.187999 0.02,-0.194001 -0.056,-0.187 -0.123997,-0.150997 -0.172001,-0.093 -9.178001,-2.806111 -2.501736,-0.764888 -0.752262,-0.23 -0.194,-0.019 -0.187001,0.056 -0.151001,0.124 m -5.253002,-1.929001 -7.345001,-2.245681 -5.086998,-1.555317 -0.194,-0.02 -0.186997,0.056 -0.151001,0.124001 -0.093,0.172001 -1.671059,5.466999 -0.808937,2.646514 -0.443054,1.449486 -0.876946,2.869 -0.02,0.194 0.056,0.187 0.124001,0.151001 0.171997,0.092 0.988006,0.302075 0.984238,0.300926 0.991752,0.303219 4.156846,1.270931 2.059158,0.629574 3.252003,0.994274 0.194,0.019 0.186001,-0.056 0.152,-0.123001 0.092,-0.172001 0.876259,-2.865997 2.50465,-8.192001 0.42009,-1.374001 0.019,-0.194 -0.056,-0.187 -0.123001,-0.150998 -0.172001,-0.092 m 12.648003,23.787001 -3.609001,-1.103426 -8.822998,-2.697573 -0.194001,-0.019 -0.187,0.056 -0.151001,0.123001 -0.093,0.171999 -0.914982,2.993437 -1.230709,4.026362 -1.654313,5.412202 -0.02,0.194001 0.056,0.187 0.123996,0.150999 0.172001,0.092 4.552475,1.391998 7.878525,2.409001 0.195,0.02 0.186,-0.056 0.104001,-0.0854 0.047,-0.0386 0.093,-0.172 0.635029,-2.077001 2.50465,-8.191999 0.661323,-2.163 0.019,-0.194001 -0.056,-0.187 -0.122997,-0.150999 -0.172001,-0.092 m 0.215999,19.9860014 -0.194,-0.019 -0.187,0.056 -0.15101,0.1229929 -0.093,0.1719999 -2.153961,7.04500014 -1.046039,3.42129826 -0.600998,1.9657018 -0.019,0.1939998 0.056,0.1870002 0.124001,0.151 0.170998,0.093 0.269001,0.082223 5.486934,1.6771507 3.796475,1.1604419 2.879593,0.8801842 0.194999,0.02 0.185997,-0.056 0.151001,-0.1239996 0.093,-0.1710005 0.817272,-2.6730713 2.081479,-6.80792846 0.697246,-2.28050284 0.205002,-0.6704972 0.019,-0.1949999 -0.056,-0.1860001 -0.124001,-0.151 -0.044,-0.02393 -0.126999,-0.06907 -12.432,-3.8009999 m -18.841999,-5.2370004 -1.367004,4.4710722 -2.433998,7.9609281 -0.01876,0.18200004 -0.0012,0.012 0.057,0.187 0.123001,0.15099999 0.171998,0.092 2.101997,0.6426723 10.330002,3.15832767 0.194,0.019 0.187,-0.056 0.150964,-0.1229998 0.092,-0.1720002 1.195763,-3.91099996 2.60524,-8.52099994 0.02,-0.1940003 -0.057,-0.1870002 -0.123001,-0.1510001 -0.171997,-0.092 -12.431999,-3.801 -0.194,-0.02 -0.187001,0.056 -0.151004,0.124 -0.092,0.172 m -12.821708,-23.219843 -0.732735,2.39656 -0.204628,0.669281 -2.689926,8.798003 -0.02,0.194 0.057,0.186998 0.123001,0.151001 0.171997,0.093 12.432007,3.800998 0.193992,0.019 0.187004,-0.056 0.151001,-0.124001 0.092,-0.170999 1.694,-5.540598 2.107002,-6.891402 0.02,-0.194999 -0.057,-0.186001 -0.06435,-0.079 -0.05865,-0.072 -0.172001,-0.093 -1.775001,-0.542694 -10.656998,-3.258308 -0.194,-0.019 -0.186996,0.056 -0.151001,0.123997 -0.092,0.171002 -0.173706,0.568157 m -18.353402,-5.126156 -2.504646,8.191997 -0.455246,1.48898 -0.531998,1.740022 -0.019,0.194001 0.056,0.186998 0.123001,0.151001 0.172005,0.092 0.199997,0.06115 12.232002,3.739851 0.194001,0.019 0.186996,-0.056 0.151001,-0.123001 0.093,-0.171999 2.23806,-7.322003 1.288941,-4.216857 0.272995,-0.893139 0.02,-0.194001 -0.056,-0.187 -0.124,-0.151001 -0.112999,-0.06044 -0.059,-0.03155 -8.03878,-2.458 -0.09422,-0.02881 -4.298004,-1.31419 -0.194999,-0.02 -0.185997,0.056 -0.151001,0.123996 -0.093,0.172001 -0.309105,1.011002 m 12.957108,22.775999 -0.550339,1.799999 -2.504646,8.1920009 -0.746018,2.4400005 -0.019,0.1939998 0.056,0.1870003 0.123001,0.151 0.171997,0.092 3.936005,1.2034052 8.495994,2.5975946 0.194001,0.02 0.187004,-0.057 0.151001,-0.123 0.09299,-0.172 3.800003,-12.4320003 0.02001,-0.194 -0.05601,-0.187 -0.123993,-0.151 -0.172004,-0.092 -5.458824,-1.669001 -6.973175,-2.132 -0.156998,-0.01619 -0.037,-0.0038 -0.185997,0.057 -0.152,0.122999 -0.092,0.172001 m -5.160996,-2.101 -10.756004,-3.288574 -1.675999,-0.512426 -0.194,-0.019 -0.187,0.056 -0.151,0.122999 -0.092,0.172001 -2.25333,7.369999 -1.54767,5.062001 -0.02,0.194 0.056,0.187 0.124,0.151 0.172,0.093 5.768999,1.7633694 2.426308,0.7416305 4.236694,1.2950006 0.194,0.02 0.186997,-0.056 0.151001,-0.1240001 0.092,-0.1719999 0.294426,-0.9630003 2.504654,-8.1920002 0.829162,-2.711973 0.172753,-0.565025 0.019,-0.194001 -0.056,-0.186 -0.123001,-0.152001 -0.171998,-0.092 m -0.316001,20.1469996 -0.07462,0.13800004 -0.01839,0.034 -3.800003,12.43200036 -0.02,0.194 0.056,0.186 0.124001,0.152 0.171997,0.092 9.505005,2.90609 1.268745,0.387911 1.658257,0.507 0.193992,0.019 0.186005,-0.056 0.152,-0.122999 0.092,-0.172001 0.05351,-0.174999 2.504654,-8.192001 1.242843,-4.0650005 0.019,-0.1939998 -0.056,-0.187 -0.122994,-0.1510001 -0.172005,-0.093 -7.019996,-2.14575296 -4.437083,-1.3562593 -0.97493,-0.29800004 -0.194,-0.02 -0.186996,0.056 -0.151001,0.124 m -5.253998,-1.9289999 -5.186005,-1.5855847 -7.246002,-2.2154154 -0.194,-0.02 -0.187,0.057 -0.151,0.1229997 -0.092,0.1720004 -1.69259,5.53599994 -2.10841,6.89599986 -0.02,0.1940003 0.057,0.1869998 0.123,0.151 0.172,0.092 11.339002,3.4668227 1.093002,0.334177 0.194001,0.02 0.186996,-0.057 0.151001,-0.123 0.092,-0.172 3.35981,-10.98899966 0.441185,-1.44300004 1.5e-5,-1.5e-4 0.01999,-0.19385 -0.057,-0.187 -0.123001,-0.151 -0.171997,-0.092 m 77.419538,34.8350017 -0.685543,1.187358 -5.519998,9.560639 -0.063,0.185001 0.013,0.195 0.086,0.174999 0.146999,0.128002 5.337,3.081406 3.241597,1.871593 2.679404,1.547001 0.185,0.063 0.195,-0.013 0.175,-0.086 0.129,-0.146999 0.7875288,-1.363999 4.7297921,-8.192001 0.9826792,-1.702 0.062,-0.184997 -0.013,-0.194 -0.086,-0.175003 -0.1470001,-0.128998 -10.057724,-5.806999 -1.200276,-0.693001 -0.185,-0.063 -0.194,0.013 -0.175,0.086 -0.129,0.146999 -0.294458,0.510003 m -16.20354,-10.035006 -0.866002,1.499912 -4.927879,8.53509 -0.706119,1.222999 -0.062,0.184998 0.012,0.194999 0.087,0.175003 0.146,0.127999 5.451,3.14695 5.808003,3.35305 0.184,0.063 0.195,-0.013 0.174999,-0.086 0.129,-0.146999 4.74769,-8.222999 1.75231,-3.035002 0.062,-0.185 -0.012,-0.194 -0.087,-0.174999 -0.146,-0.129002 -11.259001,-6.5 -0.184,-0.063 -0.195,0.013 -0.175001,0.086 -0.128999,0.147 m -24.429002,-13.2309988 -0.056,-0.1859999 -0.124001,-0.1520004 -0.171997,-0.092 -2.878235,-0.8799991 -5.974769,-1.8267455 -3.01397,-0.9215021 -0.565025,-0.1727529 -0.194,-0.019 -0.187004,0.056 -0.151001,0.1230001 -0.09199,0.172 -0.791573,2.5890002 -2.504646,8.1920004 -0.504784,1.650999 -0.019,0.194 0.056,0.187 0.123001,0.150999 0.171997,0.093 7.671997,2.345045 4.760002,1.454954 0.194,0.02 0.187001,-0.056 0.151001,-0.124001 0.092,-0.171999 1.756191,-5.743999 2.044807,-6.6880007 0.02,-0.1940002 m 12.872999,22.1470019 0.185001,0.063 0.194,-0.013 0.175,-0.086 0.128997,-0.147001 6.5,-11.258 0.063,-0.184999 -0.013,-0.194001 -0.086,-0.175001 -0.146998,-0.128998 -5.440212,-3.140999 -5.817788,-3.359001 -0.185001,-0.063 -0.195,0.013 -0.174999,0.086 -0.127998,0.147 -0.753002,1.304196 -1.080719,1.871805 -4.666279,8.081999 -0.063,0.184999 0.013,0.195002 0.086,0.174999 0.146999,0.128 5.564,3.212471 z"
     fill="none"
     stroke="rgb(255,0,0)"
     stroke-width="0.001mm"
     id="path1"
     style="stroke:#000000;stroke-width:0.25;stroke-dasharray:none;stroke-opacity:1" />
</svg>
