0
SECTION
2
HEADER
9
$INSUNITS
70
4
0
ENDSEC
0
SECTION
2
TABLES
0
TABLE
2
LTYPE
0
LTYPE
72
65
70
64
2
CONTINUOUS
3
______
73
0
40
0
0
ENDTAB
0
TABLE
2
LAYER
0
ENDTAB
0
ENDSEC
0
SECTION
2
ENTITIES
0
LINE
8
0
10
69.5203732
20
-6.7515767
11
82.236292
21
-9.4544287
0
LINE
8
0
10
66.6096096
20
-20.4456431
11
79.3255284
21
-23.1484951
0
LINE
8
0
10
68.9273436
20
-7.1366947
11
66.2244916
21
-19.8526135
0
LINE
8
0
10
82.62141
20
-10.0474583
11
79.918558
21
-22.7633771
0
ARC
8
0
10
69.4164174
20
-7.2406505
40
0.5
50
78
51
168
0
ARC
8
0
10
82.1323362
20
-9.9435025
40
0.5
50
348
51
78
0
ARC
8
0
10
66.7135654
20
-19.9565693
40
0.5
50
168
51
258
0
ARC
8
0
10
79.4294842
20
-22.6594213
40
0.5
50
258
51
348
0
LINE
8
0
10
50.9266075
20
-7.4126617
11
63.6425263
21
-10.1155137
0
LINE
8
0
10
48.0158439
20
-21.1067281
11
60.7317627
21
-23.8095801
0
LINE
8
0
10
50.3335779
20
-7.7977797
11
47.6307259
21
-20.5136985
0
LINE
8
0
10
64.0276443
20
-10.7085433
11
61.3247923
21
-23.4244621
0
ARC
8
0
10
50.8226517
20
-7.9017355
40
0.5
50
78
51
168
0
ARC
8
0
10
63.5385705
20
-10.6045875
40
0.5
50
348
51
78
0
ARC
8
0
10
48.1197997
20
-20.6176543
40
0.5
50
168
51
258
0
ARC
8
0
10
60.8357185
20
-23.3205063
40
0.5
50
258
51
348
0
LINE
8
0
10
86.2377359
20
-14.9182738
11
98.9536547
21
-17.6211258
0
LINE
8
0
10
83.3269723
20
-28.6123402
11
96.0428911
21
-31.3151922
0
LINE
8
0
10
85.6447063
20
-15.3033918
11
82.9418543
21
-28.0193106
0
LINE
8
0
10
99.3387727
20
-18.2141554
11
96.6359207
21
-30.9300742
0
ARC
8
0
10
86.1337801
20
-15.4073476
40
0.5
50
78
51
168
0
ARC
8
0
10
98.8496989
20
-18.1101996
40
0.5
50
348
51
78
0
ARC
8
0
10
83.4309281
20
-28.1232664
40
0.5
50
168
51
258
0
ARC
8
0
10
96.1468469
20
-30.8261184
40
0.5
50
258
51
348
0
LINE
8
0
10
103.8933001
20
-18.6710798
11
116.6092189
21
-21.3739318
0
LINE
8
0
10
100.9825365
20
-32.3651462
11
113.6984553
21
-35.0679982
0
LINE
8
0
10
103.3002705
20
-19.0561978
11
100.5974185
21
-31.7721166
0
LINE
8
0
10
116.9943369
20
-21.9669614
11
114.2914849
21
-34.6828802
0
ARC
8
0
10
103.7893443
20
-19.1601536
40
0.5
50
78
51
168
0
ARC
8
0
10
116.5052631
20
-21.8630056
40
0.5
50
348
51
78
0
ARC
8
0
10
101.0864923
20
-31.8760724
40
0.5
50
168
51
258
0
ARC
8
0
10
113.8024111
20
-34.5789244
40
0.5
50
258
51
348
0
LINE
8
0
10
30.4564388
20
-16.9015288
11
43.1723576
21
-19.6043808
0
LINE
8
0
10
27.5456752
20
-30.5955952
11
40.261594
21
-33.2984472
0
LINE
8
0
10
29.8634092
20
-17.2866468
11
27.1605572
21
-30.0025656
0
LINE
8
0
10
43.5574756
20
-20.1974104
11
40.8546236
21
-32.9133292
0
ARC
8
0
10
30.352483
20
-17.3906026
40
0.5
50
78
51
168
0
ARC
8
0
10
43.0684018
20
-20.0934546
40
0.5
50
348
51
78
0
ARC
8
0
10
27.649631
20
-30.1065214
40
0.5
50
168
51
258
0
ARC
8
0
10
40.3655498
20
-32.8093734
40
0.5
50
258
51
348
0
LINE
8
0
10
65.7675672
20
-24.4071409
11
78.483486
21
-27.1099929
0
LINE
8
0
10
62.8568036
20
-38.1012073
11
75.5727224
21
-40.8040593
0
LINE
8
0
10
65.1745376
20
-24.7922589
11
62.4716856
21
-37.5081777
0
LINE
8
0
10
78.868604
20
-27.7030225
11
76.165752
21
-40.4189413
0
ARC
8
0
10
65.6636114
20
-24.8962147
40
0.5
50
78
51
168
0
ARC
8
0
10
78.3795302
20
-27.5990667
40
0.5
50
348
51
78
0
ARC
8
0
10
62.9607594
20
-37.6121335
40
0.5
50
168
51
258
0
ARC
8
0
10
75.6766782
20
-40.3149855
40
0.5
50
258
51
348
0
LINE
8
0
10
47.1738015
20
-25.0682259
11
59.8897203
21
-27.7710779
0
LINE
8
0
10
44.2630379
20
-38.7622923
11
56.9789567
21
-41.4651443
0
LINE
8
0
10
46.5807719
20
-25.4533439
11
43.8779199
21
-38.1692627
0
LINE
8
0
10
60.2748383
20
-28.3641075
11
57.5719863
21
-41.0800263
0
ARC
8
0
10
47.0698457
20
-25.5572997
40
0.5
50
78
51
168
0
ARC
8
0
10
59.7857645
20
-28.2601517
40
0.5
50
348
51
78
0
ARC
8
0
10
44.3669937
20
-38.2732185
40
0.5
50
168
51
258
0
ARC
8
0
10
57.0829125
20
-40.9760705
40
0.5
50
258
51
348
0
LINE
8
0
10
82.4849299
20
-32.5738379
11
95.2008487
21
-35.2766899
0
LINE
8
0
10
79.5741663
20
-46.2679043
11
92.2900851
21
-48.9707563
0
LINE
8
0
10
81.8919003
20
-32.9589559
11
79.1890483
21
-45.6748747
0
LINE
8
0
10
95.5859667
20
-35.8697195
11
92.8831147
21
-48.5856383
0
ARC
8
0
10
82.3809741
20
-33.0629117
40
0.5
50
78
51
168
0
ARC
8
0
10
95.0968929
20
-35.7657637
40
0.5
50
348
51
78
0
ARC
8
0
10
79.6781221
20
-45.7788305
40
0.5
50
168
51
258
0
ARC
8
0
10
92.3940409
20
-48.4816825
40
0.5
50
258
51
348
0
LINE
8
0
10
100.1404941
20
-36.326644
11
112.8564129
21
-39.029496
0
LINE
8
0
10
97.2297305
20
-50.0207104
11
109.9456493
21
-52.7235624
0
LINE
8
0
10
99.5474645
20
-36.711762
11
96.8446125
21
-49.4276808
0
LINE
8
0
10
113.2415309
20
-39.6225256
11
110.5386789
21
-52.3384444
0
ARC
8
0
10
100.0365383
20
-36.8157178
40
0.5
50
78
51
168
0
ARC
8
0
10
112.7524571
20
-39.5185698
40
0.5
50
348
51
78
0
ARC
8
0
10
97.3336863
20
-49.5316366
40
0.5
50
168
51
258
0
ARC
8
0
10
110.0496051
20
-52.2344886
40
0.5
50
258
51
348
0
LINE
8
0
10
26.7036328
20
-34.557093
11
39.4195516
21
-37.259945
0
LINE
8
0
10
23.7928692
20
-48.2511594
11
36.508788
21
-50.9540114
0
LINE
8
0
10
26.1106032
20
-34.942211
11
23.4077512
21
-47.6581298
0
LINE
8
0
10
39.8046696
20
-37.8529746
11
37.1018176
21
-50.5688934
0
ARC
8
0
10
26.599677
20
-35.0461668
40
0.5
50
78
51
168
0
ARC
8
0
10
39.3155958
20
-37.7490188
40
0.5
50
348
51
78
0
ARC
8
0
10
23.896825
20
-47.7620856
40
0.5
50
168
51
258
0
ARC
8
0
10
36.6127438
20
-50.4649376
40
0.5
50
258
51
348
0
LINE
8
0
10
62.0147612
20
-42.0627051
11
74.73068
21
-44.7655571
0
LINE
8
0
10
59.1039976
20
-55.7567715
11
71.8199164
21
-58.4596235
0
LINE
8
0
10
61.4217316
20
-42.4478231
11
58.7188796
21
-55.1637419
0
LINE
8
0
10
75.115798
20
-45.3585867
11
72.412946
21
-58.0745055
0
ARC
8
0
10
61.9108054
20
-42.5517789
40
0.5
50
78
51
168
0
ARC
8
0
10
74.6267242
20
-45.2546309
40
0.5
50
348
51
78
0
ARC
8
0
10
59.2079534
20
-55.2676977
40
0.5
50
168
51
258
0
ARC
8
0
10
71.9238722
20
-57.9705497
40
0.5
50
258
51
348
0
LINE
8
0
10
43.4209955
20
-42.7237901
11
56.1369143
21
-45.4266421
0
LINE
8
0
10
40.5102319
20
-56.4178565
11
53.2261507
21
-59.1207085
0
LINE
8
0
10
42.8279659
20
-43.1089081
11
40.1251139
21
-55.8248269
0
LINE
8
0
10
56.5220323
20
-46.0196717
11
53.8191803
21
-58.7355905
0
ARC
8
0
10
43.3170397
20
-43.2128639
40
0.5
50
78
51
168
0
ARC
8
0
10
56.0329585
20
-45.9157159
40
0.5
50
348
51
78
0
ARC
8
0
10
40.6141877
20
-55.9287827
40
0.5
50
168
51
258
0
ARC
8
0
10
53.3301065
20
-58.6316347
40
0.5
50
258
51
348
0
LINE
8
0
10
78.7321239
20
-50.2294021
11
91.4480427
21
-52.9322541
0
LINE
8
0
10
75.8213603
20
-63.9234685
11
88.5372791
21
-66.6263205
0
LINE
8
0
10
78.1390943
20
-50.6145201
11
75.4362423
21
-63.3304389
0
LINE
8
0
10
91.8331607
20
-53.5252837
11
89.1303087
21
-66.2412025
0
ARC
8
0
10
78.6281681
20
-50.7184759
40
0.5
50
78
51
168
0
ARC
8
0
10
91.3440869
20
-53.4213279
40
0.5
50
348
51
78
0
ARC
8
0
10
75.9253161
20
-63.4343947
40
0.5
50
168
51
258
0
ARC
8
0
10
88.6412349
20
-66.1372467
40
0.5
50
258
51
348
0
LINE
8
0
10
96.387688
20
-53.9822082
11
109.1036068
21
-56.6850602
0
LINE
8
0
10
93.4769244
20
-67.6762746
11
106.1928432
21
-70.3791266
0
LINE
8
0
10
95.7946584
20
-54.3673262
11
93.0918064
21
-67.083245
0
LINE
8
0
10
109.4887248
20
-57.2780898
11
106.7858728
21
-69.9940086
0
ARC
8
0
10
96.2837322
20
-54.471282
40
0.5
50
78
51
168
0
ARC
8
0
10
108.999651
20
-57.174134
40
0.5
50
348
51
78
0
ARC
8
0
10
93.5808802
20
-67.1872008
40
0.5
50
168
51
258
0
ARC
8
0
10
106.296799
20
-69.8900528
40
0.5
50
258
51
348
0
LINE
8
0
10
22.9508268
20
-52.2126572
11
35.6667456
21
-54.9155092
0
LINE
8
0
10
20.0400632
20
-65.9067236
11
32.755982
21
-68.6095756
0
LINE
8
0
10
22.3577972
20
-52.5977752
11
19.6549452
21
-65.313694
0
LINE
8
0
10
36.0518636
20
-55.5085388
11
33.3490116
21
-68.2244576
0
ARC
8
0
10
22.846871
20
-52.701731
40
0.5
50
78
51
168
0
ARC
8
0
10
35.5627898
20
-55.404583
40
0.5
50
348
51
78
0
ARC
8
0
10
20.144019
20
-65.4176498
40
0.5
50
168
51
258
0
ARC
8
0
10
32.8599378
20
-68.1205018
40
0.5
50
258
51
348
0
LINE
8
0
10
58.2619551
20
-59.7182693
11
70.9778739
21
-62.4211213
0
LINE
8
0
10
55.3511915
20
-73.4123357
11
68.0671103
21
-76.1151877
0
LINE
8
0
10
57.6689255
20
-60.1033873
11
54.9660735
21
-72.8193061
0
LINE
8
0
10
71.3629919
20
-63.0141509
11
68.6601399
21
-75.7300697
0
ARC
8
0
10
58.1579993
20
-60.2073431
40
0.5
50
78
51
168
0
ARC
8
0
10
70.8739181
20
-62.9101951
40
0.5
50
348
51
78
0
ARC
8
0
10
55.4551473
20
-72.9232619
40
0.5
50
168
51
258
0
ARC
8
0
10
68.1710661
20
-75.6261139
40
0.5
50
258
51
348
0
LINE
8
0
10
39.6681894
20
-60.3793543
11
52.3841082
21
-63.0822063
0
LINE
8
0
10
36.7574258
20
-74.0734207
11
49.4733446
21
-76.7762727
0
LINE
8
0
10
39.0751598
20
-60.7644723
11
36.3723078
21
-73.4803911
0
LINE
8
0
10
52.7692262
20
-63.6752359
11
50.0663742
21
-76.3911547
0
ARC
8
0
10
39.5642336
20
-60.8684281
40
0.5
50
78
51
168
0
ARC
8
0
10
52.2801524
20
-63.5712801
40
0.5
50
348
51
78
0
ARC
8
0
10
36.8613816
20
-73.5843469
40
0.5
50
168
51
258
0
ARC
8
0
10
49.5773004
20
-76.2871989
40
0.5
50
258
51
348
0
LINE
8
0
10
93.7273087
20
-78.8058321
11
104.9856389
21
-85.3058321
0
LINE
8
0
10
86.7273087
20
-90.9301877
11
97.9856389
21
-97.4301877
0
LINE
8
0
10
93.044296
20
-78.9888448
11
86.544296
21
-90.247175
0
LINE
8
0
10
105.1686516
20
-85.9888448
11
98.6686516
21
-97.247175
0
ARC
8
0
10
93.4773087
20
-79.2388448
40
0.5
50
60
51
150
0
ARC
8
0
10
104.7356389
20
-85.7388448
40
0.5
50
330
51
60
0
ARC
8
0
10
86.9773087
20
-90.497175
40
0.5
50
150
51
240
0
ARC
8
0
10
98.2356389
20
-96.997175
40
0.5
50
240
51
330
0
LINE
8
0
10
109.3590672
20
-87.8308321
11
120.6173974
21
-94.3308321
0
LINE
8
0
10
102.3590672
20
-99.9551877
11
113.6173974
21
-106.4551877
0
LINE
8
0
10
108.6760545
20
-88.0138448
11
102.1760545
21
-99.272175
0
LINE
8
0
10
120.8004101
20
-95.0138448
11
114.3004101
21
-106.272175
0
ARC
8
0
10
109.1090672
20
-88.2638448
40
0.5
50
60
51
150
0
ARC
8
0
10
120.3673974
20
-94.7638448
40
0.5
50
330
51
60
0
ARC
8
0
10
102.6090672
20
-99.522175
40
0.5
50
150
51
240
0
ARC
8
0
10
113.8673974
20
-106.022175
40
0.5
50
240
51
330
0
LINE
8
0
10
78.0053001
20
-69.9371496
11
89.2636303
21
-76.4371496
0
LINE
8
0
10
71.0053001
20
-82.0615052
11
82.2636303
21
-88.5615052
0
LINE
8
0
10
77.3222874
20
-70.1201623
11
70.8222874
21
-81.3784925
0
LINE
8
0
10
89.446643
20
-77.1201623
11
82.946643
21
-88.3784925
0
ARC
8
0
10
77.7553001
20
-70.3701623
40
0.5
50
60
51
150
0
ARC
8
0
10
89.0136303
20
-76.8701623
40
0.5
50
330
51
60
0
ARC
8
0
10
71.2553001
20
-81.6284925
40
0.5
50
150
51
240
0
ARC
8
0
10
82.5136303
20
-88.1284925
40
0.5
50
240
51
330
0
LINE
8
0
10
18.8284044
20
-106.1680099
11
120.5132323
21
-106.1680099
0
LINE
8
0
10
18.8284044
20
-5.9250359
11
120.5132323
21
-5.9250359
0
LINE
8
0
10
18.8284044
20
-106.1680099
11
18.8284044
21
-5.9250359
0
LINE
8
0
10
120.5132323
20
-106.1680099
11
120.5132323
21
-5.9250359
0
ENDSEC
0
EOF