0
SECTION
2
HEADER
9
$INSUNITS
70
4
9
$ACADVER
1
AC1014
9
$HANDSEED
5
FFFF
0
ENDSEC
0
SECTION
2
TABLES
0
TABLE
2
VPORT
5
8
100
AcDbSymbolTable
0
ENDTAB
0
TABLE
2
LTYPE
5
5
100
AcDbSymbolTable
0
LTYPE
5
14
100
AcDbSymbolTableRecord
100
AcDbLinetypeTableRecord
2
BYBLOCK
70
0
0
LTYPE
5
15
100
AcDbSymbolTableRecord
100
AcDbLinetypeTableRecord
2
BYLAYER
70
0
0
ENDTAB
0
TABLE
2
LAYER
5
2
100
AcDbSymbolTable
70
2
0
LAYER
5
50
100
AcDbSymbolTableRecord
100
AcDbLayerTableRecord
2
0
70
0
6
CONTINUOUS
0
ENDTAB
0
TABLE
2
STYLE
5
3
100
AcDbSymbolTable
70
1
0
STYLE
5
11
100
AcDbSymbolTableRecord
100
AcDbTextStyleTableRecord
2
STANDARD
70
0
0
ENDTAB
0
TABLE
2
VIEW
5
6
100
AcDbSymbolTable
70
0
0
ENDTAB
0
TABLE
2
UCS
5
7
100
AcDbSymbolTable
70
0
0
ENDTAB
0
TABLE
2
APPID
5
9
100
AcDbSymbolTable
70
2
0
APPID
5
12
100
AcDbSymbolTableRecord
100
AcDbRegAppTableRecord
2
ACAD
70
0
0
ENDTAB
0
TABLE
2
DIMSTYLE
5
A
100
AcDbSymbolTable
70
1
0
ENDTAB
0
TABLE
2
BLOCK_RECORD
5
1
100
AcDbSymbolTable
70
1
0
BLOCK_RECORD
5
1F
100
AcDbSymbolTableRecord
100
AcDbBlockTableRecord
2
*MODEL_SPACE
0
BLOCK_RECORD
5
1B
100
AcDbSymbolTableRecord
100
AcDbBlockTableRecord
2
*PAPER_SPACE
0
ENDTAB
0
ENDSEC
0
SECTION
2
BLOCKS
0
BLOCK
5
20
100
AcDbEntity
100
AcDbBlockBegin
2
*MODEL_SPACE
0
ENDBLK
5
21
100
AcDbEntity
100
AcDbBlockEnd
0
BLOCK
5
1C
100
AcDbEntity
100
AcDbBlockBegin
2
*PAPER_SPACE
0
ENDBLK
5
1D
100
AcDbEntity
100
AcDbBlockEnd
0
ENDSEC
0
SECTION
2
ENTITIES
0
ARC
5
100
100
AcDbEntity
8
0
100
AcDbCircle
10
107.34149595733571
20
34.68127192915955
30
0
40
0.49999999999999978
210
-0
220
0
230
1
100
AcDbArc
50
-59.999999999998458
51
30.00000000000205
0
LINE
5
101
100
AcDbEntity
8
0
100
AcDbLine
10
107.77450865733567
20
34.931271929159536
30
0
11
101.2745086573357
21
46.189602129159482
31
0
0
LINE
5
102
100
AcDbEntity
8
0
100
AcDbLine
10
95.6501530573357
20
27.931271929159575
30
0
11
89.150153057335743
21
39.189602129159496
31
0
0
ARC
5
103
100
AcDbEntity
8
0
100
AcDbCircle
10
123.83927985733558
20
44.206271929159506
30
0
40
0.50000000000000866
210
-0
220
0
230
1
100
AcDbArc
50
-59.99999999999703
51
29.99999999999832
0
LINE
5
104
100
AcDbEntity
8
0
100
AcDbLine
10
100.59149595733572
20
46.372614829159453
30
0
11
89.333165757335763
21
39.872614829159488
31
0
0
LINE
5
105
100
AcDbEntity
8
0
100
AcDbLine
10
124.27229255733559
20
44.456271929159492
30
0
11
117.7722925573356
21
55.714602129159417
31
0
0
ARC
5
106
100
AcDbEntity
8
0
100
AcDbCircle
10
117.33927985733561
20
55.464602129159431
30
0
40
0.49999999999997552
210
0
220
-0
230
1
100
AcDbArc
50
29.999999999999133
51
119.99999999999731
0
LINE
5
107
100
AcDbEntity
8
0
100
AcDbLine
10
112.14793695733569
20
37.456271929159527
30
0
11
105.64793695733572
21
48.714602129159474
31
0
0
ARC
5
108
100
AcDbEntity
8
0
100
AcDbCircle
10
106.08094965733569
20
48.964602129159459
30
0
40
0.49999999999999978
210
0
220
0
230
1
100
AcDbArc
50
120.00000000000195
51
210.0000000000004
0
ARC
5
109
100
AcDbEntity
8
0
100
AcDbCircle
10
112.58094965733565
20
37.706271929159534
30
0
40
0.49999999999999978
210
0
220
0
230
1
100
AcDbArc
50
210.00000000000125
51
300.00000000000296
0
LINE
5
110
100
AcDbEntity
8
0
100
AcDbLine
10
107.59149595733572
20
34.24825922915953
30
0
11
96.333165757335735
21
27.748259229159554
31
0
0
LINE
5
111
100
AcDbEntity
8
0
100
AcDbLine
10
117.08927985733564
20
55.897614829159401
30
0
11
105.83094965733568
21
49.397614829159465
31
0
0
LINE
5
112
100
AcDbEntity
8
0
100
AcDbLine
10
124.08927985733561
20
43.7732592291595
30
0
11
112.83094965733568
21
37.273259229159528
31
0
0
ARC
5
113
100
AcDbEntity
8
0
100
AcDbCircle
10
180.28317259797177
20
64.417344913972215
30
0
40
0.4999999999999909
210
0
220
-0
230
1
100
AcDbArc
50
60.000000000000277
51
150.00000000000085
0
LINE
5
114
100
AcDbEntity
8
0
100
AcDbLine
10
140.58706375733547
20
53.298259229159449
30
0
11
129.32873355733557
21
46.798259229159463
31
0
0
ARC
5
115
100
AcDbEntity
8
0
100
AcDbCircle
10
185.04150279797173
20
46.659014713972269
30
0
40
0.4999999999999909
210
0
220
0
230
1
100
AcDbArc
50
240.0000000000027
51
329.99999999999739
0
LINE
5
116
100
AcDbEntity
8
0
100
AcDbLine
10
185.47451549797174
20
46.409014713972248
30
0
11
191.97451549797177
21
57.667344913972229
31
0
0
LINE
5
117
100
AcDbEntity
8
0
100
AcDbLine
10
206.34572779797168
20
34.3590147139723
30
0
11
212.84572779797168
21
45.617344913972246
31
0
0
ARC
5
118
100
AcDbEntity
8
0
100
AcDbCircle
10
173.78317259797177
20
53.15901471397224
30
0
40
0.50000000000000866
210
0
220
0
230
1
100
AcDbArc
50
149.99999999999804
51
240.00000000000023
0
ARC
5
119
100
AcDbEntity
8
0
100
AcDbCircle
10
129.07873355733557
20
47.231271929159469
30
0
40
0.4999999999999909
210
0
220
0
230
1
100
AcDbArc
50
209.99999999999915
51
300.00000000000011
0
ARC
5
120
100
AcDbEntity
8
0
100
AcDbCircle
10
140.3370637573355
20
53.731271929159455
30
0
40
0.50000000000000866
210
-0
220
0
230
1
100
AcDbArc
50
-59.99999999999703
51
29.999999999999133
0
LINE
5
121
100
AcDbEntity
8
0
100
AcDbLine
10
224.78707069797164
20
39.300357613972267
30
0
11
213.52874049797165
21
45.800357613972231
31
0
0
ARC
5
122
100
AcDbEntity
8
0
100
AcDbCircle
10
133.83706375733556
20
64.98960212915938
30
0
40
0.4999999999999909
210
0
220
-0
230
1
100
AcDbArc
50
29.999999999999133
51
119.99999999999974
0
LINE
5
123
100
AcDbEntity
8
0
100
AcDbLine
10
133.58706375733556
20
65.422614829159386
30
0
11
122.32873355733561
21
58.9226148291594
31
0
0
LINE
5
124
100
AcDbEntity
8
0
100
AcDbLine
10
191.79150279797173
20
58.350357613972221
30
0
11
180.53317259797177
21
64.850357613972221
31
0
0
LINE
5
125
100
AcDbEntity
8
0
100
AcDbLine
10
189.84794389797173
20
43.884014713972292
30
0
11
196.34794389797173
21
55.142344913972238
31
0
0
ARC
5
126
100
AcDbEntity
8
0
100
AcDbCircle
10
190.28095659797174
20
43.634014713972263
30
0
40
0.50000000000000866
210
0
220
0
230
1
100
AcDbArc
50
149.99999999999665
51
239.99999999999943
0
LINE
5
127
100
AcDbEntity
8
0
100
AcDbLine
10
173.35015989797176
20
53.409014713972255
30
0
11
179.85015989797179
21
64.667344913972201
31
0
0
ARC
5
128
100
AcDbEntity
8
0
100
AcDbCircle
10
196.78095659797174
20
54.892344913972209
30
0
40
0.4999999999999909
210
0
220
-0
230
1
100
AcDbArc
50
60.000000000003098
51
149.99999999999827
0
LINE
5
129
100
AcDbEntity
8
0
100
AcDbLine
10
140.77007645733551
20
53.981271929159441
30
0
11
134.27007645733556
21
65.239602129159366
31
0
0
ARC
5
130
100
AcDbEntity
8
0
100
AcDbCircle
10
122.5787335573356
20
58.489602129159394
30
0
40
0.4999999999999909
210
0
220
0
230
1
100
AcDbArc
50
119.99999999999912
51
209.99999999999915
0
LINE
5
131
100
AcDbEntity
8
0
100
AcDbLine
10
218.47008339797162
20
27.359014713972307
30
0
11
224.97008339797162
21
38.617344913972275
31
0
0
LINE
5
132
100
AcDbEntity
8
0
100
AcDbLine
10
208.2892867979717
20
48.825357613972251
30
0
11
197.03095659797171
21
55.325357613972258
31
0
0
ARC
5
133
100
AcDbEntity
8
0
100
AcDbCircle
10
191.54150279797176
20
57.917344913972215
30
0
40
0.4999999999999909
210
-0
220
0
230
1
100
AcDbArc
50
-29.999999999999151
51
60.000000000002693
0
LINE
5
134
100
AcDbEntity
8
0
100
AcDbLine
10
128.64572085733559
20
46.981271929159483
30
0
11
122.14572085733559
21
58.239602129159408
31
0
0
ARC
5
135
100
AcDbEntity
8
0
100
AcDbCircle
10
218.03707069797161
20
27.609014713972311
30
0
40
0.50000000000000866
210
0
220
0
230
1
100
AcDbArc
50
239.99999999999983
51
330.00000000000074
0
ARC
5
136
100
AcDbEntity
8
0
100
AcDbCircle
10
206.77874049797168
20
34.1090147139723
30
0
40
0.49999999999999978
210
0
220
0
230
1
100
AcDbArc
50
149.99999999999946
51
239.99999999999744
0
LINE
5
137
100
AcDbEntity
8
0
100
AcDbLine
10
201.2892867979717
20
36.701002013972293
30
0
11
190.03095659797174
21
43.201002013972257
31
0
0
ARC
5
138
100
AcDbEntity
8
0
100
AcDbCircle
10
224.53707069797164
20
38.867344913972261
30
0
40
0.49999999999996891
210
-0
220
0
230
1
100
AcDbArc
50
-30.000000000002867
51
59.99999999999946
0
ARC
5
139
100
AcDbEntity
8
0
100
AcDbCircle
10
201.53928679797173
20
37.134014713972299
30
0
40
0.50000000000000866
210
0
220
0
230
1
100
AcDbArc
50
239.99999999999702
51
329.99999999999739
0
ARC
5
140
100
AcDbEntity
8
0
100
AcDbCircle
10
213.27874049797168
20
45.367344913972225
30
0
40
0.50000000000000866
210
0
220
-0
230
1
100
AcDbArc
50
59.999999999999872
51
149.99999999999898
0
ARC
5
141
100
AcDbEntity
8
0
100
AcDbCircle
10
208.03928679797167
20
48.392344913972245
30
0
40
0.50000000000000866
210
-0
220
0
230
1
100
AcDbArc
50
-30.000000000002661
51
59.999999999997044
0
LINE
5
142
100
AcDbEntity
8
0
100
AcDbLine
10
201.97229949797173
20
36.884014713972277
30
0
11
208.47229949797168
21
48.142344913972224
31
0
0
LINE
5
143
100
AcDbEntity
8
0
100
AcDbLine
10
184.79150279797176
20
46.226002013972263
30
0
11
173.53317259797177
21
52.726002013972234
31
0
0
ARC
5
144
100
AcDbEntity
8
0
100
AcDbCircle
10
255.81896359797153
20
20.66024191397231
30
0
40
0.50000000000000744
210
-0
220
0
230
1
100
AcDbArc
50
-15.000000000001153
51
75.000000000002188
0
ARC
5
145
100
AcDbEntity
8
0
100
AcDbCircle
10
222.39578939797161
20
19.754948813972355
30
0
40
0.49999999999998568
210
0
220
-0
230
1
100
AcDbArc
50
74.999999999998522
51
164.99999999999883
0
ARC
5
146
100
AcDbEntity
8
0
100
AcDbCircle
10
219.0311417979716
20
7.1979130139723857
30
0
40
0.49999999999996858
210
0
220
0
230
1
100
AcDbArc
50
164.99999999999994
51
255.00000000000222
0
ARC
5
147
100
AcDbEntity
8
0
100
AcDbCircle
10
234.95282519797158
20
16.390301213972336
30
0
40
0.50000000000000744
210
-0
220
0
230
1
100
AcDbArc
50
-15.000000000000338
51
74.999999999995893
0
ARC
5
148
100
AcDbEntity
8
0
100
AcDbCircle
10
268.38995149797148
20
-6.0277401860276036
30
0
40
0.49999999999998568
210
0
220
0
230
1
100
AcDbArc
50
254.99999999999849
51
344.99999999999994
0
LINE
5
149
100
AcDbEntity
8
0
100
AcDbLine
10
271.8840085979715
20
7.0122585139723803
30
0
11
259.32697279797151
21
10.376906113972346
31
0
0
LINE
5
150
100
AcDbEntity
8
0
100
AcDbLine
10
232.07114049797158
20
3.7038559139723759
30
0
11
235.43578809797157
21
16.260891713972345
31
0
0
ARC
5
151
100
AcDbEntity
8
0
100
AcDbCircle
10
271.75459909797149
20
6.5292956139723479
30
0
40
0.50000000000000289
210
-0
220
0
230
1
100
AcDbArc
50
-14.999999999998355
51
75.000000000005343
0
LINE
5
152
100
AcDbEntity
8
0
100
AcDbLine
10
235.08223469797159
20
16.873264113972333
30
0
11
222.52519889797162
21
20.237911713972316
31
0
0
LINE
5
153
100
AcDbEntity
8
0
100
AcDbLine
10
239.41431729797159
20
11.597263213972351
30
0
11
242.77896489797155
21
24.15429901397232
31
0
0
ARC
5
154
100
AcDbEntity
8
0
100
AcDbCircle
10
195.6857997979717
20
17.050863313972346
30
0
40
0.50000000000000744
210
-0
220
0
230
1
100
AcDbArc
50
-15.000000000000338
51
74.999999999999048
0
LINE
5
155
100
AcDbEntity
8
0
100
AcDbLine
10
268.8729143979715
20
-6.157149686027612
30
0
11
272.23756199797145
21
6.3998861139723573
31
0
0
LINE
5
156
100
AcDbEntity
8
0
100
AcDbLine
10
218.54817889797161
20
7.3273225139723763
30
0
11
221.91282649797162
21
19.884358313972346
31
0
0
ARC
5
157
100
AcDbEntity
8
0
100
AcDbCircle
10
243.26192779797154
20
24.02488951397233
30
0
40
0.50000000000001199
210
0
220
-0
230
1
100
AcDbArc
50
74.999999999995893
51
164.99999999999966
0
LINE
5
158
100
AcDbEntity
8
0
100
AcDbLine
10
255.94837309797151
20
21.143204813972307
30
0
11
243.39133729797155
21
24.507852413972309
31
0
0
ARC
5
159
100
AcDbEntity
8
0
100
AcDbCircle
10
192.32115219797174
20
4.4938275139723949
30
0
40
0.49999999999998568
210
0
220
0
230
1
100
AcDbArc
50
254.99999999999849
51
344.99999999999994
0
ARC
5
160
100
AcDbEntity
8
0
100
AcDbCircle
10
231.58817759797159
20
3.8332654139723665
30
0
40
0.49999999999998568
210
0
220
0
230
1
100
AcDbArc
50
255.00000000000162
51
345.00000000000159
0
LINE
5
161
100
AcDbEntity
8
0
100
AcDbLine
10
217.78707069797161
20
27.176002013972305
30
0
11
206.52874049797165
21
33.676002013972294
31
0
0
ARC
5
162
100
AcDbEntity
8
0
100
AcDbCircle
10
183.12876399797176
20
20.41551091397233
30
0
40
0.50000000000000289
210
0
220
-0
230
1
100
AcDbArc
50
75.000000000002188
51
164.99999999999966
0
ARC
5
163
100
AcDbEntity
8
0
100
AcDbCircle
10
179.76411639797178
20
7.8584751139723608
30
0
40
0.50000000000000289
210
0
220
0
230
1
100
AcDbArc
50
165.00000000000165
51
255.00000000000162
0
LINE
5
164
100
AcDbEntity
8
0
100
AcDbLine
10
252.32490649797154
20
7.6202432139723797
30
0
11
239.76787069797157
21
10.984890813972346
31
0
0
ARC
5
165
100
AcDbEntity
8
0
100
AcDbCircle
10
252.45431599797155
20
8.103206113972341
30
0
40
0.49999999999998568
210
0
220
0
230
1
100
AcDbArc
50
254.99999999999849
51
344.99999999999966
0
LINE
5
166
100
AcDbEntity
8
0
100
AcDbLine
10
231.45876809797159
20
3.3503025139723697
30
0
11
218.90173229797165
21
6.7149501139723711
31
0
0
LINE
5
167
100
AcDbEntity
8
0
100
AcDbLine
10
268.26054199797147
20
-6.5107030860276005
30
0
11
255.70350619797151
21
-3.1460554860276169
31
0
0
LINE
5
168
100
AcDbEntity
8
0
100
AcDbLine
10
252.93727889797154
20
7.9737966139723326
30
0
11
256.30192649797152
21
20.53083241397232
31
0
0
LINE
5
169
100
AcDbEntity
8
0
100
AcDbLine
10
255.34995279797153
20
-2.5336830860276294
30
0
11
258.71460039797148
21
10.023352713972358
31
0
0
ARC
5
170
100
AcDbEntity
8
0
100
AcDbCircle
10
255.83291569797152
20
-2.66309258602762
30
0
40
0.50000000000000289
210
0
220
0
230
1
100
AcDbArc
50
165.00000000000165
51
255.00000000000222
0
ARC
5
171
100
AcDbEntity
8
0
100
AcDbCircle
10
239.89728019797158
20
11.46785371397236
30
0
40
0.50000000000000744
210
0
220
0
230
1
100
AcDbArc
50
164.99999999999883
51
255.00000000000222
0
ARC
5
172
100
AcDbEntity
8
0
100
AcDbCircle
10
259.19756329797156
20
9.8939432139723671
30
0
40
0.50000000000000289
210
0
220
-0
230
1
100
AcDbArc
50
75.000000000005343
51
165.00000000000165
0
ARC
5
173
100
AcDbEntity
8
0
100
AcDbCircle
10
234.96677739797155
20
-6.9330332860275945
30
0
40
0.49999999999997319
210
0
220
0
230
1
100
AcDbArc
50
164.99999999999798
51
255.00000000000162
0
LINE
5
174
100
AcDbEntity
8
0
100
AcDbLine
10
234.48381449797157
20
-6.8036237860275861
30
0
11
237.84846209797161
21
5.7534120139723832
31
0
0
ARC
5
175
100
AcDbEntity
8
0
100
AcDbCircle
10
238.3314249979716
20
5.6240025139723748
30
0
40
0.49999999999998568
210
0
220
-0
230
1
100
AcDbArc
50
75.000000000001677
51
164.99999999999966
0
LINE
5
176
100
AcDbEntity
8
0
100
AcDbLine
10
179.28115349797179
20
7.9878846139723514
30
0
11
182.64580109797177
21
20.544920413972338
31
0
0
ARC
5
177
100
AcDbEntity
8
0
100
AcDbCircle
10
210.72203919797164
20
-0.43667528602760797
30
0
40
0.49999999999998568
210
0
220
0
230
1
100
AcDbArc
50
255.00000000000162
51
345.00000000000159
0
LINE
5
178
100
AcDbEntity
8
0
100
AcDbLine
10
248.00677609797157
20
-10.427090386027595
30
0
11
251.37142369797152
21
2.129945413972365
31
0
0
LINE
5
179
100
AcDbEntity
8
0
100
AcDbLine
10
195.81520929797168
20
17.533826213972343
30
0
11
182.66902688327545
21
21.056335173512796
31
0
0
ARC
5
180
100
AcDbEntity
8
0
100
AcDbCircle
10
198.1650033979717
20
2.9279723139723757
30
0
40
0.49999999999997319
210
0
220
0
230
1
100
AcDbArc
50
164.99999999999883
51
254.99999999999849
0
LINE
5
181
100
AcDbEntity
8
0
100
AcDbLine
10
192.19174269797176
20
4.0108646139723803
30
0
11
179.63470689797177
21
7.3755122139723817
31
0
0
LINE
5
182
100
AcDbEntity
8
0
100
AcDbLine
10
214.21609629797166
20
12.603323413972358
30
0
11
201.65906049797169
21
15.967971013972324
31
0
0
ARC
5
183
100
AcDbEntity
8
0
100
AcDbCircle
10
217.46528659797161
20
1.3540618139724003
30
0
40
0.49999999999997774
210
0
220
-0
230
1
100
AcDbArc
50
74.999999999997996
51
164.99999999999994
0
LINE
5
184
100
AcDbEntity
8
0
100
AcDbLine
10
247.39440369797154
20
-10.780643786027584
30
0
11
234.8373678979716
21
-7.4159961860275914
31
0
0
LINE
5
185
100
AcDbEntity
8
0
100
AcDbLine
10
251.01787029797154
20
2.7423178139723703
30
0
11
238.4608344979716
21
6.1069654139723717
31
0
0
LINE
5
186
100
AcDbEntity
8
0
100
AcDbLine
10
197.68204049797168
20
3.0573818139723841
30
0
11
201.04668809797172
21
15.614417613972353
31
0
0
LINE
5
187
100
AcDbEntity
8
0
100
AcDbLine
10
210.59262969797169
20
-0.91963818602760483
30
0
11
198.03559389797169
21
2.4450094139723788
31
0
0
LINE
5
188
100
AcDbEntity
8
0
100
AcDbLine
10
192.80411509797173
20
4.3644180139723687
30
0
11
196.16876269797172
21
16.921453813972356
31
0
0
ARC
5
189
100
AcDbEntity
8
0
100
AcDbCircle
10
250.88846079797153
20
2.2593549139723557
30
0
40
0.50000000000000289
210
-0
220
0
230
1
100
AcDbArc
50
-14.999999999998355
51
75.000000000002188
0
LINE
5
190
100
AcDbEntity
8
0
100
AcDbLine
10
211.20500209797166
20
-0.5660847860275986
30
0
11
214.56964969797167
21
11.990951013972353
31
0
0
ARC
5
191
100
AcDbEntity
8
0
100
AcDbCircle
10
201.52965099797171
20
15.485008113972345
30
0
40
0.49999999999998568
210
0
220
-0
230
1
100
AcDbArc
50
75.000000000001677
51
164.99999999999966
0
ARC
5
192
100
AcDbEntity
8
0
100
AcDbCircle
10
247.52381319797155
20
-10.297680886027587
30
0
40
0.49999999999999428
210
0
220
0
230
1
100
AcDbArc
50
255.00000000000196
51
345.00000000000063
0
ARC
5
193
100
AcDbEntity
8
0
100
AcDbCircle
10
214.08668679797165
20
12.120360513972361
30
0
40
0.50000000000000744
210
-0
220
0
230
1
100
AcDbArc
50
-15.000000000000338
51
74.999999999999048
0
ARC
5
194
100
AcDbEntity
8
0
100
AcDbCircle
10
226.65767479797159
20
-14.567621586027562
30
0
40
0.49999999999999428
210
0
220
0
230
1
100
AcDbArc
50
255.00000000000196
51
345.00000000000063
0
LINE
5
195
100
AcDbEntity
8
0
100
AcDbLine
10
226.52826529797164
20
-15.050584486027558
30
0
11
213.97122949797165
21
-11.685936886027584
31
0
0
LINE
5
196
100
AcDbEntity
8
0
100
AcDbLine
10
227.14063769797164
20
-14.697031086027561
30
0
11
230.5052852979716
21
-2.1399952860275917
31
0
0
LINE
5
197
100
AcDbEntity
8
0
100
AcDbLine
10
213.61767609797167
20
-11.073564486027578
30
0
11
216.98232369797165
21
1.4834713139724087
31
0
0
ARC
5
198
100
AcDbEntity
8
0
100
AcDbCircle
10
214.10063899797166
20
-11.202973986027569
30
0
40
0.50000000000000511
210
0
220
0
230
1
100
AcDbArc
50
165.00000000000068
51
254.99999999999881
0
LINE
5
199
100
AcDbEntity
8
0
100
AcDbLine
10
230.15173189797156
20
-1.527622886027622
30
0
11
217.59469609797162
21
1.8370247139723794
31
0
0
ARC
5
200
100
AcDbEntity
8
0
100
AcDbCircle
10
230.02232239797161
20
-2.0105857860276011
30
0
40
0.50000000000000744
210
-0
220
0
230
1
100
AcDbArc
50
-15.000000000001153
51
75.000000000001677
0
ARC
5
201
100
AcDbEntity
8
0
100
AcDbCircle
10
266.82409629797144
20
-11.871591386027598
30
0
40
0.50000000000000511
210
-0
220
0
230
1
100
AcDbArc
50
-14.999999999999373
51
74.999999999992497
0
ARC
5
202
100
AcDbEntity
8
0
100
AcDbCircle
10
254.26706049797156
20
-8.5069437860275965
30
0
40
0.49999999999998512
210
0
220
-0
230
1
100
AcDbArc
50
75.000000000005087
51
165.00000000000068
0
LINE
5
203
100
AcDbEntity
8
0
100
AcDbLine
10
75.914007657335802
20
-47.193657670840061
30
0
11
72.549360057335832
21
-34.636621870840131
31
0
0
ARC
5
204
100
AcDbEntity
8
0
100
AcDbCircle
10
96.083165757335706
20
28.181271929159578
30
0
40
0.49999999999999978
210
0
220
0
230
1
100
AcDbArc
50
210.00000000000088
51
300.00000000000011
0
LINE
5
205
100
AcDbEntity
8
0
100
AcDbLine
10
106.32608765733566
20
-34.929542570840141
30
0
11
93.769051857335739
21
-38.294190170840118
31
0
0
LINE
5
206
100
AcDbEntity
8
0
100
AcDbLine
10
96.780146057335728
20
-51.46359837084006
30
0
11
93.415498457335744
21
-38.906562570840109
31
0
0
LINE
5
207
100
AcDbEntity
8
0
100
AcDbLine
10
140.66261025733547
20
-15.868093470840224
30
0
11
128.10557445733554
21
-19.232741070840209
31
0
0
LINE
5
208
100
AcDbEntity
8
0
100
AcDbLine
10
109.94955425733565
20
-48.452504170840065
30
0
11
97.39251845733574
21
-51.817151770840049
31
0
0
ARC
5
209
100
AcDbEntity
8
0
100
AcDbCircle
10
140.79201975733548
20
-16.351056370840219
30
0
40
0.50000000000000289
210
0
220
-0
230
1
100
AcDbArc
50
14.999999999998373
51
105.00000000000155
0
ARC
5
210
100
AcDbEntity
8
0
100
AcDbCircle
10
85.589358757335759
20
-31.142564770840146
30
0
40
0.50000000000000511
210
0
220
-0
230
1
100
AcDbArc
50
14.99999999999916
51
104.99999999999824
0
ARC
5
211
100
AcDbEntity
8
0
100
AcDbCircle
10
109.82014475733564
20
-47.969541270840068
30
0
40
0.49999999999998568
210
-0
220
0
230
1
100
AcDbArc
50
-75.000000000001549
51
14.99999999999916
0
LINE
5
212
100
AcDbEntity
8
0
100
AcDbLine
10
105.01905145733571
20
-30.051617170840164
30
0
11
92.462015657335741
21
-33.416264770840137
31
0
0
ARC
5
213
100
AcDbEntity
8
0
100
AcDbCircle
10
144.15666735733549
20
-28.908092170840163
30
0
40
0.49999999999999428
210
-0
220
0
230
1
100
AcDbArc
50
-74.999999999998849
51
14.99999999999916
0
LINE
5
214
100
AcDbEntity
8
0
100
AcDbLine
10
144.28607685733547
20
-29.39105507084016
30
0
11
131.72904105733554
21
-32.755702670840151
31
0
0
LINE
5
215
100
AcDbEntity
8
0
100
AcDbLine
10
131.11666865733554
20
-32.402149270840155
30
0
11
127.75202105733553
21
-19.845113470840204
31
0
0
LINE
5
216
100
AcDbEntity
8
0
100
AcDbLine
10
125.88518985733559
20
-34.321557870840138
30
0
11
113.32815405733567
21
-37.686205470840129
31
0
0
LINE
5
217
100
AcDbEntity
8
0
100
AcDbLine
10
122.26172325733559
20
-20.7985962708402
30
0
11
109.70468745733567
21
-24.163243870840184
31
0
0
ARC
5
218
100
AcDbEntity
8
0
100
AcDbCircle
10
122.3911327573356
20
-21.281559170840193
30
0
40
0.50000000000000511
210
0
220
-0
230
1
100
AcDbArc
50
14.99999999999916
51
105.00000000000327
0
LINE
5
219
100
AcDbEntity
8
0
100
AcDbLine
10
89.436969257335704
20
-43.570191070840082
30
0
11
86.072321657335792
21
-31.013155270840148
31
0
0
ARC
5
220
100
AcDbEntity
8
0
100
AcDbCircle
10
113.19874455733566
20
-37.203242570840132
30
0
40
0.50000000000000511
210
0
220
0
230
1
100
AcDbArc
50
194.99999999999915
51
285.00000000000142
0
ARC
5
221
100
AcDbEntity
8
0
100
AcDbCircle
10
89.583165757335749
20
39.439602129159503
30
0
40
0.4999999999999909
210
0
220
0
230
1
100
AcDbArc
50
119.99999999999872
51
210.0000000000004
0
ARC
5
222
100
AcDbEntity
8
0
100
AcDbCircle
10
131.59963155733553
20
-32.272739770840154
30
0
40
0.50000000000000744
210
0
220
0
230
1
100
AcDbArc
50
195.0000000000008
51
284.99999999999778
0
LINE
5
223
100
AcDbEntity
8
0
100
AcDbLine
10
144.63963025733545
20
-28.778682670840166
30
0
11
141.27498265733547
21
-16.221646870840228
31
0
0
ARC
5
224
100
AcDbEntity
8
0
100
AcDbCircle
10
73.032322957335822
20
-34.507212370840122
30
0
40
0.49999999999999428
210
0
220
0
230
1
100
AcDbArc
50
104.99999999999824
51
195.00000000000119
0
ARC
5
225
100
AcDbEntity
8
0
100
AcDbCircle
10
88.954006357335714
20
-43.699600570840083
30
0
40
0.49999999999999428
210
-0
220
0
230
1
100
AcDbArc
50
-75.000000000001947
51
15.000000000000366
0
LINE
5
226
100
AcDbEntity
8
0
100
AcDbLine
10
112.71578165733565
20
-37.332652070840126
30
0
11
109.35113405733567
21
-24.775616270840175
31
0
0
ARC
5
227
100
AcDbEntity
8
0
100
AcDbCircle
10
97.26310895733576
20
-51.334188870840052
30
0
40
0.50000000000000744
210
0
220
0
230
1
100
AcDbArc
50
195.00000000000071
51
285.00000000000097
0
LINE
5
228
100
AcDbEntity
8
0
100
AcDbLine
10
89.083415857335723
20
-44.18256347084008
30
0
11
76.5263800573358
21
-47.547211070840063
31
0
0
ARC
5
229
100
AcDbEntity
8
0
100
AcDbCircle
10
100.84149595733572
20
45.939602129159482
30
0
40
0.49999999999999978
210
0
220
-0
230
1
100
AcDbArc
50
29.999999999999726
51
120.00000000000014
0
ARC
5
230
100
AcDbEntity
8
0
100
AcDbCircle
10
106.45549715733566
20
-35.412505470840131
30
0
40
0.50000000000000511
210
0
220
-0
230
1
100
AcDbArc
50
14.99999999999916
51
105.00000000000138
0
LINE
5
231
100
AcDbEntity
8
0
100
AcDbLine
10
126.23874325733554
20
-33.70918547084014
30
0
11
122.8740956573356
21
-21.152149670840195
31
0
0
ARC
5
232
100
AcDbEntity
8
0
100
AcDbCircle
10
93.898461357335705
20
-38.777153070840114
30
0
40
0.49999999999999856
210
0
220
0
230
1
100
AcDbArc
50
104.9999999999996
51
194.99999999999955
0
LINE
5
233
100
AcDbEntity
8
0
100
AcDbLine
10
85.459949257335751
20
-30.659601870840145
30
0
11
72.902913457335856
21
-34.024249470840132
31
0
0
ARC
5
234
100
AcDbEntity
8
0
100
AcDbCircle
10
128.23498395733552
20
-19.715703970840206
30
0
40
0.49999999999999428
210
0
220
0
230
1
100
AcDbArc
50
104.99999999999812
51
194.99999999999952
0
ARC
5
235
100
AcDbEntity
8
0
100
AcDbCircle
10
125.75578035733558
20
-33.838594970840141
30
0
40
0.50000000000001199
210
-0
220
0
230
1
100
AcDbArc
50
-74.99999999999747
51
15.000000000001222
0
LINE
5
236
100
AcDbEntity
8
0
100
AcDbLine
10
110.30310765733563
20
-47.840131770840067
30
0
11
106.93846005733567
21
-35.283095970840144
31
0
0
ARC
5
237
100
AcDbEntity
8
0
100
AcDbCircle
10
109.83409695733567
20
-24.64620677084018
30
0
40
0.49999999999999489
210
0
220
0
230
1
100
AcDbArc
50
105.00000000000475
51
194.99999999999872
0
LINE
5
238
100
AcDbEntity
8
0
100
AcDbLine
10
101.39558485733566
20
-16.528655570840222
30
0
11
88.838549057335769
21
-19.893303170840213
31
0
0
ARC
5
239
100
AcDbEntity
8
0
100
AcDbCircle
10
76.396970557335834
20
-47.064248170840074
30
0
40
0.50000000000000056
210
0
220
0
230
1
100
AcDbArc
50
194.99999999999756
51
284.99999999999824
0
LINE
5
240
100
AcDbEntity
8
0
100
AcDbLine
10
134.42507125733553
20
7.410718929159672
30
0
11
121.86803545733562
21
4.0460713291596759
31
0
0
LINE
5
241
100
AcDbEntity
8
0
100
AcDbLine
10
139.70912745733548
20
-10.377795670840253
30
0
11
136.34447985733556
21
2.1792401291596653
31
0
0
ARC
5
242
100
AcDbEntity
8
0
100
AcDbCircle
10
261.89359349797149
20
-30.272478386027537
30
0
40
0.50000000000000744
210
-0
220
0
230
1
100
AcDbArc
50
-14.999999999999931
51
74.999999999998835
0
LINE
5
243
100
AcDbEntity
8
0
100
AcDbLine
10
130.80160465733556
20
20.933680529159577
30
0
11
118.24456885733559
21
17.569032929159615
31
0
0
ARC
5
244
100
AcDbEntity
8
0
100
AcDbCircle
10
188.30399779797173
20
-33.873801686027505
30
0
40
0.50000000000000289
210
0
220
0
230
1
100
AcDbArc
50
165.00000000000165
51
255.00000000000222
0
LINE
5
245
100
AcDbEntity
8
0
100
AcDbLine
10
266.95350579797145
20
-11.388628486027583
30
0
11
254.39646999797151
21
-8.0239808860275996
31
0
0
LINE
5
246
100
AcDbEntity
8
0
100
AcDbLine
10
102.85477605733568
20
-0.53087807084029404
30
0
11
99.490128457335715
21
12.026157729159637
31
0
0
ARC
5
247
100
AcDbEntity
8
0
100
AcDbCircle
10
187.39064939797174
20
-13.90705948602756
30
0
40
0.49999999999999489
210
0
220
0
230
1
100
AcDbArc
50
254.99999999999849
51
345.00000000000159
0
ARC
5
248
100
AcDbEntity
8
0
100
AcDbCircle
10
50.600329357335895
20
-24.393420470840177
30
0
40
0.49999999999999428
210
0
220
0
230
1
100
AcDbArc
50
194.99999999999901
51
285
0
ARC
5
249
100
AcDbEntity
8
0
100
AcDbCircle
10
190.75529699797173
20
-1.3500236860276082
30
0
40
0.50000000000000289
210
-0
220
0
230
1
100
AcDbArc
50
-14.999999999998355
51
74.999999999995893
0
LINE
5
250
100
AcDbEntity
8
0
100
AcDbLine
10
116.37773765733563
20
3.0925885291596638
30
0
11
113.01309005733569
21
15.649624329159613
31
0
0
LINE
5
251
100
AcDbEntity
8
0
100
AcDbLine
10
105.37260485733569
20
-29.439244770840158
30
0
11
102.00795725733569
21
-16.882208970840221
31
0
0
ARC
5
252
100
AcDbEntity
8
0
100
AcDbCircle
10
52.166184557335896
20
-30.237271670840151
30
0
40
0.49999999999999428
210
0
220
0
230
1
100
AcDbArc
50
104.99999999999801
51
194.99999999999881
0
LINE
5
253
100
AcDbEntity
8
0
100
AcDbLine
10
205.66212689797166
20
-19.320525186027542
30
0
11
193.10509109797169
21
-15.955877586027558
31
0
0
ARC
5
254
100
AcDbEntity
8
0
100
AcDbCircle
10
230.03627449797159
20
-25.333920286027531
30
0
40
0.49999999999997319
210
0
220
0
230
1
100
AcDbArc
50
164.99999999999883
51
254.99999999999849
0
LINE
5
255
100
AcDbEntity
8
0
100
AcDbLine
10
134.77862465733554
20
8.0230913291596764
30
0
11
131.41397705733556
21
20.580127129159571
31
0
0
ARC
5
256
100
AcDbEntity
8
0
100
AcDbCircle
10
193.23450059797167
20
-15.472914686027552
30
0
40
0.50000000000000511
210
0
220
0
230
1
100
AcDbArc
50
165.00000000000068
51
255.00000000000196
0
ARC
5
257
100
AcDbEntity
8
0
100
AcDbCircle
10
58.240814557335902
20
20.695448629159579
30
0
40
0.50000000000000289
210
0
220
0
230
1
100
AcDbArc
50
104.99999999999859
51
195.00000000000054
0
ARC
5
258
100
AcDbEntity
8
0
100
AcDbCircle
10
70.79785035733579
20
24.060096229159594
30
0
40
0.50000000000000633
210
0
220
-0
230
1
100
AcDbArc
50
14.999999999999529
51
104.99999999999793
0
ARC
5
259
100
AcDbEntity
8
0
100
AcDbCircle
10
209.15618399797165
20
-6.2805264860275756
30
0
40
0.50000000000000744
210
-0
220
0
230
1
100
AcDbArc
50
-15.000000000000338
51
74.999999999998522
0
ARC
5
260
100
AcDbEntity
8
0
100
AcDbCircle
10
58.226862357335875
20
-2.6278858708402759
30
0
40
0.49999999999998518
210
-0
220
0
230
1
100
AcDbArc
50
-75.000000000000824
51
14.999999999998545
0
LINE
5
261
100
AcDbEntity
8
0
100
AcDbLine
10
192.75153769797168
20
-15.343505186027553
30
0
11
196.1161852979717
21
-2.7864693860276013
31
0
0
ARC
5
262
100
AcDbEntity
8
0
100
AcDbCircle
10
220.16131669797161
20
-38.8123597860275
30
0
40
0.50000000000000511
210
-0
220
0
230
1
100
AcDbArc
50
-14.999999999999169
51
75.000000000002188
0
ARC
5
263
100
AcDbEntity
8
0
100
AcDbCircle
10
196.59914819797169
20
-2.9158788860276097
30
0
40
0.50000000000000289
210
0
220
-0
230
1
100
AcDbArc
50
75.000000000002188
51
164.99999999999883
0
ARC
5
264
100
AcDbEntity
8
0
100
AcDbCircle
10
68.087867957335817
20
-39.429659870840098
30
0
40
0.49999999999999428
210
-0
220
0
230
1
100
AcDbArc
50
-75.000000000001947
51
14.99999999999916
0
LINE
5
265
100
AcDbEntity
8
0
100
AcDbLine
10
221.59776239797162
20
-33.451471486027515
30
0
11
209.04072659797166
21
-30.086823886027521
31
0
0
LINE
5
266
100
AcDbEntity
8
0
100
AcDbLine
10
243.07627319797155
20
-28.827977386027534
30
0
11
246.44092079797156
21
-16.270941586027572
31
0
0
ARC
5
267
100
AcDbEntity
8
0
100
AcDbCircle
10
61.605462157335893
20
8.138412829159666
30
0
40
0.49999999999998568
210
0
220
0
230
1
100
AcDbArc
50
194.9999999999992
51
284.9999999999992
0
ARC
5
268
100
AcDbEntity
8
0
100
AcDbCircle
10
204.22568119797171
20
-24.68141348602753
30
0
40
0.50000000000000289
210
-0
220
0
230
1
100
AcDbArc
50
-14.99999999999922
51
75.000000000001975
0
ARC
5
269
100
AcDbEntity
8
0
100
AcDbCircle
10
99.973091357335718
20
12.155567229159645
30
0
40
0.50000000000000533
210
0
220
0
230
1
100
AcDbArc
50
105.00000000000099
51
195.00000000000034
0
ARC
5
270
100
AcDbEntity
8
0
100
AcDbCircle
10
139.22616455733549
20
-10.507205170840262
30
0
40
0.49999999999999489
210
-0
220
0
230
1
100
AcDbArc
50
-74.999999999998494
51
15.000000000001174
0
LINE
5
271
100
AcDbEntity
8
0
100
AcDbLine
10
80.529446457335808
20
-12.258714870840247
30
0
11
67.972410657335843
21
-15.623362470840208
31
0
0
LINE
5
272
100
AcDbEntity
8
0
100
AcDbLine
10
204.35509069797172
20
-24.198450586027541
30
0
11
191.79805489797172
21
-20.83380298602755
31
0
0
ARC
5
273
100
AcDbEntity
8
0
100
AcDbCircle
10
263.45944869797154
20
-24.428627186027558
30
0
40
0.49999999999998568
210
0
220
0
230
1
100
AcDbArc
50
254.99999999999849
51
344.99999999999994
0
LINE
5
274
100
AcDbEntity
8
0
100
AcDbLine
10
225.22122899797159
20
-19.928509886027541
30
0
11
212.66419319797166
21
-16.563862286027558
31
0
0
LINE
5
275
100
AcDbEntity
8
0
100
AcDbLine
10
241.15686459797158
20
-34.059456186027511
30
0
11
228.59982879797161
21
-30.69480858602752
31
0
0
ARC
5
276
100
AcDbEntity
8
0
100
AcDbCircle
10
225.09181949797164
20
-20.411472786027538
30
0
40
0.49999999999997319
210
-0
220
0
230
1
100
AcDbArc
50
-15.000000000002018
51
75.000000000001677
0
LINE
5
277
100
AcDbEntity
8
0
100
AcDbLine
10
185.95420369797171
20
-19.267947786027548
30
0
11
173.39716789797177
21
-15.903300186027556
31
0
0
LINE
5
278
100
AcDbEntity
8
0
100
AcDbLine
10
187.87361229797173
20
-14.036468986027568
30
0
11
191.23825989797172
21
-1.4794331860275989
31
0
0
LINE
5
279
100
AcDbEntity
8
0
100
AcDbLine
10
100.4421020573357
20
-11.038357770840237
30
0
11
97.077454457335719
21
1.518678029159692
31
0
0
LINE
5
280
100
AcDbEntity
8
0
100
AcDbLine
10
209.28559349797166
20
-5.7975635860275787
30
0
11
196.7285576979717
21
-2.4329159860275951
31
0
0
LINE
5
281
100
AcDbEntity
8
0
100
AcDbLine
10
121.30824045733563
20
-15.30829847084023
30
0
11
117.94359285733557
21
-2.751262670840311
31
0
0
ARC
5
282
100
AcDbEntity
8
0
100
AcDbCircle
10
84.0235035573358
20
-25.298713570840185
30
0
40
0.49999999999999428
210
-0
220
0
230
1
100
AcDbArc
50
-75.000000000001847
51
14.99999999999997
0
ARC
5
283
100
AcDbEntity
8
0
100
AcDbCircle
10
91.663988757335716
20
19.790155529159605
30
0
40
0.50000000000000744
210
0
220
-0
230
1
100
AcDbArc
50
15.000000000000338
51
104.99999999999781
0
LINE
5
284
100
AcDbEntity
8
0
100
AcDbLine
10
139.3555740573355
20
-10.990168070840259
30
0
11
126.79853825733558
21
-14.354815670840244
31
0
0
LINE
5
285
100
AcDbEntity
8
0
100
AcDbLine
10
59.663308057335904
20
-7.9887741708402551
30
0
11
47.106272257335931
21
-11.353421770840233
31
0
0
ARC
5
286
100
AcDbEntity
8
0
100
AcDbCircle
10
169.90311079797178
20
-28.94329888602752
30
0
40
0.50000000000000289
210
0
220
0
230
1
100
AcDbArc
50
165.00000000000165
51
254.99999999999588
0
ARC
5
287
100
AcDbEntity
8
0
100
AcDbCircle
10
233.4009220979716
20
-12.776884486027553
30
0
40
0.49999999999999428
210
0
220
-0
230
1
100
AcDbArc
50
75.000000000001933
51
165.00000000000068
0
LINE
5
288
100
AcDbEntity
8
0
100
AcDbLine
10
201.34399649797166
20
-37.36785878602749
30
0
11
204.7086440979717
21
-24.810822986027539
31
0
0
LINE
5
289
100
AcDbEntity
8
0
100
AcDbLine
10
84.152913057335809
20
-25.781676470840182
30
0
11
71.595877257335843
21
-29.146324070840166
31
0
0
LINE
5
290
100
AcDbEntity
8
0
100
AcDbLine
10
84.50646645733579
20
-25.169304070840184
30
0
11
81.141818857335778
21
-12.612268270840236
31
0
0
LINE
5
291
100
AcDbEntity
8
0
100
AcDbLine
10
182.33073709797171
20
-32.790909386027508
30
0
11
169.77370129797177
21
-29.426261786027517
31
0
0
ARC
5
292
100
AcDbEntity
8
0
100
AcDbCircle
10
135.86151695733554
20
2.0498306291596751
30
0
40
0.50000000000000278
210
0
220
-0
230
1
100
AcDbArc
50
14.999999999998323
51
105.00000000000151
0
LINE
5
293
100
AcDbEntity
8
0
100
AcDbLine
10
135.73210745733553
20
2.532793529159671
30
0
11
123.17507165733561
21
-0.83185407084028873
31
0
0
ARC
5
294
100
AcDbEntity
8
0
100
AcDbCircle
10
54.86221475733592
20
9.9291499291596548
30
0
40
0.49999999999999856
210
0
220
-0
230
1
100
AcDbArc
50
15.000000000000757
51
104.99999999999945
0
LINE
5
295
100
AcDbEntity
8
0
100
AcDbLine
10
258.39953639797153
20
-43.312477086027485
30
0
11
245.84250059797154
21
-39.947829486027487
31
0
0
LINE
5
296
100
AcDbEntity
8
0
100
AcDbLine
10
100.08854865733569
20
-11.650730170840259
30
0
11
87.531512857335727
21
-15.015377770840228
31
0
0
ARC
5
297
100
AcDbEntity
8
0
100
AcDbCircle
10
96.594491557335715
20
1.3892685291597016
30
0
40
0.50000000000000278
210
0
220
-0
230
1
100
AcDbArc
50
14.999999999998348
51
104.99999999999837
0
LINE
5
298
100
AcDbEntity
8
0
100
AcDbLine
10
117.33122045733563
20
-2.3977092708403052
30
0
11
104.77418465733565
21
-5.7623568708402653
31
0
0
LINE
5
299
100
AcDbEntity
8
0
100
AcDbLine
10
61.122499257335875
20
8.0090033291596754
30
0
11
57.757851657335905
21
20.56603912915957
31
0
0
LINE
5
300
100
AcDbEntity
8
0
100
AcDbLine
10
112.40071765733568
20
16.003177729159617
30
0
11
99.84368185733571
21
12.638530129159623
31
0
0
ARC
5
301
100
AcDbEntity
8
0
100
AcDbCircle
10
47.235681757335939
20
-11.836384670840236
30
0
40
0.49999999999999217
210
0
220
0
230
1
100
AcDbArc
50
104.99999999999896
51
194.99999999999858
0
ARC
5
302
100
AcDbEntity
8
0
100
AcDbCircle
10
205.79153639797167
20
-18.837562286027545
30
0
40
0.50000000000000289
210
0
220
0
230
1
100
AcDbArc
50
255.00000000000222
51
344.99999999999886
0
ARC
5
303
100
AcDbEntity
8
0
100
AcDbCircle
10
66.535964957335878
20
-10.262474170840248
30
0
40
0.50000000000000466
210
0
220
0
230
1
100
AcDbArc
50
194.99999999999955
51
284.99999999999966
0
ARC
5
304
100
AcDbEntity
8
0
100
AcDbCircle
10
258.52894589797154
20
-42.829514186027495
30
0
40
0.49999999999999489
210
0
220
0
230
1
100
AcDbArc
50
254.99999999999213
51
344.99999999999915
0
LINE
5
305
100
AcDbEntity
8
0
100
AcDbLine
10
68.570830857335807
20
-39.300250370840111
30
0
11
65.206183257335866
21
-26.743214570840163
31
0
0
ARC
5
306
100
AcDbEntity
8
0
100
AcDbCircle
10
245.95795789797154
20
-16.141532086027564
30
0
40
0.50000000000000511
210
-0
220
0
230
1
100
AcDbArc
50
-14.999999999999524
51
74.999999999998792
0
ARC
5
307
100
AcDbEntity
8
0
100
AcDbCircle
10
126.66912875733557
20
-13.871852770840231
30
0
40
0.50000000000000511
210
0
220
0
230
1
100
AcDbArc
50
194.99999999999935
51
284.99999999999818
0
ARC
5
308
100
AcDbEntity
8
0
100
AcDbCircle
10
45.669826557335938
20
-5.9925334708402538
30
0
40
0.50000000000000744
210
0
220
0
230
1
100
AcDbArc
50
195.00000000000054
51
284.99999999999869
0
ARC
5
309
100
AcDbEntity
8
0
100
AcDbCircle
10
104.88964195733567
20
-29.568654270840156
30
0
40
0.50000000000000744
210
-0
220
0
230
1
100
AcDbArc
50
-74.999999999999048
51
14.99999999999916
0
ARC
5
310
100
AcDbEntity
8
0
100
AcDbCircle
10
207.60428089797162
20
-35.447712186027502
30
0
40
0.50000000000000355
210
0
220
-0
230
1
100
AcDbArc
50
74.999999999995694
51
164.99999999999994
0
LINE
5
311
100
AcDbEntity
8
0
100
AcDbLine
10
45.186863657335941
20
-6.1219429708402622
30
0
11
41.822216057335986
21
6.4350928291596681
31
0
0
ARC
5
312
100
AcDbEntity
8
0
100
AcDbCircle
10
241.0274550979716
20
-34.542419086027508
30
0
40
0.49999999999997091
210
-0
220
0
230
1
100
AcDbArc
50
-15.000000000000849
51
75.000000000002188
0
LINE
5
313
100
AcDbEntity
8
0
100
AcDbLine
10
237.53339799797158
20
-47.582417786027463
30
0
11
224.97636219797161
21
-44.217770186027472
31
0
0
ARC
5
314
100
AcDbEntity
8
0
100
AcDbCircle
10
71.466467757335835
20
-28.663361170840158
30
0
40
0.50000000000000511
210
0
220
0
230
1
100
AcDbArc
50
194.99999999999952
51
284.99999999999818
0
ARC
5
315
100
AcDbEntity
8
0
100
AcDbCircle
10
103.3377389573357
20
-0.40146857084030363
30
0
40
0.50000000000000278
210
0
220
0
230
1
100
AcDbArc
50
194.99999999999832
51
284.99999999999994
0
LINE
5
316
100
AcDbEntity
8
0
100
AcDbLine
10
79.575963657335791
20
-6.7684170708402718
30
0
11
76.211316057335821
21
5.7886187291596762
31
0
0
ARC
5
317
100
AcDbEntity
8
0
100
AcDbCircle
10
191.66864539797172
20
-21.316765886027547
30
0
40
0.49999999999998568
210
0
220
-0
230
1
100
AcDbArc
50
75.000000000001677
51
165.00000000000165
0
LINE
5
318
100
AcDbEntity
8
0
100
AcDbLine
10
54.732805257335912
20
10.41211282915965
30
0
11
42.175769457335974
21
7.0474652291596893
31
0
0
ARC
5
319
100
AcDbEntity
8
0
100
AcDbCircle
10
225.10577169797159
20
-43.734807286027475
30
0
40
0.49999999999997091
210
0
220
0
230
1
100
AcDbArc
50
164.99999999999918
51
255.00000000000222
0
LINE
5
320
100
AcDbEntity
8
0
100
AcDbLine
10
216.66725959797162
20
-51.852358486027455
30
0
11
204.11022379797168
21
-48.487710886027457
31
0
0
ARC
5
321
100
AcDbEntity
8
0
100
AcDbCircle
10
82.471600557335819
20
3.8684721291596635
30
0
40
0.50000000000000289
210
0
220
0
230
1
100
AcDbArc
50
194.99999999999881
51
284.99999999999994
0
ARC
5
322
100
AcDbEntity
8
0
100
AcDbCircle
10
118.3739783573356
20
17.086070029159604
30
0
40
0.50000000000000999
210
0
220
0
230
1
100
AcDbArc
50
105.00000000000263
51
195.00000000000034
0
ARC
5
323
100
AcDbEntity
8
0
100
AcDbCircle
10
63.157365157335867
20
-21.028772870840196
30
0
40
0.49999999999997713
210
-0
220
0
230
1
100
AcDbArc
50
-75.000000000000583
51
15.000000000000536
0
ARC
5
324
100
AcDbEntity
8
0
100
AcDbCircle
10
178.19826119797176
20
2.0146239139723754
30
0
40
0.499999999791298
210
0
220
-0
230
1
100
AcDbArc
50
75.000000009175011
51
164.99999999999883
0
LINE
5
325
100
AcDbEntity
8
0
100
AcDbLine
10
95.511599257335718
20
7.3625292291596844
30
0
11
92.146951657335748
21
19.919565029159596
31
0
0
LINE
5
326
100
AcDbEntity
8
0
100
AcDbLine
10
169.42014789797179
20
-28.813889386027533
30
0
11
172.78479549797174
21
-16.25685358602756
31
0
0
LINE
5
327
100
AcDbEntity
8
0
100
AcDbLine
10
187.82103489797174
20
-33.744392186027511
30
0
11
191.18568249797175
21
-21.187356386027538
31
0
0
ARC
5
328
100
AcDbEntity
8
0
100
AcDbCircle
10
59.792717557335912
20
-8.4717370708402502
30
0
40
0.49999999999999656
210
0
220
-0
230
1
100
AcDbArc
50
14.999999999999996
51
104.99999999999892
0
LINE
5
329
100
AcDbEntity
8
0
100
AcDbLine
10
120.9546870573356
20
-15.920670870840217
30
0
11
108.39765125733564
21
-19.28531847084021
31
0
0
ARC
5
330
100
AcDbEntity
8
0
100
AcDbCircle
10
55.530832157335894
20
-42.794307470840074
30
0
40
0.49999999999997941
210
0
220
0
230
1
100
AcDbArc
50
195.0000000000008
51
284.99999999999858
0
ARC
5
331
100
AcDbEntity
8
0
100
AcDbCircle
10
204.23963329797169
20
-48.004747986027461
30
0
40
0.50000000000000511
210
0
220
0
230
1
100
AcDbArc
50
165.00000000000085
51
254.99999999999906
0
LINE
5
332
100
AcDbEntity
8
0
100
AcDbLine
10
74.645460857335792
20
11.632469929159653
30
0
11
71.280813257335822
21
24.189505729159599
31
0
0
LINE
5
333
100
AcDbEntity
8
0
100
AcDbLine
10
79.22241025733581
20
-7.3807894708402664
30
0
11
66.665374457335886
21
-10.745437070840243
31
0
0
ARC
5
334
100
AcDbEntity
8
0
100
AcDbCircle
10
123.30448115733562
20
-1.3148169708403024
30
0
40
0.5000000000000111
210
0
220
0
230
1
100
AcDbArc
50
105.00000000000256
51
194.99999999999881
0
ARC
5
335
100
AcDbEntity
8
0
100
AcDbCircle
10
92.332606157335732
20
-32.933301870840147
30
0
40
0.49999999999998568
210
0
220
0
230
1
100
AcDbArc
50
194.9999999999992
51
284.99999999999977
0
LINE
5
336
100
AcDbEntity
8
0
100
AcDbLine
10
238.14577039797157
20
-47.22886438602746
30
0
11
241.51041799797159
21
-34.671828586027509
31
0
0
ARC
5
337
100
AcDbEntity
8
0
100
AcDbCircle
10
130.93101415733557
20
20.45071762915958
30
0
40
0.50000000000000744
210
0
220
-0
230
1
100
AcDbArc
50
15.000000000000338
51
105.00000000000411
0
ARC
5
338
100
AcDbEntity
8
0
100
AcDbCircle
10
79.106952957335821
20
16.425507929159611
30
0
40
0.50000000000000289
210
0
220
0
230
1
100
AcDbArc
50
104.99999999999939
51
195.00000000000074
0
ARC
5
339
100
AcDbEntity
8
0
100
AcDbCircle
10
95.028636357335728
20
7.233119729159676
30
0
40
0.50000000000000178
210
-0
220
0
230
1
100
AcDbArc
50
-75.000000000002146
51
14.99999999999879
0
LINE
5
340
100
AcDbEntity
8
0
100
AcDbLine
10
208.68717319797167
20
-29.474451486027526
30
0
11
212.05182079797166
21
-16.917415686027553
31
0
0
ARC
5
341
100
AcDbEntity
8
0
100
AcDbCircle
10
104.90359415733566
20
-6.2453197708402612
30
0
40
0.49999999999998929
210
0
220
0
230
1
100
AcDbArc
50
104.99999999999993
51
195.00000000000119
0
ARC
5
342
100
AcDbEntity
8
0
100
AcDbCircle
10
185.8247941979717
20
-19.750910686027545
30
0
40
0.50000000000000289
210
-0
220
0
230
1
100
AcDbArc
50
-14.999999999998355
51
74.999999999995893
0
ARC
5
343
100
AcDbEntity
8
0
100
AcDbCircle
10
134.29566175733555
20
7.893681829159668
30
0
40
0.50000000000000178
210
-0
220
0
230
1
100
AcDbArc
50
-75.000000000002146
51
14.999999999998373
0
LINE
5
344
100
AcDbEntity
8
0
100
AcDbLine
10
74.291907457335796
20
11.020097529159647
30
0
11
61.734871657335866
21
7.65544992915967
31
0
0
ARC
5
345
100
AcDbEntity
8
0
100
AcDbCircle
10
87.402103357335719
20
-14.53241487084024
30
0
40
0.50000000000000511
210
0
220
0
230
1
100
AcDbArc
50
194.99999999999977
51
284.99999999999989
0
ARC
5
346
100
AcDbEntity
8
0
100
AcDbCircle
10
121.73862595733561
20
4.5290342291596728
30
0
40
0.50000000000000289
210
0
220
0
230
1
100
AcDbArc
50
194.99999999999881
51
285.00000000000307
0
ARC
5
347
100
AcDbEntity
8
0
100
AcDbCircle
10
88.967958557335734
20
-20.376266070840209
30
0
40
0.49999999999999428
210
0
220
0
230
1
100
AcDbArc
50
104.99999999999801
51
194.99999999999955
0
ARC
5
348
100
AcDbEntity
8
0
100
AcDbCircle
10
80.658855957335817
20
-12.741677770840237
30
0
40
0.50000000000000511
210
0
220
-0
230
1
100
AcDbArc
50
14.99999999999997
51
104.9999999999996
0
LINE
5
349
100
AcDbEntity
8
0
100
AcDbLine
10
107.78527885733564
20
-18.931765070840218
30
0
11
104.4206312573357
21
-6.3747292708402696
31
0
0
ARC
5
350
100
AcDbEntity
8
0
100
AcDbCircle
10
174.83361359797175
20
-10.542411886027567
30
0
40
0.50000000000000289
210
0
220
0
230
1
100
AcDbArc
50
165.00000000000165
51
255.00000000000222
0
ARC
5
351
100
AcDbEntity
8
0
100
AcDbCircle
10
84.037455757335792
20
-1.9753790708402941
30
0
40
0.50000000000000233
210
0
220
0
230
1
100
AcDbArc
50
104.99999999999939
51
194.99999999999829
0
LINE
5
352
100
AcDbEntity
8
0
100
AcDbLine
10
220.29072619797162
20
-38.329396886027489
30
0
11
207.73369039797163
21
-34.964749286027505
31
0
0
LINE
5
353
100
AcDbEntity
8
0
100
AcDbLine
10
126.18616585733557
20
-14.001262270840231
30
0
11
122.82151825733558
21
-1.444226470840293
31
0
0
LINE
5
354
100
AcDbEntity
8
0
100
AcDbLine
10
75.598943657335823
20
6.1421721291596647
30
0
11
63.041907857335815
21
2.7775245291596873
31
0
0
ARC
5
355
100
AcDbEntity
8
0
100
AcDbCircle
10
228.4704192979716
20
-31.177771486027517
30
0
40
0.50000000000000355
210
0
220
-0
230
1
100
AcDbArc
50
74.999999999995694
51
164.99999999999918
0
ARC
5
356
100
AcDbEntity
8
0
100
AcDbCircle
10
112.53012715733564
20
15.520214829159604
30
0
40
0.50000000000000744
210
0
220
-0
230
1
100
AcDbArc
50
15.000000000000338
51
104.99999999999785
0
LINE
5
357
100
AcDbEntity
8
0
100
AcDbLine
10
246.08736739797155
20
-15.658569186027567
30
0
11
233.53033159797155
21
-12.293921586027565
31
0
0
LINE
5
358
100
AcDbEntity
8
0
100
AcDbLine
10
66.053002057335874
20
-10.391883670840237
30
0
11
62.688354457335862
21
2.1651521291596825
31
0
0
ARC
5
359
100
AcDbEntity
8
0
100
AcDbCircle
10
242.59331029797156
20
-28.698567886027526
30
0
40
0.50000000000001199
210
0
220
0
230
1
100
AcDbArc
50
254.99999999999906
51
344.9999999999992
0
LINE
5
360
100
AcDbEntity
8
0
100
AcDbLine
10
63.286774657335876
20
-21.511735770840183
30
0
11
50.729738857335903
21
-24.876383370840173
31
0
0
LINE
5
361
100
AcDbEntity
8
0
100
AcDbLine
10
121.25566305733562
20
4.3996247291596822
30
0
11
117.89101545733564
21
16.956660529159613
31
0
0
ARC
5
362
100
AcDbEntity
8
0
100
AcDbCircle
10
99.959139157335699
20
-11.167767270840246
30
0
40
0.49999999999999678
210
-0
220
0
230
1
100
AcDbArc
50
-74.999999999998693
51
14.999999999999357
0
LINE
5
363
100
AcDbEntity
8
0
100
AcDbLine
10
182.9431094979717
20
-32.437355986027505
30
0
11
186.30775709797174
21
-19.880320186027554
31
0
0
ARC
5
364
100
AcDbEntity
8
0
100
AcDbCircle
10
42.305178957335947
20
6.5645023291596765
30
0
40
0.50000000000000178
210
0
220
0
230
1
100
AcDbArc
50
104.99999999999865
51
194.99999999999858
0
ARC
5
365
100
AcDbEntity
8
0
100
AcDbCircle
10
117.46062995733564
20
-2.8806721708403016
30
0
40
0.49999999999999034
210
0
220
-0
230
1
100
AcDbArc
50
15.000000000001174
51
105.00000000000411
0
LINE
5
366
100
AcDbEntity
8
0
100
AcDbLine
10
242.46390079797155
20
-29.181530786027523
30
0
11
229.90686499797161
21
-25.816883186027528
31
0
0
ARC
5
367
100
AcDbEntity
8
0
100
AcDbCircle
10
182.46014659797171
20
-32.307946486027497
30
0
40
0.50000000000000289
210
0
220
0
230
1
100
AcDbArc
50
255.00000000000222
51
345.00000000000011
0
ARC
5
368
100
AcDbEntity
8
0
100
AcDbCircle
10
79.093000757335801
20
-6.8978265708402784
30
0
40
0.49999999999998568
210
-0
220
0
230
1
100
AcDbArc
50
-75.000000000001648
51
15.00000000000056
0
LINE
5
369
100
AcDbEntity
8
0
100
AcDbLine
10
86.919140457335757
20
-14.661824370840231
30
0
11
83.554492857335788
21
-2.104788570840284
31
0
0
LINE
5
370
100
AcDbEntity
8
0
100
AcDbLine
10
55.04786925733589
20
-42.923716970840076
30
0
11
51.683221657335906
21
-30.366681170840142
31
0
0
LINE
5
371
100
AcDbEntity
8
0
100
AcDbLine
10
116.02418425733561
20
2.480216129159678
30
0
11
103.46714845733571
21
-0.88443147084029961
31
0
0
LINE
5
372
100
AcDbEntity
8
0
100
AcDbLine
10
203.75667039797167
20
-47.875338486027474
30
0
11
207.12131799797163
21
-35.318302686027501
31
0
0
LINE
5
373
100
AcDbEntity
8
0
100
AcDbLine
10
50.117366457335947
20
-24.522829970840164
30
0
11
46.752718857335942
21
-11.965794170840226
31
0
0
LINE
5
374
100
AcDbEntity
8
0
100
AcDbLine
10
64.593810857335825
20
-26.389661170840174
30
0
11
52.03677505733593
21
-29.754308770840154
31
0
0
ARC
5
375
100
AcDbEntity
8
0
100
AcDbCircle
10
75.728353157335832
20
5.6592092291596687
30
0
40
0.50000000000000255
210
0
220
-0
230
1
100
AcDbArc
50
14.999999999998691
51
104.99999999999993
0
LINE
5
376
100
AcDbEntity
8
0
100
AcDbLine
10
96.465082057335707
20
1.8722314291596975
30
0
11
83.908046257335741
21
-1.4924161708402979
31
0
0
LINE
5
377
100
AcDbEntity
8
0
100
AcDbLine
10
263.33003919797147
20
-24.911590086027537
30
0
11
250.77300339797154
21
-21.546942486027547
31
0
0
ARC
5
378
100
AcDbEntity
8
0
100
AcDbCircle
10
64.723220357335833
20
-26.872624070840171
30
0
40
0.50000000000000744
210
0
220
-0
230
1
100
AcDbArc
50
15.000000000000338
51
104.99999999999781
0
ARC
5
379
100
AcDbEntity
8
0
100
AcDbCircle
10
245.97191009797154
20
-39.464866586027497
30
0
40
0.50000000000000511
210
0
220
0
230
1
100
AcDbArc
50
165.00000000000006
51
254.99999999999838
0
ARC
5
380
100
AcDbEntity
8
0
100
AcDbCircle
10
74.16249795733583
20
11.503060429159644
30
0
40
0.50000000000000289
210
-0
220
0
230
1
100
AcDbArc
50
-75.000000000002203
51
15.000000000000757
0
LINE
5
381
100
AcDbEntity
8
0
100
AcDbLine
10
58.356271857335884
20
-3.1108487708402901
30
0
11
45.799236057335911
21
-6.4754963708402489
31
0
0
ARC
5
382
100
AcDbEntity
8
0
100
AcDbCircle
10
237.66280749797158
20
-47.099454886027473
30
0
40
0.49999999999999428
210
0
220
0
230
1
100
AcDbArc
50
254.99999999999858
51
345.0000000000008
0
LINE
5
383
100
AcDbEntity
8
0
100
AcDbLine
10
174.35065069797176
20
-10.413002386027577
30
0
11
177.71529829797177
21
2.1440334139723838
31
0
0
LINE
5
384
100
AcDbEntity
8
0
100
AcDbLine
10
245.48894719797153
20
-39.335457086027496
30
0
11
248.85359479797154
21
-26.778421286027545
31
0
0
ARC
5
385
100
AcDbEntity
8
0
100
AcDbCircle
10
115.89477475733563
20
2.963179029159674
30
0
40
0.49999999999998462
210
-0
220
0
230
1
100
AcDbArc
50
-75.000000000000071
51
15.000000000000242
0
ARC
5
386
100
AcDbEntity
8
0
100
AcDbCircle
10
212.53478369797165
20
-17.046825186027561
30
0
40
0.49999999999999428
210
0
220
-0
230
1
100
AcDbArc
50
75.000000000001876
51
165.00000000000085
0
LINE
5
387
100
AcDbEntity
8
0
100
AcDbLine
10
200.73162409797166
20
-37.721412186027493
30
0
11
188.17458829797172
21
-34.356764586027495
31
0
0
LINE
5
388
100
AcDbEntity
8
0
100
AcDbLine
10
70.983504857335831
20
-28.792770670840156
30
0
11
67.618857257335847
21
-16.235734870840211
31
0
0
LINE
5
389
100
AcDbEntity
8
0
100
AcDbLine
10
206.27449929797166
20
-18.966971786027536
30
0
11
209.63914689797164
21
-6.409935986027584
31
0
0
LINE
5
390
100
AcDbEntity
8
0
100
AcDbLine
10
81.988637657335758
20
3.7390626291596729
30
0
11
78.623990057335817
21
16.29609842915962
31
0
0
LINE
5
391
100
AcDbEntity
8
0
100
AcDbLine
10
263.9424115979715
20
-24.558036686027542
30
0
11
267.30705919797151
21
-12.001000886027589
31
0
0
ARC
5
392
100
AcDbEntity
8
0
100
AcDbCircle
10
209.17013609797166
20
-29.603860986027513
30
0
40
0.50000000000000289
210
0
220
0
230
1
100
AcDbArc
50
165.00000000000165
51
254.99999999999588
0
LINE
5
393
100
AcDbEntity
8
0
100
AcDbLine
10
229.55331159797163
20
-25.204510786027541
30
0
11
232.91795919797158
21
-12.647474986027563
31
0
0
ARC
5
394
100
AcDbEntity
8
0
100
AcDbCircle
10
108.26824175733563
20
-18.802355570840216
30
0
40
0.50000000000000511
210
0
220
0
230
1
100
AcDbArc
50
194.99999999999952
51
284.99999999999818
0
LINE
5
395
100
AcDbEntity
8
0
100
AcDbLine
10
91.53457925733575
20
20.273118429159602
30
0
11
78.977543457335813
21
16.908470829159608
31
0
0
LINE
5
396
100
AcDbEntity
8
0
100
AcDbLine
10
222.21013479797162
20
-33.097918086027519
30
0
11
225.57478239797163
21
-20.540882286027546
31
0
0
ARC
5
397
100
AcDbEntity
8
0
100
AcDbCircle
10
63.171317357335859
20
2.2945616291596909
30
0
40
0.49999999999998518
210
0
220
0
230
1
100
AcDbArc
50
104.99999999999913
51
195.00000000000054
0
ARC
5
398
100
AcDbEntity
8
0
100
AcDbCircle
10
221.72717189797163
20
-32.968508586027511
30
0
40
0.50000000000000289
210
0
220
0
230
1
100
AcDbArc
50
254.99999999999883
51
344.9999999999992
0
ARC
5
399
100
AcDbEntity
8
0
100
AcDbCircle
10
200.86103359797167
20
-37.238449286027503
30
0
40
0.49999999999999428
210
0
220
0
230
1
100
AcDbArc
50
255.00000000000173
51
345.0000000000008
0
LINE
5
400
100
AcDbEntity
8
0
100
AcDbLine
10
259.0119087979715
20
-42.958923686027489
30
0
11
262.37655639797151
21
-30.401887886027534
31
0
0
ARC
5
401
100
AcDbEntity
8
0
100
AcDbCircle
10
173.26775839797176
20
-16.386263086027554
30
0
40
0.49999999999999489
210
0
220
-0
230
1
100
AcDbArc
50
74.999999999998579
51
165.00000000000165
0
ARC
5
402
100
AcDbEntity
8
0
100
AcDbCircle
10
249.33655769797156
20
-26.907830786027542
30
0
40
0.49999999999999428
210
0
220
-0
230
1
100
AcDbArc
50
75.000000000001876
51
165.00000000000048
0
LINE
5
403
100
AcDbEntity
8
0
100
AcDbLine
10
250.41944999797155
20
-20.934570086027556
30
0
11
253.78409759797154
21
-8.377534286027597
31
0
0
LINE
5
404
100
AcDbEntity
8
0
100
AcDbLine
10
58.709825257335872
20
-2.4984763708402857
30
0
11
55.345177657335903
21
10.058559429159661
31
0
0
LINE
5
405
100
AcDbEntity
8
0
100
AcDbLine
10
68.217277457335854
20
-39.912622770840102
30
0
11
55.660241657335902
21
-43.277270370840071
31
0
0
ARC
5
406
100
AcDbEntity
8
0
100
AcDbCircle
10
120.8252775573356
20
-15.43770797084022
30
0
40
0.49999999999999428
210
-0
220
0
230
1
100
AcDbArc
50
-75.000000000000369
51
14.999999999999357
0
LINE
5
407
100
AcDbEntity
8
0
100
AcDbLine
10
217.27963199797162
20
-51.498805086027453
30
0
11
220.6442795979716
21
-38.941769286027494
31
0
0
LINE
5
408
100
AcDbEntity
8
0
100
AcDbLine
10
63.640328057335864
20
-20.899363370840188
30
0
11
60.275680457335895
21
-8.3423275708402596
31
0
0
ARC
5
409
100
AcDbEntity
8
0
100
AcDbCircle
10
216.79666909797163
20
-51.369395586027451
30
0
40
0.49999999999999428
210
0
220
0
230
1
100
AcDbArc
50
255.00000000000196
51
345.0000000000008
0
LINE
5
410
100
AcDbEntity
8
0
100
AcDbLine
10
224.62280879797163
20
-43.605397786027481
30
0
11
227.98745639797161
21
-31.048361986027508
31
0
0
ARC
5
411
100
AcDbEntity
8
0
100
AcDbCircle
10
101.52499435733571
20
-17.011618470840219
30
0
40
0.50000000000000511
210
0
220
-0
230
1
100
AcDbArc
50
14.999999999999554
51
105.00000000000128
0
LINE
5
412
100
AcDbEntity
8
0
100
AcDbLine
10
262.0230029979715
20
-29.789515486027529
30
0
11
249.46596719797154
21
-26.424867886027545
31
0
0
LINE
5
413
100
AcDbEntity
8
0
100
AcDbLine
10
95.158045857335736
20
6.7501568291596623
30
0
11
82.601010057335799
21
3.3855092291596849
31
0
0
ARC
5
414
100
AcDbEntity
8
0
100
AcDbCircle
10
68.101820157335851
20
-16.106325370840214
30
0
40
0.49999999999999428
210
0
220
0
230
1
100
AcDbArc
50
104.99999999999964
51
195.00000000000003
0
LINE
5
415
100
AcDbEntity
8
0
100
AcDbLine
10
70.66844085733581
20
24.543059129159566
30
0
11
58.111405057335894
21
21.178411529159593
31
0
0
LINE
5
416
100
AcDbEntity
8
0
100
AcDbLine
10
91.849643257335757
20
-33.062711370840155
30
0
11
88.484995657335745
21
-20.505675570840207
31
0
0
ARC
5
417
100
AcDbEntity
8
0
100
AcDbCircle
10
250.90241289797152
20
-21.063979586027557
30
0
40
0.49999999999997091
210
0
220
0
230
1
100
AcDbArc
50
164.99999999999918
51
255.00000000000162
0
LINE
5
418
100
AcDbEntity
8
0
100
AcDbLine
10
98.039566069744168
20
-54.231966336655915
30
0
11
97.556603156581019
21
-54.36137585913761
31
0
0
LINE
5
419
100
AcDbEntity
8
0
100
AcDbLine
10
187.26123987542047
20
-14.390022399172082
30
0
11
174.70420407542051
21
-11.025374799172107
31
0
0
LINE
5
420
100
AcDbEntity
8
0
100
AcDbLine
10
190.88470652052303
20
-0.86706077288306815
30
0
11
178.32767072039167
21
2.4975868269360419
31
0
0
CIRCLE
5
421
100
AcDbEntity
8
0
100
AcDbCircle
10
222.48928719064364
20
-47.236707091189643
30
0
40
3.0000000000000089
210
0
220
0
230
1
0
CIRCLE
5
422
100
AcDbEntity
8
0
100
AcDbCircle
10
222.48928719064364
20
-47.236707091189643
30
0
40
1.2500000000000058
210
0
220
0
230
1
0
CIRCLE
5
423
100
AcDbEntity
8
0
100
AcDbCircle
10
222.48928719064364
20
-47.236707091189643
30
0
40
1.5999999999999914
210
0
220
0
230
1
0
CIRCLE
5
424
100
AcDbEntity
8
0
100
AcDbCircle
10
91.568938193247092
20
-47.298411363823753
30
0
40
3.0000000000000089
210
0
220
0
230
1
0
CIRCLE
5
425
100
AcDbEntity
8
0
100
AcDbCircle
10
91.568938193247092
20
-47.298411363823753
30
0
40
1.2500000000000058
210
0
220
0
230
1
0
CIRCLE
5
426
100
AcDbEntity
8
0
100
AcDbCircle
10
91.568938193247092
20
-47.298411363823753
30
0
40
1.5999999999999914
210
0
220
0
230
1
0
CIRCLE
5
427
100
AcDbEntity
8
0
100
AcDbCircle
10
222.48928719064364
20
-47.236707091189643
30
0
40
3.0000000000000089
210
0
220
0
230
1
0
CIRCLE
5
428
100
AcDbEntity
8
0
100
AcDbCircle
10
222.48928719064364
20
-47.236707091189643
30
0
40
1.2500000000000058
210
0
220
0
230
1
0
CIRCLE
5
429
100
AcDbEntity
8
0
100
AcDbCircle
10
222.48928719064364
20
-47.236707091189643
30
0
40
1.5999999999999914
210
0
220
0
230
1
0
CIRCLE
5
430
100
AcDbEntity
8
0
100
AcDbCircle
10
155.55426303045448
20
57.829781418562909
30
0
40
3.0000000000000089
210
0
220
0
230
1
0
CIRCLE
5
431
100
AcDbEntity
8
0
100
AcDbCircle
10
155.55426303045448
20
57.829781418562909
30
0
40
1.2500000000000058
210
0
220
0
230
1
0
CIRCLE
5
432
100
AcDbEntity
8
0
100
AcDbCircle
10
155.55426303045448
20
57.829781418562909
30
0
40
1.5999999999999914
210
0
220
0
230
1
0
CIRCLE
5
433
100
AcDbEntity
8
0
100
AcDbCircle
10
232.30984071392132
20
29.384611024048564
30
0
40
3.0000000000000089
210
0
220
0
230
1
0
CIRCLE
5
434
100
AcDbEntity
8
0
100
AcDbCircle
10
232.30984071392132
20
29.384611024048564
30
0
40
1.2500000000000058
210
0
220
0
230
1
0
CIRCLE
5
435
100
AcDbEntity
8
0
100
AcDbCircle
10
232.30984071392132
20
29.384611024048564
30
0
40
1.5999999999999914
210
0
220
0
230
1
0
CIRCLE
5
436
100
AcDbEntity
8
0
100
AcDbCircle
10
81.788675458083503
20
28.102745821510666
30
0
40
3.0000000000000089
210
0
220
0
230
1
0
CIRCLE
5
437
100
AcDbEntity
8
0
100
AcDbCircle
10
81.788675458083503
20
28.102745821510666
30
0
40
1.2500000000000058
210
0
220
0
230
1
0
CIRCLE
5
438
100
AcDbEntity
8
0
100
AcDbCircle
10
81.788675458083503
20
28.102745821510666
30
0
40
1.5999999999999914
210
0
220
0
230
1
0
LWPOLYLINE
5
439
100
AcDbEntity
8
0
100
AcDbPolyline
90
43
70
1
43
0.0
10
267.68914844276645
20
-31.825392633326139
10
272.61965124311388
20
-13.424505632029451
10
274.1855064438605
20
-7.5806544292431219
10
277.55015404276639
20
4.9763813666737713
10
278.14053593028945
20
7.17971656804772
10
258.41248097127874
20
25.970368848670379
10
227.54547302037838
20
44.058646251662111
10
216.27874050698455
20
50.563497329583036
10
211.0392868005431
20
53.588497333302058
10
199.7809566069846
20
60.088497329583063
10
194.54150277907144
20
63.113497345698732
10
182.60310833230375
20
70.006132623352073
10
131.54935428908814
20
70.596995682019482
10
119.5787335483227
20
63.685754544770205
10
114.33927985476423
20
60.660754548489209
10
103.08094964832279
20
54.160754544770278
10
97.841495954764326
20
51.135754548489246
10
86.559034197111714
20
44.621822187121708
10
55.633978403249884
20
25.992889639999554
10
35.919242123576176
20
7.2149232886161236
10
36.50962401254106
20
5.0115880818610981
10
39.874271612541023
20
-7.545447718138842
10
41.440126811446959
20
-13.38929891405574
10
44.804774412541015
20
-25.946334718138758
10
46.370629611446923
20
-31.790185914055638
10
49.73527721254095
20
-44.34722171813867
10
50.331608970899637
20
-46.572762139782505
10
97.611668831706993
20
-57.452449597075805
10
98.81602320463432
20
-57.129743815634974
10
112.96538438046836
20
-53.338433917338506
10
116.34398418046837
20
-42.572135217338563
10
127.30869460463418
20
-39.634149915635064
10
133.15254580055102
20
-38.068294716729135
10
138.5350599596062
20
-36.626054395392231
10
175.39332494577977
20
-36.626054395392288
10
180.90723235067301
20
-38.103501430822405
10
186.75108355475624
20
-39.669356631916493
10
197.71579395888858
20
-42.60734192825204
10
201.09439365888861
20
-53.373640628252012
10
215.24375485067304
20
-57.164950530822395
10
216.4481092236004
20
-57.487656312263233
10
263.72816908440774
20
-46.607968854969918
10
264.32450084276644
20
-44.382428433326062
0
LWPOLYLINE
5
440
100
AcDbEntity
8
0
100
AcDbPolyline
90
43
70
1
43
0.0
10
113.75497855070978
20
-54.162138977566023
10
99.074842249597708
20
-58.095669641961322
10
97.630024056748965
20
-58.482807509721866
10
49.52132388986562
20
-47.41244035423945
10
48.769351386214609
20
-44.606040763102051
10
45.404703785120574
20
-32.049004959019022
10
43.838848585849981
20
-26.205153761741109
10
40.474200985120618
20
-13.648117959019119
10
38.908345785849981
20
-7.8042667617411965
10
35.543698186214705
20
4.7527690368977193
10
34.799658841755424
20
7.5295616748500338
10
55.023852056024026
20
26.792777488340921
10
86.050990345069039
20
45.483203470743689
10
97.341495953125602
20
52.001779951327578
10
102.58094964883125
20
55.026779948848272
10
113.83927985312552
20
61.526779951327541
10
119.07873354883115
20
64.551779948848193
10
131.28678446770459
20
71.600101463940888
10
182.87642024238212
20
71.003036457446754
10
195.04150278071012
20
63.979522748537065
10
200.28095659931893
20
60.95452273779329
10
211.53928680218178
20
54.454522736140383
10
216.77874050647608
20
51.429522733661031
10
228.04827379314918
20
44.92305462852633
10
259.01816772491162
20
26.774485338297815
10
279.26011921162956
20
7.4943549524879218
10
278.51607986909278
20
4.7175623217103908
10
275.15143227018683
20
-7.8394734742065015
10
273.58557706980491
20
-13.683324675631805
10
268.65507426920863
20
-32.084211677857276
10
265.29042666909277
20
-44.641247478289444
10
264.53845416544175
20
-47.447647069426857
10
216.42975399855843
20
-58.518014224909294
10
214.98493580570965
20
-58.130876357148736
10
200.30479948333038
20
-54.197345687054892
10
196.92619978333033
20
-43.43104698705492
10
186.49226450979285
20
-40.635282458242834
10
180.64841330707065
20
-39.069427257513446
10
175.26167244826564
20
-37.626054395392288
10
138.6667124571203
20
-37.626054395392231
10
133.41136484551441
20
-39.03422054305549
10
127.56751364823654
20
-40.600075742326105
10
117.1335783507098
20
-43.39584027756608
0
LWPOLYLINE
5
441
100
AcDbEntity
8
0
100
AcDbPolyline
90
43
70
1
43
0.0
10
178.31904191464952
20
-47.76275969773279
10
174.07679997063826
20
-46.626054395392281
10
139.85158493474742
20
-46.626054395392231
10
135.74073625018485
20
-47.727552979992645
10
129.89688504065771
20
-49.293408182545434
10
124.23992588288259
20
-50.809185819613745
10
120.86132608288258
20
-61.575484519613688
10
101.40421365426812
20
-66.789002078898477
10
97.795221082126901
20
-67.75602872353646
10
42.228758160559437
20
-54.969544284351826
10
40.076018949277447
20
-46.935412167772476
10
36.711371348183405
20
-34.378376363689434
10
35.14551614563063
20
-28.534525154162246
10
31.780868548183456
20
-15.977489363689546
10
30.215013345630652
20
-10.133638154162377
10
26.850365749277543
20
2.4233976322273132
10
24.72340930536868
20
10.36130715095522
10
49.532714930991339
20
33.991768123413159
10
81.478595676686879
20
53.235635023342653
10
92.84149593837725
20
59.796008576872552
10
98.080949653407316
20
62.821008585550224
10
109.33927983837714
20
69.321008576872515
10
114.57873355340729
20
72.34600858555018
10
128.92365607525275
20
80.628053501233694
10
185.33622743308786
20
79.975170964298812
10
199.54150279545854
20
71.773751374082025
10
204.78095653032764
20
68.748751411685362
10
216.0392868169302
20
62.248751361685343
10
221.27874050190002
20
59.22375137036299
10
232.57348074807354
20
52.702730020311662
10
264.46934850760817
20
34.011533744944309
10
289.3363687436908
20
10.326100412449826
10
287.20941230602995
20
2.3881909170399784
10
283.844764707124
20
-10.168844878876918
10
282.27890951002428
20
-16.012696068052993
10
277.34840670718813
20
-34.413583078637508
10
273.98375910602994
20
-46.970618882959897
10
271.83101989474801
20
-55.004750999539233
10
216.2645569731805
20
-67.791235438723888
10
212.65556440103921
20
-66.824208794085905
10
193.19845190330648
20
-61.610691216280891
10
189.81985220330643
20
-50.844392516280919
10
184.16289310512241
20
-49.328614895180003
0
LWPOLYLINE
5
442
100
AcDbEntity
8
0
100
AcDbPolyline
90
43
70
1
43
0.0
10
181.55427995967887
20
-35.688686864094812
10
175.72245618956515
20
-34.126054395392288
10
138.2059287158209
20
-34.126054395392224
10
132.50549818814258
20
-35.653480150913261
10
126.6616469956283
20
-37.219335348907471
10
114.36999875486481
20
-40.512872566769772
10
110.99139895486482
20
-51.279171266769708
10
98.168975592225877
20
-54.714929249819093
10
97.56578076910202
20
-54.876554815460636
10
52.357321673484691
20
-44.473566603640165
10
52.150091778356831
20
-43.700174105730213
10
48.785444177262804
20
-31.143138301647191
10
47.219588979268607
20
-25.299287109132887
10
43.85494137726284
20
-12.742251301647286
10
42.289086179268615
20
-6.8984001091329583
10
38.924438578356934
20
5.6586356942695453
10
38.718200328128056
20
6.4283273230313505
10
57.15929427131455
20
23.993170019146177
10
87.829143827217635
20
42.468368978066302
10
99.091495958861088
20
48.970691041393422
10
104.33094964705164
20
51.995691034575287
10
115.589279858861
20
58.495691041393378
10
120.82873354705156
20
61.520691034575208
10
132.20577884254698
20
68.089231227215933
10
181.91982855710768
20
67.513873038115392
10
193.29150277497465
20
60.948433838602909
10
198.53095662614885
20
57.923433809057485
10
209.78928679644633
20
51.423433826206235
10
215.02874050825568
20
48.398433819388053
10
226.2884710884548
20
41.897625309499617
10
256.89826408719637
20
23.960077624601915
10
275.34157772693908
20
6.3931206069472051
10
275.13533947695055
20
5.6234289790822203
10
271.7706918780446
20
-6.9336068168346729
10
270.20483667638632
20
-12.777458023023565
10
265.27433387666099
20
-31.178345021998297
10
261.90968627695054
20
-43.735380820917612
10
261.70245638182269
20
-44.508773318827586
10
216.49399728620537
20
-54.911761530648072
10
215.89080246308151
20
-54.750135965006514
10
203.06837909778412
20
-51.314377981244789
10
199.68977939778409
20
-40.548079281244817
10
187.39813116716465
20
-37.254542066100612
0
LWPOLYLINE
5
443
100
AcDbEntity
8
0
100
AcDbPolyline
90
4
70
1
43
0.0
10
165.9948066520584
20
-36.488155825078337
10
147.9948066520584
20
-36.488155825078337
10
147.9948066520584
20
-12.988155825078337
10
165.9948066520584
20
-12.988155825078337
0
LINE
5
444
100
AcDbEntity
8
0
100
AcDbLine
10
166.9948066520584
20
-11.988155825078337
30
0
11
166.9948066520584
21
-33.5000004991889
31
0
0
LINE
5
445
100
AcDbEntity
8
0
100
AcDbLine
10
146.9948066520584
20
-33.441480972467794
30
0
11
146.9948066520584
21
-11.988155825078337
31
0
0
LINE
5
446
100
AcDbEntity
8
0
100
AcDbLine
10
146.9948066520584
20
-11.988155825078337
30
0
11
166.9948066520584
21
-11.988155825078337
31
0
0
LINE
5
447
100
AcDbEntity
8
0
100
AcDbLine
10
167.01026413305971
20
-34.126054395392259
30
0
11
167.01026413305968
21
-46.626054395392273
31
0
0
LINE
5
448
100
AcDbEntity
8
0
100
AcDbLine
10
147.04925208913957
20
-34.126054395392238
30
0
11
147.04925208913954
21
-46.626054395392238
31
0
0
LINE
5
449
100
AcDbEntity
8
0
100
AcDbLine
10
110.59660186974411
20
-50.867318736655946
30
0
11
98.039566069744183
21
-54.23196633665593
31
0
0
LINE
5
450
100
AcDbEntity
8
0
100
AcDbLine
10
112.7179222231515
20
-47.193084158431624
30
0
11
109.35327462315155
21
-34.636048358431701
31
0
0
ENDSEC
0
SECTION
2
OBJECTS
0
DICTIONARY
5
C
100
AcDbDictionary
3
ACAD_GROUP
350
D
3
ACAD_MLINESTYLE
350
17
0
DICTIONARY
5
D
100
AcDbDictionary
0
DICTIONARY
5
1A
330
C
100
AcDbDictionary
0
DICTIONARY
5
17
100
AcDbDictionary
0
ENDSEC
0
EOF
